<svg width="140" height="200" fill="none" xmlns="http://www.w3.org/2000/svg"><path d="M110 107V93l6.5 7-6.5 7zm-80 0V93l-6.5 7 6.5 7zm0-14v14l39.978-42-6.478-6.799-33.5 34.8zm86.5-77l-6.5-6-39.987 41.45 6.46 6.709L116.5 16z" fill="#120918"/><path d="M110 93v14l-80 83.159L23.5 184 110 93z" fill="#120918"/><path d="M30 93v14l80 83.119 6.5-6L30 93zm-6.5-76.88L30 9.96l40.013 41.496-6.513 6.737-40-42.074z" fill="#120918"/><path d="M63.5 58.193l6.513-6.737 6.462 6.702L69.972 65 63.5 58.193z" fill="#120918"/><path d="M110 93v14L69.972 65l6.503-6.842L110 93z" fill="#120918"/></svg>