<svg width="140" height="200" fill="none" xmlns="http://www.w3.org/2000/svg"><path fill="#FFE500" d="M20 10h10v180H20zm90 0h10v47.247l-10-5.207V10z"/><path d="M110 52.038l10 5.204V190h-10V52.038zM30 93v14l39.978-42-6.478-6.799-33.5 34.8zm86.5-77l-6.5-6-39.987 41.45 6.46 6.709L116.5 16zm-93 .12L30 9.96l40.013 41.496-6.513 6.737-40-42.074z" fill="#FFE500"/><path d="M63.5 58.193l6.513-6.737 6.462 6.702L69.972 65 63.5 58.193z" fill="#FFE500"/><path d="M110 93v14L69.972 65l6.503-6.842L110 93z" fill="#FFE500"/><path opacity=".1" d="M110 63.321v17.264L116 72l-6-8.679z" fill="#FFE500"/></svg>