<svg width="140" height="200" fill="none" xmlns="http://www.w3.org/2000/svg"><path d="M110 63.321v17.264L116 72l-6-8.679zm-80 .01v17.26L24 72l6-8.669zm80 17.267L66 18l6.5-8L110 63.324v17.274z" fill="#120918"/><path d="M72.5 10h-5l2.5 4 2.5-4zM110 64l-46 64 6 8.5 40-55.905V64z" fill="#120918"/><path d="M106 188l8-6-44-62.5v17.267L106 188zM30 80.598L74 18l-6.5-8L30 63.324v17.274z" fill="#120918"/><path d="M30 64l46 64-6 8.5-40-55.905V64z" fill="#120918"/><path d="M34.015 188l-8-6 44-62.5v17.266l-36 51.234z" fill="#120918"/></svg>