<svg width="25" height="25" fill="none" xmlns="http://www.w3.org/2000/svg"><path fill-rule="evenodd" clip-rule="evenodd" d="M1.302 22.698a1.032 1.032 0 01-.268-.992l1.824-6.93c.046-.177.139-.338.268-.468L15.528 1.907a3.095 3.095 0 014.377 0l2.188 2.188a3.095 3.095 0 010 4.377L9.692 20.874c-.13.13-.29.222-.467.268l-6.93 1.824a1.032 1.032 0 01-.993-.268zM3.48 20.52l3.483-.916-2.567-2.566-.916 3.482zm1.835-5.482l3.647 3.647 8.025-8.024-3.648-3.648-8.024 8.025zm9.483-9.484l3.648 3.648 2.188-2.189a1.032 1.032 0 000-1.459l-2.188-2.188a1.032 1.032 0 00-1.46 0l-2.188 2.188z" fill="#000"/></svg>