<svg width="18" height="16" fill="none" xmlns="http://www.w3.org/2000/svg"><path fill-rule="evenodd" clip-rule="evenodd" d="M9.03 2.666c-1.68 0-3.352.497-4.76 1.414a8.777 8.777 0 00-3.21 3.786L1 8l.06.134a8.768 8.768 0 003.212 3.786 8.774 8.774 0 004.758 1.413c1.68 0 3.352-.496 4.76-1.413a8.772 8.772 0 003.211-3.786l.06-.134-.06-.133A8.764 8.764 0 0013.79 4.08a8.781 8.781 0 00-4.76-1.414zM9.03 4c-2.205 0-4 1.794-4 4 0 2.205 1.795 4 4 4 2.206 0 4-1.795 4-4 0-2.206-1.794-4-4-4zm-.333 1.333a.334.334 0 00-.058.004 2.698 2.698 0 00-2.272 2.275.337.337 0 10.667.098c.13-.884.82-1.576 1.702-1.706a.337.337 0 00-.04-.671zm3.666 2.666A3.328 3.328 0 009.03 4.666 3.328 3.328 0 005.697 8a3.328 3.328 0 003.333 3.334A3.328 3.328 0 0012.363 8zm1.062-3.36A8.099 8.099 0 009.03 3.334c-1.548 0-3.098.46-4.394 1.307C3.384 5.456 2.384 6.644 1.753 8c.63 1.355 1.63 2.544 2.883 3.36a8.099 8.099 0 004.394 1.306c1.548 0 3.098-.46 4.395-1.307 1.252-.816 2.252-2.004 2.882-3.36-.63-1.355-1.63-2.544-2.882-3.36z" fill="#EBE6F3"/><path d="M4.27 4.08l-.136-.21.136.21zM1.06 7.866l.228.103v-.002l-.228-.1zM1 8l-.228-.102L.726 8l.046.103L1 7.999zm.06.134l.229-.101-.001-.002-.228.103zm3.212 3.786l-.137.21.137-.21zm9.518 0l.136.21-.136-.21zm3.211-3.786l-.228-.103v.002l.228.1zm.06-.134l.228.103.046-.103-.046-.102-.228.102zm-.06-.133l-.229.1.001.003.228-.103zM13.79 4.08l.137-.21-.137.21zM8.639 5.337l.036.247h.003l-.04-.247zm.058-.004l.008-.25h-.004l-.004.25zm-2.33 2.28l-.247-.037.247.036zm.284.382l-.036.247.036-.247zm.383-.285l-.248-.036.248.036zm1.702-1.706l.037.247-.037-.247zm.285-.354l-.25.015.25-.015zm4.404-1.01l-.137.209.137-.21zm-8.79 0l.137.21v-.001l-.136-.21zM1.754 8l-.226-.106-.05.105.05.106.226-.106zm2.883 3.36l.136-.21-.136.21zm8.789 0l-.137-.21.137.21zM16.307 8l.227.105.049-.106-.05-.105-.226.105zm-11.9-3.71A8.524 8.524 0 019.03 2.915v-.5a9.026 9.026 0 00-4.896 1.454l.273.42zM1.289 7.966a8.527 8.527 0 013.118-3.678l-.273-.419A9.027 9.027 0 00.83 7.765l.458.202zm-.061.135l.06-.133-.456-.205-.06.133.456.205zm.06-.072l-.06-.133-.456.205.06.133.456-.205zm3.12 3.68a8.518 8.518 0 01-3.12-3.678l-.457.202a9.018 9.018 0 003.304 3.895l.274-.42zm4.622 1.372a8.524 8.524 0 01-4.622-1.372l-.273.419a9.023 9.023 0 004.895 1.453v-.5zm4.624-1.372a8.524 8.524 0 01-4.624 1.372v.5a9.02 9.02 0 004.896-1.453l-.272-.42zm3.118-3.678a8.522 8.522 0 01-3.119 3.678l.274.418a9.022 9.022 0 003.303-3.894l-.458-.202zm.061-.135l-.06.133.456.205.06-.133-.456-.205zm-.06.072l.06.133.456-.205-.06-.133-.456.205zm-3.12-3.68a8.514 8.514 0 013.12 3.678l.457-.202a9.014 9.014 0 00-3.303-3.895l-.274.42zM9.03 2.916c1.632 0 3.256.484 4.624 1.373l.272-.419A9.031 9.031 0 009.03 2.416v.5zM5.28 8a3.755 3.755 0 013.75-3.75v-.5A4.255 4.255 0 004.78 8h.5zm3.75 3.75A3.755 3.755 0 015.28 8h-.5a4.255 4.255 0 004.25 4.25v-.5zM12.78 8a3.755 3.755 0 01-3.75 3.75v.5A4.255 4.255 0 0013.28 8h-.5zM9.03 4.25A3.755 3.755 0 0112.78 8h.5a4.255 4.255 0 00-4.25-4.25v.5zm-.352 1.335l.014-.001.01-.5a.584.584 0 00-.102.007l.078.494zM6.614 7.649a2.448 2.448 0 012.061-2.065l-.072-.494A2.948 2.948 0 006.12 7.576l.494.073zm.074.099a.087.087 0 01-.074-.1l-.494-.072c-.047.32.174.62.495.666l.073-.494zm.098-.074a.087.087 0 01-.098.074l-.073.494a.587.587 0 00.666-.496l-.495-.072zM8.7 5.756a2.267 2.267 0 00-1.914 1.918l.495.072a1.767 1.767 0 011.492-1.495L8.7 5.756zm.072-.091a.087.087 0 01-.073.091l.075.495a.587.587 0 00.497-.615l-.5.029zm-.083-.082c.043.001.08.036.083.082l.499-.03a.587.587 0 00-.566-.552l-.016.5zm.341-.667A3.078 3.078 0 0112.113 8h.5c0-1.982-1.6-3.583-3.583-3.583v.5zM5.947 8A3.078 3.078 0 019.03 4.916v-.5A3.578 3.578 0 005.447 8h.5zm3.083 3.084A3.078 3.078 0 015.947 8h-.5c0 1.983 1.6 3.584 3.583 3.584v-.5zM12.113 8a3.078 3.078 0 01-3.083 3.084v.5c1.983 0 3.583-1.6 3.583-3.584h-.5zM9.03 3.583c1.5 0 3.002.446 4.258 1.266l.273-.419a8.35 8.35 0 00-4.53-1.347v.5zM4.773 4.85A7.849 7.849 0 019.03 3.583v-.5A8.349 8.349 0 004.5 4.43l.272.419zM1.98 8.105c.612-1.315 1.582-2.467 2.792-3.256L4.5 4.43c-1.294.843-2.324 2.07-2.973 3.464l.453.21zm2.792 3.045c-1.21-.789-2.18-1.94-2.792-3.256l-.453.21c.649 1.397 1.679 2.622 2.972 3.465l.273-.42zm4.258 1.266c-1.5 0-3.002-.446-4.257-1.266l-.274.418a8.348 8.348 0 004.531 1.348v-.5zm4.258-1.266a7.849 7.849 0 01-4.258 1.266v.5a8.348 8.348 0 004.531-1.348l-.273-.418zm2.793-3.256c-.612 1.315-1.582 2.467-2.793 3.256l.273.419c1.294-.843 2.324-2.069 2.973-3.464l-.453-.211zm-2.793-3.045c1.21.788 2.18 1.94 2.793 3.256l.453-.211c-.65-1.396-1.68-2.622-2.973-3.464l-.273.42z" fill="#EBE6F3"/></svg>