<svg width="16" height="16" fill="none" xmlns="http://www.w3.org/2000/svg"><path fill-rule="evenodd" clip-rule="evenodd" d="M13.1 5.333a2 2 0 011.999 2.301l-.92 6a1.998 1.998 0 01-1.992 1.7h-9.52a2 2 0 01-2-2V8.666a2 2 0 012-2h1.566l2.491-5.604a.667.667 0 01.61-.396A2.667 2.667 0 0110 3.333v2h3.1zM5.332 7.475V14h6.861a.667.667 0 00.667-.568l.92-5.999a.667.667 0 00-.674-.766H9.333A.667.667 0 018.667 6V3.333c0-.595-.39-1.099-.928-1.27L5.333 7.475zM4 8H2.667A.667.667 0 002 8.667v4.666c0 .368.298.667.667.667H4V8z" fill="#EBE6F3"/></svg>