<svg width="36" height="36" fill="none" xmlns="http://www.w3.org/2000/svg"><path d="M3 5.25A2.25 2.25 0 015.25 3h9a2.25 2.25 0 012.25 2.25v9a2.25 2.25 0 01-2.25 2.25h-9A2.25 2.25 0 013 14.25v-9z" fill="#fff"/><path opacity=".75" d="M19.5 5.25A2.25 2.25 0 0121.75 3h9A2.25 2.25 0 0133 5.25v9a2.25 2.25 0 01-2.25 2.25h-9a2.25 2.25 0 01-2.25-2.25v-9z" fill="#fff"/><path opacity=".5" d="M3 21.75a2.25 2.25 0 012.25-2.25h9a2.25 2.25 0 012.25 2.25v9A2.25 2.25 0 0114.25 33h-9A2.25 2.25 0 013 30.75v-9z" fill="#fff"/><path opacity=".25" d="M19.5 21.75a2.25 2.25 0 012.25-2.25h9A2.25 2.25 0 0133 21.75v9A2.25 2.25 0 0130.75 33h-9a2.25 2.25 0 01-2.25-2.25v-9z" fill="#fff"/></svg>