<svg width="24" height="24" fill="none" xmlns="http://www.w3.org/2000/svg"><path fill-rule="evenodd" clip-rule="evenodd" d="M20.83 9a.647.647 0 01-.531-.285 1.007 1.007 0 00-.064-.199.65.65 0 01.13-.717l.052-.052a3 3 0 10-4.245-4.244l-.06.06a.647.647 0 01-.708.122.654.654 0 01-.404-.599V3a3 3 0 10-6 0v.17c0 .214-.11.412-.285.531a1 1 0 00-.199.064.65.65 0 01-.717-.13l-.052-.052a3 3 0 00-5.124 2.122 3 3 0 00.88 2.122l.06.06c.178.182.23.466.122.71A.698.698 0 013 9.08a3 3 0 100 6h.17a.649.649 0 01.59.394.654.654 0 01-.125.727l-.052.052a3 3 0 002.122 5.124 3 3 0 002.122-.88l.06-.06a.647.647 0 01.71-.122.7.7 0 01.483.685 3 3 0 106 0v-.17a.649.649 0 01.394-.59.654.654 0 01.727.125l.052.052a3 3 0 104.244-4.245l-.06-.06a.65.65 0 01-.118-.718.65.65 0 01.595-.394H21a3 3 0 100-6h-.17zM6.393 5.057a2.655 2.655 0 002.737.615 1 1 0 00.264-.073A2.65 2.65 0 0011 3.174V3a1 1 0 112 0v.09a2.651 2.651 0 001.606 2.43 2.646 2.646 0 002.913-.535l.068-.068a1 1 0 111.416 1.415l-.06.06a2.655 2.655 0 00-.615 2.738c.012.09.037.18.073.264A2.65 2.65 0 0020.826 11H21a1 1 0 110 2h-.09a2.648 2.648 0 00-2.425 1.596 2.65 2.65 0 00.53 2.923l.068.068a1 1 0 11-1.415 1.416l-.06-.06a2.654 2.654 0 00-2.932-.538 2.646 2.646 0 00-1.596 2.421V21a1 1 0 11-2 0v-.09a2.657 2.657 0 00-1.735-2.448c-.932-.414-2.09-.204-2.864.553l-.068.068a1 1 0 11-1.416-1.415l.06-.06c.765-.783.975-1.94.538-2.932a2.646 2.646 0 00-2.421-1.596H3a1 1 0 110-2h.09a2.657 2.657 0 002.449-1.735c.413-.932.203-2.09-.554-2.864l-.068-.068a1 1 0 111.415-1.416l.06.06zM12 16a4 4 0 110-8 4 4 0 010 8zm2-4a2 2 0 11-4 0 2 2 0 014 0z" fill="#000"/></svg>