<svg width="800" height="600" fill="none" xmlns="http://www.w3.org/2000/svg"><path fill="#fff" d="M0 0h800v600H0z"/><path d="M282.572 362.322h-1.299v-18.114h-6.763v18.114h-1.299v-19.359h9.361v19.359zm7.561-13.496c-1.732 0-2.682 1.725-2.849 5.177h5.529c0-1.579-.239-2.836-.721-3.773-.484-.936-1.137-1.404-1.959-1.404zm.573 13.771c-1.522 0-2.692-.645-3.509-1.939-.817-1.295-1.228-3.097-1.228-5.41 0-2.453.366-4.327 1.095-5.62.73-1.294 1.781-1.941 3.148-1.941 1.195 0 2.139.567 2.829 1.702.69 1.135 1.033 2.664 1.033 4.588v1.165h-6.815c.014 2.092.312 3.658.885 4.701.576 1.042 1.448 1.562 2.615 1.562.902 0 1.851-.294 2.849-.887v1.218c-.918.574-1.886.861-2.902.861zm7.525-14.628v5.932c0 .813.175 1.404.52 1.775.345.37.804.556 1.379.556.671 0 1.307-.175 1.91-.523a6.073 6.073 0 001.575-1.317v-6.423h1.247v14.368h-1.247v-6.594a4.723 4.723 0 01-1.636 1.217 4.857 4.857 0 01-2.035.437c-1.973 0-2.96-1.261-2.96-3.787v-5.641h1.247zm15.175-4.028c0-.379.084-.652.257-.82.172-.168.361-.252.565-.252.22 0 .414.084.584.252.167.168.248.441.248.82 0 .39-.081.673-.248.848a.792.792 0 01-.584.266c-.204 0-.393-.09-.565-.266-.173-.175-.257-.458-.257-.848zm-1.193 4.887c-1.736 0-2.685 1.725-2.855 5.177h5.533c0-1.58-.241-2.836-.724-3.773-.482-.936-1.133-1.404-1.954-1.404zm-2.855-4.887c0-.379.089-.652.261-.82a.82.82 0 01.588-.252c.205 0 .39.084.557.252.169.168.255.441.255.82 0 .39-.086.673-.255.848-.167.176-.352.266-.557.266a.804.804 0 01-.588-.266c-.172-.175-.261-.458-.261-.848zm3.422 18.658c-1.519 0-2.69-.645-3.506-1.939-.817-1.295-1.226-3.097-1.226-5.41 0-2.453.364-4.327 1.093-5.62.729-1.294 1.78-1.941 3.15-1.941 1.194 0 2.134.567 2.824 1.702.688 1.135 1.033 2.664 1.033 4.588v1.165h-6.816c.018 2.092.316 3.658.891 4.701.573 1.041 1.442 1.562 2.61 1.562.902 0 1.854-.294 2.853-.887v1.218c-.919.574-1.887.861-2.906.861zm10.863-.262l-3.13-12.421h-.106c.095 2.04.142 3.271.142 3.694v8.727h-1.203v-14.368h1.829l2.388 9.375c.345 1.421.594 2.618.753 3.589h.106c.011-.133.093-.537.247-1.212.154-.675 1.151-4.593 2.989-11.752h1.82v14.368h-1.247v-8.647c0-.662.042-1.92.132-3.774h-.106l-3.145 12.421h-1.469zm13.422.26c-1.442 0-2.527-.625-3.256-1.874-.729-1.247-1.093-3.082-1.093-5.501 0-2.454.368-4.324 1.107-5.608.736-1.284 1.826-1.927 3.27-1.927.89 0 1.633.163 2.227.49l-.493 1.113c-.591-.274-1.136-.411-1.629-.411-2.114 0-3.172 2.106-3.172 6.316 0 4.175 1.058 6.263 3.172 6.263.626 0 1.308-.141 2.043-.423v1.059a3.998 3.998 0 01-1.077.372c-.425.088-.79.131-1.099.131zm10.156-7.742v-5.747h-1.687c-2.137 0-3.208.957-3.208 2.873 0 1.916 1.06 2.874 3.181 2.874h1.714zm0 1.139h-1.659l-3.609 6.343h-1.469l3.831-6.422c-1.077-.195-1.894-.625-2.451-1.292-.557-.666-.838-1.546-.838-2.642 0-1.288.398-2.279 1.194-2.972.795-.693 1.901-1.04 3.314-1.04h2.934v14.368h-1.247v-6.343zm10.866-.878c0 2.075.247 3.641.743 4.7.494 1.06 1.268 1.589 2.318 1.589 2.061 0 3.093-2.096 3.093-6.289 0-4.158-1.032-6.237-3.093-6.237-1.077 0-1.857.521-2.339 1.562-.483 1.043-.722 2.599-.722 4.675zm7.465 0c0 2.419-.383 4.27-1.146 5.554-.765 1.286-1.86 1.927-3.284 1.927-1.405 0-2.48-.641-3.228-1.927-.748-1.284-1.122-3.135-1.122-5.554 0-4.953 1.47-7.429 4.403-7.429 1.38 0 2.456.65 3.225 1.947.769 1.298 1.152 3.124 1.152 5.482zm10.225-.234l-3.157-6.913h1.369l2.414 5.827 2.519-5.827h1.31l-3.208 7.071 3.367 7.297h-1.325l-2.69-6.211-2.721 6.211h-1.3l3.422-7.455zm9.107-5.721c-.095 2.446-.234 4.532-.409 6.256-.178 1.726-.39 3.099-.637 4.118-.248 1.02-.559 1.764-.936 2.232-.376.468-.899.702-1.572.702-.213 0-.409-.036-.595-.107v-1.164c.106.053.261.08.462.08.523 0 .941-.441 1.255-1.325.312-.883.573-2.269.776-4.157.203-1.891.367-4.499.488-7.827h5.517v14.368h-1.246v-13.176h-3.103zm11.691-.335c-1.734 0-2.684 1.725-2.854 5.177h5.534c0-1.579-.242-2.836-.725-3.773-.483-.936-1.133-1.404-1.955-1.404zm.568 13.771c-1.519 0-2.69-.645-3.506-1.939-.818-1.295-1.226-3.097-1.226-5.41 0-2.453.364-4.327 1.093-5.62.729-1.294 1.78-1.941 3.15-1.941 1.194 0 2.134.567 2.823 1.702.689 1.135 1.034 2.664 1.034 4.588v1.165h-6.816c.018 2.092.315 3.658.891 4.701.573 1.042 1.444 1.562 2.61 1.562.902 0 1.854-.294 2.853-.887v1.218c-.919.574-1.887.861-2.906.861zm7.364-9.413c.034 2.824.284 4.908.747 6.249.465 1.341 1.184 2.013 2.154 2.013 2.194 0 3.289-1.889 3.289-5.667 0-3.718-1.05-5.575-3.156-5.575-.645 0-1.249.282-1.814.847-.568.565-.974 1.276-1.22 2.133zm-1.316-.278c0-2.702.242-4.823.724-6.363.484-1.541 1.294-2.688 2.44-3.443 1.147-.754 2.916-1.248 5.313-1.477l.197 1.139c-1.964.149-3.433.494-4.414 1.033-.982.539-1.7 1.369-2.156 2.49-.456 1.121-.72 2.75-.788 4.885h.106c.326-.688.769-1.221 1.331-1.601a3.188 3.188 0 011.825-.569c1.327 0 2.36.584 3.108 1.754.749 1.169 1.119 2.843 1.119 5.025 0 2.181-.392 3.859-1.177 5.037-.788 1.18-1.934 1.769-3.437 1.769-1.449 0-2.509-.792-3.183-2.377-.671-1.585-1.008-4.019-1.008-7.302zm15.509-4.08c-1.731 0-2.681 1.725-2.848 5.177h5.527c0-1.579-.239-2.836-.721-3.773-.483-.936-1.135-1.404-1.958-1.404zm.573 13.771c-1.522 0-2.691-.645-3.509-1.939-.816-1.295-1.227-3.097-1.227-5.41 0-2.453.365-4.327 1.094-5.62.731-1.294 1.78-1.941 3.149-1.941 1.194 0 2.138.567 2.827 1.702.69 1.135 1.035 2.664 1.035 4.588v1.165h-6.817c.017 2.092.313 3.658.886 4.701.575 1.042 1.449 1.562 2.615 1.562.902 0 1.851-.294 2.849-.887v1.218c-.918.574-1.886.861-2.902.861zm15.607-.222c-1.441 0-2.526-.625-3.255-1.874-.729-1.247-1.095-3.082-1.095-5.501 0-2.454.371-4.324 1.108-5.608.738-1.284 1.828-1.927 3.268-1.927.893 0 1.636.163 2.228.49l-.489 1.113c-.593-.274-1.136-.411-1.633-.411-2.111 0-3.167 2.106-3.167 6.316 0 4.175 1.056 6.263 3.167 6.263.628 0 1.31-.141 2.042-.423v1.059a3.936 3.936 0 01-1.072.371 5.538 5.538 0 01-1.102.132zm14.715-.275h-1.273v-14.235c0-1.157.037-2.405.106-3.748-.186.248-.618.712-1.299 1.391l-1.656 1.51-.679-.834 3.74-3.443h1.061V362.1zm9.327-18.398c-.864 0-1.551.408-2.06 1.226-.51.816-.762 2.046-.762 3.688 0 1.572.228 2.773.69 3.608.459.834 1.143 1.252 2.053 1.252.885 0 1.594-.375 2.129-1.12.536-.745.804-1.741.804-2.986 0-1.102-.12-2.096-.353-2.979-.234-.884-.565-1.553-.989-2.007-.425-.454-.928-.682-1.512-.682zm4.19 7.032c0 3.858-.482 6.759-1.45 8.706-.968 1.948-2.385 2.92-4.252 2.92-.326 0-.673-.03-1.039-.092-.366-.063-.62-.129-.764-.2v-1.27c.487.211 1.124.317 1.909.317 1.285 0 2.298-.742 3.041-2.224.741-1.483 1.155-3.598 1.246-6.343h-.107c-.302.671-.713 1.196-1.236 1.576-.52.38-1.122.569-1.803.569-1.209 0-2.159-.542-2.848-1.628-.69-1.086-1.035-2.552-1.035-4.396 0-1.924.371-3.441 1.119-4.549.749-1.108 1.783-1.661 3.109-1.661 1.352 0 2.376.712 3.071 2.138.696 1.425 1.039 3.471 1.039 6.137zm6.644-7.032c-.867 0-1.554.408-2.064 1.226-.509.816-.763 2.046-.763 3.688 0 1.572.23 2.773.689 3.608.461.834 1.146 1.252 2.058 1.252.883 0 1.592-.375 2.127-1.12.536-.745.801-1.741.801-2.986 0-1.102-.117-2.096-.35-2.979-.232-.884-.562-1.553-.986-2.007-.425-.454-.929-.682-1.512-.682zm4.191 7.032c0 3.858-.486 6.759-1.454 8.706-.968 1.948-2.385 2.92-4.249 2.92a6.23 6.23 0 01-1.042-.092c-.366-.063-.62-.129-.762-.2v-1.27c.487.211 1.122.317 1.91.317 1.282 0 2.292-.742 3.035-2.224.742-1.483 1.158-3.598 1.246-6.343h-.106c-.3.671-.711 1.196-1.231 1.576a2.988 2.988 0 01-1.804.569c-1.211 0-2.163-.542-2.853-1.628-.69-1.086-1.034-2.552-1.034-4.396 0-1.924.373-3.441 1.121-4.549.748-1.108 1.786-1.661 3.111-1.661 1.353 0 2.374.712 3.069 2.138.695 1.425 1.043 3.471 1.043 6.137zm6.258.932c-.902 0-1.814.131-2.743.397l-.652-.835.573-8.487h6.562v1.245h-5.49l-.478 6.805a10.664 10.664 0 012.307-.264c1.451 0 2.599.48 3.448 1.442.848.963 1.273 2.288 1.273 3.973 0 1.95-.461 3.509-1.39 4.674-.928 1.166-2.166 1.748-3.713 1.748-1.379 0-2.458-.243-3.236-.728v-1.456c.971.679 2.032 1.019 3.183 1.019 1.175 0 2.106-.481 2.796-1.444.689-.963 1.034-2.214 1.034-3.76 0-1.447-.307-2.531-.928-3.251-.618-.719-1.466-1.078-2.546-1.078zm18.781-3.919v1.192h-4.439v13.176h-1.263v-14.368h5.702zm2.765 7.147c0 2.075.249 3.641.742 4.7.496 1.06 1.271 1.589 2.324 1.589 2.059 0 3.086-2.096 3.086-6.289 0-4.158-1.027-6.237-3.086-6.237-1.08 0-1.859.521-2.343 1.562-.482 1.043-.723 2.599-.723 4.675zm7.468 0c0 2.419-.384 4.27-1.148 5.554-.764 1.286-1.86 1.927-3.281 1.927-1.406 0-2.483-.641-3.231-1.927-.747-1.284-1.119-3.135-1.119-5.554 0-4.953 1.467-7.429 4.403-7.429 1.379 0 2.451.65 3.221 1.947.768 1.298 1.155 3.124 1.155 5.482zm8.402 6.029v-12.037h-2.477c-.027 2.12-.253 4.336-.672 6.654-.418 2.317-.93 4.112-1.531 5.383h4.68zm2.705 6.077h-1.247v-4.885h-7.224V367h-1.247v-6.077h1.114c.743-1.721 1.302-3.711 1.681-5.972.383-2.26.573-4.661.573-7.204h4.891v13.176h1.459V367zm5.023-5.698c.901 0 1.602-.443 2.1-1.33.499-.887.749-2.142.749-3.768v-1.496l-1.497.08c-1.158.061-2.018.381-2.58.959-.562.579-.84 1.424-.84 2.537 0 1.041.184 1.805.556 2.29.371.486.875.728 1.512.728zm3.061.808l-.159-2.012h-.053c-.69 1.519-1.733 2.277-3.13 2.277-.936 0-1.69-.373-2.26-1.119-.57-.746-.854-1.745-.854-2.999 0-1.368.409-2.452 1.23-3.25.823-.799 1.979-1.236 3.464-1.305l1.55-.08v-1.192c0-1.341-.167-2.32-.504-2.932-.334-.613-.892-.921-1.672-.921-.821 0-1.659.27-2.519.808l-.542-.993c.999-.618 2.046-.927 3.141-.927 1.186 0 2.04.374 2.563 1.119.519.745.779 1.993.779 3.741v9.785h-1.034zm-387.677-43.856a8.3 8.3 0 01-.311-.007c-1.848-.133-2.84-.95-3.365-1.613-.717-.908-1.006-2.098-.809-3.352.303-1.866.91-4.084 1.862-6.8.244-.69.559-2.257 1.002-4.704.684-3.424 1.268-6.118 1.764-8.145.557-2.256 1.071-4.762 1.547-7.53.537-3.373.837-5.185.882-5.404 1.706-7.876 1.906-9.379 1.926-9.653-.084 0-1.241-4.64-3.418-13.282-.57-2.223-1.865-6.667-3.878-13.331-1.718-5.65-1.698-6.283-1.381-7.288.665-2.284 2.919-4.232 6.447-3.286 2.224.627 3.538 1.778 7.195 19.621.271 1.364.522 2.588.756 3.685.183-.788.376-1.643.587-2.568 2.026-9.497 3.136-14.755 3.325-15.748.022-.191.061-.382.12-.569 1.325-4.277 4.211-4.739 5.392-4.739 2.047 0 3.707 1.307 4.442 3.497.743 1.975.318 3.57-.178 4.542-.621 1.215-1.828 4.593-4.058 13.795-3.291 13.829-3.784 16.27-3.843 16.677.101 1.796 1.604 9.996 8.279 36.35.51 2.07.757 3.73.757 5.091 0 2.769-1.867 4.703-4.538 4.703-3.935 0-5.333-2.361-5.333-4.383 0-.1.004-.2.013-.299-.721-2.752-1.578-7.626-3.082-16.197a619.572 619.572 0 00-1.735-9.428c-.471 2.185-1.019 4.677-1.642 7.526a167.335 167.335 0 00-1.821 9.901c-.327 2.268-.559 3.89-.849 5.031l.085.018c-.936 4.297-1.47 5.486-2.185 6.281-.712.762-1.934 1.608-3.955 1.608zm60.088.035c-.216 0-.406-.018-.571-.04-2.384-.173-4.238-1.994-4.501-4.618-.072-.987-.079-3.105-.016-6.449.369-19.314.494-30.723.374-33.912-.379-9.52-.592-14.583-.637-15.181-.1-1.037-.153-2.683-.153-4.918.029-2.633.029-4.309.003-5.061-.056-2.375-.2-3.726-.319-4.465-.682-.042-1.904.004-3.983.337-1.342.225-2.287.835-3.033 1.972-.397.609-.63 1.509-.691 2.68-.03.493-.043 1.176-.043 2.101 0 1.177-.042 2.061-.117 2.648-.084 1.078-.164 3.996.027 10.976l.045 6.266c.153 6.653.202 11.505.141 14.503 0 .961-.032 3.487-.096 7.505l-.09 9.253c-.037 3.532-.968 6.762-2.763 9.594-1.286 1.944-2.574 3.283-3.971 4.158-2.888 1.836-4.719 2.591-6.294 2.591-2.385 0-4.018-.799-4.853-2.373-.359-.674-1.032-2.477.453-4.667.602-.858 1.52-1.592 3.1-2.494 1.558-.848 2.194-1.323 2.438-1.533 1.183-.949 2.637-2.56 2.549-6.35-.031-2.453.013-6.818.138-13.123l-.093-33.258c-.14-6.778.658-11.262 2.506-14.108 2.291-3.47 5.732-5.5 10.235-6.052 2.271-.273 9.161-1.096 12.249 3.452.869 1.295 1.662 3.428 1.662 10.311 0 .756.109 3.132.322 7.127.217 4.452.357 7.557.418 9.332.159 7.736.236 15.139.236 22.259 0 4.427-.031 9.172-.092 14.236l-.094 7.108c0 .392.03 1.144.089 2.254.066 1.334.097 2.219.097 2.672 0 1.467-.509 2.773-1.477 3.776-1.074 1.219-2.318 1.491-3.195 1.491zm28.831.443c-1.725 0-3.823-.054-6.395-.164-5.156.178-6.214.125-7.49-.889a3.886 3.886 0 01-.897-1.023c-.62-1.033-.703-1.428-.762-8.251-.031-.747-.02-3.502.053-8.145.072-5.084.108-8.476.108-10.161-.108-24.534-.406-40.065-.892-46.145-.307-4.243.31-7.054 1.941-8.871a5.881 5.881 0 014.196-1.949c5.591-.247 7.591-.101 8.599.029l1.249-.032c1.209 0 2.138.054 2.788.138.849.059 3.672.274 5.065 2.579.644 1.065.735 3.052.239 4.193-1.199 3.105-5.139 3.23-11.019 3.052a34.497 34.497 0 00-2.51.004l.321 13.226c.196 4.744.35 7.716.467 9.575.931.002 2.02.01 3.3.019 1.592.095 3.548.8 5.033 3.667 1.206 2.489.669 4.173.01 5.163-.75 1.13-2.672 1.98-3.986 1.924-1.955-.095-3.32-.142-4.143-.12-.487 17.675-.734 27.208-.734 28.696.013 1.507.074 2.554.144 3.27.824.019 2.073.015 3.901-.063 4.884-.358 7.733.181 9.492 1.808a5.036 5.036 0 011.634 3.724c0 .94-.417 2.071-1.041 2.773-1.136 1.284-2.527 1.973-8.671 1.973zm27.486-40.23c-.006.286-.014.591-.018.91-.072 3.446-.247 8.698-.534 15.757-.241 6.121-.368 9.494-.368 10.121 0 .309.015 1.4.048 3.28 1.336-.36 2.307-.959 2.986-1.831 2.379-3.127 3.562-6.396 3.59-9.954.062-8.754-1.609-14.712-4.972-17.706a7.516 7.516 0 00-.732-.577zm-5.777 40.112c-2.007-.115-3.514-.964-4.473-2.394-.74-.973-.79-1.667-.967-7.64 0-.611.054-3.201.159-7.88.107-4.968.16-8.402.16-10.293-.175-34.867-.379-44.252-.52-45.983-.308-4.212.307-7.006 1.934-8.818a5.885 5.885 0 014.204-1.954c4.135-.189 6.851-.179 8.521.028l.952-.027a24.61 24.61 0 012.499.005c5.565.465 6.135 4.113 6.177 5.222.003 4.919-5.663 4.961-10.66 4.999-1.27 0-2.196.046-2.861.103l.05 12.83c-.045 5.44.006 8.585.078 10.395l.765.133c3.751.728 7.161 3.144 10.214 7.197a.048.048 0 00.013.016c4.443 5.968 6.353 13.466 5.682 22.289-.52 6.739-2.326 11.953-5.368 15.501-2.401 2.791-4.7 4.568-7.037 5.444-1.127.426-3.072.827-9.522.827zm54.13-.326c-2.527 0-5.076-1.757-5.076-5.682.373-23.864.334-33.331.217-36.975a38.064 38.064 0 00-1.832.019c-3.194.001-5.111.12-6.238.244.034 1.215.109 2.926.217 5.135.326 5.879.384 10.23.175 13.276-.114 1.59-.172 7.975-.172 18.988 0 3.433-2.385 4.995-4.599 4.995-2.461 0-4.395-1.292-5.172-3.459a3.434 3.434 0 01-.191-1.421c-.005-.657-.09-2.854-.247-6.59-.042-1.526-.042-3.903-.003-7.179.041-3.694.041-6.114.003-7.254-.363-29.733-.342-47.316.064-53.828.21-2.8 2.019-4.718 4.607-4.929 2.817-.218 4.923 1.595 5.166 4.422.094 2.024.133 4.368.133 7.183-.621 13.728-.538 19.331-.382 21.611.835.065 2.255.157 4.495.195 1.911.029 3.178-.016 4.001-.08.125-2.888.201-10.158-.123-28.391 0-2.973 1.94-5.004 4.719-5.004 1.829 0 4.896.951 4.896 7.325 0 .089-.003.176-.011.264l-.173 3.556a150.132 150.132 0 00-.177 7.568c0 7.08.281 18.12.836 32.815.24 7 .357 16.059.357 27.195 0 1.425-.331 2.652-.983 3.646-1.035 1.534-2.626 2.355-4.507 2.355zm27.973-30.257c4.234.039 6.673-.073 8.05-.198-.082-6.605-.838-15.226-2.252-25.714a256.86 256.86 0 00-.74-5.109c-.159.785-.339 1.681-.546 2.691a527.7 527.7 0 00-1.847 9.314c-.445 2.574-.968 6.129-1.561 10.628-.504 4.427-.857 7.147-1.043 8.095-.021.102-.04.199-.061.293zm-.41 9.307v.001-.001zm14.61 21.151c-1.053 0-2.567-.218-3.716-1.405-.734-.756-1.269-2.497-1.132-3.544a43.287 43.287 0 00-.387-15.546c-.615-.156-1.57-.364-3.034-.621-2.629-.481-4.793-.394-6.477.263-.101.266-.25.737-.404 1.511-.954 4.398-1.482 7.833-1.58 10.264-.034.632-.05 1.311-.05 2.087l.053 1.801c-.151 4.861-3.443 5.101-4.1 5.101-2.446 0-4.412-1.059-5.539-2.985-.755-1.261-1.111-1.851 1.271-16.24.239-1.541.804-5.8 1.678-12.739.823-6.819 1.542-11.902 2.151-15.231.234-1.471 1.186-7.714 2.849-18.647.448-3.144.822-5.22 1.085-6.202.268-1.14.652-2.6 1.127-4.28 1.191-4.224 2.658-8.347 6.304-8.347 2.66 0 4.655 1.871 5.929 5.563 1.436 4.163 2.415 7.795 2.9 10.796l1.475 8.038c.671 3.715 1.032 6.035 1.107 6.96.066.729.278 2.648.626 5.716l1.116 10.032a864.633 864.633 0 012.663 30.372l.008 1.298c0 1.325-.266 2.411-.815 3.321-.943 1.513-2.402 2.424-4.137 2.61-.223.02-.563.054-.971.054zm29.747-75.305a10.51 10.51 0 00-1.364.293c-2.625.781-4.442 2.091-5.502 3.992-1.597 2.904-2.215 5.849-1.881 8.983.312 3.433 1.965 6.062 5.054 8.08.956.605 2.173 1.17 3.598 1.661.1-1.888.203-5.124.256-10.664.036-7.385-.068-10.786-.161-12.345zm3.731 74.731c-1.675 0-3.153-.719-4.188-2.058-.71-.982-.907-1.253-.907-9.294.181-5.559.322-10.159.425-13.961-.08.265-.149.499-.202.704a92.266 92.266 0 01-3.37 10.061c-.481 1.183-1.191 3.115-2.141 5.806-.915 2.658-1.519 4.221-1.761 4.685-.592 1.181-2.023 4.043-4.789 4.043-3.974 0-4.992-2.375-5.245-3.396-.312-1.075-.137-2.4.603-4.175 5.262-13.234 8.009-20.161 8.235-20.782 2.565-7.797 4.273-12.993 5.114-15.568a12.303 12.303 0 00-.937-.384c-1.764-.633-3.637-1.855-5.721-3.731-2.413-2.136-4.01-4.261-4.859-6.482-1.392-3.728-1.992-7.41-1.79-10.965.209-3.436 1.603-6.997 4.135-10.598 2.276-2.537 4.503-4.224 6.862-5.314 2.769-1.308 5.822-1.978 9.052-1.978 5.513 0 6.479 3.04 6.638 4.347.241 2.335.289 4.662.149 6.968l-.2 3.63.072 3.266c.09 2.14.067 4.247-.074 6.263-.257 5.725-.39 10.059-.39 12.922l-.398 21.35.86 17.911c.002 5.019-2.43 6.277-3.879 6.593a6.4 6.4 0 01-1.294.137z" fill="#603812"/><path d="M425.166 318.723c-3.729 0-5.401-2.514-5.401-5.008l-.129-5.255a379.358 379.358 0 01-.003-10.186c.132-6.542.109-14.034-.066-22.487-.027-1.632-.676-5.986-3.615-17.528 0 0-1.806-5.764-3.804-12.225-1.764-5.563-1.901-7.139-1.541-8.384.403-1.6 1.396-2.499 2.151-2.953 1.197-.717 2.647-.857 4.291-.426 2.253.587 3.701 1.794 7.226 19.744.27 1.357.52 2.586.748 3.693.182-.808.376-1.684.585-2.63 2.037-9.553 3.151-14.811 3.334-15.765a3.15 3.15 0 01.114-.528c1.327-4.309 4.213-4.774 5.393-4.774 1.402 0 2.641.573 3.484 1.615 1.497 1.845 1.21 4.424.862 6.205-.148.694-.824 3.16-2.05 7.472-1.312 4.475-2.188 7.599-2.62 9.399-.403 1.739-1.307 4.852-2.71 9.307-1.226 3.87-1.934 6.227-2.101 7.081-.169.945-.436 4.62-.208 18.121 0 1.547.109 5.367.33 11.51l.056 1.843c.14 4.819.212 7.291.212 7.421 0 2.791-1.867 4.738-4.538 4.738z" fill="#F7931D"/><path d="M457.275 318.37c-3.289 0-7.781-1.511-10.49-8.715-1.684-4.547-2.591-11.878-2.787-22.428-.053-3.221-.041-7.04.04-11.457l.119-7.958c0-10.651.994-18.929 3.045-25.303.943-2.876 2.596-5.184 4.917-6.883 3.199-2.359 6.893-2.606 10.399-.693 3.342 1.791 5.589 4.757 6.466 8.563.537 2.343.94 5.303-.713 7.478-1.199 1.578-4.376 2.095-6.071 1.049-1.562-.895-2.499-2.64-2.405-4.611.026-.829-.146-1.528-.523-2.073-.241-.342-.615-.742-1.747-.819-1.125-.072-1.589 2.238-1.781 2.945-1.068 4.027-1.697 7.467-1.867 10.21-.209 3.215-.312 8.742-.312 16.591 0 1.436.079 3.95.235 7.542v.005c.216 5.096.347 8.716.4 10.86.242 7.966 1.263 11.608 2.078 13.255.697 1.37 1.186 1.645 1.191 1.648 1.278-1.033 1.931-1.806 2.511-2.81.658-1.156.724-1.766.726-1.925.383-2.63 1.46-3.732 2.306-4.277.917-.589 2.713-.836 3.766-.564.873.192 1.798.697 2.604 1.467.311.299.571.647.765 1.031.729 1.441.846 3.222.357 5.443-.321 1.707-1.008 3.505-2.018 5.234-3.392 5.941-7.97 7.195-11.211 7.195zm29.461-30.198c4.23.035 6.673-.073 8.05-.199-.083-6.605-.84-15.225-2.253-25.714a269.92 269.92 0 00-.74-5.108c-.159.785-.34 1.681-.546 2.69a549.238 549.238 0 00-1.846 9.314c-.445 2.575-.968 6.13-1.563 10.628-.503 4.428-.856 7.148-1.041 8.096l-.061.293zm-.412 9.307v.001-.001zm14.612 21.15c-1.054 0-2.568-.217-3.716-1.403-.736-.757-1.271-2.498-1.132-3.545a43.287 43.287 0 00-.388-15.546c-.616-.156-1.57-.364-3.034-.621-2.629-.481-4.795-.393-6.477.263-.101.266-.249.737-.404 1.511-.954 4.399-1.481 7.833-1.579 10.264a37.567 37.567 0 00-.052 2.087l.053 1.801c-.15 4.861-3.442 5.101-4.101 5.101-2.444 0-4.41-1.059-5.537-2.985-.755-1.261-1.111-1.85 1.271-16.24.239-1.541.803-5.8 1.678-12.739.823-6.819 1.541-11.902 2.151-15.232.234-1.471 1.187-7.713 2.849-18.646.448-3.145.823-5.22 1.085-6.203.267-1.139.653-2.601 1.127-4.281 1.191-4.222 2.658-8.345 6.305-8.345 2.66 0 4.655 1.871 5.927 5.562 1.439 4.164 2.416 7.795 2.902 10.796l1.475 8.039c.671 3.714 1.031 6.034 1.106 6.96.066.729.278 2.648.626 5.716l1.116 10.032a861.87 861.87 0 012.663 30.373l.008 1.297c0 1.325-.265 2.411-.814 3.321-.945 1.513-2.403 2.424-4.137 2.61-.223.02-.562.053-.971.053zm29.594-74.138c-.125 1.363-.284 3.905-.401 8.597-.034 1.864-.034 5.7 0 11.48l.053 6.295c.181 6.691.231 11.61.159 14.687-.114 5.855-.196 10.172-.249 12.948.458-.011.961-.023 1.501-.038 2.902-.107 4.594-.16 5.031-.16h1.464l-.061-5.442c-.071-3.956-.106-6.504-.106-7.61-.034-2.982.019-7.878.159-14.647l.053-6.254c.069-5.745.072-9.548.003-11.423-.193-4.692-.352-7.287-.466-8.716l-.674-.032c-1.583.064-2.262.106-2.865.106-1.723.031-2.864.12-3.601.209zm18.059 56.705v.003-.003zm-4.21 6.913l.011.015-.011-.015zm7.31 10.697c-1.138 0-2.448-.074-3.592-.935-.551-.204-1.988-1.507-2.304-4.459-.087-.795-.292-1.783-.591-2.954a12.49 12.49 0 00-.483-1.639c-.437-.064-1.164-.13-2.313-.13h-1.538c-.409 0-.963-.018-1.661-.06l-1.256-.046c-1.416-.093-2.493-.077-6.779.05l-4.997.056c-1.188 0-1.9.051-2.31.102-.139.351-.3.851-.462 1.566-.323 1.272-.528 2.26-.618 3.07-.313 2.937-1.751 4.24-2.899 4.813-1.1.993-5.145.667-6.594-1.102-1.551-1.892-1.074-4.27-.917-5.051.059-.283.143-.553.257-.808.181-.525.621-1.922 1.327-4.186 1.144-3.718 2.577-6.034 4.503-7.277.339-.24.715-.453 1.123-.635-.049-2.676.032-6.378.251-11.245-.075-12.602-.109-19.319-.109-19.955l-.054-13.546c-.34-15.411.391-16.876 1.814-18.301 1.427-1.552 4.017-2.452 13.281-2.452 7.599.055 9.686.804 11.067 2.257 1.878 2.023 3.047 5.909 2.754 18.414l-.106 33.606c.109 4.807.154 8.521.137 11.1a7.118 7.118 0 011.597.788c1.865 1.243 3.265 3.548 4.408 7.257.66 1.794 1.191 3.449 1.536 4.782.016.067.031.133.045.201.156.781.634 3.159-.918 5.051-.729.891-2.446 1.668-3.599 1.668zm21.813-40.688l.055 1.574c-.389 14.338-.603 22.899-.637 25.787.014 1.466.048 2.558.09 3.363 1.271-.361 2.197-.975 2.918-1.92 2.438-3.169 3.618-6.423 3.618-9.963v-.027c.064-8.859-1.541-14.87-4.769-17.869a6.864 6.864 0 00-1.275-.945zm-5.438 40.64c-2.081-.121-3.655-1.066-4.549-2.601-.612-.766-.66-1.46-.838-7.433-.034-1.736-.002-4.361.106-7.91.106-4.939.159-8.372.159-10.265 0-2.042-.087-10.114-.265-24.21-.141-14.3-.211-21.657-.211-22.081l-.053-5.351c0-2.914 1.636-5.117 4.274-5.749 2.34-.59 5.351.412 6.315 4.015.183.226.183.473.183 4.595.027.289.053 5.44.053 15.202-.02 5.461.038 8.616.106 10.435l.406.035c4.119.77 7.538 3.195 10.562 7.26 4.439 5.966 6.349 13.465 5.678 22.286-.479 6.733-2.294 11.963-5.387 15.521-2.333 2.763-4.648 4.553-7.041 5.433-1.04.408-2.977.818-9.498.818zm40.445-40.115c-.006.287-.014.592-.019.911-.071 3.447-.246 8.698-.533 15.757-.241 6.121-.369 9.494-.369 10.121 0 .308.016 1.4.049 3.28 1.336-.36 2.307-.959 2.986-1.831 2.379-3.126 3.562-6.396 3.59-9.955.061-8.754-1.609-14.71-4.972-17.704a7.632 7.632 0 00-.732-.579zm-5.777 40.114c-2.007-.116-3.515-.965-4.472-2.395-.743-.972-.79-1.666-.968-7.639 0-.613.053-3.202.16-7.881.106-4.968.159-8.401.159-10.294-.175-34.867-.38-44.251-.52-45.983-.308-4.211.307-7.006 1.934-8.819a5.885 5.885 0 014.203-1.952c4.134-.19 6.85-.18 8.522.027l.952-.026c1.071-.043 1.898-.034 2.499.006 5.563.465 6.133 4.112 6.177 5.22.003 4.919-5.663 4.963-10.66 5.001-1.27 0-2.196.044-2.861.101l.05 12.832c-.045 5.44.005 8.583.076 10.394.247.042.502.086.767.133 3.751.728 7.161 3.144 10.213 7.196l.014.018c4.443 5.966 6.352 13.465 5.682 22.288-.52 6.739-2.326 11.953-5.368 15.501-2.401 2.791-4.7 4.568-7.037 5.444-1.127.426-3.072.828-9.522.828zm40.958-30.585c4.233.035 6.67-.073 8.05-.199-.083-6.605-.838-15.225-2.251-25.714-.261-1.913-.507-3.61-.741-5.108-.158.785-.339 1.681-.547 2.69a538.08 538.08 0 00-1.845 9.314c-.446 2.575-.968 6.13-1.562 10.628-.504 4.428-.857 7.148-1.043 8.096-.022.102-.039.198-.061.293zm-.411 9.307v.001-.001zm14.611 21.15c-1.052 0-2.566-.217-3.715-1.403-.735-.757-1.271-2.498-1.133-3.545a43.31 43.31 0 00-.387-15.546c-.615-.156-1.571-.364-3.035-.621-2.627-.481-4.795-.393-6.476.263-.1.266-.25.737-.403 1.511-.955 4.399-1.483 7.833-1.581 10.264a37.7 37.7 0 00-.05 2.087l.053 1.801c-.152 4.861-3.442 5.101-4.101 5.101-2.446 0-4.411-1.059-5.538-2.985-.756-1.261-1.111-1.85 1.271-16.24.238-1.541.803-5.8 1.679-12.739.821-6.819 1.541-11.902 2.151-15.232.233-1.471 1.185-7.713 2.849-18.646.448-3.145.821-5.22 1.083-6.203a104.06 104.06 0 011.129-4.281c1.191-4.222 2.657-8.345 6.303-8.345 2.661 0 4.655 1.871 5.928 5.562 1.438 4.164 2.417 7.795 2.902 10.796l1.474 8.039c.671 3.714 1.033 6.034 1.106 6.96.066.729.28 2.648.626 5.716l1.117 10.032a861.87 861.87 0 012.663 30.373l.007 1.297c0 1.325-.265 2.411-.813 3.321-.944 1.513-2.404 2.424-4.138 2.61-.223.02-.562.053-.971.053z" fill="#603812"/></svg>