<svg width="800" height="600" fill="none" xmlns="http://www.w3.org/2000/svg"><path fill="#fff" d="M0 0h800v600H0z"/><path fill-rule="evenodd" clip-rule="evenodd" d="M290.73 303.845c0-12.225 9.414-21.512 21.966-21.512 10.258 0 21.12 7.524 20.879 21.865 0 .235-.121 2.821-.121 2.821 0 .47-.482.941-.965.941h-33.431c1.569 5.877 6.517 9.639 13.276 9.874 6.638 0 8.448-.588 12.069-2.939.241-.235.603-.117.844.118l3.742 5.289c.241.236.12.588-.121.823-5.31 3.409-8.69 4.232-16.534 4.232h-.121c-12.672-.117-21.483-9.169-21.483-21.512zm22.087-13.871c-6.88 0-12.069 3.997-13.518 10.11h26.069c-1.569-6.936-7.241-10.11-12.551-10.11z" fill="#354C7C"/><path d="M442.305 330.27h-51.038c-.358 0-.717.358-.717.716 0 .357.359.715.717.715h51.516c-.119-.477-.358-.954-.478-1.431z" fill="url(#paint0_linear)"/><path d="M439.676 323.833h-51.517c-.358 0-.717.358-.717.715 0 .358.359.716.717.716h52.234l-.717-1.431z" fill="url(#paint1_linear)"/><path d="M436.568 317.396h-50.44c-.359 0-.718.358-.718.715 0 .358.359.716.718.716h51.157l-.717-1.431z" fill="url(#paint2_linear)"/><path d="M445.532 349.463h-35.858c-.359 0-.717.357-.717.715s.358.715.717.715h35.978l-.12-1.43z" fill="url(#paint3_linear)"/><path d="M424.376 356.734c0 .358.359.716.718.716h20.678c0-.477 0-.954.119-1.55h-20.678a.816.816 0 00-.837.834z" fill="url(#paint4_linear)"/><path d="M445.174 343.025h-43.867c-.478 0-.717.358-.717.716 0 .357.359.715.717.715h43.987l-.12-1.431z" fill="url(#paint5_linear)"/><path d="M444.098 336.708h-48.647c-.478 0-.717.357-.717.715s.358.715.717.715h49.006l-.359-1.43z" fill="url(#paint6_linear)"/><path d="M430.233 306.071c-.239-.477-.598-.953-.837-1.549h-44.822c-.478 0-.717.357-.717.715 0 .357.358.715.717.715h45.659v.119z" fill="url(#paint7_linear)"/><path d="M432.982 310.959h-48.05c-.478 0-.717.357-.717.715s.358.715.717.715h48.887c-.239-.477-.479-.953-.837-1.43z" fill="url(#paint8_linear)"/><path d="M428.559 254.574h3.945c.358-.477.717-.954 1.076-1.55h-5.021c-.358 0-.717.358-.717.716-.119.596.239.834.717.834z" fill="url(#paint9_linear)"/><path d="M395.451 273.886h25.818c.119-.477.239-1.073.358-1.55h-26.176c-.478 0-.717.358-.717.715 0 .477.358.835.717.835z" fill="url(#paint10_linear)"/><path d="M386.127 293.197h37.771c-.239-.477-.359-.954-.598-1.55h-37.053c-.359 0-.717.358-.717.715-.12.477.239.835.597.835z" fill="url(#paint11_linear)"/><path d="M384.932 299.634h41.834a19.425 19.425 0 01-.717-1.55h-41.117c-.478 0-.717.358-.717.716 0 .476.358.834.717.834z" fill="url(#paint12_linear)"/><path d="M388.159 286.76h33.349c-.12-.477-.239-1.073-.239-1.55h-33.11c-.358 0-.717.358-.717.716 0 .477.359.834.717.834z" fill="url(#paint13_linear)"/><path d="M391.267 280.323h29.523v-1.55h-29.523c-.358 0-.717.358-.717.715 0 .358.239.835.717.835z" fill="url(#paint14_linear)"/><path d="M409.674 261.011h17.929c.359-.477.717-.953 1.076-1.549h-19.005c-.359 0-.717.357-.717.715 0 .477.358.834.717.834z" fill="url(#paint15_linear)"/><path d="M409.674 261.011h17.929c.359-.477.717-.953 1.076-1.549h-19.005c-.359 0-.717.357-.717.715 0 .477.358.834.717.834z" fill="url(#paint16_linear)"/><path d="M401.307 267.448h22.233c.239-.476.478-1.072.836-1.549h-23.069c-.478 0-.717.357-.717.715 0 .477.239.834.717.834z" fill="url(#paint17_linear)"/><path d="M401.307 267.448h22.233c.239-.476.478-1.072.836-1.549h-23.069c-.478 0-.717.357-.717.715 0 .477.239.834.717.834z" fill="url(#paint18_linear)"/><path d="M483.901 331.701c.478 0 .717-.358.717-.715 0-.358-.359-.716-.717-.716h-31.556c.12.477.24.954.359 1.55h31.197v-.119z" fill="url(#paint19_linear)"/><path d="M486.889 325.264c.358 0 .717-.358.717-.716 0-.357-.359-.715-.717-.715h-36.097c.119.477.239.954.358 1.55h35.739v-.119z" fill="url(#paint20_linear)"/><path d="M488.921 318.827c.358 0 .717-.358.717-.716 0-.357-.359-.715-.717-.715h-40.042c.119.477.359.954.478 1.55h39.564v-.119z" fill="url(#paint21_linear)"/><path d="M465.374 351.012c.359 0 .717-.358.717-.715 0-.358-.358-.715-.717-.715h-11.116v1.549h11.116v-.119z" fill="url(#paint22_linear)"/><path d="M473.861 344.575c.478 0 .717-.357.717-.715 0-.357-.359-.715-.717-.715h-19.603c0 .477.12.954.12 1.55h19.483v-.12z" fill="url(#paint23_linear)"/><path d="M479.597 338.138c.479 0 .718-.357.718-.715s-.359-.715-.718-.715h-26.056c.119.477.119.953.239 1.549h25.817v-.119z" fill="url(#paint24_linear)"/><path d="M490.594 306.072c.479 0 .718-.358.718-.716 0-.357-.359-.715-.718-.715h-46.137c.239.477.358.954.598 1.55h45.539v-.119z" fill="url(#paint25_linear)"/><path d="M490.116 312.509c.478 0 .717-.358.717-.715 0-.358-.358-.716-.717-.716h-43.388c.239.477.358.954.478 1.55h42.91v-.119z" fill="url(#paint26_linear)"/><path d="M449.955 254.574c.359 0 .717-.357.717-.715s-.358-.715-.717-.715h-4.781c-.119.477-.239 1.073-.478 1.55h5.259v-.12z" fill="url(#paint27_linear)"/><path d="M479.598 273.885c.478 0 .717-.357.717-.715 0-.357-.359-.715-.717-.715h-42.791c-.239.477-.359.954-.478 1.55h43.269v-.12z" fill="url(#paint28_linear)"/><path d="M488.921 293.197c.358 0 .717-.358.717-.715 0-.358-.359-.715-.717-.715h-49.963c.24.476.479.953.718 1.549h49.245v-.119z" fill="url(#paint29_linear)"/><path d="M490.116 299.634c.478 0 .717-.357.717-.715s-.359-.715-.717-.715h-48.409c.239.477.479.953.598 1.55h47.811v-.12z" fill="url(#paint30_linear)"/><path d="M436.807 286.76h50.082c.359 0 .717-.358.717-.715 0-.358-.358-.716-.717-.716H436.21c0 .12 0 .239.119.358.12.238.239.715.478 1.073z" fill="url(#paint31_linear)"/><path d="M435.373 280.323h48.528c.478 0 .717-.358.717-.716 0-.357-.359-.715-.717-.715h-48.528v1.431z" fill="url(#paint32_linear)"/><path d="M465.374 261.012c.359 0 .717-.358.717-.716 0-.357-.358-.715-.717-.715h-22.591c-.239.477-.478 1.073-.717 1.55h23.308v-.119z" fill="url(#paint33_linear)"/><path d="M465.374 261.012c.359 0 .717-.358.717-.716 0-.357-.358-.715-.717-.715h-22.591c-.239.477-.478 1.073-.717 1.55h23.308v-.119z" fill="url(#paint34_linear)"/><path d="M473.861 267.448c.478 0 .717-.357.717-.715s-.359-.715-.717-.715h-34.066c-.239.477-.478.953-.717 1.549h34.783v-.119z" fill="url(#paint35_linear)"/><path d="M473.861 267.448c.478 0 .717-.357.717-.715s-.359-.715-.717-.715h-34.066c-.239.477-.478.953-.717 1.549h34.783v-.119z" fill="url(#paint36_linear)"/><path fill-rule="evenodd" clip-rule="evenodd" d="M444.971 236c-2.821 21.529-19.964 23.401-14.865 48.556 8.789 28.198 25.823 43.409 16.384 90.444 10.632-28.432 6.184-51.481-10.633-91.38-4.666-16.029 11.609-22.932 9.114-47.62z" fill="url(#paint37_linear)"/><path d="M283.367 282.333h-31.528c-.331 0-.661.366-.661.732v6.581c0 .366.33.731.661.731h12.126v34.249c0 .365.331.731.661.731h6.063c.331 0 .662-.366.662-.731v-34.37h12.126c.33 0 .661-.366.661-.732v-6.581c-.22-.366-.441-.61-.771-.61zm82.401 0H334.24c-.33 0-.661.366-.661.732v6.581c0 .366.331.731.661.731h12.126v34.249c0 .365.331.731.662.731h6.063c.33 0 .661-.366.661-.731v-34.37h12.126c.331 0 .661-.366.661-.732v-6.581c-.11-.366-.33-.61-.771-.61zm-139.744 7.524c5.735.117 7.455.705 10.782 2.938.229.236.688.118.803-.117l3.555-5.29c.23-.235.115-.705-.114-.823-4.933-3.291-8.144-4.232-15.371-4.232-12.043 0-20.646 9.287-20.646 21.512 0 12.226 8.488 21.512 20.532 21.512 7.226 0 10.552-.94 15.485-4.232.229-.235.344-.587.114-.823l-3.67-5.407c-.229-.235-.574-.353-.803-.117-3.441 2.233-5.162 2.938-11.126 2.938-7.685 0-13.076-5.995-13.076-13.871 0-7.993 5.849-13.988 13.535-13.988zm-53.909-24.071c-11.1 0-15.448 1.143-22.772 5.946-.229.229-.343.572-.114.801l3.662 5.374c0 .343.343.343.686.229 5.95-4.002 8.926-4.689 18.538-4.689 9.612.801 16.706 7.319 18.194 16.696 0 0 .114.457.229 1.487-5.15-.229-8.468-.915-11.901-1.601-4.348-.915-8.925-1.83-16.821-1.83-.343 0-.572.229-.572.572v6.861c0 .343.229.572.572.572 7.209 0 11.1.8 15.219 1.715 3.547.686 7.209 1.487 12.816 1.715-2.174 8.348-8.925 14.066-17.851 14.752-9.612 0-12.473-.686-18.537-4.689-.229-.228-.687-.114-.801.115L149 315.186c0 .343 0 .687.343.915 7.324 4.803 11.672 5.947 22.772 5.947 1.716-.115 3.547-.343 5.263-.801 12.13-2.973 20.712-14.065 21.055-26.53.343-15.781-10.985-28.016-26.318-28.931zm334.602 59.612c-.233 0-.349-.124-.465-.248l-11.389-18.864c-3.137-5.337-4.764-7.198-9.877-7.198H477.2v25.814c0 .372-.232.62-.581.62h-6.624c-.348 0-.581-.248-.581-.62v-58.827c0-.372.233-.62.581-.62h6.624c.349 0 .581.248.581.62v24.946h7.205c5.229 0 6.74-2.11 9.877-7.199l10.808-17.995c.116-.124.348-.248.464-.248h7.438c.465 0 .697.496.465.993l-11.854 19.733c-3.253 4.964-4.996 6.95-6.972 8.067l-1.162.62 1.162.372c2.324.869 4.183 2.855 7.437 8.44l12.434 20.726c.233.372 0 .992-.464.992h-7.321v-.124z" fill="#354C7C"/><path fill-rule="evenodd" clip-rule="evenodd" d="M609.676 303.183c0 12.907 8.6 22.215 20.453 22.215 11.504 0 19.755-8.563 19.755-20.353 0-11.666-8.251-20.478-19.058-20.478-2.44 0-5.229.496-7.902 1.737 1.394-.992 3.021-1.985 5.113-2.978 1.395-.621 2.789-1.241 4.067-1.862l.254-.113c6.297-2.811 12.196-5.444 13.343-12.67l.116-.744s.232-.621-.233-.993l-.232-.124-5.113-3.103c-.349-.248-.814 0-.93.496l-.348 1.986c-.582 3.723-3.37 5.213-9.065 7.695-.474.217-.968.434-1.476.657-1.235.543-2.552 1.121-3.869 1.825-12.55 6.578-14.875 14.148-14.875 26.807zm20.453 14.024c-7.321 0-12.55-5.336-12.55-13.155.581-7.074 6.972-11.418 12.898-11.542 6.857 0 11.737 5.088 11.737 12.411 0 7.198-4.997 12.286-12.085 12.286z" fill="#354C7C"/><path d="M555.64 282.457c0-.372-.349-.744-.697-.744 0 0-11.388.124-13.132.248-8.831.745-10.691 10.301-12.317 18.864l-.349 1.986c-.814 3.971-2.905 14.272-5.578 14.396h-3.37l.116 8.192h3.37c8.832-.125 11.272-12.163 13.015-20.85l.349-1.986c1.627-8.191 2.673-12.039 5.462-12.287.929-.124 3.835-.124 5.694-.124v34.626c0 .372.348.745.697.745h6.159c.349 0 .697-.373.697-.745v-42.321h-.116zm49.272-.744l-6.856.124c-.233 0-.465.248-.581.496l-10.808 30.779c-4.183-.745-5.81-3.972-8.25-10.673-2.324-6.206-6.508-17.748-7.321-20.23-.117-.248-.349-.496-.698-.496h-6.74c-.464 0-.813.496-.697.993.233.744.697 1.737 1.046 2.854 1.743 4.84 4.648 12.907 7.205 19.857 2.092 5.709 4.997 13.156 12.666 15.265l-1.162 3.351-.465 1.241c-1.162 2.979-3.718 7.943-8.25 8.067h-.581l-1.395-.124c-.348 0-.697.248-.697.745l.116 6.578c0 .372.233.62.581.744l1.162.124h1.046c6.508-.124 12.318-5.336 15.223-13.651l15.921-45.051c.348-.497 0-.993-.465-.993zm-199.724 42.672v-27.103l-19.291 27.589a.801.801 0 01-.551.243h-4.961c-.331 0-.661-.365-.661-.729v-41.322c0-.365.33-.73.661-.73h6.063c.331 0 .661.365.661.73v27.224l19.402-27.589a.801.801 0 01.551-.243h4.961c.331 0 .661.364.661.729v41.444c0 .365-.33.729-.661.729h-6.063c-.441-.243-.772-.608-.772-.972z" fill="#354C7C"/><defs><linearGradient id="paint0_linear" x1="-1320.63" y1="226.436" x2="-1320.06" y2="437.544" gradientUnits="userSpaceOnUse"><stop offset=".005" stop-color="#82C4CD"/><stop offset="1" stop-color="#578796"/></linearGradient><linearGradient id="paint1_linear" x1="-1341.27" y1="227.223" x2="-1340.71" y2="438.31" gradientUnits="userSpaceOnUse"><stop offset=".005" stop-color="#82C4CD"/><stop offset="1" stop-color="#578796"/></linearGradient><linearGradient id="paint2_linear" x1="-1304.95" y1="227.971" x2="-1304.36" y2="439.084" gradientUnits="userSpaceOnUse"><stop offset=".005" stop-color="#82C4CD"/><stop offset="1" stop-color="#578796"/></linearGradient><linearGradient id="paint3_linear" x1="-831.571" y1="223.348" x2="-830.407" y2="434.849" gradientUnits="userSpaceOnUse"><stop offset=".005" stop-color="#82C4CD"/><stop offset="1" stop-color="#578796"/></linearGradient><linearGradient id="paint4_linear" x1="-296.239" y1="232.848" x2="-292.825" y2="429.773" gradientUnits="userSpaceOnUse"><stop offset=".005" stop-color="#82C4CD"/><stop offset="1" stop-color="#578796"/></linearGradient><linearGradient id="paint5_linear" x1="-1084.88" y1="224.738" x2="-1084.1" y2="435.986" gradientUnits="userSpaceOnUse"><stop offset=".005" stop-color="#82C4CD"/><stop offset="1" stop-color="#578796"/></linearGradient><linearGradient id="paint6_linear" x1="-1242.77" y1="225.55" x2="-1242.14" y2="436.698" gradientUnits="userSpaceOnUse"><stop offset=".005" stop-color="#82C4CD"/><stop offset="1" stop-color="#578796"/></linearGradient><linearGradient id="paint7_linear" x1="-1011.75" y1="235.12" x2="-1011.02" y2="430.163" gradientUnits="userSpaceOnUse"><stop offset=".005" stop-color="#82C4CD"/><stop offset="1" stop-color="#578796"/></linearGradient><linearGradient id="paint8_linear" x1="-1230.41" y1="228.568" x2="-1229.77" y2="439.718" gradientUnits="userSpaceOnUse"><stop offset=".005" stop-color="#82C4CD"/><stop offset="1" stop-color="#578796"/></linearGradient><linearGradient id="paint9_linear" x1="233.479" y1="232.534" x2="281.025" y2="429.134" gradientUnits="userSpaceOnUse"><stop offset=".005" stop-color="#82C4CD"/><stop offset="1" stop-color="#578796"/></linearGradient><linearGradient id="paint10_linear" x1="-424.107" y1="225.174" x2="-421.932" y2="421.245" gradientUnits="userSpaceOnUse"><stop offset=".005" stop-color="#82C4CD"/><stop offset="1" stop-color="#578796"/></linearGradient><linearGradient id="paint11_linear" x1="-771.914" y1="233.569" x2="-770.85" y2="428.853" gradientUnits="userSpaceOnUse"><stop offset=".005" stop-color="#82C4CD"/><stop offset="1" stop-color="#578796"/></linearGradient><linearGradient id="paint12_linear" x1="-896.843" y1="234.579" x2="-895.978" y2="429.72" gradientUnits="userSpaceOnUse"><stop offset=".005" stop-color="#82C4CD"/><stop offset="1" stop-color="#578796"/></linearGradient><linearGradient id="paint13_linear" x1="-641.774" y1="231.88" x2="-640.422" y2="427.359" gradientUnits="userSpaceOnUse"><stop offset=".005" stop-color="#82C4CD"/><stop offset="1" stop-color="#578796"/></linearGradient><linearGradient id="paint14_linear" x1="-526.131" y1="229.109" x2="-524.413" y2="424.858" gradientUnits="userSpaceOnUse"><stop offset=".005" stop-color="#82C4CD"/><stop offset="1" stop-color="#578796"/></linearGradient><linearGradient id="paint15_linear" x1="-204.401" y1="213.236" x2="-200.328" y2="410.605" gradientUnits="userSpaceOnUse"><stop offset=".005" stop-color="#82C4CD"/><stop offset="1" stop-color="#578796"/></linearGradient><linearGradient id="paint16_linear" x1="-204.401" y1="213.236" x2="-200.328" y2="410.605" gradientUnits="userSpaceOnUse"><stop offset=".005" stop-color="#82C4CD"/><stop offset="1" stop-color="#578796"/></linearGradient><linearGradient id="paint17_linear" x1="-328.613" y1="219.786" x2="-325.826" y2="416.281" gradientUnits="userSpaceOnUse"><stop offset=".005" stop-color="#82C4CD"/><stop offset="1" stop-color="#578796"/></linearGradient><linearGradient id="paint18_linear" x1="-328.613" y1="219.786" x2="-325.826" y2="416.281" gradientUnits="userSpaceOnUse"><stop offset=".005" stop-color="#82C4CD"/><stop offset="1" stop-color="#578796"/></linearGradient><linearGradient id="paint19_linear" x1="-591.063" y1="187.494" x2="-589.556" y2="383.094" gradientUnits="userSpaceOnUse"><stop offset=".005" stop-color="#82C4CD"/><stop offset="1" stop-color="#578796"/></linearGradient><linearGradient id="paint20_linear" x1="-721.324" y1="183.399" x2="-720.168" y2="378.739" gradientUnits="userSpaceOnUse"><stop offset=".005" stop-color="#82C4CD"/><stop offset="1" stop-color="#578796"/></linearGradient><linearGradient id="paint21_linear" x1="-834.334" y1="180.237" x2="-833.391" y2="375.434" gradientUnits="userSpaceOnUse"><stop offset=".005" stop-color="#82C4CD"/><stop offset="1" stop-color="#578796"/></linearGradient><linearGradient id="paint22_linear" x1="-1.663" y1="215.541" x2="9.915" y2="417.56" gradientUnits="userSpaceOnUse"><stop offset=".005" stop-color="#82C4CD"/><stop offset="1" stop-color="#578796"/></linearGradient><linearGradient id="paint23_linear" x1="-246.901" y1="200.742" x2="-243.068" y2="397.95" gradientUnits="userSpaceOnUse"><stop offset=".005" stop-color="#82C4CD"/><stop offset="1" stop-color="#578796"/></linearGradient><linearGradient id="paint24_linear" x1="-432.882" y1="192.969" x2="-430.687" y2="389.053" gradientUnits="userSpaceOnUse"><stop offset=".005" stop-color="#82C4CD"/><stop offset="1" stop-color="#578796"/></linearGradient><linearGradient id="paint25_linear" x1="-1008.04" y1="175.91" x2="-1007.32" y2="370.941" gradientUnits="userSpaceOnUse"><stop offset=".005" stop-color="#82C4CD"/><stop offset="1" stop-color="#578796"/></linearGradient><linearGradient id="paint26_linear" x1="-929.887" y1="177.694" x2="-929.082" y2="372.792" gradientUnits="userSpaceOnUse"><stop offset=".005" stop-color="#82C4CD"/><stop offset="1" stop-color="#578796"/></linearGradient><linearGradient id="paint27_linear" x1="232.508" y1="215.114" x2="276.542" y2="411.096" gradientUnits="userSpaceOnUse"><stop offset=".005" stop-color="#82C4CD"/><stop offset="1" stop-color="#578796"/></linearGradient><linearGradient id="paint28_linear" x1="-911.964" y1="173.65" x2="-911.154" y2="368.752" gradientUnits="userSpaceOnUse"><stop offset=".005" stop-color="#82C4CD"/><stop offset="1" stop-color="#578796"/></linearGradient><linearGradient id="paint29_linear" x1="-1115.59" y1="174.025" x2="-1114.98" y2="368.982" gradientUnits="userSpaceOnUse"><stop offset=".005" stop-color="#82C4CD"/><stop offset="1" stop-color="#578796"/></linearGradient><linearGradient id="paint30_linear" x1="-1072.28" y1="174.696" x2="-1071.63" y2="369.681" gradientUnits="userSpaceOnUse"><stop offset=".005" stop-color="#82C4CD"/><stop offset="1" stop-color="#578796"/></linearGradient><linearGradient id="paint31_linear" x1="-1260.23" y1="164.262" x2="-1259.64" y2="375.371" gradientUnits="userSpaceOnUse"><stop offset=".005" stop-color="#82C4CD"/><stop offset="1" stop-color="#578796"/></linearGradient><linearGradient id="paint32_linear" x1="-1189.55" y1="164.739" x2="-1188.9" y2="375.894" gradientUnits="userSpaceOnUse"><stop offset=".005" stop-color="#82C4CD"/><stop offset="1" stop-color="#578796"/></linearGradient><linearGradient id="paint33_linear" x1="-320.733" y1="177.324" x2="-318.002" y2="373.781" gradientUnits="userSpaceOnUse"><stop offset=".005" stop-color="#82C4CD"/><stop offset="1" stop-color="#578796"/></linearGradient><linearGradient id="paint34_linear" x1="-320.733" y1="177.324" x2="-318.002" y2="373.781" gradientUnits="userSpaceOnUse"><stop offset=".005" stop-color="#82C4CD"/><stop offset="1" stop-color="#578796"/></linearGradient><linearGradient id="paint35_linear" x1="-660.101" y1="174.041" x2="-658.857" y2="369.453" gradientUnits="userSpaceOnUse"><stop offset=".005" stop-color="#82C4CD"/><stop offset="1" stop-color="#578796"/></linearGradient><linearGradient id="paint36_linear" x1="-660.101" y1="174.041" x2="-658.857" y2="369.453" gradientUnits="userSpaceOnUse"><stop offset=".005" stop-color="#82C4CD"/><stop offset="1" stop-color="#578796"/></linearGradient><linearGradient id="paint37_linear" x1="433.83" y1="253.705" x2="432.7" y2="337.595" gradientUnits="userSpaceOnUse"><stop stop-color="#EFC098"/><stop offset="1" stop-color="#B88860"/></linearGradient></defs></svg>