<svg width="800" height="600" fill="none" xmlns="http://www.w3.org/2000/svg"><path fill="#fff" d="M0 0h800v600H0z"/><mask id="a" maskUnits="userSpaceOnUse" x="493.691" y="111" width="108" height="108" fill="#000"><path fill="#fff" d="M493.691 111h108v108h-108z"/><path fill-rule="evenodd" clip-rule="evenodd" d="M536.091 136l11.6 11.6 11.6-11.6v17.4h17.4l-11.6 11.6 11.6 11.6h-17.4V194l-11.6-11.6-11.6 11.6v-17.4h-17.4l11.6-11.6-11.6-11.6h17.4V136zm11.6 23.141L541.832 165l5.859 5.859L553.55 165l-5.859-5.859z"/></mask><path fill-rule="evenodd" clip-rule="evenodd" d="M536.091 136l11.6 11.6 11.6-11.6v17.4h17.4l-11.6 11.6 11.6 11.6h-17.4V194l-11.6-11.6-11.6 11.6v-17.4h-17.4l11.6-11.6-11.6-11.6h17.4V136zm11.6 23.141L541.832 165l5.859 5.859L553.55 165l-5.859-5.859z" fill="#E53124"/><path d="M547.691 147.6l-7.071 7.071 7.071 7.071 7.071-7.071-7.071-7.071zm-11.6-11.6l7.071-7.071-17.071-17.071V136h10zm23.2 0h10v-24.142l-17.071 17.071 7.071 7.071zm0 17.4h-10v10h10v-10zm17.4 0l7.071 7.071 17.071-17.071h-24.142v10zm-11.6 11.6l-7.071-7.071-7.071 7.071 7.071 7.071 7.071-7.071zm11.6 11.6v10h24.142l-17.071-17.071-7.071 7.071zm-17.4 0v-10h-10v10h10zm0 17.4l-7.071 7.071 17.071 17.071V194h-10zm-11.6-11.6l7.071-7.071-7.071-7.071-7.071 7.071 7.071 7.071zm-11.6 11.6h-10v24.142l17.071-17.071-7.071-7.071zm0-17.4h10v-10h-10v10zm-17.4 0l-7.071-7.071-17.071 17.071h24.142v-10zm11.6-11.6l7.071 7.071 7.071-7.071-7.071-7.071-7.071 7.071zm-11.6-11.6v-10h-24.142l17.071 17.071 7.071-7.071zm17.4 0v10h10v-10h-10zm5.741 11.6l-7.071-7.071L527.69 165l7.071 7.071 7.071-7.071zm5.859-5.859l7.071-7.071-7.071-7.071-7.071 7.071 7.071 7.071zm0 11.718l-7.071 7.071 7.071 7.071 7.071-7.071-7.071-7.071zM553.55 165l7.071 7.071 7.071-7.071-7.071-7.071L553.55 165zm1.212-24.471l-11.6-11.6-14.142 14.142 11.6 11.6 14.142-14.142zm-2.542-11.6l-11.6 11.6 14.142 14.142 11.6-11.6-14.142-14.142zm17.071 24.471V136h-20v17.4h20zm7.4-10h-17.4v20h17.4v-20zm-4.529 28.671l11.6-11.6-14.142-14.142-11.6 11.6 14.142 14.142zm11.6-2.542l-11.6-11.6-14.142 14.142 11.6 11.6 14.142-14.142zM559.291 186.6h17.4v-20h-17.4v20zm10 7.4v-17.4h-20V194h20zm-28.671-4.529l11.6 11.6 14.142-14.142-11.6-11.6-14.142 14.142zm2.542 11.6l11.6-11.6-14.142-14.142-11.6 11.6 14.142 14.142zM526.091 176.6V194h20v-17.4h-20zm-7.4 10h17.4v-20h-17.4v20zm4.529-28.671l-11.6 11.6 14.142 14.142 11.6-11.6-14.142-14.142zm-11.6 2.542l11.6 11.6 14.142-14.142-11.6-11.6-14.142 14.142zm24.471-17.071h-17.4v20h17.4v-20zm-10-7.4v17.4h20V136h-20zm22.812 36.071l5.859-5.859-14.142-14.142-5.859 5.859 14.142 14.142zm5.859-8.283l-5.859-5.859-14.142 14.142 5.859 5.859 14.142-14.142zm-8.283-5.859l-5.859 5.859 14.142 14.142 5.859-5.859-14.142-14.142zm-5.859 8.283l5.859 5.859 14.142-14.142-5.859-5.859-14.142 14.142z" fill="#fff" mask="url(#a)"/><mask id="b" maskUnits="userSpaceOnUse" x="274.103" y="416" width="248" height="78" fill="#000"><path fill="#fff" d="M274.103 416h248v78h-248z"/><path fill-rule="evenodd" clip-rule="evenodd" d="M284.103 426v7.573h9.174l24.009 24.009 5.355-5.355 13.386-13.386 16.064 16.063-13.387 13.387-8.032-8.032-5.354 5.355L338.704 479l5.355-5.355 13.386-13.386L376.186 479l5.355-5.355 8.032-8.031-5.355-5.355-8.032 8.032-13.386-13.387 16.064-16.063 18.741 18.741 5.354-5.355 13.387-13.386 16.063 16.063-13.386 13.387-8.032-8.032-5.354 5.355L419.023 479l5.355-5.355 13.386-13.386L456.505 479l5.355-5.355 8.031-8.031-5.354-5.355-8.032 8.032-13.386-13.387 16.063-16.063 18.741 18.741 5.355-5.355 18.654-18.654h9.347V426H284.103zm207.12 7.573h-26.6l13.3 13.299 13.3-13.299zm-37.482 0h-31.954l15.977 15.977 15.977-15.977zm-42.836 0h-26.6l13.3 13.3 13.3-13.3zm-37.482 0h-31.955l15.977 15.977 15.978-15.977zm-42.837 0h-26.6l13.3 13.299 13.3-13.299z"/></mask><path fill-rule="evenodd" clip-rule="evenodd" d="M284.103 426v7.573h9.174l24.009 24.009 5.355-5.355 13.386-13.386 16.064 16.063-13.387 13.387-8.032-8.032-5.354 5.355L338.704 479l5.355-5.355 13.386-13.386L376.186 479l5.355-5.355 8.032-8.031-5.355-5.355-8.032 8.032-13.386-13.387 16.064-16.063 18.741 18.741 5.354-5.355 13.387-13.386 16.063 16.063-13.386 13.387-8.032-8.032-5.354 5.355L419.023 479l5.355-5.355 13.386-13.386L456.505 479l5.355-5.355 8.031-8.031-5.354-5.355-8.032 8.032-13.386-13.387 16.063-16.063 18.741 18.741 5.355-5.355 18.654-18.654h9.347V426H284.103zm207.12 7.573h-26.6l13.3 13.299 13.3-13.299zm-37.482 0h-31.954l15.977 15.977 15.977-15.977zm-42.836 0h-26.6l13.3 13.3 13.3-13.3zm-37.482 0h-31.955l15.977 15.977 15.978-15.977zm-42.837 0h-26.6l13.3 13.299 13.3-13.299z" fill="#E53124"/><path d="M284.103 433.573h-10v10h10v-10zm0-7.573v-10h-10v10h10zm9.174 7.573l7.071-7.072-2.929-2.928h-4.142v10zm24.009 24.009l-7.071 7.071 7.071 7.071 7.071-7.071-7.071-7.071zm5.355-5.355l7.071 7.071-7.071-7.071zm13.386-13.386l7.071-7.071-7.071-7.072-7.071 7.072 7.071 7.071zm16.064 16.063l7.071 7.071 7.071-7.071-7.071-7.071-7.071 7.071zm-13.387 13.387l-7.071 7.071 7.071 7.071 7.071-7.071-7.071-7.071zm-8.032-8.032l7.071-7.071-7.071-7.071-7.071 7.071 7.071 7.071zm-5.354 5.355l-7.071-7.071-7.071 7.071 7.071 7.071 7.071-7.071zM338.704 479l-7.071 7.071 7.071 7.071 7.071-7.071-7.071-7.071zm5.355-5.355l7.071 7.072v-.001l-7.071-7.071zm13.386-13.386l7.071-7.071-7.071-7.071-7.071 7.071 7.071 7.071zM376.186 479l-7.071 7.071 7.071 7.071 7.071-7.071-7.071-7.071zm5.355-5.355l7.071 7.072v-.001l-7.071-7.071zm8.032-8.031l7.071 7.071 7.071-7.071-7.071-7.072-7.071 7.072zm-5.355-5.355l7.071-7.071-7.071-7.071-7.071 7.071 7.071 7.071zm-8.032 8.032l-7.071 7.071 7.071 7.071 7.071-7.071-7.071-7.071zM362.8 454.904l-7.071-7.071-7.071 7.071 7.071 7.071 7.071-7.071zm16.064-16.063l7.071-7.071-7.071-7.071-7.072 7.071 7.072 7.071zm18.741 18.741l-7.071 7.071 7.071 7.071 7.071-7.071-7.071-7.071zm5.354-5.355l7.071 7.071-7.071-7.071zm13.387-13.386l7.071-7.071-7.071-7.072-7.071 7.072 7.071 7.071zm16.063 16.063l7.071 7.071 7.071-7.071-7.071-7.071-7.071 7.071zm-13.386 13.387l-7.071 7.071 7.071 7.071 7.071-7.071-7.071-7.071zm-8.032-8.032l7.071-7.071-7.071-7.071-7.071 7.071 7.071 7.071zm-5.354 5.355l-7.072-7.071-7.071 7.071 7.071 7.071 7.072-7.071zM419.023 479l-7.071 7.071 7.071 7.071 7.071-7.071-7.071-7.071zm5.355-5.355l7.071 7.072v-.001l-7.071-7.071zm13.386-13.386l7.071-7.071-7.071-7.071-7.071 7.071 7.071 7.071zM456.505 479l-7.071 7.071 7.071 7.071 7.071-7.071-7.071-7.071zm5.355-5.355l7.071 7.071-7.071-7.071zm8.031-8.031l7.072 7.071 7.071-7.072-7.071-7.071-7.072 7.072zm-5.354-5.355l7.071-7.071-7.071-7.071-7.071 7.071 7.071 7.071zm-8.032 8.032l-7.071 7.071 7.071 7.071 7.071-7.071-7.071-7.071zm-13.386-13.387l-7.072-7.071-7.071 7.071 7.071 7.071 7.072-7.071zm16.063-16.063l7.071-7.071-7.071-7.072-7.071 7.072 7.071 7.071zm18.741 18.741l-7.071 7.071 7.071 7.071 7.071-7.071-7.071-7.071zm5.355-5.355l-7.071-7.071 7.071 7.071zm18.654-18.654v-10h-4.142l-2.929 2.928 7.071 7.072zm9.347 0v10h10v-10h-10zm0-7.573h10v-10h-10v10zm-20.056 7.573l7.071 7.071 17.071-17.071h-24.142v10zm-26.6 0v-10h-24.142l17.071 17.071 7.071-7.071zm13.3 13.299l-7.071 7.072 7.071 7.071 7.071-7.071-7.071-7.072zm-24.182-13.299l7.071 7.071 17.071-17.071h-24.142v10zm-31.954 0v-10h-24.142l17.071 17.071 7.071-7.071zm15.977 15.977l-7.071 7.071 7.071 7.071 7.071-7.071-7.071-7.071zm-26.859-15.977l7.071 7.071 17.071-17.071h-24.142v10zm-26.6 0v-10h-24.143l17.072 17.071 7.071-7.071zm13.3 13.3l-7.071 7.071 7.071 7.071 7.071-7.071-7.071-7.071zm-24.182-13.3l7.071 7.071 17.071-17.071h-24.142v10zm-31.955 0v-10h-24.142l17.071 17.071 7.071-7.071zm15.977 15.977l-7.071 7.071 7.071 7.071 7.071-7.071-7.071-7.071zm-26.859-15.977l7.071 7.071 17.071-17.071h-24.142v10zm-26.6 0v-10h-24.142l17.071 17.071 7.071-7.071zm13.3 13.299l-7.071 7.072 7.071 7.071 7.071-7.071-7.071-7.072zm-23.183-13.299V426h-20v7.573h20zm-.826-10h-9.174v20h9.174v-20zm-7.071 17.071l24.009 24.009 14.142-14.142-24.009-24.01-14.142 14.143zm38.151 24.009l5.355-5.355-14.143-14.142-5.354 5.355 14.142 14.142zm5.355-5.355l13.386-13.386-14.142-14.142-13.387 13.386 14.143 14.142zm-.756-13.386l16.064 16.063 14.142-14.142-16.064-16.063-14.142 14.142zm16.064 1.921l-13.387 13.387 14.142 14.142 13.387-13.387-14.142-14.142zm.755 13.387l-8.032-8.032-14.142 14.142 8.032 8.032 14.142-14.142zm-22.174-8.032l-5.354 5.355 14.142 14.142 5.354-5.355-14.142-14.142zm-5.354 19.497l13.386 13.386 14.142-14.142-13.386-13.386-14.142 14.142zm27.528 13.386l5.355-5.354-14.142-14.143-5.355 5.355 14.142 14.142zm5.355-5.355l13.386-13.386-14.142-14.142-13.386 13.386 14.142 14.142zm-.756-13.386l18.741 18.741 14.142-14.142-18.741-18.741-14.142 14.142zm32.883 18.741l5.355-5.354-14.142-14.143-5.355 5.355 14.142 14.142zm5.355-5.355l8.032-8.031-14.142-14.143-8.032 8.032 14.142 14.142zm8.032-22.174l-5.355-5.354-14.142 14.142 5.355 5.355 14.142-14.143zm-19.497-5.354l-8.032 8.032 14.142 14.142 8.032-8.032-14.142-14.142zm6.11 8.032l-13.386-13.387-14.142 14.142 13.386 13.387 14.142-14.142zm-13.386.755l16.064-16.063-14.143-14.142-16.063 16.063 14.142 14.142zm1.921-16.063l18.742 18.741 14.142-14.142-18.741-18.741-14.143 14.142zm32.884 18.741l5.354-5.355-14.142-14.142-5.354 5.355 14.142 14.142zm5.354-5.355l13.387-13.386-14.142-14.142-13.387 13.386 14.142 14.142zm-.755-13.386l16.063 16.063 14.142-14.142-16.063-16.063-14.142 14.142zm16.063 1.921l-13.386 13.387 14.142 14.142 13.386-13.387-14.142-14.142zm.756 13.387l-8.032-8.032-14.142 14.142 8.032 8.032 14.142-14.142zm-22.174-8.032l-5.355 5.355 14.143 14.142 5.354-5.355-14.142-14.142zm-5.355 19.497l13.387 13.386 14.142-14.142-13.386-13.387-14.143 14.143zm27.529 13.386l5.355-5.354-14.143-14.143-5.354 5.355 14.142 14.142zm5.355-5.355l13.386-13.386-14.142-14.142-13.387 13.386 14.143 14.142zm-.756-13.386l18.741 18.741 14.142-14.142-18.741-18.741-14.142 14.142zm32.883 18.741l5.355-5.355-14.142-14.142-5.355 5.355 14.142 14.142zm5.355-5.355l8.032-8.031-14.143-14.143-8.031 8.032 14.142 14.142zm8.032-22.174l-5.355-5.354-14.142 14.142 5.354 5.355 14.143-14.143zm-19.497-5.354l-8.032 8.032 14.142 14.142 8.032-8.032-14.142-14.142zm6.11 8.032l-13.386-13.387-14.143 14.142 13.387 13.387 14.142-14.142zm-13.386.755l16.063-16.063-14.142-14.142-16.064 16.063 14.143 14.142zm1.921-16.063l18.741 18.741 14.142-14.142-18.741-18.741-14.142 14.142zm32.883 18.741l5.355-5.355-14.142-14.142-5.355 5.355 14.142 14.142zm5.355-5.355l18.655-18.654-14.143-14.143-18.654 18.655 14.142 14.142zm20.93-35.725h-9.347v20h9.347v-20zm-10 2.427v7.573h20V426h-20zm-217.176 10h227.176v-20H284.103v20zm207.12-12.427h-26.6v20h26.6v-20zm-6.229 16.228l-13.3-13.3-14.142 14.143 13.3 13.3 14.142-14.143zm-.842-13.3l-13.3 13.3 14.142 14.143 13.3-13.3-14.142-14.143zm-30.411-2.928h-31.954v20h31.954v-20zm-8.906 18.906l-15.977-15.978-14.142 14.143 15.977 15.977 14.142-14.142zm1.835-15.978l-15.977 15.978 14.142 14.142 15.977-15.977-14.142-14.143zm-35.765-2.928h-26.6v20h26.6v-20zm-6.229 16.228l-13.3-13.3-14.142 14.143 13.3 13.3 14.142-14.143zm-.842-13.3l-13.3 13.3 14.142 14.143 13.3-13.3-14.142-14.143zm-30.411-2.928h-31.955v20h31.955v-20zm-8.907 18.906l-15.977-15.978-14.142 14.143 15.977 15.977 14.142-14.142zm1.835-15.978l-15.977 15.978 14.142 14.142 15.978-15.977-14.143-14.143zm-35.765-2.928h-26.6v20h26.6v-20zm-6.229 16.228l-13.3-13.3-14.142 14.143 13.3 13.3 14.142-14.143zm-.842-13.3l-13.3 13.3 14.142 14.143 13.3-13.3-14.142-14.143z" fill="#fff" mask="url(#b)"/><path d="M172.24 261.552l-8.288 8.848V290H142v-78.4h21.952v32.592l30.352-32.592h24.416l-32.032 34.72L220.4 290h-25.76l-22.4-28.448z" fill="#2B2A29"/><path d="M275.028 274.768h-33.152L235.716 290h-22.624l34.608-78.4h21.84l34.72 78.4h-23.072l-6.16-15.232zm-6.496-16.352l-10.08-25.088-10.08 25.088h20.16zm76.287 10.752h-12.096V290h-22.176v-78.4h35.84c7.093 0 13.253 1.195 18.48 3.584 5.227 2.315 9.259 5.675 12.096 10.08 2.837 4.331 4.256 9.445 4.256 15.344 0 5.675-1.344 10.64-4.032 14.896-2.613 4.181-6.384 7.467-11.312 9.856L382.787 290h-23.744l-14.224-20.832zm14-28.56c0-3.659-1.157-6.496-3.472-8.512s-5.749-3.024-10.304-3.024h-12.32v22.96h12.32c4.555 0 7.989-.971 10.304-2.912 2.315-2.016 3.472-4.853 3.472-8.512zm97.578 32.256V290h-62.944v-78.4h61.488v17.136h-39.536v13.216h34.832v16.576h-34.832v14.336h40.992zm12.306-61.264h22.176v60.816h37.408V290h-59.584v-78.4zm68.359 0h22.176V290h-22.176v-78.4zm90.482 63.168h-33.152L588.232 290h-22.624l34.608-78.4h21.84l34.72 78.4h-23.072l-6.16-15.232zm-6.496-16.352l-10.08-25.088-10.08 25.088h20.16zM235.04 400.536c-6.347 0-12.507-.784-18.48-2.352-5.973-1.568-10.827-3.659-14.56-6.272l7.28-16.352c3.509 2.315 7.579 4.181 12.208 5.6 4.629 1.419 9.184 2.128 13.664 2.128 8.512 0 12.768-2.128 12.768-6.384 0-2.24-1.232-3.883-3.696-4.928-2.389-1.12-6.272-2.277-11.648-3.472-5.899-1.269-10.827-2.613-14.784-4.032-3.957-1.493-7.355-3.845-10.192-7.056-2.837-3.211-4.256-7.541-4.256-12.992 0-4.779 1.307-9.072 3.92-12.88 2.613-3.883 6.496-6.944 11.648-9.184 5.227-2.24 11.611-3.36 19.152-3.36 5.152 0 10.229.597 15.232 1.792 5.003 1.12 9.408 2.8 13.216 5.04l-6.832 16.464c-7.467-4.032-14.709-6.048-21.728-6.048-4.405 0-7.616.672-9.632 2.016-2.016 1.269-3.024 2.949-3.024 5.04s1.195 3.659 3.584 4.704c2.389 1.045 6.235 2.128 11.536 3.248 5.973 1.269 10.901 2.651 14.784 4.144 3.957 1.419 7.355 3.733 10.192 6.944 2.912 3.136 4.368 7.429 4.368 12.88 0 4.704-1.307 8.96-3.92 12.768s-6.533 6.869-11.76 9.184c-5.227 2.24-11.573 3.36-19.04 3.36zm60.558-62.384h-24.08v-17.584h70.224v17.584h-23.968v60.816h-22.176v-60.816zm92.848 62.384c-8.288 0-15.755-1.755-22.4-5.264-6.571-3.509-11.76-8.363-15.568-14.56-3.733-6.197-5.6-13.179-5.6-20.944 0-7.765 1.867-14.747 5.6-20.944 3.808-6.197 8.997-11.051 15.568-14.56 6.645-3.509 14.112-5.264 22.4-5.264 8.288 0 15.717 1.755 22.288 5.264 6.645 3.509 11.835 8.363 15.568 14.56 3.808 6.197 5.712 13.179 5.712 20.944 0 7.765-1.904 14.747-5.712 20.944-3.733 6.197-8.923 11.051-15.568 14.56-6.571 3.509-14 5.264-22.288 5.264zm0-18.368c3.957 0 7.541-.933 10.752-2.8 3.211-1.867 5.749-4.48 7.616-7.84 1.867-3.435 2.8-7.355 2.8-11.76 0-4.405-.933-8.288-2.8-11.648-1.867-3.435-4.405-6.085-7.616-7.952-3.211-1.867-6.795-2.8-10.752-2.8-3.957 0-7.541.933-10.752 2.8-3.211 1.867-5.749 4.517-7.616 7.952-1.867 3.36-2.8 7.243-2.8 11.648 0 4.405.933 8.325 2.8 11.76 1.867 3.36 4.405 5.973 7.616 7.84 3.211 1.867 6.795 2.8 10.752 2.8zm129.775-61.6v78.4h-18.256l-34.608-41.776v41.776h-21.728v-78.4h18.256l34.608 41.776v-41.776h21.728zm78.586 61.264v17.136h-62.944v-78.4h61.488v17.136h-39.536v13.216h34.832v16.576h-34.832v14.336h40.992z" fill="#2B2A29"/></svg>