<svg width="800" height="600" fill="none" xmlns="http://www.w3.org/2000/svg"><path d="M416.766 208.779c0 11.272-3.059 18.198-9.175 20.778 7.467 2.501 11.2 10.736 11.2 24.708v2.679c-.079 10.518-1.926 18.099-5.54 22.742-3.575 4.644-9.433 6.966-17.575 6.966h-23.175V181.869h22.698c7.825 0 13.365 1.825 16.622 5.477 3.257 3.612 4.905 9.684 4.945 18.218v3.215zm-28.299 65.49h5.66c3.177 0 5.402-1.092 6.672-3.275 1.271-2.183 1.907-6.092 1.907-11.728v-8.455c0-5.318-.516-9.069-1.549-11.252-1.033-2.223-3.019-3.334-5.958-3.334h-6.732v38.044zm0-50.011h5.898c2.741 0 4.528-.873 5.362-2.619.874-1.747 1.311-5.339 1.311-10.776v-6.311c-.04-4.049-.596-6.748-1.668-8.097-1.073-1.389-2.92-2.084-5.541-2.084h-5.362v29.887zm66.46 13.932c-5.004 2.222-8.38 4.326-10.128 6.311-1.747 1.984-2.621 5.06-2.621 9.228v9.585c0 4.168.437 7.164 1.31 8.99.874 1.786 2.284 2.679 4.23 2.679 1.986 0 3.595-.655 4.826-1.965 1.271-1.349 2.065-2.857 2.383-4.524V238.19zm-12.451 49.355c-5.839 0-10.009-2.084-12.511-6.251-2.502-4.207-3.793-10.24-3.872-18.099v-5.716c0-7.62 2.065-13.395 6.195-17.325 2.661-2.579 7.169-5.08 13.524-7.501 1.152-.437 2.74-1.032 4.766-1.786a381.19 381.19 0 004.349-1.608v-7.799c0-4.842-.358-8.117-1.073-9.823-.675-1.747-2.263-2.62-4.766-2.62-2.462 0-4.11.913-4.944 2.739-.834 1.826-1.251 4.902-1.251 9.228v3.989h-15.609v-2.679c0-8.454 1.569-14.904 4.706-19.35 3.178-4.445 8.778-6.668 16.801-6.668 8.062 0 13.781 2.223 17.157 6.668 3.416 4.446 5.124 11.114 5.124 20.005v63.703h-15.907v-8.871c-.794 2.739-2.323 5.061-4.587 6.966-2.224 1.865-4.925 2.798-8.102 2.798zm39.948-.893V180.976h15.788v56.976l15.251-40.604h16.025l-17.217 43.938 18.23 45.366h-16.085l-16.204-42.449v42.449h-15.788zm73.072 1.072c-10.048 0-16.522-3.83-19.421-11.491-1.827-4.882-2.74-11.312-2.74-19.289v-33.281c0-18.258 7.605-27.387 22.817-27.387 8.102 0 13.702 2.402 16.8 7.204 3.137 4.803 4.706 11.63 4.706 20.481v19.111h-28.417v17.563c0 6.192.536 10.141 1.609 11.848 1.072 1.667 2.68 2.5 4.825 2.5s3.535-.496 4.17-1.488c1.073-1.747 1.688-3.533 1.847-5.359.159-1.825.238-4.326.238-7.501v-7.859h15.609v4.763c0 8.097-.635 13.912-1.906 17.444-1.271 3.533-2.741 6.093-4.409 7.68-3.495 3.374-8.737 5.061-15.728 5.061zm-6.315-53.88h12.749v-11.431c0-4.882-.397-8.375-1.191-10.479-.755-2.143-2.323-3.215-4.706-3.215h-.06c-4.131 0-6.355 3.156-6.672 9.467-.08 1.19-.12 2.738-.12 4.643v11.015zm69.975-37.568c.159 0 .238 3.334.238 10.002l-.06 3.334c-3.177 0-6.295.536-9.353 1.608s-5.064 2.6-6.017 4.584v70.848h-15.906v-89.304h15.906v9.943c1.033-3.493 2.84-6.192 5.421-8.097 2.622-1.945 5.879-2.918 9.771-2.918zM416.17 405.232c0 10.121-1.807 17.622-5.422 22.504-3.614 4.842-9.293 7.264-17.038 7.264-7.745 0-13.543-2.58-17.396-7.74-3.813-5.2-5.719-12.661-5.719-22.386V359.21c0-15.598 4.091-25.342 12.272-29.232 3.019-1.429 6.673-2.143 10.962-2.143 14.735 0 22.102 9.287 22.102 27.863v14.407h-15.429V356.71c0-5.398-.457-9.248-1.371-11.55-.913-2.342-2.7-3.513-5.361-3.513-2.661 0-4.508 1.23-5.541 3.691-1.032 2.461-1.549 6.232-1.549 11.312v48.939c0 5.636.497 9.664 1.49 12.086.992 2.421 2.8 3.631 5.421 3.631 2.621 0 4.428-1.23 5.421-3.691.993-2.461 1.49-6.529 1.49-12.205v-15.003h15.668v14.825zm30.476 16.908c2.462 0 4.13-1.072 5.004-3.215.914-2.183 1.37-5.418 1.37-9.704v-39.949c0-4.366-.456-7.641-1.37-9.824-.913-2.183-2.601-3.274-5.064-3.274-2.462 0-4.15 1.091-5.064 3.274-.913 2.144-1.37 5.418-1.37 9.824v39.949c0 6.548 1.073 10.557 3.217 12.026.874.595 1.966.893 3.277.893zm0 12.741c-8.42 0-14.258-2.521-17.515-7.562-3.257-5.04-4.885-12.323-4.885-21.849v-33.4c0-19.091 7.447-28.637 22.34-28.637 14.894 0 22.341 9.546 22.341 28.637v33.4c0 14.884-3.833 24.032-11.498 27.446-2.939 1.31-6.533 1.965-10.783 1.965zm35.48-1.072v-74.42h-6.91v-11.372h6.97v-4.643c0-5.001 1.291-8.871 3.872-11.61 2.622-2.778 6.097-4.167 10.426-4.167s7.824.496 10.485 1.488v9.883c-1.191-.159-2.582-.238-4.17-.238-3.257 0-4.885 1.706-4.885 5.12v4.167h9.055v11.372h-9.055v74.42h-15.788zm34.349 0v-74.42h-6.911v-11.372h6.97v-4.643c0-5.001 1.291-8.871 3.873-11.61 2.621-2.778 6.096-4.167 10.425-4.167 4.329 0 7.825.496 10.486 1.488v9.883c-1.192-.159-2.582-.238-4.171-.238-3.256 0-4.885 1.706-4.885 5.12v4.167h9.056v11.372h-9.056v74.42h-15.787zm52.757 1.072c-10.048 0-16.522-3.831-19.421-11.491-1.827-4.882-2.741-11.312-2.741-19.29v-33.28c0-18.258 7.606-27.387 22.817-27.387 8.102 0 13.703 2.401 16.8 7.204 3.138 4.803 4.707 11.629 4.707 20.48v19.111h-28.417v17.564c0 6.191.536 10.141 1.608 11.847 1.072 1.667 2.681 2.501 4.826 2.501 2.144 0 3.534-.496 4.17-1.489 1.072-1.746 1.688-3.532 1.847-5.358.159-1.826.238-4.326.238-7.501v-7.859h15.609v4.763c0 8.097-.636 13.911-1.907 17.444-1.271 3.532-2.74 6.092-4.408 7.68-3.495 3.374-8.738 5.061-15.728 5.061zM562.917 381h12.749v-11.431c0-4.881-.397-8.374-1.191-10.478-.755-2.143-2.324-3.215-4.707-3.215h-.059c-4.131 0-6.355 3.156-6.673 9.466-.079 1.191-.119 2.739-.119 4.644V381zm59.727 53.881c-10.048 0-16.522-3.831-19.421-11.491-1.827-4.882-2.74-11.312-2.74-19.29v-33.28c0-18.258 7.605-27.387 22.817-27.387 8.102 0 13.702 2.401 16.8 7.204 3.138 4.803 4.706 11.629 4.706 20.48v19.111h-28.417v17.564c0 6.191.536 10.141 1.609 11.847 1.072 1.667 2.68 2.501 4.825 2.501s3.535-.496 4.17-1.489c1.073-1.746 1.688-3.532 1.847-5.358.159-1.826.239-4.326.239-7.501v-7.859h15.608v4.763c0 8.097-.635 13.911-1.906 17.444-1.271 3.532-2.741 6.092-4.409 7.68-3.495 3.374-8.737 5.061-15.728 5.061zM616.33 381h12.749v-11.431c0-4.881-.398-8.374-1.192-10.478-.755-2.143-2.323-3.215-4.706-3.215h-.06c-4.13 0-6.355 3.156-6.672 9.466-.08 1.191-.119 2.739-.119 4.644V381z" fill="#F2E9E4"/><path fill-rule="evenodd" clip-rule="evenodd" d="M228.442 349.203c7.571 25.234 33.646 39.534 62.245 39.534l3.364 46.262h-51.309v-29.646a4 4 0 00-4-4h-20.599a4 4 0 00-4 4v29.646h-50.468l2.523-46.262c27.758 0 52.992-14.3 62.244-39.534z" fill="#F2E9E4"/><path d="M206.012 357.972c22.394-22.393 16.707-52.962 9.598-54.384-7.109-1.421-15.463 14.396-32.524 31.458-17.062 17.062-36.255 25.592-33.056 33.056 3.199 7.465 33.589 12.264 55.982-10.13zm-58.44-102.09c22.393 22.394 52.962 16.707 54.384 9.598 1.421-7.109-14.396-15.463-31.458-32.524-17.062-17.062-25.711-36.204-33.056-33.056-7.465 3.199-12.264 33.589 10.13 55.982zm161.732 43.649c-22.394-22.394-52.962-16.707-54.384-9.598-1.422 7.109 14.396 15.462 31.458 32.524 17.061 17.062 25.591 36.255 33.056 33.056 7.464-3.199 12.264-33.589-10.13-55.982zm-58.44-102.092c-22.393 22.394-16.706 52.963-9.597 54.384 7.109 1.422 15.462-14.396 32.524-31.457 17.061-17.062 36.255-25.592 33.056-33.057-3.199-7.464-33.589-12.263-55.983 10.13z" fill="#F2E9E4"/><path d="M309.305 255.88c-22.393 22.393-52.962 16.706-54.384 9.597-1.421-7.109 14.396-15.462 31.458-32.524 17.061-17.061 25.711-36.204 33.056-33.056 7.464 3.199 12.264 33.589-10.13 55.983zm-161.733 43.652c22.393-22.394 52.962-16.707 54.384-9.598 1.421 7.109-14.396 15.463-31.458 32.524-17.062 17.062-25.592 36.256-33.056 33.057-7.465-3.199-12.264-33.589 10.13-55.983zm58.442-102.092c22.394 22.394 16.707 52.963 9.597 54.384-7.109 1.422-15.462-14.396-32.524-31.457-17.061-17.062-36.255-25.592-33.056-33.057 3.199-7.464 33.589-12.263 55.983 10.13zm44.85 160.532c-22.394-22.394-16.707-52.963-9.598-54.384 7.109-1.422 15.463 14.396 32.524 31.457 17.062 17.062 36.256 25.592 33.057 33.057-3.199 7.464-33.589 12.264-55.983-10.13z" fill="#24AFDB"/><rect width="27.541" height="27.541" rx="13.771" transform="matrix(-1 0 0 1 242.09 265.139)" fill="#FF5D12"/><circle cx="654.059" cy="291.992" r="31.122" fill="#FF5D12"/><path d="M653.291 296.531c-1.373 3.418-1.702 5.895-.985 7.43 1.38 1.343 3.075 1.86 5.084 1.55a4.091 4.091 0 001.749-1.562c.445-.705.835-1.639 1.169-2.804a311.214 311.214 0 01-7.017-4.614zm-4.225-2.936c-4.528-3.293-7.21-5.833-8.044-7.62-.835-1.788-.76-3.576.224-5.365.978-1.801 2.781-3.315 5.408-4.542 2.627-1.226 4.868-1.623 6.723-1.188 1.872.426 3.225 1.533 4.06 3.321.829 1.775 1.053 3.643.672 5.604-.37 1.94-1.113 4.201-2.229 6.783 1.372 1.011 3.378 2.419 6.02 4.225.746-2.701 1.613-5.1 2.599-7.198l4.354 2.001c-.858 1.657-1.643 4.208-2.356 7.653-.053.244-.094.424-.124.54 1.157.775 2.552 1.702 4.185 2.781a183.66 183.66 0 012.985 1.959l-6.387 2.983c-.403-.28-1.256-.831-2.56-1.654-1.306 2.801-3.359 4.856-6.157 6.162-2.782 1.299-5.191 1.671-7.227 1.117-2.042-.566-3.536-1.863-4.483-3.89-.947-2.028-1.106-4.16-.477-6.397.623-2.249 1.561-4.674 2.814-7.275zm2.811-6.004c1.309-3.11 1.619-5.402.93-6.878-.493-1.056-1.032-1.717-1.617-1.985-.585-.267-1.367-.172-2.346.285-1.888.881-2.387 2.276-1.497 4.184.409.875 1.919 2.34 4.53 4.394z" fill="#F2E9E4"/></svg>