<svg width="800" height="600" fill="none" xmlns="http://www.w3.org/2000/svg"><path fill="#E12A1F" d="M0 0h800v600H0z"/><path fill-rule="evenodd" clip-rule="evenodd" d="M324.737 334.4h54.704v-15.619h-28.539l11.845-8.308c10.364-7.311 16.005-13.165 16.005-24.233 0-13.242-10.364-22.24-25.476-22.24-13.427 0-20.728 5.24-28.156 14.826l12.942 10.788c5.437-6.237 9.088-8.896 13.734-8.896 4.646 0 7.683 2.659 7.683 7.004 0 4.167-2.348 7.516-8.883 12.475l-25.859 19.76V334.4zm64.358 0h36.182c16.743 0 26.567-7.19 26.567-18.978 0-9.528-5.417-14.253-13.945-16.997 6.221-2.642 10.834-7.368 10.834-15.32 0-4.929-1.71-8.562-4.51-11.306-4.095-4.039-10.315-6.199-19.153-6.199h-35.975v68.8zm20.916-28.8v12.8h14.69c5.981 0 9.444-2.283 9.444-6.541 0-3.771-3.043-6.259-9.653-6.259h-14.481zm0-12.8V280H422.1c5.799 0 8.827 2.291 8.827 6.252 0 4.473-3.313 6.548-9.215 6.548h-11.701zm96.632 41.6H487.24v-68.8h33.096c10.696 0 18.086 2.769 22.788 7.368 4.082 4.039 6.2 9.349 6.2 16.311 0 10.518-5.709 17.504-14.39 21.138l16.664 23.983h-23.666l-14.081-20.833h-7.208V334.4zm-.096-36.8v-16h12.33c6.328 0 10.196 2.658 10.196 7.902 0 5.046-3.692 8.098-10.095 8.098h-12.431zM624 303.914c0 22.31-12.734 32.086-32.383 32.086-19.624 0-31.975-9.981-31.975-31.601V265.6h19.445v38.416c0 9.981 5.028 14.703 12.734 14.703 7.707 0 12.734-4.544 12.734-14.218V265.6H624v38.314zm-424.271-38.019L183.978 336H177l15.779-70.105h6.95zm20.835 0L206.189 336h-12.142l14.348-70.105h12.169zm26.517 0L232.447 336h-17.566l14.634-70.105h17.566zm28.411 0L261.976 336h-20.578l13.54-70.105h20.554zm41.669 0L302.528 336h-30.825l14.607-70.105h30.851zM461.11 336h15.153v-15.158H461.11V336z" fill="#FEFEFE"/></svg>