<svg width="800" height="600" fill="none" xmlns="http://www.w3.org/2000/svg"><path fill="#fff" d="M0 0h800v600H0z"/><g clip-path="url(#clip0)"><path d="M130.038 287.436l8.021-1.118h.378c.094 0 .188.093.283.093.188.093.377.187.471.373.189.186.284.28.378.466.094.186.094.373.094.559 0 .093-.094.28-.094.28 0 .093-.094.186-.094.186l1.698.373c.094-.093.094-.186.189-.373 0-.093.094-.279.094-.466a1.56 1.56 0 000-.932c-.094-.279-.189-.559-.377-.839-.189-.279-.378-.559-.661-.745-.283-.28-.566-.466-1.038-.746-.472-.279-.755-.466-1.227-.652-.471-.187-.849-.466-1.321-.653l-5.567-2.796-.378 2.237 3.964 1.491c.283.094.566.187.943.28l.85.28v.093h-1.793l-4.341.186-.472 2.423zm1.699-9.32l3.774 1.305c.566.187 1.133.28 1.604.28.472 0 .944-.187 1.322-.466.377-.28.66-.746.849-1.305.094-.28.189-.559.189-.839v-.839l4.246 1.398.661-2.05-10.475-3.542-.661 2.051 4.719 1.584v.466c0 .187-.095.28-.095.466-.094.28-.283.466-.377.559-.283.187-.472.28-.661.28-.283 0-.472 0-.755-.186l-3.491-1.212-.849 2.05zm9.153-11.37l-1.038 2.33-2.359-1.025 1.132-2.423-1.698-.746-1.982 4.474 10.097 4.38 2.076-4.66-1.698-.746-1.133 2.61-2.736-1.212 1.038-2.33-1.699-.652zm-2.076-4.94l9.342 5.779c.189-.187.378-.466.566-.746.189-.279.378-.559.661-.932.472-.652.755-1.305.849-1.957.189-.559.189-1.212 0-1.678-.094-.372-.283-.838-.566-1.118-.283-.373-.661-.652-1.132-.932a4.469 4.469 0 00-1.416-.559c-.472-.093-.944 0-1.321.093a3.21 3.21 0 00-1.132.559c-.378.28-.661.653-.944 1.025-.094.094-.189.28-.189.373-.094.093-.094.28-.188.373l-1.982-1.212 1.887-2.982-1.604-.932-2.831 4.846zm6.134 1.212c.094-.186.094-.28.188-.466a1.14 1.14 0 01.472-.466c.189-.093.378-.186.566-.186h.661c.189.093.472.186.661.279.188.093.377.28.566.466.189.187.283.373.283.559.094.187.094.373.094.653a.998.998 0 01-.283.652c-.094.093-.094.187-.094.187 0 .093-.095.093-.189.186l-2.925-1.864zm-.566-9.413l8.304 7.176 1.415-1.677-3.491-2.983 1.51-1.677 3.491 2.982 1.416-1.678-8.305-7.176-1.415 1.678 3.303 2.889-1.51 1.677-3.303-2.889-1.415 1.678zm7.549-8.015l6.794 8.574c.189-.093.472-.28.755-.466l.849-.559c.661-.466 1.133-1.025 1.51-1.491.378-.56.566-1.026.661-1.585 0-.373 0-.839-.095-1.305-.094-.466-.377-.838-.755-1.304-.283-.373-.66-.653-1.038-.932-.377-.187-.754-.373-1.226-.373-.378 0-.85 0-1.227.186-.472.093-.849.373-1.227.653l-.283.279-.283.28-2.548-3.262-1.887 1.305zm5.284 3.262c0-.094.095-.094.189-.187l.189-.186c.283-.187.472-.28.755-.28.283 0 .566 0 .755.187.283.093.471.372.755.652.188.28.377.559.377.839.094.279.094.559 0 .839-.094.279-.283.466-.472.652 0 0-.094.093-.189.093-.094 0-.094.093-.188.093l-2.171-2.702zm.378-7.643l6.794 8.575 1.699-1.305-6.795-8.575-1.698 1.305zm5.567-3.541l5.002 9.692 1.793-.932-.472-4.38c0-.373-.095-.652-.095-1.118 0-.373-.094-.746-.188-1.212-.095-.373-.095-.746-.189-1.118.189.466.472 1.118.849 1.864.378.745.755 1.584 1.321 2.609l1.133 2.144 1.698-.839-5.001-9.693-1.793.932.472 4.474c0 .186 0 .466.094.745 0 .28.095.56.095.932 0 .28.094.653.094.932 0 .28.094.56.094.839-.188-.373-.283-.745-.566-1.211-.189-.466-.472-1.026-.755-1.585a31.616 31.616 0 01-.849-1.771l-1.038-2.143-1.699.839zm0-2.517c.189.373.472.653.755.839.283.186.566.186.944.186.283 0 .66-.093 1.038-.279.377-.187.66-.373.849-.653.189-.279.378-.559.378-.838 0-.373 0-.746-.189-1.119l-1.227.653c.095.186.189.372.095.652 0 .186-.189.373-.378.466-.189.093-.283.093-.377.093-.095 0-.283-.093-.378-.186-.094-.093-.189-.28-.283-.373l-1.227.559zm12.645-3.075l3.02 10.531 5.473-1.584.755 2.237 1.604-.466-1.038-4.008-.943.186-2.548-8.76-2.076.652 2.548 8.668-2.171.652-2.548-8.668-2.076.56zm15.759 1.398l-2.547.372-.378-2.516 2.642-.373-.283-1.864-4.907.653 1.51 10.811 5.096-.746-.283-1.864-2.926.373-.283-2.796 2.548-.373-.189-1.677zm2.831-4.474v10.904h2.171v-4.566h2.265v4.566h2.17V229h-2.17v4.38h-2.265V229h-2.171zm10.098 11.557l2.17.373 1.415-8.854 2.076.279.284-1.957-6.134-.932-.283 1.957 1.981.28-1.509 8.854zm5.661.932l2.077.745 1.321-3.821c.094 0 .094 0 .188.093.095 0 .095.094.189.094.283.093.566.186.944.186h1.038c.377 0 .66-.186.943-.28a2.939 2.939 0 001.038-.838c.284-.373.567-.839.755-1.398.095-.28.189-.56.189-.932v-.839l-.283-.839c-.189-.28-.377-.559-.661-.746-.188-.186-.471-.372-.849-.559-.377-.186-.755-.279-1.132-.466-.378-.093-.755-.279-1.227-.373-.377-.093-.755-.186-1.038-.186l-3.492 10.159zm5.096-7.922h.283c.095 0 .189 0 .283.093.284.093.567.28.661.466.189.186.189.466.283.746 0 .279 0 .559-.189.838-.094.28-.283.56-.471.839a2.051 2.051 0 01-.755.466c-.284.093-.567 0-.944-.093-.094 0-.094 0-.189-.093-.094 0-.094 0-.189-.093l1.227-3.169zm10.38 2.33l-5.378 9.506 1.887 1.025 4.435-7.922 1.982 1.119-4.435 7.922 1.887 1.025 5.379-9.506-5.757-3.169zm2.265 13.98l1.699 1.305 2.548-3.169c.094 0 .094.093.188.093.095 0 .095.093.189.093.283.187.472.373.849.466.284.187.661.28.944.28.378.093.661.093 1.038 0 .378-.093.849-.187 1.227-.466.377-.28.755-.559 1.132-1.025.189-.28.378-.466.472-.746l.283-.839v-.839c-.094-.279-.189-.652-.377-.932-.189-.279-.378-.559-.661-.838-.283-.28-.566-.56-.943-.839-.378-.28-.661-.466-1.039-.746-.377-.186-.66-.373-.943-.559l-6.606 8.761zm7.455-5.872c.094 0 .189.093.189.093.094 0 .189.094.283.187.283.186.472.466.472.652.094.28.094.466 0 .746-.095.279-.189.559-.472.745-.189.28-.472.466-.661.653-.283.186-.566.186-.849.186-.283 0-.566-.186-.849-.373-.095 0-.095-.093-.189-.093l-.094-.093 2.17-2.703zm8.965 5.406c-.378-.373-.755-.559-1.133-.746-.377-.186-.849-.186-1.321-.186-.471 0-.943.093-1.415.279-.472.187-.944.466-1.416.746-.471.28-.943.652-1.321 1.118a4.92 4.92 0 00-1.132 1.305 7.407 7.407 0 00-.849 1.305c-.189.466-.378.932-.378 1.305-.094.466 0 .839.094 1.305.095.372.378.838.755 1.211.378.373.755.653 1.227.839.472.186.944.186 1.51.093.566-.093 1.132-.373 1.793-.745.661-.373 1.321-.932 2.076-1.678.377-.373.755-.746 1.038-1.118.283-.373.566-.839.849-1.212.189-.466.378-.839.472-1.305.095-.466.095-.839-.094-1.305-.189-.372-.378-.838-.755-1.211zm-1.416 1.211c.189.187.283.373.189.653 0 .279-.094.559-.283.839-.189.279-.377.652-.661.932-.283.372-.566.652-.943 1.025-.378.373-.755.745-1.133 1.025-.377.28-.755.559-1.038.652-.283.187-.566.28-.849.28-.283 0-.472-.093-.66-.186-.284-.28-.284-.746 0-1.398.283-.56.849-1.305 1.792-2.237.567-.559 1.133-.932 1.605-1.305.472-.28.849-.466 1.226-.559.284 0 .567.093.755.279zm5.757 4.101l-9.059 6.245 1.226 1.77 7.55-5.219 1.698 2.423 1.51-1.025-2.925-4.194zm-5.379 11.743l1.038 1.864 3.586-1.957c0 .093.094.093.094.187 0 .093.095.093.095.186.188.28.377.559.566.746.188.279.472.466.755.652.283.186.566.373.943.466.378.093.85.093 1.321.093.472-.093.944-.279 1.51-.559.283-.186.566-.28.755-.559.189-.187.378-.466.566-.653.189-.279.283-.466.283-.838.095-.28.095-.653.095-.932 0-.373-.095-.653-.283-1.026a3.152 3.152 0 00-.566-1.118c-.189-.373-.378-.746-.661-1.025-.189-.28-.472-.653-.661-.839l-9.436 5.312zm9.153-2.516c.095 0 .095.093.189.186.094.094.094.187.189.28.189.28.189.559.189.839 0 .279-.095.466-.284.652a4.008 4.008 0 01-.66.559c-.283.187-.566.28-.849.28-.284 0-.567 0-.85-.186-.283-.094-.472-.373-.66-.653 0-.093-.095-.093-.095-.186s0-.093-.094-.187l2.925-1.584zm2.454 11.37l-.944-2.33 2.359-.932 1.038 2.517 1.699-.653-1.887-4.473-10.286 4.101 1.887 4.66 1.699-.653-1.133-2.703 2.737-1.118.944 2.33 1.887-.746zm-2.454 8.948a.711.711 0 01-.188-.466c-.095-.187-.095-.373-.189-.56-.095-.466-.095-.838.094-1.211.189-.373.472-.746.944-1.119.472-.372 1.132-.559 1.982-.838.66-.187 1.226-.28 1.698-.187.472 0 .944.093 1.227.187.377.186.66.372.849.559.189.279.378.466.378.839.094.186.094.466.094.559v.466l1.793-.093c0-.094.094-.28.094-.56 0-.279-.094-.559-.188-.932-.095-.466-.283-.838-.472-1.211-.283-.373-.566-.746-.944-1.025a5.99 5.99 0 00-1.321-.746c-.472-.186-1.132-.28-1.793-.28s-1.415.094-2.17.28c-.755.186-1.416.466-2.076.746a4.766 4.766 0 00-1.51 1.211c-.378.466-.661.932-.755 1.585a4.208 4.208 0 00.094 1.864c.095.372.189.652.283.932.095.279.189.466.378.652l1.698-.652zm1.133 6.896c-.095-.093-.095-.279-.189-.466-.094-.186-.094-.372-.094-.559-.095-.466 0-.839.188-1.211.189-.373.567-.746 1.038-1.026.472-.279 1.227-.466 2.076-.559.661-.093 1.227-.093 1.793-.093.472.093.944.186 1.227.373.283.186.566.373.755.652.189.28.283.559.283.839v.559c0 .187-.094.28-.094.466l1.793.093c.094-.093.094-.279.094-.559v-.932a6.826 6.826 0 00-.377-1.305c-.189-.372-.472-.745-.85-1.118-.377-.373-.755-.652-1.226-.839a7.4 7.4 0 00-1.699-.466c-.661-.093-1.415-.093-2.265 0-.755.093-1.51.28-2.076.559-.66.28-1.132.56-1.604 1.026-.472.372-.755.932-.944 1.491a4.072 4.072 0 00-.188 1.864c.094.373.094.745.188 1.025.095.28.189.466.283.652l1.888-.466zm-117.297 17.15l-.377-2.517 2.548-.372.471 2.609 1.888-.279-.755-4.754L129 304.679l.755 5.033 1.887-.28-.472-2.889 2.926-.466.377 2.516 1.793-.279zm-5.851 3.728c0 .186.095.279.095.466 0 .186.094.373.094.559 0 .186.095.466.189.652a7 7 0 00.755 1.864c.283.466.66.839 1.132 1.119.566.373 1.227.559 2.076.652.85.187 1.793.093 2.926-.186a11.083 11.083 0 002.548-1.025c.66-.466 1.132-.932 1.415-1.492.189-.466.377-.932.377-1.398 0-.559-.094-1.118-.283-1.77-.094-.373-.283-.839-.377-1.119-.094-.373-.283-.652-.378-.932l-10.569 2.61zm9.531-.28c0 .093.095.093.095.187 0 .093 0 .093.094.186.095.466.095.839-.189 1.118-.188.373-.566.653-1.038.932-.471.373-1.038.56-1.793.746-.754.186-1.321.28-1.887.373-.566 0-.944 0-1.321-.093a1.839 1.839 0 01-.849-.466c-.189-.187-.283-.373-.378-.653 0-.093 0-.093-.094-.186v-.187l7.36-1.957zm3.492 4.847l-6.323 2.609c-.849.373-1.509.746-2.076 1.212-.471.466-.849.932-.943 1.491-.095.559 0 1.212.283 1.957.283.653.66 1.119 1.132 1.491.472.28 1.133.466 1.793.466.661 0 1.51-.186 2.359-.559l6.228-2.609-.849-1.958-6.605 2.796c-.378.187-.755.28-.944.28-.283.093-.472.093-.661.093-.188 0-.283-.093-.471-.186a1.293 1.293 0 01-.284-.373.59.59 0 010-.559c.095-.187.189-.373.472-.653.283-.186.661-.372 1.133-.652l6.605-2.796-.849-2.05zm-1.793 16.03l-.377-.373c-.095-.186-.284-.279-.378-.466-.283-.373-.377-.745-.377-1.211 0-.466.188-.839.566-1.305a6.062 6.062 0 011.604-1.398c.566-.373 1.132-.653 1.604-.746.472-.186.944-.186 1.227-.186.377 0 .661.093.944.279.283.187.471.373.66.653l.283.559c.095.186.095.28.095.466l1.698-.652c0-.094 0-.28-.094-.56-.094-.279-.189-.559-.472-.838-.189-.373-.566-.746-.849-1.026-.378-.279-.755-.559-1.227-.745a3.946 3.946 0 00-1.51-.28c-.566 0-1.132.093-1.793.28a6.343 6.343 0 00-1.981.932 6.168 6.168 0 00-1.699 1.398c-.472.466-.849 1.025-1.038 1.584a5.213 5.213 0 00-.283 1.678c.094.559.283 1.211.66 1.771l.567.838c.188.187.377.373.566.466l1.604-1.118zm4.152 4.753l-1.698 1.864 1.321 1.678 7.549-8.295-1.604-2.05-10.286 4.66 1.321 1.677 2.359-1.118 1.038 1.584zm.283-2.423l2.076-1.025c.189-.093.283-.187.472-.28l.566-.279.566-.28.567-.28a250.306 250.306 0 01-.944.932l-.472.466-.377.373-1.605 1.678-.849-1.305zm1.793 8.481l1.51 1.491 6.417-6.337 1.415 1.398 1.416-1.398-4.435-4.381-1.416 1.398 1.416 1.398-6.323 6.431zm11.607-4.194l-6.983 8.482 1.699 1.397 6.983-8.481-1.699-1.398zm6.04 4.381c-.378-.28-.85-.466-1.322-.466-.471-.094-.849 0-1.321.093s-.849.279-1.321.559-.849.652-1.227 1.025c-.377.373-.754.839-1.132 1.305-.377.466-.661 1.025-.849 1.491a4.827 4.827 0 00-.566 1.491c-.095.466-.189.932-.095 1.398 0 .467.189.839.378 1.212.188.373.566.746.943 1.025.472.28.944.466 1.416.56.472.093 1.038 0 1.51-.187.566-.186 1.038-.559 1.604-1.025.566-.466 1.132-1.212 1.698-2.051.284-.372.567-.838.755-1.304l.567-1.398c.094-.466.188-.932.188-1.398 0-.466-.094-.839-.377-1.305-.095-.373-.378-.746-.849-1.025zm-1.133 1.491c.189.093.283.373.378.559 0 .28 0 .559-.095.932-.094.373-.283.653-.472 1.119-.188.372-.471.745-.755 1.211-.283.466-.66.839-.943 1.212-.283.373-.566.652-.849.839-.284.186-.567.372-.755.466-.283.093-.472 0-.661-.094-.377-.279-.472-.652-.283-1.305.189-.652.566-1.491 1.321-2.516.472-.652.849-1.212 1.227-1.584.377-.373.755-.653 1.132-.839.283-.187.566-.187.755 0zm1.51 11.65l1.038-2.237c.472-1.025.849-1.864 1.227-2.609.377-.746.566-1.398.849-1.958-.094.28-.094.56-.094.839 0 .28-.095.559-.095.932 0 .28-.094.653-.094.932 0 .28 0 .559-.094.839l-.189 4.474 1.793.838 4.624-9.879-1.793-.839-1.038 2.144c-.283.652-.566 1.212-.755 1.771-.283.559-.472 1.118-.661 1.584-.188.466-.377.932-.472 1.305 0-.28.095-.559.095-.839 0-.279.094-.559.094-.932 0-.279 0-.559.095-.932 0-.279 0-.559.094-.745l.283-4.567-1.793-.839-4.718 9.879 1.604.839zm16.325 3.728h-.472c-.188 0-.377-.093-.566-.093-.472-.093-.755-.373-1.038-.653-.283-.372-.377-.745-.472-1.398 0-.559.095-1.304.284-2.143.188-.653.471-1.212.66-1.585.283-.466.566-.745.849-.932.283-.186.567-.372.944-.372.283-.094.661 0 .944.093.188.093.377.186.566.186.189.093.283.187.377.28l.85-1.585c-.095-.093-.283-.186-.472-.372-.189-.094-.566-.28-.944-.373-.377-.093-.849-.187-1.321-.187s-.944.094-1.321.28a4.733 4.733 0 00-1.321.746c-.378.372-.85.745-1.133 1.304-.377.56-.66 1.212-.849 2.051-.189.745-.377 1.491-.377 2.143 0 .653.094 1.305.283 1.864.188.56.472 1.026.943 1.492.472.372 1.038.745 1.699.932.377.093.661.186 1.038.186.283 0 .566.093.755 0l.094-1.864zm7.644-3.542l-2.548-.372.377-2.517 2.737.373.283-1.864-4.907-.652-1.51 10.811 5.096.745.283-1.864-2.925-.372.377-2.89 2.548.373.189-1.771zm3.775 6.804l.094-2.423c0-1.119.094-2.051.094-2.889v-2.051c.095.28.095.559.189.839l.283.839.283.839c.095.279.189.559.283.745l1.605 4.194 1.981.093.378-10.997-1.888-.093-.094 2.423v5.126c-.094-.28-.189-.466-.283-.746l-.283-.839-.283-.838c-.095-.28-.189-.466-.283-.746l-1.605-4.287-1.981-.093-.378 10.904h1.888zm9.059-.28l2.17-.279-1.227-8.854 1.982-.28-.283-1.957-6.134.839.283 1.957 1.982-.28 1.227 8.854zm9.342-8.388l-2.548.653-.661-2.423 2.643-.653-.472-1.771-4.813 1.212 2.642 10.625 5.096-1.398-.472-1.771-2.831.652-.755-2.889 2.548-.652-.377-1.585zm4.435 5.499l2.076-.745-1.415-4.101.283-.093c.188-.094.472-.094.66-.094.189 0 .378.187.566.373.189.187.378.466.567.932.188.373.377.746.566 1.025.189.28.377.56.472.839.188.187.283.373.377.466l2.171-.745c-.095-.094-.189-.187-.284-.373-.094-.187-.283-.373-.377-.653-.189-.279-.283-.466-.472-.745-.189-.28-.283-.559-.472-.839-.283-.559-.566-.932-.943-1.212-.283-.279-.661-.372-1.133-.466.283-.279.566-.652.661-.932.189-.372.189-.745.283-1.118 0-.373-.094-.746-.189-1.118-.094-.28-.189-.56-.377-.839-.095-.28-.283-.466-.472-.653-.189-.186-.472-.279-.755-.466-.283-.093-.661-.186-.944-.186-.377 0-.66 0-1.038.093l-1.132.28c-.378.093-.755.279-1.132.466-.378.186-.755.373-1.038.559l3.491 10.345zm-.944-9.506c.095 0 .095-.093.189-.093s.189-.094.283-.094a1.33 1.33 0 01.85 0c.283.094.471.187.566.373.188.187.283.466.377.746.095.279.189.559.095.839 0 .279-.095.559-.284.745-.188.187-.377.373-.66.466l-.378.093-1.038-3.075zm12.551 4.567l1.887-1.119-2.076-3.448c.095 0 .095-.093.189-.093s.094-.094.189-.094c.283-.186.472-.372.755-.559.283-.186.472-.466.66-.746.189-.279.283-.559.378-.932.094-.372.094-.838 0-1.304a4.379 4.379 0 00-.566-1.398c-.189-.28-.378-.466-.567-.746-.188-.186-.472-.373-.66-.559-.283-.187-.566-.28-.85-.28a1.629 1.629 0 00-.943 0c-.378.093-.661.187-1.038.28-.378.186-.661.373-1.038.559-.378.186-.661.466-1.038.652-.283.28-.566.466-.85.653l5.568 9.134zm-2.925-8.948c0-.093.094-.093.188-.186.095-.093.189-.093.284-.187.283-.186.566-.279.849-.186.283 0 .472.093.755.28.188.186.377.372.566.652.189.28.283.559.377.839 0 .279 0 .559-.094.839-.094.279-.377.466-.661.652-.094 0-.094.093-.188.093-.095 0-.095.093-.189.093l-1.887-2.889zm10.38 4.474l1.699-1.398-2.737-3.355.283-.187c.189-.186.377-.279.566-.279.189 0 .378 0 .661.186.283.093.566.373.849.652.283.28.566.56.849.746.283.28.567.466.755.559.189.187.378.28.472.28l1.793-1.398c-.094-.093-.283-.093-.472-.28-.189-.093-.377-.279-.566-.466-.189-.186-.472-.373-.661-.559-.283-.186-.471-.373-.754-.559-.472-.373-.85-.653-1.227-.839a1.22 1.22 0 00-1.133 0c.189-.373.283-.746.283-1.118 0-.373 0-.746-.188-1.119-.095-.373-.283-.652-.566-1.025a2.186 2.186 0 00-.661-.652c-.189-.187-.472-.28-.661-.373-.283-.093-.566-.187-.849-.187-.283 0-.66 0-.944.094-.283.093-.66.279-.943.466-.283.186-.661.372-.944.652-.283.28-.66.559-.943.839-.284.279-.567.559-.755.839l6.794 8.481zm-4.152-8.575c0-.093.094-.093.189-.186l.188-.186c.283-.187.472-.28.755-.28.283 0 .472 0 .661.186.189.094.472.28.66.56.189.279.378.466.378.745.094.28.094.559 0 .746-.095.279-.283.466-.472.652l-.283.28-2.076-2.517zm4.907-6.803a2.219 2.219 0 00-.661 1.211c-.094.373-.188.839-.094 1.305.094.466.189.932.377 1.398.189.466.472.932.85 1.398.377.466.755.839 1.132 1.305l1.416 1.118c.471.28.943.56 1.415.746.472.186.944.28 1.416.373.471 0 .849 0 1.321-.187.377-.186.755-.372 1.132-.745.378-.373.661-.839.755-1.305a2.031 2.031 0 000-1.491c-.094-.559-.377-1.119-.849-1.771-.378-.652-1.038-1.305-1.793-1.957a6.033 6.033 0 00-1.227-.932 6.03 6.03 0 00-1.321-.746c-.472-.186-.944-.279-1.321-.373-.472-.093-.85 0-1.321.094-.472-.094-.85.093-1.227.559zm1.321 1.305a.86.86 0 01.661-.28c.283 0 .566.093.849.28.283.186.66.372 1.038.652.377.28.66.559 1.038.932l1.132 1.118c.283.373.566.653.755 1.026.189.279.283.559.283.838 0 .28 0 .466-.188.653-.284.279-.755.373-1.416.093-.66-.28-1.415-.839-2.359-1.678-.566-.559-1.038-1.025-1.416-1.491-.377-.466-.566-.839-.66-1.211 0-.466.094-.746.283-.932zm9.72-6.804l-1.793 2.423 1.415 1.025.566-.838 2.171 1.584s0 .093-.095.186c0 .094-.094.094-.188.187-.189.186-.378.373-.567.466-.283.093-.566.186-.849.186a2.54 2.54 0 01-1.132-.279 5.663 5.663 0 01-1.416-.839c-.566-.466-1.038-.839-1.321-1.212-.283-.373-.472-.745-.566-1.118-.094-.373-.094-.746 0-1.025.094-.373.283-.653.472-.932.189-.187.283-.373.472-.56.188-.186.283-.279.472-.372l-1.227-1.398c-.189.093-.378.279-.661.466-.283.186-.472.466-.755.838-.283.373-.472.746-.66 1.212a3.694 3.694 0 00-.283 1.398c0 .466.094 1.025.283 1.491.188.466.472 1.025.849 1.491.377.466.944 1.026 1.51 1.492.472.372 1.038.745 1.51.932a4.983 4.983 0 001.51.559c.471.093.943.093 1.415 0 .566-.093 1.038-.28 1.416-.559.471-.28.849-.653 1.226-1.212.095-.186.283-.373.378-.559l.283-.559.283-.56c.094-.186.094-.279.189-.466l-4.907-3.448zm6.417 1.398l1.038-1.864-3.869-2.144.188-.279c.095-.187.283-.373.472-.466.189-.093.378-.093.661-.093.283 0 .66.093 1.038.279.377.187.755.28 1.132.373.378.093.661.186.944.28.283.093.472.093.566.093l1.132-1.957c-.094 0-.283 0-.472-.094-.188-.093-.471-.093-.754-.186a211.43 211.43 0 01-.85-.28 12.036 12.036 0 00-.943-.279c-.567-.187-1.038-.28-1.51-.28-.378 0-.755.187-1.133.373 0-.373 0-.839-.094-1.118-.094-.373-.283-.653-.566-.932-.283-.28-.566-.56-.849-.746-.284-.186-.567-.28-.85-.373-.283-.093-.566-.093-.755-.093-.283 0-.566.093-.849.186-.283.094-.566.28-.849.466-.283.187-.472.466-.755.746-.189.28-.378.652-.661.932l-.566 1.118c-.189.373-.283.746-.377 1.026l9.531 5.312zm-7.172-6.431c0-.093 0-.186.094-.186 0-.093.094-.187.094-.28.189-.279.378-.466.567-.559.188-.093.471-.186.755-.093.283 0 .566.093.754.279.284.187.472.373.661.56.189.186.283.466.283.745 0 .28 0 .559-.189.839l-.188.373-2.831-1.678zm6.7-8.201l-.944 2.423-2.359-.932.944-2.517-1.699-.652-1.793 4.567 10.286 3.914 1.793-4.753-1.699-.652-1.038 2.702-2.831-1.025.944-2.423-1.604-.652zm6.7.093c.094-.093.188-.28.377-.466.094-.187.283-.466.378-.653l.283-.838c.094-.56.188-1.026.188-1.492 0-.466-.188-.932-.377-1.304a2.932 2.932 0 00-.849-1.026c-.378-.279-.755-.466-1.227-.652-.378-.093-.755-.093-1.132-.093-.378 0-.755.186-1.227.373-.378.186-.85.466-1.227.932a7.636 7.636 0 00-.849.745c-.189.187-.472.28-.661.28h-.566c-.189-.093-.378-.187-.472-.28-.094-.186-.283-.279-.283-.559-.094-.186 0-.466 0-.746.094-.279.189-.559.283-.745.094-.187.283-.373.378-.466l-1.699-.839c-.094.093-.189.186-.283.373l-.283.559c-.095.186-.189.466-.283.652-.189.56-.189 1.119-.189 1.585.094.466.189.839.377 1.211.189.373.472.653.85.932.377.28.755.466 1.132.56.283.093.661.093 1.038.093.378 0 .755-.187 1.227-.373.377-.186.849-.559 1.227-.932.283-.28.566-.466.755-.652a1.02 1.02 0 01.66-.28c.189-.093.472-.093.755 0 .189.093.472.186.566.28.189.186.283.372.283.559 0 .279 0 .559-.094.839-.094.186-.094.372-.189.652l-.283.559c-.094.187-.189.373-.377.466l1.793.746zm1.981-7.27c.095-.093.189-.279.283-.466.095-.186.189-.466.284-.745.094-.28.188-.56.188-.839.095-.559.095-1.025 0-1.491-.094-.466-.283-.932-.472-1.212a4.456 4.456 0 00-.943-.932c-.378-.28-.85-.373-1.321-.466a2.335 2.335 0 00-1.133 0c-.377.093-.755.186-1.132.466-.378.28-.755.559-1.133 1.025a7.675 7.675 0 01-.754.839c-.189.186-.378.28-.567.373a.609.609 0 01-.566 0c-.189 0-.377-.093-.566-.28-.189-.093-.283-.279-.377-.559-.095-.186-.095-.466 0-.746.094-.279.094-.559.283-.838.094-.187.188-.373.377-.56l-1.793-.652c-.094.093-.189.28-.283.373l-.283.559c-.094.186-.094.466-.189.652-.094.56-.094 1.119 0 1.585.095.466.283.839.472 1.211.283.373.566.653.944.839.377.187.755.373 1.226.373.378.093.661 0 1.038 0 .378-.093.755-.28 1.133-.466.377-.28.755-.559 1.132-1.025.283-.28.472-.559.661-.653.189-.186.377-.279.66-.372.189-.094.472-.094.661-.094.283 0 .472.094.566.28.189.186.283.373.378.559.094.28.094.559 0 .839 0 .186-.095.466-.189.652-.095.187-.189.466-.283.653-.095.186-.189.373-.283.466l1.981.652z" fill="#17429A"/><path fill-rule="evenodd" clip-rule="evenodd" d="M134.095 293.587c1.132 0 2.076.932 2.076 2.051 0 1.118-.944 2.05-2.076 2.05-1.132 0-2.076-.932-2.076-2.05-.094-1.119.849-2.051 2.076-2.051zm124.091 0c1.133 0 2.076.932 2.076 2.051 0 1.118-.943 2.05-2.076 2.05-1.132 0-2.076-.932-2.076-2.05-.094-1.119.85-2.051 2.076-2.051z" fill="#01B0DA"/><path fill-rule="evenodd" clip-rule="evenodd" d="M164.104 317.074v-44.829c0-.746 0-2.144-.094-3.635.755.279 1.51.466 2.17.559 1.416.28 2.737.28 3.586.28h34.727c1.604 0 2.831 1.304 2.831 2.796v26.469l2.547-2.796v-23.767c0-2.982-2.453-5.312-5.378-5.312h-34.727c-.755 0-1.982 0-3.114-.186-1.132-.187-2.265-.56-2.831-1.026-.189-.186-.472-.372-.944-.372-.188 0-.566.093-.755.279-.23.228-.335.455-.418.633a4.26 4.26 0 01-.053.113c-.095.186-.095.373-.095.466v50.328c0 2.982 2.454 5.312 5.379 5.312h18.968l2.264-2.516h-21.232c-1.604 0-2.831-1.305-2.831-2.796zm5.755-37.746c0 .746.566 1.305 1.321 1.305h29.159c.755 0 1.321-.559 1.321-1.305 0-.745-.566-1.305-1.321-1.305H171.18c-.755 0-1.321.56-1.321 1.305zm1.321 8.202c-.755 0-1.321-.56-1.321-1.305 0-.746.566-1.305 1.321-1.305h29.159c.755 0 1.321.559 1.321 1.305 0 .745-.566 1.305-1.321 1.305H171.18zm-1.321 5.499c0 .745.566 1.305 1.321 1.305h29.159c.755 0 1.321-.56 1.321-1.305 0-.746-.566-1.305-1.321-1.305H171.18c-.755 0-1.321.559-1.321 1.305zm1.321 8.108c-.755 0-1.321-.559-1.321-1.305 0-.745.566-1.304 1.321-1.304h29.159c.755 0 1.321.559 1.321 1.304 0 .746-.566 1.305-1.321 1.305H171.18zm-1.321 5.592c0 .745.566 1.304 1.321 1.304v-.093h27.932l1.982-2.143c-.283-.187-.566-.373-.943-.373H171.18c-.755 0-1.321.559-1.321 1.305z" fill="#17429A"/><path opacity=".7" fill-rule="evenodd" clip-rule="evenodd" d="M178.92 260.128h-1.699V252.3c0-.094 0-.28.094-.466.095-.187.472-.56.85-.56.377 0 .471.187.66.28.661.559 1.887.932 3.02 1.118 1.227.187 2.453.187 3.208.187h34.727c2.737 0 4.907 2.143 4.907 4.846v23.859l-1.699 1.864v-25.723c0-1.771-1.415-3.169-3.208-3.169h-34.727c-.849 0-2.17 0-3.491-.279-.85-.187-1.793-.373-2.642-.746v6.617z" fill="#17429A"/><path opacity=".7" fill-rule="evenodd" clip-rule="evenodd" d="M171.464 264.861v2.071h-1.699v-7.456c0-.093 0-.28.095-.466.094-.186.472-.559.849-.559.378 0 .566.186.661.279.66.56 1.887.932 3.019 1.119 1.227.186 2.454.186 3.209.186h34.726c2.737 0 4.907 2.144 4.907 4.847v23.766l-1.698 1.864v-25.537c0-1.771-1.416-3.169-3.209-3.169h-34.726c-.85 0-2.171 0-3.492-.28-.849-.186-1.793-.372-2.642-.745v4.08z" fill="#17429A"/><path fill-rule="evenodd" clip-rule="evenodd" d="M237.708 271.78l.661.652s-1.888 3.262-1.038 7.177c1.038 4.846 4.623 6.71 4.623 6.71L221.1 324.624s-15.099 3.355-26.989 8.015c-9.814 3.822-16.703 9.134-16.703 9.134.755 2.423-.66 3.728-2.265 3.728-.377 0-.754-.093-1.038-.186-1.604-.653-.566-2.983-.566-2.983l22.459-24.791s1.888.746 4.341.746c2.265 0 5.096-.653 7.455-3.076 5.285-5.406.755-11.464.755-11.464l29.159-31.967z" fill="#E49744"/><path d="M322.715 240.273l-9.726 27.925c-1.098 3.013-2.268 5.327-3.508 6.941-1.24 1.578-2.905 2.457-4.995 2.636-2.197.18-4.5-.089-6.909-.807l.584-3.928c1.134.072 2.02.126 2.657.162h1.914c.637 0 1.133-.09 1.488-.269.354-.179.691-.341 1.01-.484.318-.18.602-.503.85-.969.248-.466.478-.915.691-1.345.212-.43.478-1.076.797-1.937l.638-1.56h-1.967c-1.063 0-1.895-.198-2.498-.592-.566-.431-1.027-1.13-1.381-2.099l-8.291-23.674h5.421l7.121 21.038c.248.538.62.807 1.116.807h2.02l7.547-21.845h5.421zm24.269 10.869v26.257h-5.102v-10.708c-3.401 1.184-6.661 1.776-9.778 1.776-4.465 0-6.697-1.937-6.697-5.811v-11.514h5.049v9.739c0 1.219.248 2.08.744 2.582.532.502 1.4.753 2.604.753 2.693 0 5.386-.538 8.078-1.614v-11.46h5.102zm24.081 15.657h-11.639c.248 2.726.939 4.556 2.073 5.488 1.169.933 3.065 1.399 5.687 1.399 2.303 0 5.332-.215 9.088-.646l.478 3.444c-2.339 1.04-5.758 1.56-10.257 1.56-4.535 0-7.76-1.04-9.673-3.12-1.913-2.117-2.87-5.686-2.87-10.708 0-5.093.939-8.662 2.817-10.707 1.878-2.044 4.96-3.067 9.247-3.067 3.933 0 6.803.736 8.61 2.206 1.807 1.471 2.728 3.677 2.764 6.618 0 5.022-2.108 7.533-6.325 7.533zm-11.745-4.035h10.363c1.737 0 2.569-1.166 2.498-3.498 0-1.614-.443-2.744-1.328-3.389-.851-.682-2.374-1.023-4.571-1.023-2.586 0-4.376.556-5.368 1.668-.956 1.076-1.488 3.157-1.594 6.242zm45.97-25.073l1.222 4.089c-1.311.825-2.569 1.435-3.773 1.829-1.205.359-2.569.664-4.093.915-1.523.215-2.746.448-3.667.699-3.968 1.148-6.306 3.874-7.015 8.179a42.011 42.011 0 00-.531 3.874h.106c.496-1.041 1.045-1.901 1.647-2.583.603-.682 1.595-1.309 2.977-1.883 1.417-.574 3.153-.861 5.208-.861 3.791 0 6.466.968 8.025 2.905 1.559 1.937 2.338 5.166 2.338 9.685 0 4.52-.868 7.91-2.604 10.169-1.736 2.224-4.889 3.336-9.46 3.336-2.197 0-4.057-.287-5.58-.861-1.524-.573-2.711-1.291-3.561-2.152-.85-.896-1.506-2.116-1.966-3.658-.426-1.579-.691-3.049-.798-4.412-.106-1.399-.159-3.193-.159-5.381 0-3.085.106-5.614.319-7.586a26.75 26.75 0 011.329-5.704c.673-1.829 1.665-3.3 2.976-4.412s2.994-1.991 5.049-2.636c1.027-.323 2.32-.61 3.879-.861a38.146 38.146 0 004.252-.915c1.311-.394 2.604-.986 3.88-1.775zm-9.248 18.67c-2.834 0-4.73.646-5.686 1.937-.957 1.255-1.435 3.354-1.435 6.295 0 3.444.496 5.829 1.488 7.156.992 1.291 2.746 1.937 5.261 1.937 2.516 0 4.252-.646 5.208-1.937.993-1.327 1.489-3.694 1.489-7.102 0-3.228-.443-5.416-1.329-6.564-.886-1.148-2.551-1.722-4.996-1.722zm41.674-5.219v26.257h-5.102v-11.945h-12.808v11.945h-5.049v-26.257h5.049v10.33h12.808v-10.33h5.102zm13.072 9.9h5.687c4.004 0 6.749.61 8.237 1.829 1.489 1.184 2.233 3.372 2.233 6.565 0 3.156-.727 5.326-2.179 6.51-1.453 1.184-3.933 1.776-7.441 1.776-4.818 0-8.609-.108-11.373-.323h-.106v-26.257h4.942v9.9zm25.723-9.9v26.257h-5.155v-26.257h5.155zm-25.723 22.437l5.687.053c2.019 0 3.401-.287 4.145-.861.744-.609 1.116-1.793 1.116-3.551 0-1.65-.372-2.78-1.116-3.389-.708-.646-2.09-.969-4.145-.969h-5.687v8.717zm49.503-34.059h3.879c.178 2.152-.478 3.946-1.966 5.38-1.488 1.435-3.508 2.153-6.059 2.153-2.621 0-4.694-.718-6.218-2.153-1.488-1.434-2.143-3.228-1.966-5.38h3.88c0 3.121 1.434 4.681 4.304 4.681 2.764 0 4.146-1.56 4.146-4.681zm7.493 37.879h-4.623v-16.626c0-.466.017-1.112.053-1.937.071-.861.106-1.435.106-1.722h-.106c-.355.969-.975 2.045-1.86 3.229l-12.49 17.056h-4.145v-26.257h4.571v16.679c0 1.076-.054 2.26-.16 3.552h.16c.673-1.364 1.275-2.404 1.807-3.121l12.542-17.11h4.145v26.257zm45.842 7.748h-3.401l-.478-7.748h-22.003v-26.257h5.049v22.06h12.064v-22.06h5.102v22.06h3.667v11.945zm21.771-18.348h-11.639c.248 2.726.939 4.556 2.072 5.488 1.17.933 3.065 1.399 5.687 1.399 2.303 0 5.332-.215 9.088-.646l.478 3.444c-2.338 1.04-5.757 1.56-10.257 1.56-4.535 0-7.759-1.04-9.672-3.12-1.914-2.117-2.87-5.686-2.87-10.708 0-5.093.939-8.662 2.816-10.707 1.878-2.044 4.961-3.067 9.248-3.067 3.933 0 6.802.736 8.609 2.206 1.807 1.471 2.729 3.677 2.764 6.618 0 5.022-2.108 7.533-6.324 7.533zm-11.746-4.035h10.364c1.736 0 2.569-1.166 2.498-3.498 0-1.614-.443-2.744-1.329-3.389-.85-.682-2.374-1.023-4.57-1.023-2.587 0-4.376.556-5.368 1.668-.957 1.076-1.488 3.157-1.595 6.242zm47.724-11.622v26.257h-5.102v-11.945h-12.808v11.945h-5.049v-26.257h5.049v10.33h12.808v-10.33h5.102zm28.962 4.25h-9.194v22.007h-5.155v-22.007h-9.194v-4.25h23.543v4.25zm9.68-4.25l.372 4.035c1.347-1.435 2.994-2.582 4.943-3.443 1.984-.861 3.915-1.292 5.793-1.292 3.082 0 5.332 1.184 6.749 3.552 1.417 2.331 2.126 5.81 2.126 10.438 0 4.95-.797 8.465-2.391 10.545-1.595 2.045-4.11 3.067-7.547 3.067-3.472 0-6.59-.878-9.354-2.636.142 1.793.195 3.569.16 5.327v7.371h-5.102v-36.964h4.251zm.851 7.64v13.344c3.507.932 6.129 1.399 7.865 1.399 2.232 0 3.774-.61 4.624-1.83.886-1.255 1.328-3.694 1.328-7.317 0-3.48-.407-5.919-1.222-7.318-.779-1.399-2.143-2.098-4.092-2.098-1.276 0-2.551.305-3.827.915-1.275.574-2.834 1.542-4.676 2.905zm-310.685 40.209v53.267h-11.59v-44.775H310.14v44.775h-11.591v-53.267h41.634zm11.7 53.267v-53.267c4.727-.463 11.412-.695 20.054-.695 7.32 0 12.328 1.21 15.022 3.628 2.745 2.419 4.117 7 4.117 13.742 0 6.742-1.296 11.348-3.888 13.818-2.542 2.419-7.117 3.629-13.726 3.629a78.84 78.84 0 01-9.913-.618v19.763h-11.666zm11.666-28.178h8.083c3.05-.051 5.109-.643 6.177-1.775 1.067-1.132 1.601-3.345 1.601-6.639s-.534-5.507-1.601-6.639c-1.068-1.132-3.127-1.699-6.177-1.699l-8.083.078v16.674zm39.134-20.148c3.304-3.963 9.176-5.945 17.614-5.945 8.439 0 14.311 1.982 17.615 5.945 3.304 3.911 4.956 11.142 4.956 21.692 0 10.551-1.652 17.808-4.956 21.77-3.304 3.912-9.176 5.867-17.615 5.867-8.438 0-14.31-1.955-17.614-5.867-3.253-3.962-4.88-11.219-4.88-21.77 0-10.55 1.627-17.781 4.88-21.692zm25.697 7.334c-1.423-2.522-4.117-3.783-8.083-3.783-3.965 0-6.684 1.261-8.159 3.783-1.423 2.521-2.135 7.308-2.135 14.358 0 7.051.712 11.837 2.135 14.359 1.475 2.522 4.194 3.783 8.159 3.783 3.966 0 6.66-1.261 8.083-3.783 1.474-2.522 2.212-7.308 2.212-14.359 0-7.05-.738-11.837-2.212-14.358zm23.989 40.992v-42.15c0-3.346 1.042-6.073 3.126-8.184 2.084-2.11 4.728-3.165 7.93-3.165 10.981 0 18.759.283 23.334.85l-.534 8.646h-18.072c-1.474 0-2.542.334-3.202 1.003-.61.618-.915 1.699-.915 3.243v39.757h-11.667zm41.573 0v-53.267c4.728-.463 11.413-.695 20.055-.695 7.32 0 12.327 1.21 15.021 3.628 2.745 2.419 4.118 7 4.118 13.742 0 6.742-1.296 11.348-3.889 13.818-2.542 2.419-7.117 3.629-13.725 3.629-3.355 0-6.66-.206-9.913-.618v19.763h-11.667zm11.667-28.178h8.083c3.05-.051 5.109-.643 6.176-1.775 1.068-1.132 1.601-3.345 1.601-6.639s-.533-5.507-1.601-6.639c-1.067-1.132-3.126-1.699-6.176-1.699l-8.083.078v16.674zm71.083 18.991l.458 8.646c-4.728.515-12.861.772-24.401.772-3.508 0-6.303-.952-8.388-2.856-2.084-1.956-3.126-4.58-3.126-7.874V309.49c0-3.294 1.042-5.893 3.126-7.797 2.135-1.956 4.931-2.934 8.388-2.934 11.54 0 19.673.258 24.401.772l-.458 8.724h-20.283c-1.271 0-2.186.309-2.745.926-.559.618-.839 1.621-.839 3.011v8.106h20.97v8.492h-20.97v10.267c0 1.441.28 2.47.839 3.088.559.617 1.474.926 2.745.926h20.283zm45.395-.772l.991 8.724c-4.575 1.441-10.192 2.161-16.852 2.161-8.134 0-13.852-2.058-17.157-6.176-3.304-4.117-4.956-11.245-4.956-21.384 0-10.138 1.652-17.266 4.956-21.384 3.305-4.117 9.023-6.175 17.157-6.175 5.897 0 11.158.591 15.784 1.775l-.991 8.801c-4.118-.258-9.049-.386-14.793-.386-3.813 0-6.431 1.235-7.854 3.705-1.372 2.419-2.059 6.974-2.059 13.664 0 6.691.687 11.271 2.059 13.742 1.423 2.419 4.041 3.628 7.854 3.628 7.066 0 12.353-.232 15.861-.695zm44.697 0l.991 8.724c-4.575 1.441-10.192 2.161-16.852 2.161-8.133 0-13.852-2.058-17.157-6.176-3.304-4.117-4.956-11.245-4.956-21.384 0-10.138 1.652-17.266 4.956-21.384 3.305-4.117 9.024-6.175 17.157-6.175 5.897 0 11.159.591 15.785 1.775l-.992 8.801c-4.117-.258-9.048-.386-14.793-.386-3.812 0-6.43 1.235-7.854 3.705-1.372 2.419-2.059 6.974-2.059 13.664 0 6.691.687 11.271 2.059 13.742 1.424 2.419 4.042 3.628 7.854 3.628 7.066 0 12.353-.232 15.861-.695z" fill="#17429A"/></g><defs><clipPath id="clip0"><path fill="#fff" transform="translate(129 229)" d="M0 0h541v134.954H0z"/></clipPath></defs></svg>