<svg width="26" height="26" fill="none" xmlns="http://www.w3.org/2000/svg"><path fill-rule="evenodd" clip-rule="evenodd" d="M3.182 22.274a1 1 0 01-.26-.962l1.768-6.717a1 1 0 01.26-.453l12.02-12.02a3 3 0 014.243 0l2.121 2.12a3 3 0 010 4.243l-12.02 12.021a1 1 0 01-.453.26l-6.717 1.768a1 1 0 01-.962-.26zm2.11-2.11l3.376-.889-2.487-2.487-.889 3.375zm1.78-5.315l3.535 3.536 7.778-7.778-3.536-3.536-7.778 7.778zm9.191-9.192L19.8 9.192l2.121-2.12a1 1 0 000-1.415L19.8 3.536a1 1 0 00-1.414 0l-2.122 2.12z" fill="#fff"/></svg>