<svg width="24" height="24" fill="none" xmlns="http://www.w3.org/2000/svg"><path fill-rule="evenodd" clip-rule="evenodd" d="M13.335.313l8 4A3 3 0 0123 7v9.53a3 3 0 01-1.663 2.684l-8 4a3 3 0 01-2.684 0L2.65 19.212A2.997 2.997 0 011 16.519v-9.52a3 3 0 011.663-2.684L6.469 2.41a1.08 1.08 0 01.17-.085L10.665.313a3 3 0 012.67 0zM7.005 4.38L4.241 5.761l7.76 3.88 2.763-1.382-7.759-3.88zM17 7.141L9.241 3.26l2.316-1.158a.999.999 0 01.887.001l7.315 3.657L17 7.141zm.438 2.017l.02-.01L21 7.377v9.152a1 1 0 01-.555.894L13 21.146v-9.769l4.438-2.22zM3 7.377l8 4v9.774l-7.453-3.727A.999.999 0 013 16.526V7.377z" fill="#fff"/></svg>