<svg width="140" height="200" viewBox="0 0 140 200" fill="none" xmlns="http://www.w3.org/2000/svg">
<rect x="20" y="10" width="10" height="180" fill="white"/>
<path d="M29.7815 10.0475L29.7815 22.2166L64.9996 40.7379L69.9996 43.3674L69.9996 31.1775L64.9996 28.5506L29.7815 10.0475Z" fill="white"/>
<path d="M110.219 64.2979L110.219 52.1288L75.0004 33.6076L70.0004 30.9781L70.0004 43.168L75.0004 45.7949L110.219 64.2979Z" fill="white"/>
<path d="M30 52L30 64L65.0001 82.6305L70.0001 85.26L70.0001 73.0701L65.0001 70.4432L30 52Z" fill="white"/>
<path d="M110 106L110 94L75.0001 75.5004L70.0001 72.8709L70.0001 85.0608L75.0001 87.6877L110 106Z" fill="white"/>
</svg>
