<svg width="140" height="200" viewBox="0 0 140 200" fill="none" xmlns="http://www.w3.org/2000/svg">
<rect x="20" y="10" width="10" height="180" fill="white"/>
<path d="M29.7819 10.0478L29.7819 22.2169L65.0001 40.7381L70.0001 43.3676L70.0001 31.1777L65.0001 28.5508L29.7819 10.0478Z" fill="white"/>
<path d="M110.219 64.2979L110.219 52.1288L75.0004 33.6076L70.0004 30.9781L70.0004 43.168L75.0004 45.7949L110.219 64.2979Z" fill="white"/>
<path d="M110.219 51.9399L110.219 64.109L75.0004 82.6302L70.0004 85.2597L70.0004 73.0698L75.0004 70.4429L110.219 51.9399Z" fill="white"/>
<path d="M30.0003 106L30.0002 94.0002L65.0002 75.5006L70.0002 72.8711L70.0002 85.061L65.0002 87.6879L30.0003 106Z" fill="white"/>
<path d="M30.0001 94.0003L30.0001 106L65.0003 124.523L70.0003 127.153L70.0003 114.963L65.0003 112.336L30.0001 94.0003Z" fill="white"/>
<path d="M110.219 148.083L110.219 135.914L75.0004 117.393L70.0004 114.763L70.0004 126.953L75.0004 129.58L110.219 148.083Z" fill="white"/>
<path d="M110.219 135.726L110.219 147.895L75.0004 166.416L70.0004 169.045L70.0004 156.855L75.0004 154.229L110.219 135.726Z" fill="white"/>
<path d="M29.7819 189.976L29.7819 177.807L65.0001 159.285L70.0001 156.656L70.0001 168.846L65.0001 171.473L29.7819 189.976Z" fill="white"/>
</svg>
