<svg width="140" height="200" viewBox="0 0 140 200" fill="none" xmlns="http://www.w3.org/2000/svg">
<rect x="20" y="10" width="10" height="180" fill="#FFE500"/>
<path d="M110.219 10.0475L110.219 22.2166L75.0004 40.7379L70.0004 43.3674L70.0004 31.1775L75.0004 28.5506L110.219 10.0475Z" fill="#FFE500"/>
<path d="M30.0001 64.0002L30 52.0002L65.0001 33.6077L70.0001 30.9783L70.0001 43.1681L65.0001 45.7951L30.0001 64.0002Z" fill="#FFE500"/>
<path d="M110.219 51.9401L110.219 64.1092L75.0004 82.6305L70.0004 85.26L70.0004 73.0701L75.0004 70.4432L110.219 51.9401Z" fill="#FFE500"/>
<path d="M30.0003 106L30.0002 94L65.0002 75.5004L70.0002 72.8709L70.0002 85.0608L65.0002 87.6877L30.0003 106Z" fill="#FFE500"/>
</svg>
