<svg width="140" height="200" viewBox="0 0 140 200" fill="none" xmlns="http://www.w3.org/2000/svg">
<path d="M110 107L110 92.9999L116.5 99.9999L110 107Z" fill="white"/>
<path d="M30 107L30 92.9999L23.5 99.9999L30 107Z" fill="white"/>
<path d="M30 93.0001L30 107L69.9775 65.0001L63.5 58.2013L30 93.0001Z" fill="white"/>
<path d="M116.5 16.0003L110 10.0003L70.0127 51.4504L76.4729 58.1588L116.5 16.0003Z" fill="white"/>
<path d="M110 93L110 107L29.9999 190.159L23.5 184L110 93Z" fill="white"/>
<path d="M30 93L30 107L110 190.119L116.5 184.119L30 93Z" fill="white"/>
<path d="M23.5002 16.1195L30.0001 9.96041L70.0126 51.4562L63.5002 58.1932L23.5002 16.1195Z" fill="white"/>
<path d="M63.5 58.1933L70.0125 51.4563L76.4748 58.1581L69.9715 65.0003L63.5 58.1933Z" fill="white"/>
<path d="M110 93L110 107L69.9715 65L76.4747 58.1579L110 93Z" fill="white"/>
</svg>
