<svg width="140" height="200" viewBox="0 0 140 200" fill="none" xmlns="http://www.w3.org/2000/svg">
<rect x="20" y="10" width="10" height="180" fill="#FFE500"/>
<path d="M110 10H120V57.2473L110 52.0402V10Z" fill="#FFE500"/>
<path d="M110 52.0376L120 57.2417V190H110V52.0376Z" fill="#FFE500"/>
<path d="M30 93.0001L30 107L69.9775 65.0001L63.5 58.2013L30 93.0001Z" fill="#FFE500"/>
<path d="M116.5 16.0003L110 10.0003L70.0127 51.4504L76.4729 58.1588L116.5 16.0003Z" fill="#FFE500"/>
<path d="M23.5002 16.1195L30.0001 9.96041L70.0126 51.4562L63.5002 58.1932L23.5002 16.1195Z" fill="#FFE500"/>
<path d="M63.5 58.1933L70.0125 51.4563L76.4748 58.1581L69.9715 65.0003L63.5 58.1933Z" fill="#FFE500"/>
<path d="M110 93L110 107L69.9715 65L76.4747 58.1579L110 93Z" fill="#FFE500"/>
<path opacity="0.1" d="M110 63.3213V80.5853L116 72L110 63.3213Z" fill="#FFE500"/>
</svg>
