<svg width="140" height="200" viewBox="0 0 140 200" fill="none" xmlns="http://www.w3.org/2000/svg">
<path d="M110 63.3213V80.5853L116 72L110 63.3213Z" fill="#120918"/>
<path d="M29.9999 63.3312L29.9999 80.5918L24.0002 71.9999L29.9999 63.3312Z" fill="#120918"/>
<path d="M110 80.5979L66 18L72.5 10L110 63.3241V80.5979Z" fill="#120918"/>
<path d="M72.5 10H67.5L70 14L72.5 10Z" fill="#120918"/>
<path d="M110 63.9999L64 128L70 136.5L110 80.595V63.9999Z" fill="#120918"/>
<path d="M106 188L114 182L70.0001 119.5L70.0001 136.767L106 188Z" fill="#120918"/>
<path d="M30.0001 80.5979L74 18L67.5 10L30.0001 63.3241V80.5979Z" fill="#120918"/>
<path d="M30 63.9999L76 128L70 136.5L30 80.595V63.9999Z" fill="#120918"/>
<path d="M34.0146 188L26.0146 182L70.0146 119.5L70.0146 136.766L34.0146 188Z" fill="#120918"/>
</svg>
