<svg width="140" height="200" viewBox="0 0 140 200" fill="none" xmlns="http://www.w3.org/2000/svg">
<rect x="20" y="10" width="10" height="180" fill="#FFE500"/>
<path d="M29.7815 10.0475L29.7815 22.2166L64.9996 40.7379L69.9996 43.3674L69.9996 31.1775L64.9996 28.5506L29.7815 10.0475Z" fill="#FFE500"/>
<path d="M110.219 10.0475L110.219 22.2166L75.0004 40.7379L70.0004 43.3674L70.0004 31.1775L75.0004 28.5506L110.219 10.0475Z" fill="#FFE500"/>
<path d="M29.7815 189.976L29.7815 177.807L64.9996 159.285L69.9996 156.656L69.9996 168.846L64.9996 171.473L29.7815 189.976Z" fill="#FFE500"/>
<path d="M110.219 189.976L110.219 177.807L75.0004 159.285L70.0004 156.656L70.0004 168.846L75.0004 171.473L110.219 189.976Z" fill="#FFE500"/>
</svg>
