<svg width="140" height="200" viewBox="0 0 140 200" fill="none" xmlns="http://www.w3.org/2000/svg">
<rect x="20" y="10" width="10" height="180" fill="#120918"/>
<path d="M29.7815 10.0475L29.7815 22.2166L64.9996 40.7379L69.9996 43.3674L69.9996 31.1775L64.9996 28.5506L29.7815 10.0475Z" fill="#120918"/>
<path d="M110.219 64.2979L110.219 52.1288L75.0004 33.6076L70.0004 30.9781L70.0004 43.168L75.0004 45.7949L110.219 64.2979Z" fill="#120918"/>
<path d="M110.219 51.9401L110.219 64.1092L75.0004 82.6305L70.0004 85.26L70.0004 73.0701L75.0004 70.4432L110.219 51.9401Z" fill="#120918"/>
<path d="M30.0003 106L30.0002 94L65.0002 75.5004L70.0002 72.8709L70.0002 85.0608L65.0002 87.6877L30.0003 106Z" fill="#120918"/>
<path d="M30 93L30 107L110 190.119L116.5 184.119L30 93Z" fill="#120918"/>
</svg>
