<svg width="140" height="200" viewBox="0 0 140 200" fill="none" xmlns="http://www.w3.org/2000/svg">
<path d="M30 107L27.8033 97.0902L110 93L112.196 102.91L30 107Z" fill="#FFE500"/>
<path d="M110 107L110 93L116.5 100L110 107Z" fill="#FFE500"/>
<path d="M30 107L30 92.9999L23.5 99.9999L30 107Z" fill="#FFE500"/>
<path d="M30 93.0001L30 107L69.9775 65.0001L63.5 58.2013L30 93.0001Z" fill="#FFE500"/>
<path d="M116.5 16L110 10L70.0127 51.4502L76.4729 58.1586L116.5 16Z" fill="#FFE500"/>
<path d="M110 93.0001L110 107L29.9999 190.159L23.5 184L110 93.0001Z" fill="#FFE500"/>
<path d="M63.5 58.1931L70.0125 51.4561L76.4748 58.1579L69.9715 65L63.5 58.1931Z" fill="#FFE500"/>
</svg>
