<svg width="140" height="200" viewBox="0 0 140 200" fill="none" xmlns="http://www.w3.org/2000/svg">
<rect x="20" y="10" width="10" height="180" fill="#120918"/>
<path d="M30 52L30 64L65.0001 82.6305L70.0001 85.26L70.0001 73.0701L65.0001 70.4432L30 52Z" fill="#120918"/>
<path d="M110 106L110 94L75.0005 75.5004L70.0006 72.8709L70.0006 85.0608L75.0005 87.6877L110 106Z" fill="#120918"/>
<path d="M110 93.9999L110 106L75.0006 124.523L70.0006 127.153L70.0006 114.963L75.0006 112.336L110 93.9999Z" fill="#120918"/>
<path d="M29.7819 148.083L29.7819 135.914L65.0001 117.393L70.0001 114.763L70.0001 126.953L65.0001 129.58L29.7819 148.083Z" fill="#120918"/>
</svg>
