<svg width="259" height="126" viewBox="0 0 259 126" fill="none" xmlns="http://www.w3.org/2000/svg">
<path fill-rule="evenodd" clip-rule="evenodd" d="M255.952 0.705657C256.912 0.385644 258.128 0.64165 258.512 0.961663C258.896 1.28168 259.088 1.8577 258.96 2.43372C258.064 5.50584 251.536 9.47401 251.152 9.41C250.512 9.218 250.192 2.43372 255.952 0.705657ZM248.4 13.6981L248.309 13.6778C247.769 13.5573 247.285 13.4489 246.8 13.5701C244.495 14.0181 240.143 15.2342 235.023 21.7624C233.167 24.0665 231.439 26.9466 230.223 30.9148C230.159 31.0108 230.095 31.0908 230.031 31.1708C229.967 31.2508 229.903 31.3308 229.839 31.4268C228.751 33.0269 222.735 41.8592 218.895 44.8033C218.446 45.1873 218.126 45.3793 217.806 45.4433C217.358 45.5713 217.166 45.3153 217.23 44.8033C217.885 39.7296 220.586 34.5164 222.558 30.7096C222.9 30.0505 223.219 29.4335 223.503 28.8667C223.695 28.4187 223.887 27.9707 224.015 27.5867C224.041 27.4938 224.068 27.4064 224.093 27.3228L224.094 27.3211C224.191 27.0023 224.271 26.7385 224.271 26.4346C224.335 25.0906 224.015 24.0025 223.439 23.2985C222.863 22.5945 222.287 22.2105 221.647 22.2105C221.263 22.2105 220.431 22.2744 219.919 22.7225C218.51 24.0025 216.142 28.6107 214.35 33.5389C214.35 33.5709 214.334 33.5869 214.318 33.6029C214.302 33.6189 214.286 33.6349 214.286 33.6669C214.03 34.1149 208.142 43.5873 207.246 44.6753C206.35 45.8274 205.582 46.7234 204.878 47.4914C204.174 48.2595 203.726 48.6435 203.47 48.6435C203.278 48.7075 203.15 48.5795 203.086 48.2594C202.254 43.5233 214.03 14.0821 214.542 12.8021C215.054 11.522 215.374 10.562 215.374 9.85798C215.374 8.83394 215.118 8.0019 214.67 7.36187C214.222 6.72185 211.534 3.39373 209.998 3.96975C209.614 4.09776 209.166 4.41776 208.846 5.12179C205.582 13.3141 201.486 26.2426 198.478 36.611C198.35 36.899 198.238 37.187 198.126 37.475C198.014 37.763 197.902 38.051 197.774 38.3391C196.686 40.7712 195.598 42.9472 194.51 44.7393C193.422 46.5314 192.333 48.0034 191.309 49.1555C190.285 50.3075 189.389 51.0116 188.749 51.3956C188.429 51.5876 188.301 51.5236 188.301 51.2036C188.237 50.8835 188.685 45.5713 191.501 35.907C191.821 34.6909 187.469 33.7309 185.741 35.331C185.393 35.6526 185.112 36.6591 184.729 38.0307L184.729 38.031L184.728 38.0312L184.728 38.0314C184.197 39.9346 183.469 42.5406 182.093 44.9953C181.325 46.3394 176.781 54.2757 174.861 54.7877C171.021 55.7477 176.525 44.8673 177.869 42.3712C178.573 41.0272 182.669 34.3709 187.085 31.4268C187.271 31.3032 187.529 31.173 187.796 31.0383C188.359 30.7544 188.962 30.4506 189.005 30.1468C189.133 29.6987 189.133 29.3147 189.133 28.9307C189.005 28.4827 188.749 28.1627 188.365 27.9067C187.981 27.6507 187.469 27.5227 186.957 27.4587C186.381 27.3946 185.869 27.3946 185.293 27.5226C184.717 27.6507 184.205 27.7787 183.757 28.0347C178.381 30.9148 173.325 38.3391 170.637 42.8832C170.507 43.1198 170.379 43.352 170.253 43.5802C169.698 44.5869 169.186 45.5164 168.717 46.4034C168.685 46.4354 168.669 46.4674 168.653 46.4994C168.637 46.5314 168.621 46.5634 168.589 46.5954C167.117 49.0915 160.972 56.6438 159.82 57.1558C161.932 55.0437 165.964 47.2994 164.876 43.2032C164.748 42.6912 163.852 40.7072 161.292 40.0671C158.668 39.4271 153.292 43.3953 151.564 45.6354C153.228 42.7552 161.292 22.9785 160.14 21.3144C159.18 19.9064 153.996 19.2663 153.1 20.8024C152.716 21.4424 139.275 56.8998 138.571 58.8839C138.507 59.0758 138.443 59.2838 138.379 59.4917L138.379 59.4919L138.379 59.492C138.315 59.7 138.251 59.9079 138.187 60.0999C137.483 61.1239 136.715 62.148 135.883 63.172C135.307 63.9695 134.701 64.7057 134.127 65.4018L134.127 65.4021L134.126 65.4024C133.872 65.7116 133.623 66.0129 133.387 66.3081C133.268 66.4456 133.152 66.5805 133.037 66.7125L133.031 66.7198C132.351 67.5068 131.758 68.1935 131.211 68.7402C130.571 69.3803 129.483 70.4683 129.483 70.0843C129.39 68.2196 133.439 58.9871 135.893 53.3916L135.893 53.3906C136.808 51.3042 137.502 49.7236 137.675 49.2195C140.171 44.0353 131.723 43.5873 130.827 45.8274C130.81 45.8672 130.787 45.9257 130.756 46.0018L130.755 46.0027C130.187 47.396 127.216 54.6825 122.059 62.084C121.899 62.3074 121.66 62.6462 121.361 63.0697L121.359 63.0731C119.259 66.0482 114.218 73.1884 113.098 73.8604C111.498 74.8205 113.738 66.5641 120.075 54.0197C121.611 50.9475 119.947 49.4755 117.963 49.4755C115.979 49.4755 114.058 50.0515 113.29 51.7156C112.138 54.1477 109.578 61.892 107.914 67.7802C107.21 69.1242 106.378 70.5323 105.482 71.9403C104.458 73.4764 103.434 74.8845 102.41 76.1645C101.386 77.4446 97.2898 81.7967 95.8178 81.3487C93.0016 80.3887 95.6898 74.5645 95.6898 74.5645C95.7723 74.0143 97.2028 71.312 98.8632 68.1755L98.8632 68.1754C101.066 64.0149 103.673 59.0904 104.074 57.4118C104.202 56.8998 104.074 54.4677 100.49 53.7637C98.5417 53.364 96.3596 55.8106 95.2216 57.0865C94.9016 57.4453 94.6641 57.7115 94.5377 57.7958C91.8596 61.2094 89.9651 62.131 88.9536 59.5385C87.3666 55.4709 80.6737 56.9787 81.0127 60.5554C81.2781 63.3556 83.1017 63.4333 84.6129 63.4978C85.032 63.5157 85.427 63.5325 85.7582 63.6061C87.5492 64.0041 82.1782 75.356 80.5852 78.2766C79.4971 80.1967 78.3451 81.7967 77.257 83.0128C76.169 84.2288 75.273 85.0609 74.5689 85.4449C74.2489 85.6369 74.0569 85.5729 74.0569 85.2529C73.9929 84.8689 74.3129 79.2366 77.065 68.8682C77.385 67.5882 72.6489 66.6281 70.9208 68.4202C70.5723 68.7688 70.2911 69.8474 69.9079 71.3173C69.3764 73.3563 68.6487 76.1481 67.2727 78.7886C66.5046 80.2607 61.7684 88.837 59.7844 89.413C55.6882 90.5011 61.3204 78.7886 62.6645 76.0365C63.3685 74.5645 67.5927 67.3962 72.2648 64.1321C72.4927 63.9725 72.7774 63.7887 73.064 63.6036L73.0641 63.6035L73.0643 63.6034C73.5825 63.2687 74.1069 62.93 74.3129 62.724C74.6045 62.3741 74.5241 61.9179 74.4591 61.5491C74.4528 61.5131 74.4466 61.478 74.4409 61.444C74.3769 60.9319 73.9929 60.6119 73.5449 60.3559C73.0969 60.0999 72.5849 59.9719 72.0088 59.9079C71.4328 59.8439 70.7928 59.9079 70.2168 59.9719C69.6407 60.0999 69.0647 60.2919 68.5527 60.5479C62.8565 63.748 57.6083 71.8123 54.9202 76.7405C47.0479 91.0771 50.76 94.2132 51.4 94.6612C54.8952 97.1922 58.4471 94.1627 59.812 92.9986L59.8121 92.9986L59.8128 92.998C59.8972 92.926 59.9732 92.8611 60.0404 92.8051C63.4965 89.861 66.5046 83.9088 66.5046 83.9088C66.0566 88.389 67.9767 90.0531 68.4887 90.3731C72.1368 92.4211 76.297 87.429 77.7691 85.3169C81.3108 80.2352 83.6722 74.8945 86.1071 69.3876C86.8118 67.7937 87.5228 66.1858 88.2703 64.5662C88.6353 63.8362 89.4868 63.1824 90.5037 62.9282C90.5924 62.906 90.6883 62.8836 90.7904 62.8598C91.8583 62.6105 93.6038 62.203 94.9102 60.2164C94.6489 61.0004 93.8966 62.646 92.99 64.6292L92.9899 64.6294C91.5445 67.7913 89.7068 71.8112 88.8415 74.5645C87.9455 77.5086 88.7135 80.4527 89.8015 81.9887C90.6976 83.2688 92.5536 84.2288 94.8577 83.8448C98.9539 83.1408 103.498 76.7405 103.882 76.1005C104.266 75.4605 104.714 74.7565 105.226 74.0524L105.93 73.0284C106.026 72.9004 106.154 72.7084 106.314 72.4684L106.314 72.4681C106.474 72.2281 106.666 71.9402 106.89 71.6203C106.698 72.3884 106.57 73.0924 106.506 73.6044C106.314 75.2685 106.954 77.1246 107.85 77.5726C108.746 78.0206 109.642 78.0846 110.602 77.8286C111.882 77.4446 113.29 76.4205 114.826 74.7565C116.427 73.0924 123.147 63.044 123.147 63.044C123.531 62.404 123.979 61.764 124.427 61.1239C124.875 60.4839 125.131 60.2279 125.195 60.4199C123.467 64.7721 122.891 68.6762 123.211 70.2763C123.339 70.9163 123.595 71.4923 123.915 71.9403C124.235 72.3884 124.683 72.7724 125.195 73.0284C125.707 73.2844 126.283 73.3484 126.987 73.2204H127.051C127.435 73.2204 127.755 73.1564 128.011 73.0924C128.331 73.0284 128.843 72.7724 129.483 72.3244C129.628 72.223 129.779 72.1184 129.936 72.0097C130.474 71.6381 131.079 71.2195 131.723 70.7243C132.555 70.0843 133.323 69.3163 134.155 68.4842C134.987 67.6522 135.691 66.7562 136.267 65.7321C136.331 65.6041 136.395 65.4761 136.523 65.4121C136.555 65.3481 136.603 65.3001 136.659 65.2441C136.715 65.1881 136.779 65.1241 136.843 65.0281L136.907 64.9641L136.779 65.6041C136.715 66.1801 136.843 66.6282 137.099 67.0122C137.355 67.3962 137.739 67.7802 138.187 67.9722C138.571 68.2282 139.019 68.4202 139.467 68.4842C139.915 68.6122 140.235 68.6122 140.491 68.6122C141.14 68.5762 143.309 63.8574 145.537 59.008C147.269 55.2406 149.037 51.3944 150.156 49.6035C151.884 46.8514 154.956 43.5233 158.284 42.6912C158.604 42.6272 158.796 42.7552 158.924 43.0753C159.372 44.6753 156.364 53.5076 150.284 58.8839C149.55 59.5332 148.33 60.5436 147.185 61.4922L147.185 61.4927L147.184 61.4929C145.734 62.6946 144.403 63.797 144.332 63.94C144.204 64.1961 144.076 64.4521 144.076 64.7081C144.076 65.0921 144.204 65.4761 144.46 65.7961C144.78 66.1801 145.1 66.5001 145.548 66.8202C145.996 67.1402 146.444 67.3322 146.892 67.5242C147.404 67.7162 147.852 67.7802 148.172 67.6522C154.892 65.0281 163.148 57.2838 165.964 53.3157C164.94 57.7958 166.476 59.2039 166.861 59.4599C170.023 61.8463 173.407 59.1719 174.733 58.1241C174.829 58.0479 174.915 57.9803 174.989 57.9238C178.253 55.2357 181.197 49.7315 181.197 49.7315C180.685 53.8917 182.413 55.4917 182.925 55.8117C186.253 57.7958 190.285 53.2516 191.693 51.2676C193.166 49.3475 194.51 47.1714 195.79 44.8673C195.891 44.6892 195.983 44.511 196.073 44.3369C196.208 44.0731 196.339 43.8186 196.494 43.5873C196.316 44.5352 196.248 45.4282 196.188 46.2157L196.188 46.2165L196.188 46.2179V46.2182L196.174 46.4034C196.174 46.7234 196.174 47.2354 196.302 47.9394C196.43 48.6435 196.622 49.2835 196.878 49.9875C197.198 50.6915 197.646 51.2676 198.222 51.7156C198.798 52.1636 199.566 52.4196 200.462 52.2916C202.126 52.0356 204.046 50.8195 205.198 49.6035C206.99 47.8114 210.062 43.2673 212.302 39.8111C211.79 41.9872 211.534 43.9073 211.79 45.2513C211.982 46.1474 212.366 46.8514 212.942 47.4914C213.518 48.1315 214.35 48.3875 215.374 48.3875L215.463 48.3728C215.826 48.313 216.24 48.2449 216.654 48.0674C218.574 47.1714 219.855 46.2114 221.007 45.1873C224.143 42.3712 227.663 36.931 229.007 34.8189C228.623 37.059 228.367 40.0031 229.519 41.5392C229.967 42.1152 230.863 42.7552 230.863 42.7552C232.527 43.7153 236.047 43.4593 238.159 42.0512C242.895 38.8511 242.319 36.547 241.359 37.379C240.399 38.147 239.503 38.7871 238.735 39.2351C237.967 39.6831 237.327 39.9391 236.943 40.0671C234.255 40.7712 235.215 36.035 235.407 35.331C235.599 34.6269 236.175 33.0269 236.559 32.6428C237.049 32.2983 237.529 31.9631 237.999 31.6348L238.002 31.6332L238.002 31.633C244.172 27.327 248.641 24.2074 250.128 16.8342C250.32 15.8742 250 15.1062 249.616 14.6582C249.424 14.2101 248.912 13.8901 248.4 13.6981ZM247.376 18.5623C247.248 21.9544 241.359 27.7787 237.967 29.5707C238.287 28.9307 242.191 21.5704 246.864 18.2423C247.184 17.9863 247.44 18.1143 247.376 18.5623ZM223.695 19.6504C224.463 20.0344 225.231 20.1624 225.999 20.0984C226.511 19.9704 226.895 19.7784 227.215 19.4584C228.111 18.6264 230.607 15.1062 231.183 13.6982C231.311 13.3782 231.375 13.1222 231.375 12.7382C231.375 11.9061 229.711 11.2021 229.007 11.0741C228.303 10.9461 227.727 10.9461 227.215 11.0741C226.255 11.2661 225.231 11.9061 224.143 12.9302C223.759 13.3142 223.439 13.7622 223.183 14.2102C222.927 14.6582 222.735 15.2342 222.671 15.9383C222.543 16.8343 222.543 17.6023 222.735 18.2424C222.991 18.9464 223.311 19.3944 223.695 19.6504ZM30.5994 91.333C30.2794 89.605 28.8713 79.7486 30.0233 63.3639L29.7033 64.26L13.1907 113.094C10.8866 119.75 5.95842 129.607 1.03023 124.614C-1.17677 122.407 0.729977 118.143 1.51769 116.382L1.51801 116.381C1.57538 116.253 1.6268 116.138 1.67026 116.038C8.64653 99.3974 25.7352 40.7711 25.8632 40.1951C26.7592 36.4829 28.4233 36.4829 29.7033 36.5469C35.1435 36.8029 35.0795 42.6912 33.9915 47.8754C29.8953 67.1401 32.9035 86.5328 33.0955 87.6849C34.7595 98.3093 40.4558 72.2603 43.3999 56.7077C48.9041 27.7786 58.7605 5.50571 64.2647 5.2497C73.5399 4.52019 69.9182 10.7907 67.181 15.5298C66.5562 16.6115 65.9774 17.6135 65.6087 18.4342C57.5617 36.3957 53.4775 53.5106 50.1357 67.5142C47.1782 79.9073 44.8023 89.8636 40.7758 95.8132C40.0077 97.0293 37.8316 100.293 35.7836 100.101C32.0191 99.7592 31.152 94.5881 30.736 92.1077L30.736 92.1076L30.7359 92.1072C30.6852 91.8045 30.6411 91.5419 30.5994 91.333ZM44.3978 106.709L44.3938 106.71C40.8874 107.55 33.0647 109.425 28.6154 111.942C27.2074 112.71 25.1593 116.55 24.7113 117.638C23.6232 120.518 26.5033 122.438 31.3035 121.222C38.9838 119.302 245.456 56.6439 238.48 48.8996C238.115 48.4827 213.332 56.1484 181.098 66.1191L181.098 66.1192C134.153 80.6405 71.4016 100.051 45.2561 106.502C45.0114 106.562 44.7232 106.631 44.3978 106.709Z" fill="#EBE6F3"/>
</svg>
