<svg width="80" height="80" viewBox="0 0 80 80" fill="none" xmlns="http://www.w3.org/2000/svg">
<g clip-path="url(#clip0)">
<path d="M0 0H72C76.4183 0 80 3.58172 80 8V80L40.8 40.8L0 0Z" fill="#150025"/>
<path d="M80 80L17.5 39.2L-6.99382e-06 6.99382e-06L39.2 39.2L80 80Z" fill="#EBE6F3"/>
<path d="M69 17V23C69 23.5523 68.5523 24 68 24H57C56.4477 24 56 23.5523 56 23V12C56 11.4477 56.4477 11 57 11H63C63.5523 11 64 10.5523 64 10C64 9.44772 63.5523 9 63 9H57C55.3431 9 54 10.3431 54 12V23C54 24.6569 55.3431 26 57 26H68C69.6569 26 71 24.6569 71 23V17C71 16.4477 70.5523 16 70 16C69.4477 16 69 16.4477 69 17Z" fill="white"/>
<path d="M62.7071 18.7071L73.7071 7.70711C74.0976 7.31658 74.0976 6.68342 73.7071 6.29289C73.3166 5.90237 72.6834 5.90237 72.2929 6.29289L61.2929 17.2929C60.9024 17.6834 60.9024 18.3166 61.2929 18.7071C61.6834 19.0976 62.3166 19.0976 62.7071 18.7071Z" fill="white"/>
<path d="M72 8V13C72 13.5523 72.4477 14 73 14C73.5523 14 74 13.5523 74 13V7C74 6.44772 73.5523 6 73 6H67C66.4477 6 66 6.44772 66 7C66 7.55228 66.4477 8 67 8H72Z" fill="white"/>
</g>
<defs>
<clipPath id="clip0">
<rect width="80" height="80" fill="white"/>
</clipPath>
</defs>
</svg>
