<svg width="259" height="126" fill="none" xmlns="http://www.w3.org/2000/svg"><path fill-rule="evenodd" clip-rule="evenodd" d="M255.952.706c.96-.32 2.176-.064 2.56.256.384.32.576.896.448 1.472-.896 3.072-7.424 7.04-7.808 6.976-.64-.192-.96-6.976 4.8-8.704zM248.4 13.698l-.091-.02c-.54-.12-1.024-.23-1.509-.108-2.305.448-6.657 1.664-11.777 8.192-1.856 2.305-3.584 5.185-4.8 9.153a3.554 3.554 0 01-.192.256c-.064.08-.128.16-.192.256-1.088 1.6-7.104 10.432-10.944 13.376-.449.384-.769.576-1.089.64-.448.128-.64-.128-.576-.64.655-5.073 3.356-10.287 5.328-14.093.342-.66.661-1.277.945-1.843.192-.448.384-.896.512-1.28.026-.093.053-.18.078-.264l.001-.002c.097-.319.177-.583.177-.886.064-1.344-.256-2.432-.832-3.136-.576-.704-1.152-1.088-1.792-1.088-.384 0-1.216.063-1.728.512-1.409 1.28-3.777 5.888-5.569 10.816 0 .032-.016.048-.032.064s-.032.032-.032.064c-.256.448-6.144 9.92-7.04 11.008a44.707 44.707 0 01-2.368 2.816c-.704.769-1.152 1.153-1.408 1.153-.192.064-.32-.064-.384-.385-.832-4.736 10.944-34.177 11.456-35.457.512-1.28.832-2.24.832-2.944 0-1.024-.256-1.856-.704-2.496-.448-.64-3.136-3.968-4.672-3.392-.384.128-.832.448-1.152 1.152-3.264 8.192-7.36 21.12-10.368 31.489-.128.288-.24.576-.352.864-.112.288-.224.576-.352.864-1.088 2.432-2.176 4.608-3.264 6.4-1.088 1.792-2.177 3.264-3.201 4.417-1.024 1.151-1.92 1.856-2.56 2.24-.32.192-.448.128-.448-.192-.064-.32.384-5.633 3.2-15.297.32-1.216-4.032-2.176-5.76-.576-.348.322-.629 1.328-1.012 2.7h-.001c-.531 1.904-1.259 4.51-2.635 6.964-.768 1.344-5.312 9.28-7.232 9.793-3.84.96 1.664-9.92 3.008-12.417.704-1.344 4.8-8 9.216-10.944.186-.124.444-.254.711-.389.563-.284 1.166-.587 1.209-.891.128-.448.128-.832.128-1.216-.128-.448-.384-.768-.768-1.024s-.896-.384-1.408-.448c-.576-.064-1.088-.064-1.664.064-.576.128-1.088.256-1.536.512-5.376 2.88-10.432 10.304-13.12 14.848l-.384.697a187.558 187.558 0 00-1.536 2.823c-.032.032-.048.064-.064.096s-.032.064-.064.096c-1.472 2.497-7.617 10.049-8.769 10.56 2.112-2.111 6.144-9.856 5.056-13.952-.128-.512-1.024-2.496-3.584-3.136-2.624-.64-8 3.328-9.728 5.568 1.664-2.88 9.728-22.656 8.576-24.32-.96-1.409-6.144-2.049-7.04-.513-.384.64-13.825 36.098-14.529 38.082-.064.192-.128.4-.192.608-.064.208-.128.416-.192.608a48.01 48.01 0 01-2.304 3.072 44.078 44.078 0 01-1.756 2.23h-.001c-.254.31-.503.61-.739.906l-.35.404-.006.008c-.68.787-1.273 1.474-1.82 2.02-.64.64-1.728 1.728-1.728 1.344-.093-1.864 3.956-11.097 6.41-16.692v-.001c.915-2.087 1.609-3.667 1.782-4.172 2.496-5.184-5.952-5.632-6.848-3.392l-.071.175h-.001c-.568 1.394-3.539 8.68-8.696 16.082-.16.223-.399.562-.698.986l-.002.003c-2.1 2.975-7.141 10.115-8.261 10.787-1.6.96.64-7.296 6.977-19.84 1.536-3.073-.128-4.545-2.112-4.545s-3.905.576-4.673 2.24c-1.152 2.433-3.712 10.177-5.376 16.065a57.993 57.993 0 01-2.432 4.16 60.347 60.347 0 01-3.072 4.225c-1.024 1.28-5.12 5.632-6.592 5.184-2.816-.96-.128-6.785-.128-6.785.082-.55 1.513-3.252 3.173-6.388 2.203-4.161 4.81-9.086 5.211-10.764.128-.512 0-2.944-3.584-3.648-1.948-.4-4.13 2.047-5.268 3.322-.32.36-.558.626-.684.71-2.678 3.413-4.573 4.335-5.584 1.742-1.587-4.067-8.28-2.56-7.941 1.017.265 2.8 2.089 2.878 3.6 2.943.419.018.814.035 1.145.108 1.791.398-3.58 11.75-5.173 14.67-1.088 1.92-2.24 3.52-3.328 4.737-1.088 1.216-1.984 2.048-2.688 2.432-.32.192-.512.128-.512-.192-.064-.384.256-6.016 3.008-16.385.32-1.28-4.416-2.24-6.144-.448-.349.349-.63 1.427-1.013 2.897-.532 2.04-1.26 4.831-2.635 7.472-.768 1.472-5.505 10.048-7.489 10.624-4.096 1.088 1.536-10.624 2.88-13.376.704-1.473 4.929-8.64 9.6-11.905.229-.16.513-.343.8-.528.519-.335 1.043-.674 1.249-.88.291-.35.211-.806.146-1.175l-.018-.105c-.064-.512-.448-.832-.896-1.088-.448-.256-.96-.384-1.536-.448-.576-.064-1.216 0-1.792.064a7.31 7.31 0 00-1.664.576c-5.697 3.2-10.945 11.264-13.633 16.192-7.872 14.337-4.16 17.473-3.52 17.921 3.495 2.531 7.047-.498 8.412-1.662v-.001l.228-.193c3.456-2.944 6.465-8.896 6.465-8.896-.448 4.48 1.472 6.144 1.984 6.464 3.648 2.048 7.808-2.944 9.28-5.056 3.542-5.082 5.903-10.422 8.338-15.93a326.27 326.27 0 012.163-4.82c.365-.73 1.217-1.385 2.234-1.639.088-.022.184-.044.286-.068 1.068-.25 2.814-.657 4.12-2.644-.261.784-1.013 2.43-1.92 4.413-1.445 3.162-3.283 7.182-4.148 9.935-.897 2.945-.129 5.889.96 7.425.896 1.28 2.752 2.24 5.056 1.856 4.096-.704 8.64-7.105 9.024-7.745.384-.64.832-1.343 1.344-2.048l.704-1.024c.096-.128.224-.32.384-.56.16-.24.352-.528.576-.848-.192.768-.32 1.472-.384 1.984-.192 1.665.448 3.52 1.344 3.969.896.448 1.792.512 2.752.256 1.28-.384 2.688-1.408 4.224-3.072 1.601-1.665 8.321-11.713 8.321-11.713.384-.64.832-1.28 1.28-1.92.448-.64.704-.896.768-.704-1.728 4.352-2.304 8.256-1.984 9.856.128.64.384 1.216.704 1.664.32.448.768.832 1.28 1.088.512.256 1.088.32 1.792.192h.064c.384 0 .704-.064.96-.128.32-.064.832-.32 1.472-.768l.453-.314c.538-.372 1.143-.79 1.787-1.286.832-.64 1.6-1.408 2.432-2.24a12.594 12.594 0 002.112-2.752c.064-.128.128-.256.256-.32.032-.064.08-.112.136-.168.056-.056.12-.12.184-.216l.064-.064-.128.64c-.064.576.064 1.024.32 1.408.256.384.64.768 1.088.96.384.256.832.448 1.28.512.448.128.768.128 1.024.128.649-.036 2.818-4.755 5.046-9.604 1.732-3.767 3.5-7.614 4.619-9.405 1.728-2.752 4.8-6.08 8.128-6.912.32-.064.512.064.64.384.448 1.6-2.56 10.433-8.64 15.809-.734.65-1.954 1.66-3.099 2.608h-.001c-1.45 1.203-2.781 2.305-2.852 2.448-.128.256-.256.512-.256.768 0 .384.128.768.384 1.088.32.384.64.704 1.088 1.024.448.32.896.512 1.344.704.512.192.96.256 1.28.128 6.72-2.624 14.976-10.368 17.792-14.336-1.024 4.48.512 5.888.897 6.144 3.162 2.386 6.546-.288 7.872-1.336a17.9 17.9 0 01.256-.2c3.264-2.688 6.208-8.193 6.208-8.193-.512 4.16 1.216 5.76 1.728 6.08 3.328 1.985 7.36-2.56 8.768-4.543 1.473-1.92 2.817-4.097 4.097-6.4.101-.179.193-.357.283-.531.135-.264.266-.518.421-.75-.178.948-.246 1.841-.306 2.629v.002l-.014.185c0 .32 0 .832.128 1.536.128.705.32 1.344.576 2.048.32.704.768 1.28 1.344 1.729.576.448 1.344.704 2.24.576 1.664-.256 3.584-1.473 4.736-2.689 1.792-1.792 4.864-6.336 7.104-9.792-.512 2.176-.768 4.096-.512 5.44.192.896.576 1.6 1.152 2.24.576.64 1.408.897 2.432.897l.089-.015c.363-.06.777-.128 1.191-.306 1.92-.896 3.201-1.856 4.353-2.88 3.136-2.816 6.656-8.256 8-10.368-.384 2.24-.64 5.184.512 6.72.448.576 1.344 1.216 1.344 1.216 1.664.96 5.184.704 7.296-.704 4.736-3.2 4.16-5.504 3.2-4.672-.96.768-1.856 1.408-2.624 1.856a9.808 9.808 0 01-1.792.832c-2.688.704-1.728-4.032-1.536-4.736.192-.704.768-2.304 1.152-2.688.49-.345.97-.68 1.44-1.008l.003-.002c6.17-4.306 10.639-7.426 12.126-14.799.192-.96-.128-1.728-.512-2.176-.192-.448-.704-.768-1.216-.96zm-1.024 4.864c-.128 3.392-6.017 9.217-9.409 11.009.32-.64 4.224-8 8.897-11.329.32-.256.576-.128.512.32zm-23.681 1.088a4.255 4.255 0 002.304.448c.512-.128.896-.32 1.216-.64.896-.832 3.392-4.352 3.968-5.76.128-.32.192-.576.192-.96 0-.832-1.664-1.536-2.368-1.664-.704-.128-1.28-.128-1.792 0-.96.192-1.984.832-3.072 1.856a6.086 6.086 0 00-.96 1.28c-.256.448-.448 1.024-.512 1.728-.128.896-.128 1.664.064 2.304.256.704.576 1.152.96 1.408zM30.599 91.333c-.32-1.728-1.728-11.584-.576-27.97l-.32.897-16.512 48.834c-2.304 6.656-7.233 16.513-12.16 11.52-2.208-2.207-.301-6.471.487-8.232v-.001c.057-.128.109-.243.152-.343 6.977-16.64 24.065-75.267 24.193-75.843.896-3.712 2.56-3.712 3.84-3.648 5.44.256 5.377 6.144 4.289 11.328-4.097 19.265-1.088 38.658-.896 39.81C34.76 98.309 40.456 72.26 43.4 56.708 48.904 27.778 58.76 5.506 64.265 5.25c9.275-.73 5.653 5.54 2.916 10.28-.625 1.082-1.204 2.083-1.572 2.904-8.047 17.962-12.131 35.077-15.473 49.08-2.958 12.393-5.334 22.35-9.36 28.3-.768 1.215-2.944 4.479-4.992 4.287-3.765-.342-4.632-5.513-5.048-7.993a27.53 27.53 0 00-.137-.775zm13.799 15.376l-.004.001c-3.507.84-11.33 2.715-15.779 5.232-1.408.768-3.456 4.608-3.904 5.696-1.088 2.88 1.792 4.8 6.593 3.584 7.68-1.92 214.152-64.578 207.176-72.322-.365-.417-25.148 7.248-57.382 17.22-46.945 14.52-109.696 33.931-135.842 40.382l-.858.207z" fill="#EBE6F3"/></svg>