<svg width="80" height="80" fill="none" xmlns="http://www.w3.org/2000/svg"><g clip-path="url(#clip0)"><path d="M0 0h72a8 8 0 018 8v72L40.8 40.8 0 0z" fill="#150025"/><path d="M80 80L17.5 39.2 0 0l39.2 39.2L80 80z" fill="#EBE6F3"/><path d="M69 17v6a1 1 0 01-1 1H57a1 1 0 01-1-1V12a1 1 0 011-1h6a1 1 0 100-2h-6a3 3 0 00-3 3v11a3 3 0 003 3h11a3 3 0 003-3v-6a1 1 0 10-2 0z" fill="#fff"/><path d="M62.707 18.707l11-11a1 1 0 00-1.414-1.414l-11 11a1 1 0 001.414 1.414z" fill="#fff"/><path d="M72 8v5a1 1 0 102 0V7a1 1 0 00-1-1h-6a1 1 0 100 2h5z" fill="#fff"/></g><defs><clipPath id="clip0"><path fill="#fff" d="M0 0h80v80H0z"/></clipPath></defs></svg>