<svg width="800" height="600" viewBox="0 0 800 600" fill="none" xmlns="http://www.w3.org/2000/svg">
<rect width="800" height="600" fill="#F5F5F5"/>
<path d="M222.211 342.363L195 357.181V341.858L222.211 325.861L243.207 337.648V221.461L222.211 209.843V193.341L276.633 223.314V223.65V239.815V356.171L305.523 372.336L332.734 356.676V307.339L294.438 286.29V269.788L366.16 309.023V355.161L305.523 389.006L222.211 342.363ZM276.633 189.973L222.211 160V176.502L276.633 206.475V189.973ZM305.691 404.498L222.379 357.855L195.168 373.852V389.343L222.379 374.357L305.691 421L366.328 387.154V369.474L305.691 404.498Z" fill="#202020"/>
<path d="M430.828 349.772C428.477 349.772 426.125 349.772 423.941 349.604C421.59 349.436 419.238 349.099 416.719 348.594V307.17C418.734 306.834 420.75 306.497 423.102 306.328C425.453 306.16 427.637 305.992 429.652 305.992C432.34 305.992 434.859 306.16 437.043 306.497C439.395 306.834 441.242 307.507 442.922 308.517C444.602 309.528 445.777 310.707 446.785 312.222C447.625 313.737 448.129 315.59 448.129 317.947C448.129 321.315 446.449 324.009 443.258 326.03C445.945 327.04 447.793 328.387 448.801 330.239C449.809 331.923 450.312 333.944 450.312 336.133C450.312 340.679 448.633 343.879 445.441 346.236C442.082 348.594 437.211 349.772 430.828 349.772ZM425.957 323.336H430.66C433.684 323.336 435.699 322.999 437.043 322.157C438.387 321.483 438.891 320.136 438.891 318.452C438.891 316.768 438.219 315.59 436.875 314.748C435.531 314.074 433.684 313.737 431.164 313.737C430.324 313.737 429.484 313.737 428.477 313.737C427.469 313.737 426.629 313.737 425.957 313.906V323.336V323.336ZM425.957 330.576V341.521C426.629 341.521 427.469 341.69 428.309 341.69C429.148 341.69 429.988 341.69 430.996 341.69C433.852 341.69 436.203 341.353 437.883 340.511C439.563 339.669 440.57 338.154 440.57 335.965C440.57 333.944 439.898 332.597 438.387 331.755C436.875 330.913 434.859 330.576 432.004 330.576H425.957V330.576Z" fill="#202020"/>
<path d="M488.61 332.934C488.61 335.459 488.274 337.817 487.434 339.837C486.762 342.027 485.586 343.71 484.243 345.226C482.899 346.741 481.219 347.92 479.203 348.762C477.188 349.604 475.004 349.941 472.653 349.941C470.301 349.941 468.118 349.604 466.102 348.762C464.086 347.92 462.575 346.741 461.063 345.226C459.719 343.71 458.543 341.858 457.871 339.837C457.2 337.817 456.696 335.459 456.696 332.934C456.696 330.408 457.032 328.05 457.871 326.03C458.711 324.009 459.719 322.157 461.231 320.641C462.575 319.126 464.254 317.947 466.27 317.274C468.286 316.432 470.301 316.095 472.653 316.095C475.004 316.095 477.188 316.432 479.036 317.274C481.051 318.116 482.563 319.294 484.075 320.641C485.418 322.157 486.594 323.841 487.266 326.03C488.274 328.05 488.61 330.408 488.61 332.934ZM479.371 332.934C479.371 330.071 478.868 327.882 477.692 326.198C476.516 324.514 475.004 323.841 472.821 323.841C470.805 323.841 469.125 324.683 467.95 326.198C466.774 327.882 466.27 330.071 466.27 332.934C466.27 335.796 466.774 337.985 467.95 339.669C469.125 341.353 470.637 342.195 472.821 342.195C474.836 342.195 476.516 341.353 477.692 339.669C478.7 337.985 479.371 335.796 479.371 332.934Z" fill="#202020"/>
<path d="M515.988 324.851C515.148 324.683 514.141 324.514 513.133 324.177C511.957 324.009 510.781 323.841 509.605 323.841C509.102 323.841 508.43 323.841 507.59 324.009C506.75 324.177 506.246 324.177 505.742 324.346V349.099H496.672V318.452C498.352 317.947 500.199 317.274 502.383 316.768C504.566 316.263 507.086 315.927 509.773 315.927C510.277 315.927 510.781 315.927 511.621 316.095C512.293 316.095 512.965 316.263 513.637 316.263C514.309 316.432 514.98 316.432 515.652 316.6C516.324 316.768 516.996 316.937 517.5 317.105L515.988 324.851Z" fill="#202020"/>
<path d="M553.278 332.934C553.278 335.459 552.942 337.817 552.102 339.837C551.262 341.858 550.254 343.71 548.91 345.226C547.567 346.741 545.887 347.92 543.871 348.762C541.856 349.604 539.672 349.941 537.321 349.941C534.969 349.941 532.785 349.604 530.77 348.762C528.754 347.92 527.242 346.741 525.731 345.226C524.219 343.71 523.211 341.858 522.539 339.837C521.867 337.817 521.364 335.459 521.364 332.934C521.364 330.408 521.699 328.05 522.539 326.03C523.379 324.009 524.387 322.157 525.899 320.641C527.242 319.126 528.922 317.947 530.938 317.274C532.953 316.432 534.969 316.095 537.321 316.095C539.672 316.095 541.856 316.432 543.703 317.274C545.719 318.116 547.231 319.294 548.742 320.641C550.086 322.157 551.262 323.841 551.934 326.03C552.942 328.05 553.278 330.408 553.278 332.934ZM543.871 332.934C543.871 330.071 543.367 327.882 542.192 326.198C541.016 324.514 539.504 323.841 537.321 323.841C535.305 323.841 533.625 324.683 532.449 326.198C531.274 327.882 530.77 330.071 530.77 332.934C530.77 335.796 531.274 337.985 532.449 339.669C533.625 341.353 535.137 342.195 537.321 342.195C539.336 342.195 541.016 341.353 542.192 339.669C543.367 337.985 543.871 335.796 543.871 332.934Z" fill="#202020"/>
<path d="M589.726 348.088C588.887 348.257 588.047 348.594 586.871 348.762C585.863 348.93 584.687 349.099 583.512 349.267C582.336 349.436 581.16 349.604 579.984 349.604C578.808 349.772 577.633 349.772 576.457 349.772C573.769 349.772 571.418 349.436 569.402 348.594C567.387 347.752 565.539 346.741 564.195 345.226C562.683 343.71 561.676 342.026 560.836 340.006C560.164 337.985 559.66 335.628 559.66 333.102C559.66 330.408 559.996 328.05 560.668 326.03C561.34 323.841 562.179 322.157 563.523 320.641C564.699 319.126 566.211 318.116 568.058 317.274C569.906 316.432 571.922 316.095 574.105 316.095C575.449 316.095 576.457 316.263 577.465 316.432C578.472 316.6 579.48 317.105 580.488 317.442V302.792L589.726 301.445V348.088ZM569.066 332.765C569.066 335.628 569.738 337.817 570.914 339.669C572.258 341.353 574.105 342.195 576.625 342.195C577.465 342.195 578.137 342.195 578.976 342.026C579.648 342.026 580.32 341.858 580.656 341.858V325.188C580.152 324.851 579.312 324.514 578.472 324.346C577.633 324.177 576.625 324.009 575.617 324.009C571.25 323.841 569.066 326.872 569.066 332.765Z" fill="#202020"/>
<path d="M610.891 315.927C613.578 315.927 615.762 316.263 617.609 316.768C619.457 317.442 620.801 318.284 621.977 319.463C622.984 320.641 623.824 321.988 624.328 323.672C624.832 325.356 625 327.208 625 329.061V348.088C623.656 348.425 621.809 348.762 619.625 349.099C617.273 349.436 614.418 349.604 611.227 349.604C609.211 349.604 607.195 349.436 605.516 349.099C603.836 348.762 602.324 348.088 601.148 347.246C599.973 346.405 598.965 345.226 598.293 343.879C597.621 342.532 597.285 340.848 597.285 338.827C597.285 336.975 597.621 335.291 598.461 334.112C599.133 332.765 600.309 331.755 601.484 330.913C602.828 330.071 604.172 329.566 605.852 329.229C607.531 328.892 609.211 328.724 610.891 328.724C612.066 328.724 613.074 328.724 614.082 328.892C614.922 329.061 615.762 329.061 616.266 329.229V328.387C616.266 326.872 615.762 325.525 614.922 324.683C613.914 323.672 612.402 323.336 610.051 323.336C608.539 323.336 607.027 323.504 605.516 323.672C604.004 323.841 602.66 324.177 601.652 324.683L600.477 317.274C600.98 317.105 601.652 316.937 602.492 316.768C603.332 316.6 604.172 316.432 605.18 316.263C606.187 316.095 607.027 315.927 608.203 315.927C608.875 315.927 609.883 315.927 610.891 315.927ZM611.73 342.7C612.57 342.7 613.41 342.7 614.25 342.7C615.09 342.7 615.762 342.532 616.266 342.532V335.628C615.93 335.628 615.426 335.459 614.586 335.459C613.914 335.459 613.242 335.291 612.57 335.291C611.73 335.291 610.891 335.291 610.219 335.459C609.379 335.628 608.875 335.796 608.203 335.965C607.699 336.301 607.195 336.638 606.859 337.143C606.523 337.648 606.355 338.322 606.355 338.996C606.355 340.511 606.859 341.353 607.867 342.026C608.707 342.532 610.051 342.7 611.73 342.7Z" fill="#202020"/>
<path d="M436.035 377.556C436.035 379.577 435.699 381.429 435.027 382.945C434.355 384.46 433.515 385.639 432.34 386.649C431.164 387.659 429.82 388.333 428.14 388.838C426.461 389.343 424.781 389.512 422.765 389.512C421.758 389.512 420.75 389.512 419.574 389.343C418.398 389.343 417.39 389.175 416.383 388.838V365.938C417.39 365.769 418.398 365.601 419.574 365.432C420.75 365.432 421.758 365.264 422.765 365.264C424.613 365.264 426.461 365.432 428.14 365.938C429.82 366.443 431.164 367.116 432.34 368.127C433.515 369.137 434.355 370.316 435.027 371.831C435.699 373.683 436.035 375.536 436.035 377.556ZM423.269 386.649C426.461 386.649 428.812 385.807 430.324 384.292C431.836 382.608 432.675 380.419 432.675 377.556C432.675 374.694 431.836 372.505 430.324 370.821C428.812 369.137 426.461 368.463 423.269 368.463C422.261 368.463 421.59 368.463 421.086 368.463C420.582 368.463 420.246 368.463 420.078 368.463V386.481C420.246 386.481 420.582 386.481 421.086 386.481C421.59 386.649 422.261 386.649 423.269 386.649Z" fill="#202020"/>
<path d="M444.769 368.463C444.265 368.463 443.761 368.295 443.257 367.958C442.922 367.621 442.586 367.116 442.586 366.443C442.586 365.769 442.754 365.264 443.257 364.927C443.593 364.59 444.097 364.422 444.769 364.422C445.273 364.422 445.777 364.59 446.281 364.927C446.617 365.264 446.953 365.769 446.953 366.443C446.953 367.116 446.785 367.621 446.281 367.958C445.777 368.295 445.273 368.463 444.769 368.463ZM446.281 389.343H443.089V371.663H446.281V389.343Z" fill="#202020"/>
<path d="M465.094 387.491C464.758 387.659 464.254 387.828 463.582 388.165C462.742 388.501 461.902 388.67 460.895 388.67C459.887 388.67 458.879 388.501 457.871 388.165C456.863 387.828 456.192 387.323 455.352 386.649C454.68 385.976 454.176 384.965 453.672 383.955C453.336 382.945 453 381.597 453 380.082C453 378.735 453.168 377.556 453.504 376.546C453.84 375.536 454.512 374.525 455.184 373.683C455.856 372.841 456.863 372.336 457.871 371.831C458.879 371.326 460.055 371.157 461.399 371.157C462.91 371.157 464.086 371.326 465.262 371.494C466.438 371.663 467.277 371.831 467.949 372.168V387.996C467.949 390.69 467.277 392.711 465.766 393.89C464.422 395.068 462.238 395.742 459.383 395.742C458.207 395.742 457.199 395.574 456.192 395.405C455.184 395.237 454.344 395.068 453.672 394.732L454.176 392.038C454.848 392.206 455.52 392.543 456.527 392.711C457.367 392.879 458.375 393.048 459.383 393.048C461.231 393.048 462.574 392.711 463.414 391.869C464.254 391.196 464.59 389.848 464.59 388.333V387.491H465.094ZM465.094 374.357C464.758 374.188 464.422 374.188 463.75 374.02C463.078 373.852 462.574 373.852 461.566 373.852C459.887 373.852 458.543 374.357 457.703 375.536C456.863 376.714 456.359 378.061 456.359 379.914C456.359 380.924 456.527 381.766 456.695 382.608C457.031 383.281 457.367 383.955 457.703 384.46C458.207 384.965 458.711 385.302 459.215 385.47C459.719 385.639 460.391 385.807 461.063 385.807C461.902 385.807 462.742 385.639 463.414 385.47C464.086 385.302 464.59 384.965 465.094 384.628V374.357V374.357Z" fill="#202020"/>
<path d="M477.523 368.463C477.019 368.463 476.515 368.295 476.011 367.958C475.675 367.621 475.339 367.116 475.339 366.443C475.339 365.769 475.507 365.264 476.011 364.927C476.347 364.59 476.851 364.422 477.523 364.422C478.027 364.422 478.531 364.59 479.035 364.927C479.371 365.264 479.707 365.769 479.707 366.443C479.707 367.116 479.539 367.621 479.035 367.958C478.699 368.295 478.195 368.463 477.523 368.463ZM479.203 389.343H476.011V371.663H479.203V389.343Z" fill="#202020"/>
<path d="M489.953 371.663H496.672V374.357H489.953V382.608C489.953 383.45 489.953 384.292 490.121 384.797C490.289 385.302 490.457 385.807 490.793 386.144C491.129 386.481 491.465 386.649 491.801 386.817C492.137 386.986 492.641 386.986 493.145 386.986C494.152 386.986 494.824 386.817 495.496 386.649C496 386.481 496.504 386.312 496.672 386.144L497.344 388.838C497.008 389.006 496.504 389.175 495.664 389.512C494.824 389.68 493.984 389.848 492.977 389.848C491.801 389.848 490.793 389.68 489.953 389.343C489.113 389.006 488.609 388.501 488.105 387.996C487.602 387.323 487.266 386.649 487.098 385.807C486.93 384.965 486.762 383.955 486.762 382.608V366.779L489.953 366.274V371.663V371.663Z" fill="#202020"/>
<path d="M509.101 371.157C510.445 371.157 511.453 371.326 512.293 371.663C513.132 371.999 513.804 372.505 514.476 373.01C514.98 373.683 515.316 374.357 515.652 375.199C515.82 376.041 515.988 376.883 515.988 377.893V389.006C515.652 389.006 515.316 389.175 514.812 389.175C514.308 389.175 513.804 389.343 513.132 389.343C512.461 389.343 511.789 389.512 511.117 389.512C510.445 389.512 509.773 389.68 508.933 389.68C507.925 389.68 507.086 389.512 506.246 389.343C505.406 389.175 504.734 388.838 504.062 388.333C503.39 387.828 503.054 387.323 502.55 386.649C502.214 385.976 502.047 384.965 502.047 383.955C502.047 382.945 502.214 382.103 502.718 381.429C503.054 380.756 503.726 380.082 504.398 379.745C505.07 379.24 505.91 379.072 506.75 378.735C507.59 378.566 508.597 378.398 509.605 378.398C509.941 378.398 510.277 378.398 510.613 378.398C510.949 378.398 511.285 378.398 511.621 378.566C511.957 378.566 512.125 378.735 512.461 378.735C512.629 378.735 512.797 378.735 512.965 378.903V378.061C512.965 377.556 512.965 377.051 512.797 376.546C512.629 376.041 512.461 375.536 512.125 375.199C511.789 374.862 511.453 374.525 510.949 374.188C510.445 374.02 509.773 373.852 508.933 373.852C507.925 373.852 506.918 373.852 506.246 374.02C505.406 374.188 504.902 374.357 504.566 374.525L504.23 371.831C504.566 371.663 505.238 371.494 506.246 371.326C506.918 371.326 507.925 371.157 509.101 371.157ZM509.437 386.986C510.109 386.986 510.781 386.986 511.453 386.986C511.957 386.986 512.461 386.817 512.965 386.817V381.597C512.797 381.429 512.293 381.429 511.789 381.261C511.285 381.261 510.613 381.092 509.941 381.092C509.437 381.092 508.933 381.092 508.429 381.261C507.925 381.261 507.422 381.429 506.918 381.766C506.414 381.934 506.078 382.271 505.742 382.608C505.406 382.945 505.238 383.45 505.238 384.123C505.238 385.302 505.574 385.976 506.246 386.481C507.086 386.817 508.093 386.986 509.437 386.986Z" fill="#202020"/>
<path d="M528.753 389.68C526.738 389.68 525.394 389.175 524.554 388.501C523.714 387.659 523.378 386.481 523.378 384.797V363.58L526.57 363.075V384.292C526.57 384.797 526.57 385.302 526.738 385.639C526.906 385.976 526.906 386.312 527.242 386.481C527.409 386.649 527.745 386.818 528.081 386.986C528.417 387.154 528.921 387.154 529.257 387.323L528.753 389.68Z" fill="#202020"/>
</svg>
