<svg width="800" height="600" viewBox="0 0 800 600" fill="none" xmlns="http://www.w3.org/2000/svg">
<rect width="800" height="600" fill="white"/>
<path d="M282.572 362.322H281.273V344.208H274.51V362.322H273.211V342.963H282.572V362.322V362.322Z" fill="#603812"/>
<path d="M290.133 348.826C288.401 348.826 287.451 350.551 287.284 354.003H292.813C292.813 352.424 292.574 351.167 292.092 350.23C291.608 349.294 290.955 348.826 290.133 348.826V348.826ZM290.706 362.597C289.184 362.597 288.014 361.952 287.197 360.658C286.38 359.363 285.969 357.561 285.969 355.248C285.969 352.795 286.335 350.921 287.064 349.628C287.794 348.334 288.845 347.687 290.212 347.687C291.407 347.687 292.351 348.254 293.041 349.389C293.731 350.524 294.074 352.053 294.074 353.977V355.142H287.259C287.273 357.234 287.571 358.8 288.144 359.843C288.72 360.885 289.592 361.405 290.759 361.405C291.661 361.405 292.61 361.111 293.608 360.518V361.736C292.69 362.31 291.722 362.597 290.706 362.597V362.597Z" fill="#603812"/>
<path d="M298.231 347.969V353.901C298.231 354.714 298.406 355.305 298.751 355.676C299.096 356.046 299.555 356.232 300.13 356.232C300.801 356.232 301.437 356.057 302.04 355.709C302.639 355.36 303.164 354.921 303.615 354.392V347.969H304.862V362.337H303.615V355.743C303.164 356.262 302.621 356.669 301.979 356.96C301.336 357.252 300.66 357.397 299.944 357.397C297.971 357.397 296.984 356.136 296.984 353.61V347.969H298.231Z" fill="#603812"/>
<path d="M313.406 343.941C313.406 343.562 313.49 343.289 313.663 343.121C313.835 342.953 314.024 342.869 314.228 342.869C314.448 342.869 314.642 342.953 314.812 343.121C314.979 343.289 315.06 343.562 315.06 343.941C315.06 344.331 314.979 344.614 314.812 344.789C314.642 344.965 314.448 345.055 314.228 345.055C314.024 345.055 313.835 344.965 313.663 344.789C313.49 344.614 313.406 344.331 313.406 343.941ZM312.213 348.828C310.477 348.828 309.528 350.553 309.358 354.005H314.891C314.891 352.425 314.65 351.169 314.167 350.232C313.685 349.296 313.034 348.828 312.213 348.828V348.828ZM309.358 343.941C309.358 343.562 309.447 343.289 309.619 343.121C309.791 342.953 309.987 342.869 310.207 342.869C310.412 342.869 310.597 342.953 310.764 343.121C310.933 343.289 311.019 343.562 311.019 343.941C311.019 344.331 310.933 344.614 310.764 344.789C310.597 344.965 310.412 345.055 310.207 345.055C309.987 345.055 309.791 344.965 309.619 344.789C309.447 344.614 309.358 344.331 309.358 343.941ZM312.78 362.599C311.261 362.599 310.09 361.954 309.274 360.66C308.457 359.365 308.048 357.563 308.048 355.25C308.048 352.797 308.412 350.923 309.141 349.63C309.87 348.336 310.921 347.689 312.291 347.689C313.485 347.689 314.425 348.256 315.115 349.391C315.803 350.526 316.148 352.055 316.148 353.979V355.144H309.332C309.35 357.236 309.648 358.802 310.223 359.845C310.796 360.886 311.665 361.407 312.833 361.407C313.735 361.407 314.687 361.113 315.686 360.52V361.738C314.767 362.312 313.799 362.599 312.78 362.599V362.599Z" fill="#603812"/>
<path d="M323.643 362.337L320.513 349.916H320.407C320.502 351.956 320.549 353.187 320.549 353.61V362.337H319.346V347.969H321.175L323.563 357.344C323.908 358.765 324.157 359.962 324.316 360.933H324.422C324.433 360.8 324.515 360.396 324.669 359.721C324.823 359.046 325.82 355.128 327.658 347.969H329.478V362.337H328.231V353.69C328.231 353.028 328.273 351.77 328.363 349.916H328.257L325.112 362.337H323.643V362.337Z" fill="#603812"/>
<path d="M337.065 362.597C335.623 362.597 334.538 361.972 333.809 360.723C333.08 359.476 332.716 357.641 332.716 355.222C332.716 352.768 333.084 350.898 333.823 349.614C334.559 348.33 335.649 347.687 337.093 347.687C337.983 347.687 338.726 347.85 339.32 348.177L338.827 349.29C338.236 349.016 337.691 348.879 337.198 348.879C335.084 348.879 334.026 350.985 334.026 355.195C334.026 359.37 335.084 361.458 337.198 361.458C337.824 361.458 338.506 361.317 339.241 361.035V362.094C338.949 362.253 338.588 362.376 338.164 362.466C337.739 362.554 337.374 362.597 337.065 362.597V362.597Z" fill="#603812"/>
<path d="M347.221 354.855V349.108H345.534C343.397 349.108 342.326 350.065 342.326 351.981C342.326 353.897 343.386 354.855 345.507 354.855H347.221ZM347.221 355.994H345.562L341.953 362.337H340.484L344.315 355.915C343.238 355.72 342.421 355.29 341.864 354.623C341.307 353.957 341.026 353.077 341.026 351.981C341.026 350.693 341.424 349.702 342.22 349.009C343.015 348.316 344.121 347.969 345.534 347.969H348.468V362.337H347.221V355.994V355.994Z" fill="#603812"/>
<path d="M358.087 355.116C358.087 357.191 358.334 358.757 358.83 359.816C359.324 360.876 360.098 361.405 361.148 361.405C363.209 361.405 364.241 359.309 364.241 355.116C364.241 350.958 363.209 348.879 361.148 348.879C360.071 348.879 359.291 349.4 358.809 350.441C358.326 351.484 358.087 353.04 358.087 355.116V355.116ZM365.552 355.116C365.552 357.535 365.169 359.386 364.406 360.67C363.641 361.956 362.546 362.597 361.122 362.597C359.717 362.597 358.642 361.956 357.894 360.67C357.146 359.386 356.772 357.535 356.772 355.116C356.772 350.163 358.242 347.687 361.175 347.687C362.555 347.687 363.631 348.337 364.4 349.634C365.169 350.932 365.552 352.758 365.552 355.116Z" fill="#603812"/>
<path d="M375.777 354.882L372.62 347.969H373.989L376.403 353.796L378.922 347.969H380.232L377.024 355.04L380.391 362.337H379.066L376.376 356.126L373.655 362.337H372.355L375.777 354.882V354.882Z" fill="#603812"/>
<path d="M384.884 349.161C384.789 351.607 384.65 353.693 384.475 355.417C384.297 357.143 384.085 358.516 383.838 359.535C383.59 360.555 383.279 361.299 382.902 361.767C382.526 362.235 382.003 362.469 381.33 362.469C381.117 362.469 380.921 362.433 380.735 362.362V361.198C380.841 361.251 380.996 361.278 381.197 361.278C381.72 361.278 382.138 360.837 382.452 359.953C382.764 359.07 383.025 357.684 383.228 355.796C383.431 353.905 383.595 351.297 383.716 347.969H389.233V362.337H387.987V349.161H384.884V349.161Z" fill="#603812"/>
<path d="M396.575 348.826C394.841 348.826 393.891 350.551 393.721 354.003H399.255C399.255 352.424 399.013 351.167 398.53 350.23C398.047 349.294 397.397 348.826 396.575 348.826V348.826ZM397.143 362.597C395.624 362.597 394.453 361.952 393.637 360.658C392.819 359.363 392.411 357.561 392.411 355.248C392.411 352.795 392.775 350.921 393.504 349.628C394.233 348.334 395.284 347.687 396.654 347.687C397.848 347.687 398.788 348.254 399.477 349.389C400.166 350.524 400.511 352.053 400.511 353.977V355.142H393.695C393.713 357.234 394.01 358.8 394.586 359.843C395.159 360.885 396.03 361.405 397.196 361.405C398.098 361.405 399.05 361.111 400.049 360.518V361.736C399.13 362.31 398.162 362.597 397.143 362.597V362.597Z" fill="#603812"/>
<path d="M404.507 353.184C404.541 356.008 404.791 358.092 405.254 359.433C405.719 360.774 406.438 361.446 407.408 361.446C409.602 361.446 410.697 359.557 410.697 355.779C410.697 352.061 409.647 350.204 407.541 350.204C406.896 350.204 406.292 350.486 405.727 351.051C405.159 351.616 404.753 352.327 404.507 353.184V353.184ZM403.191 352.906C403.191 350.204 403.433 348.083 403.915 346.543C404.399 345.002 405.209 343.855 406.355 343.1C407.502 342.346 409.271 341.852 411.668 341.623L411.865 342.762C409.901 342.911 408.432 343.256 407.451 343.795C406.469 344.334 405.751 345.164 405.295 346.285C404.839 347.406 404.575 349.035 404.507 351.17H404.613C404.939 350.482 405.382 349.949 405.944 349.569C406.506 349.188 407.115 349 407.769 349C409.096 349 410.129 349.584 410.877 350.754C411.626 351.923 411.996 353.597 411.996 355.779C411.996 357.96 411.604 359.638 410.819 360.816C410.031 361.996 408.885 362.585 407.382 362.585C405.933 362.585 404.873 361.793 404.199 360.208C403.528 358.623 403.191 356.189 403.191 352.906V352.906Z" fill="#603812"/>
<path d="M418.7 348.826C416.969 348.826 416.019 350.551 415.852 354.003H421.379C421.379 352.424 421.14 351.167 420.658 350.23C420.175 349.294 419.523 348.826 418.7 348.826V348.826ZM419.273 362.597C417.751 362.597 416.582 361.952 415.764 360.658C414.948 359.363 414.537 357.561 414.537 355.248C414.537 352.795 414.902 350.921 415.631 349.628C416.362 348.334 417.411 347.687 418.78 347.687C419.974 347.687 420.918 348.254 421.607 349.389C422.297 350.524 422.642 352.053 422.642 353.977V355.142H415.825C415.842 357.234 416.138 358.8 416.711 359.843C417.286 360.885 418.16 361.405 419.326 361.405C420.228 361.405 421.177 361.111 422.175 360.518V361.736C421.257 362.31 420.289 362.597 419.273 362.597V362.597Z" fill="#603812"/>
<path d="M434.88 362.375C433.439 362.375 432.354 361.75 431.625 360.501C430.896 359.254 430.53 357.419 430.53 355C430.53 352.546 430.901 350.676 431.638 349.392C432.376 348.108 433.466 347.465 434.906 347.465C435.799 347.465 436.542 347.628 437.134 347.955L436.645 349.068C436.052 348.794 435.509 348.657 435.012 348.657C432.901 348.657 431.845 350.763 431.845 354.973C431.845 359.148 432.901 361.236 435.012 361.236C435.64 361.236 436.322 361.095 437.054 360.813V361.872C436.762 362.03 436.408 362.154 435.982 362.243C435.559 362.331 435.189 362.375 434.88 362.375V362.375Z" fill="#603812"/>
<path d="M449.595 362.1H448.322V347.865C448.322 346.708 448.359 345.46 448.428 344.117C448.242 344.365 447.81 344.829 447.129 345.508L445.473 347.018L444.794 346.184L448.534 342.741H449.595V362.1V362.1Z" fill="#603812"/>
<path d="M458.922 343.702C458.058 343.702 457.371 344.11 456.862 344.928C456.352 345.744 456.1 346.974 456.1 348.616C456.1 350.188 456.328 351.389 456.79 352.224C457.249 353.058 457.933 353.476 458.843 353.476C459.728 353.476 460.437 353.101 460.972 352.356C461.508 351.611 461.776 350.615 461.776 349.37C461.776 348.268 461.656 347.274 461.423 346.391C461.189 345.507 460.858 344.838 460.434 344.384C460.009 343.93 459.506 343.702 458.922 343.702V343.702ZM463.112 350.734C463.112 354.592 462.63 357.493 461.662 359.44C460.694 361.388 459.277 362.36 457.41 362.36C457.084 362.36 456.737 362.33 456.371 362.268C456.005 362.205 455.751 362.139 455.607 362.068V360.798C456.094 361.009 456.731 361.115 457.516 361.115C458.801 361.115 459.814 360.373 460.557 358.891C461.298 357.408 461.712 355.293 461.803 352.548H461.696C461.394 353.219 460.983 353.744 460.46 354.124C459.94 354.504 459.338 354.693 458.657 354.693C457.448 354.693 456.498 354.151 455.809 353.065C455.119 351.979 454.774 350.513 454.774 348.669C454.774 346.745 455.145 345.228 455.893 344.12C456.642 343.012 457.676 342.459 459.002 342.459C460.354 342.459 461.378 343.171 462.073 344.597C462.769 346.022 463.112 348.068 463.112 350.734V350.734Z" fill="#603812"/>
<path d="M469.756 343.702C468.889 343.702 468.202 344.11 467.692 344.928C467.183 345.744 466.929 346.974 466.929 348.616C466.929 350.188 467.159 351.389 467.618 352.224C468.079 353.058 468.764 353.476 469.676 353.476C470.559 353.476 471.268 353.101 471.803 352.356C472.339 351.611 472.604 350.615 472.604 349.37C472.604 348.268 472.487 347.274 472.254 346.391C472.022 345.507 471.692 344.838 471.268 344.384C470.843 343.93 470.339 343.702 469.756 343.702V343.702ZM473.947 350.734C473.947 354.592 473.461 357.493 472.493 359.44C471.525 361.388 470.108 362.36 468.244 362.36C467.915 362.36 467.567 362.33 467.202 362.268C466.836 362.205 466.582 362.139 466.44 362.068V360.798C466.927 361.009 467.562 361.115 468.35 361.115C469.632 361.115 470.642 360.373 471.385 358.891C472.127 357.408 472.543 355.293 472.631 352.548H472.525C472.225 353.219 471.814 353.744 471.294 354.124C470.772 354.504 470.169 354.693 469.49 354.693C468.279 354.693 467.327 354.151 466.637 353.065C465.947 351.979 465.603 350.513 465.603 348.669C465.603 346.745 465.976 345.228 466.724 344.12C467.472 343.012 468.51 342.459 469.835 342.459C471.188 342.459 472.209 343.171 472.904 344.597C473.599 346.022 473.947 348.068 473.947 350.734V350.734Z" fill="#603812"/>
<path d="M480.205 351.666C479.303 351.666 478.391 351.797 477.462 352.063L476.81 351.228L477.383 342.741H483.945V343.986H478.455L477.977 350.791C478.772 350.615 479.541 350.527 480.284 350.527C481.735 350.527 482.883 351.007 483.732 351.969C484.58 352.932 485.005 354.257 485.005 355.942C485.005 357.892 484.544 359.451 483.615 360.616C482.687 361.782 481.449 362.364 479.902 362.364C478.523 362.364 477.444 362.121 476.666 361.636V360.18C477.637 360.859 478.698 361.199 479.849 361.199C481.024 361.199 481.955 360.718 482.645 359.755C483.334 358.792 483.679 357.541 483.679 355.995C483.679 354.548 483.372 353.464 482.751 352.744C482.133 352.025 481.285 351.666 480.205 351.666V351.666Z" fill="#603812"/>
<path d="M498.986 347.747V348.939H494.547V362.115H493.284V347.747H498.986Z" fill="#603812"/>
<path d="M501.751 354.894C501.751 356.969 502 358.535 502.493 359.594C502.989 360.654 503.764 361.183 504.817 361.183C506.876 361.183 507.903 359.087 507.903 354.894C507.903 350.736 506.876 348.657 504.817 348.657C503.737 348.657 502.958 349.178 502.474 350.219C501.992 351.262 501.751 352.818 501.751 354.894V354.894ZM509.219 354.894C509.219 357.313 508.835 359.164 508.071 360.448C507.307 361.734 506.211 362.375 504.79 362.375C503.384 362.375 502.307 361.734 501.559 360.448C500.812 359.164 500.44 357.313 500.44 354.894C500.44 349.941 501.907 347.465 504.843 347.465C506.222 347.465 507.294 348.115 508.064 349.412C508.832 350.71 509.219 352.536 509.219 354.894Z" fill="#603812"/>
<path d="M517.621 360.923V348.886H515.144C515.117 351.006 514.891 353.222 514.472 355.54C514.054 357.857 513.542 359.652 512.941 360.923H517.621V360.923ZM520.326 367H519.079V362.115H511.855V367H510.608V360.923H511.722C512.465 359.202 513.024 357.212 513.403 354.951C513.786 352.691 513.976 350.29 513.976 347.747H518.867V360.923H520.326V367V367Z" fill="#603812"/>
<path d="M525.349 361.302C526.25 361.302 526.951 360.859 527.449 359.972C527.948 359.085 528.198 357.83 528.198 356.204V354.708L526.701 354.788C525.543 354.849 524.683 355.169 524.121 355.747C523.559 356.326 523.281 357.171 523.281 358.284C523.281 359.325 523.465 360.089 523.837 360.574C524.208 361.06 524.712 361.302 525.349 361.302V361.302ZM528.41 362.11L528.251 360.098H528.198C527.508 361.617 526.465 362.375 525.068 362.375C524.132 362.375 523.378 362.002 522.808 361.256C522.238 360.51 521.954 359.511 521.954 358.257C521.954 356.889 522.363 355.805 523.184 355.007C524.007 354.208 525.163 353.771 526.648 353.702L528.198 353.622V352.43C528.198 351.089 528.031 350.11 527.694 349.498C527.36 348.885 526.802 348.577 526.022 348.577C525.201 348.577 524.363 348.847 523.503 349.385L522.961 348.392C523.96 347.774 525.007 347.465 526.102 347.465C527.288 347.465 528.142 347.839 528.665 348.584C529.184 349.329 529.444 350.577 529.444 352.325V362.11H528.41V362.11Z" fill="#603812"/>
<path d="M140.733 318.254C140.632 318.254 140.528 318.251 140.422 318.247C138.574 318.114 137.582 317.297 137.057 316.634C136.34 315.726 136.051 314.536 136.248 313.282C136.551 311.416 137.158 309.198 138.11 306.482C138.354 305.792 138.669 304.225 139.112 301.778C139.796 298.354 140.38 295.66 140.876 293.633C141.433 291.377 141.947 288.871 142.423 286.103C142.96 282.73 143.26 280.918 143.305 280.699C145.011 272.823 145.211 271.32 145.231 271.046C145.147 271.046 143.99 266.406 141.813 257.764C141.243 255.541 139.948 251.097 137.935 244.433C136.217 238.783 136.237 238.15 136.554 237.145C137.219 234.861 139.473 232.913 143.001 233.859C145.225 234.486 146.539 235.637 150.196 253.48C150.467 254.844 150.718 256.068 150.952 257.165C151.135 256.377 151.328 255.522 151.539 254.597C153.565 245.1 154.675 239.842 154.864 238.849C154.886 238.658 154.925 238.467 154.984 238.28C156.309 234.003 159.195 233.541 160.376 233.541C162.423 233.541 164.083 234.848 164.818 237.038C165.561 239.013 165.136 240.608 164.64 241.58C164.019 242.795 162.812 246.173 160.582 255.375C157.291 269.204 156.798 271.645 156.739 272.052C156.84 273.848 158.343 282.048 165.018 308.402C165.528 310.472 165.775 312.132 165.775 313.493C165.775 316.262 163.908 318.196 161.237 318.196C157.302 318.196 155.904 315.835 155.904 313.813C155.904 313.713 155.908 313.613 155.917 313.514C155.196 310.762 154.339 305.888 152.835 297.317C152.167 293.541 151.592 290.438 151.1 287.889C150.629 290.074 150.081 292.566 149.458 295.415C148.764 298.624 148.159 301.926 147.637 305.316C147.31 307.584 147.078 309.206 146.788 310.347L146.873 310.365C145.937 314.662 145.403 315.851 144.688 316.646C143.976 317.408 142.754 318.254 140.733 318.254V318.254Z" fill="#603812"/>
<path d="M200.821 318.289C200.605 318.289 200.415 318.271 200.25 318.249C197.866 318.076 196.012 316.255 195.749 313.631C195.677 312.644 195.67 310.526 195.733 307.182C196.102 287.868 196.227 276.459 196.107 273.27C195.728 263.75 195.515 258.687 195.47 258.089C195.37 257.052 195.317 255.406 195.317 253.171C195.346 250.538 195.346 248.862 195.32 248.11C195.264 245.735 195.12 244.384 195.001 243.645C194.319 243.603 193.097 243.649 191.018 243.982C189.676 244.207 188.731 244.817 187.985 245.954C187.588 246.563 187.355 247.463 187.294 248.634C187.264 249.127 187.251 249.81 187.251 250.735C187.251 251.912 187.209 252.796 187.134 253.383C187.05 254.461 186.97 257.379 187.161 264.359L187.206 270.625C187.359 277.278 187.408 282.13 187.347 285.128C187.347 286.089 187.315 288.615 187.251 292.633L187.161 301.886C187.124 305.418 186.193 308.648 184.398 311.48C183.112 313.424 181.824 314.763 180.427 315.638C177.539 317.474 175.708 318.229 174.133 318.229C171.748 318.229 170.115 317.43 169.28 315.856C168.921 315.182 168.248 313.379 169.733 311.189C170.335 310.331 171.253 309.597 172.833 308.695C174.391 307.847 175.027 307.372 175.271 307.162C176.454 306.213 177.908 304.602 177.82 300.812C177.789 298.359 177.833 293.994 177.958 287.689L177.865 254.431C177.725 247.653 178.523 243.169 180.371 240.323C182.662 236.853 186.103 234.823 190.606 234.271C192.877 233.998 199.767 233.175 202.855 237.723C203.724 239.018 204.517 241.151 204.517 248.034C204.517 248.79 204.626 251.166 204.839 255.161C205.056 259.613 205.196 262.718 205.257 264.493C205.416 272.229 205.493 279.632 205.493 286.752C205.493 291.179 205.462 295.924 205.401 300.988L205.307 308.096C205.307 308.488 205.337 309.24 205.396 310.35C205.462 311.684 205.493 312.569 205.493 313.022C205.493 314.489 204.984 315.795 204.016 316.798C202.942 318.017 201.698 318.289 200.821 318.289V318.289Z" fill="#603812"/>
<path d="M229.652 318.732C227.927 318.732 225.829 318.678 223.257 318.568C218.101 318.746 217.043 318.693 215.767 317.679C215.411 317.394 215.107 317.048 214.87 316.656C214.25 315.623 214.167 315.228 214.108 308.405C214.077 307.658 214.088 304.903 214.161 300.26C214.233 295.176 214.269 291.784 214.269 290.099C214.161 265.565 213.863 250.034 213.377 243.954C213.07 239.711 213.687 236.9 215.318 235.083C216.393 233.886 217.884 233.195 219.514 233.134C225.105 232.887 227.105 233.033 228.113 233.163L229.362 233.131C230.571 233.131 231.5 233.185 232.15 233.269C232.999 233.328 235.822 233.543 237.215 235.848C237.859 236.913 237.95 238.9 237.454 240.041C236.255 243.146 232.315 243.271 226.435 243.093C225.36 243.062 224.538 243.069 223.925 243.097L224.246 256.323C224.442 261.067 224.596 264.039 224.713 265.898C225.644 265.9 226.733 265.908 228.013 265.917C229.605 266.012 231.561 266.717 233.046 269.584C234.252 272.073 233.715 273.757 233.056 274.747C232.306 275.877 230.384 276.727 229.07 276.671C227.115 276.576 225.75 276.529 224.927 276.551C224.44 294.226 224.193 303.759 224.193 305.247C224.206 306.754 224.267 307.801 224.337 308.517C225.161 308.536 226.41 308.532 228.238 308.454C233.122 308.096 235.971 308.635 237.73 310.262C238.782 311.239 239.364 312.561 239.364 313.986C239.364 314.926 238.947 316.057 238.323 316.759C237.187 318.043 235.796 318.732 229.652 318.732V318.732Z" fill="#603812"/>
<path d="M257.138 278.502C257.132 278.788 257.124 279.093 257.12 279.412C257.048 282.858 256.873 288.11 256.586 295.169C256.345 301.29 256.218 304.663 256.218 305.29C256.218 305.599 256.233 306.69 256.266 308.57C257.602 308.21 258.573 307.611 259.252 306.739C261.631 303.612 262.814 300.343 262.842 296.785C262.904 288.031 261.233 282.073 257.87 279.079C257.629 278.865 257.388 278.674 257.138 278.502V278.502ZM251.361 318.614C249.354 318.499 247.847 317.65 246.888 316.22C246.148 315.247 246.098 314.553 245.921 308.58C245.921 307.969 245.975 305.379 246.08 300.7C246.187 295.732 246.24 292.298 246.24 290.407C246.065 255.54 245.861 246.155 245.72 244.424C245.412 240.212 246.027 237.418 247.654 235.606C248.731 234.406 250.222 233.713 251.858 233.652C255.993 233.463 258.709 233.473 260.379 233.68L261.331 233.653C262.402 233.61 263.231 233.619 263.83 233.658C269.395 234.123 269.965 237.771 270.007 238.88C270.01 243.799 264.344 243.841 259.347 243.879C258.077 243.879 257.151 243.925 256.486 243.982L256.536 256.812C256.491 262.252 256.542 265.397 256.614 267.207C256.859 267.25 257.115 267.294 257.379 267.34C261.13 268.068 264.54 270.484 267.593 274.537C267.595 274.542 267.601 274.549 267.606 274.553C272.049 280.521 273.959 288.019 273.288 296.842C272.768 303.581 270.962 308.795 267.92 312.343C265.519 315.134 263.22 316.911 260.883 317.787C259.756 318.213 257.811 318.614 251.361 318.614V318.614Z" fill="#603812"/>
<path d="M305.491 318.288C302.964 318.288 300.415 316.531 300.415 312.606C300.788 288.742 300.749 279.275 300.632 275.631C300.162 275.624 299.561 275.625 298.8 275.65C295.606 275.651 293.689 275.77 292.562 275.894C292.596 277.109 292.671 278.82 292.779 281.029C293.105 286.908 293.163 291.259 292.954 294.305C292.84 295.895 292.782 302.28 292.782 313.293C292.782 316.726 290.397 318.288 288.183 318.288C285.722 318.288 283.788 316.996 283.011 314.829C282.847 314.37 282.783 313.886 282.82 313.408C282.815 312.751 282.73 310.554 282.573 306.818C282.531 305.292 282.531 302.915 282.57 299.639C282.611 295.945 282.611 293.525 282.573 292.385C282.21 262.652 282.231 245.069 282.637 238.557C282.847 235.757 284.656 233.839 287.244 233.628C290.061 233.41 292.167 235.223 292.41 238.05C292.504 240.074 292.543 242.418 292.543 245.233C291.922 258.961 292.005 264.564 292.161 266.844C292.996 266.909 294.416 267.001 296.656 267.039C298.567 267.068 299.834 267.023 300.657 266.959C300.782 264.071 300.858 256.801 300.534 238.568C300.534 235.595 302.474 233.564 305.253 233.564C307.082 233.564 310.149 234.515 310.149 240.889C310.149 240.978 310.146 241.065 310.138 241.153L309.965 244.709C309.849 246.997 309.788 249.518 309.788 252.277C309.788 259.357 310.069 270.397 310.624 285.092C310.864 292.092 310.981 301.151 310.981 312.287C310.981 313.712 310.65 314.939 309.998 315.933C308.963 317.467 307.372 318.288 305.491 318.288V318.288Z" fill="#603812"/>
<path d="M333.464 288.031C337.698 288.07 340.137 287.958 341.514 287.833C341.432 281.228 340.676 272.607 339.262 262.119C339.003 260.206 338.756 258.51 338.522 257.01C338.363 257.795 338.183 258.691 337.976 259.701C337.203 263.459 336.586 266.561 336.129 269.015C335.684 271.589 335.161 275.144 334.568 279.643C334.064 284.07 333.711 286.79 333.525 287.738C333.504 287.84 333.485 287.937 333.464 288.031V288.031ZM333.054 297.338V297.339V297.338ZM347.664 318.489C346.611 318.489 345.097 318.271 343.948 317.084C343.214 316.328 342.679 314.587 342.816 313.54C343.628 308.366 343.495 303.166 342.429 297.994C341.814 297.838 340.859 297.63 339.395 297.373C336.766 296.892 334.602 296.979 332.918 297.636C332.817 297.902 332.668 298.373 332.514 299.147C331.56 303.545 331.032 306.98 330.934 309.411C330.9 310.043 330.884 310.722 330.884 311.498L330.937 313.299C330.786 318.16 327.494 318.4 326.837 318.4C324.391 318.4 322.425 317.341 321.298 315.415C320.543 314.154 320.187 313.564 322.569 299.175C322.808 297.634 323.373 293.375 324.247 286.436C325.07 279.617 325.789 274.534 326.398 271.205C326.632 269.734 327.584 263.491 329.247 252.558C329.695 249.414 330.069 247.338 330.332 246.356C330.6 245.216 330.984 243.756 331.459 242.076C332.65 237.852 334.117 233.729 337.763 233.729C340.423 233.729 342.418 235.6 343.692 239.292C345.128 243.455 346.107 247.087 346.592 250.088L348.067 258.126C348.738 261.841 349.099 264.161 349.174 265.086C349.24 265.815 349.452 267.734 349.8 270.802L350.916 280.834C352.016 291.338 352.905 301.459 353.579 311.206L353.587 312.504C353.587 313.829 353.321 314.915 352.772 315.825C351.829 317.338 350.37 318.249 348.635 318.435C348.412 318.455 348.072 318.489 347.664 318.489V318.489Z" fill="#603812"/>
<path d="M377.411 243.184C377.106 243.229 376.658 243.305 376.047 243.477C373.422 244.258 371.605 245.568 370.545 247.469C368.948 250.373 368.33 253.318 368.664 256.452C368.976 259.885 370.629 262.514 373.718 264.532C374.674 265.137 375.891 265.702 377.316 266.193C377.416 264.305 377.519 261.069 377.572 255.529C377.608 248.144 377.504 244.743 377.411 243.184V243.184ZM381.142 317.915C379.467 317.915 377.989 317.196 376.954 315.857C376.244 314.875 376.047 314.604 376.047 306.563C376.228 301.004 376.369 296.404 376.472 292.602C376.392 292.867 376.323 293.101 376.27 293.306C375.31 296.813 374.18 300.186 372.9 303.367C372.419 304.55 371.709 306.482 370.759 309.173C369.844 311.831 369.24 313.394 368.998 313.858C368.406 315.039 366.975 317.901 364.209 317.901C360.235 317.901 359.217 315.526 358.964 314.505C358.652 313.43 358.827 312.105 359.567 310.33C364.829 297.096 367.576 290.169 367.802 289.548C370.367 281.751 372.075 276.555 372.916 273.98C372.671 273.866 372.36 273.736 371.979 273.596C370.215 272.963 368.342 271.741 366.258 269.865C363.845 267.729 362.248 265.604 361.399 263.383C360.007 259.655 359.407 255.973 359.609 252.418C359.818 248.982 361.212 245.421 363.744 241.82C366.02 239.283 368.247 237.596 370.606 236.506C373.375 235.198 376.428 234.528 379.658 234.528C385.171 234.528 386.137 237.568 386.296 238.875C386.537 241.21 386.585 243.537 386.445 245.843L386.245 249.473L386.317 252.739C386.407 254.879 386.384 256.986 386.243 259.002C385.986 264.727 385.853 269.061 385.853 271.924L385.455 293.274L386.315 311.185C386.317 316.204 383.885 317.462 382.436 317.778C381.996 317.869 381.562 317.915 381.142 317.915V317.915Z" fill="#603812"/>
<path d="M425.166 318.723C421.437 318.723 419.765 316.209 419.765 313.715L419.636 308.46C419.589 304.572 419.589 301.205 419.633 298.274C419.765 291.732 419.742 284.24 419.567 275.787C419.54 274.155 418.891 269.801 415.952 258.259C415.952 258.259 414.146 252.495 412.148 246.034C410.384 240.471 410.247 238.895 410.607 237.65C411.01 236.05 412.003 235.151 412.758 234.697C413.955 233.98 415.405 233.84 417.049 234.271C419.302 234.858 420.75 236.065 424.275 254.015C424.545 255.372 424.795 256.601 425.023 257.708C425.205 256.9 425.399 256.024 425.608 255.078C427.645 245.525 428.759 240.267 428.942 239.313C428.964 239.136 429.003 238.959 429.056 238.785C430.383 234.476 433.269 234.011 434.449 234.011C435.851 234.011 437.09 234.584 437.933 235.626C439.43 237.471 439.143 240.05 438.795 241.831C438.647 242.525 437.971 244.991 436.745 249.303C435.433 253.778 434.557 256.902 434.125 258.702C433.722 260.441 432.818 263.554 431.415 268.009C430.189 271.879 429.481 274.236 429.314 275.09C429.145 276.035 428.878 279.71 429.106 293.211C429.106 294.758 429.215 298.578 429.436 304.721L429.492 306.564C429.632 311.383 429.704 313.855 429.704 313.985C429.704 316.776 427.837 318.723 425.166 318.723V318.723Z" fill="#F7931D"/>
<path d="M457.275 318.37C453.986 318.37 449.494 316.859 446.785 309.655C445.101 305.108 444.194 297.777 443.998 287.227C443.945 284.006 443.957 280.187 444.038 275.77L444.157 267.812C444.157 257.161 445.151 248.883 447.202 242.509C448.145 239.633 449.798 237.325 452.119 235.626C455.318 233.267 459.012 233.02 462.518 234.933C465.86 236.724 468.107 239.69 468.984 243.496C469.521 245.839 469.924 248.799 468.271 250.974C467.072 252.552 463.895 253.069 462.2 252.023C460.638 251.128 459.701 249.383 459.795 247.412C459.821 246.583 459.649 245.884 459.272 245.339C459.031 244.997 458.657 244.597 457.525 244.52C456.4 244.448 455.936 246.758 455.744 247.465C454.676 251.492 454.047 254.932 453.877 257.675C453.668 260.89 453.565 266.417 453.565 274.266C453.565 275.702 453.644 278.216 453.8 281.808V281.813C454.016 286.909 454.147 290.529 454.2 292.673C454.442 300.639 455.463 304.281 456.278 305.928C456.975 307.298 457.464 307.573 457.469 307.576C458.747 306.543 459.4 305.77 459.98 304.766C460.638 303.61 460.704 303 460.706 302.841C461.089 300.211 462.166 299.109 463.012 298.564C463.929 297.975 465.725 297.728 466.778 298C467.651 298.192 468.576 298.697 469.382 299.467C469.693 299.766 469.953 300.114 470.147 300.498C470.876 301.939 470.993 303.72 470.504 305.941C470.183 307.648 469.496 309.446 468.486 311.175C465.094 317.116 460.516 318.37 457.275 318.37V318.37Z" fill="#603812"/>
<path d="M486.736 288.172C490.966 288.207 493.409 288.099 494.786 287.973C494.703 281.368 493.946 272.748 492.533 262.259C492.273 260.346 492.026 258.649 491.793 257.151C491.634 257.936 491.453 258.832 491.247 259.841C490.476 263.6 489.858 266.702 489.401 269.155C488.956 271.73 488.433 275.285 487.838 279.783C487.335 284.211 486.982 286.931 486.797 287.879C486.775 287.981 486.756 288.077 486.736 288.172V288.172ZM486.324 297.479V297.48V297.479ZM500.936 318.629C499.882 318.629 498.368 318.412 497.22 317.226C496.484 316.469 495.949 314.728 496.088 313.681C496.899 308.507 496.767 303.307 495.7 298.135C495.084 297.979 494.13 297.771 492.666 297.514C490.037 297.033 487.871 297.121 486.189 297.777C486.088 298.043 485.94 298.514 485.785 299.288C484.831 303.687 484.304 307.121 484.206 309.552C484.171 310.184 484.154 310.863 484.154 311.639L484.207 313.44C484.057 318.301 480.765 318.541 480.106 318.541C477.662 318.541 475.696 317.482 474.569 315.556C473.814 314.295 473.458 313.706 475.84 299.316C476.079 297.775 476.643 293.516 477.518 286.577C478.341 279.758 479.059 274.675 479.669 271.345C479.903 269.874 480.856 263.632 482.518 252.699C482.966 249.554 483.341 247.479 483.603 246.496C483.87 245.357 484.256 243.895 484.73 242.215C485.921 237.993 487.388 233.87 491.035 233.87C493.695 233.87 495.69 235.741 496.962 239.432C498.401 243.596 499.378 247.227 499.864 250.228L501.339 258.267C502.01 261.981 502.37 264.301 502.445 265.227C502.511 265.956 502.723 267.875 503.071 270.943L504.187 280.975C505.288 291.478 506.176 301.6 506.85 311.348L506.858 312.645C506.858 313.97 506.593 315.056 506.044 315.966C505.099 317.479 503.641 318.39 501.907 318.576C501.684 318.596 501.345 318.629 500.936 318.629V318.629Z" fill="#603812"/>
<path d="M530.53 244.491C530.405 245.854 530.246 248.396 530.129 253.088C530.095 254.952 530.095 258.788 530.129 264.568L530.182 270.863C530.363 277.554 530.413 282.473 530.341 285.55C530.227 291.405 530.145 295.722 530.092 298.498C530.55 298.487 531.053 298.475 531.593 298.46C534.495 298.353 536.187 298.3 536.624 298.3H538.088L538.027 292.858C537.956 288.902 537.921 286.354 537.921 285.248C537.887 282.266 537.94 277.37 538.08 270.601L538.133 264.347C538.202 258.602 538.205 254.799 538.136 252.924C537.943 248.232 537.784 245.637 537.67 244.208L536.996 244.176C535.413 244.24 534.734 244.282 534.131 244.282C532.408 244.313 531.267 244.402 530.53 244.491V244.491ZM548.589 301.196V301.199V301.196ZM544.379 308.109C544.382 308.113 544.385 308.118 544.39 308.124C544.385 308.118 544.382 308.113 544.379 308.109ZM551.689 318.806C550.551 318.806 549.241 318.732 548.097 317.871C547.546 317.667 546.109 316.364 545.793 313.412C545.706 312.617 545.501 311.629 545.202 310.458C545.03 309.715 544.86 309.188 544.719 308.819C544.282 308.755 543.555 308.689 542.406 308.689H540.868C540.459 308.689 539.905 308.671 539.207 308.629L537.951 308.583C536.535 308.49 535.458 308.506 531.172 308.633L526.175 308.689C524.987 308.689 524.275 308.74 523.865 308.791C523.726 309.142 523.565 309.642 523.403 310.357C523.08 311.629 522.875 312.617 522.785 313.427C522.472 316.364 521.034 317.667 519.886 318.24C518.786 319.233 514.741 318.907 513.292 317.138C511.741 315.246 512.218 312.868 512.375 312.087C512.434 311.804 512.518 311.534 512.632 311.279C512.813 310.754 513.253 309.357 513.959 307.093C515.103 303.375 516.536 301.059 518.462 299.816C518.801 299.576 519.177 299.363 519.585 299.181C519.536 296.505 519.617 292.803 519.836 287.936C519.761 275.334 519.727 268.617 519.727 267.981L519.673 254.435C519.333 239.024 520.064 237.559 521.487 236.134C522.914 234.582 525.504 233.682 534.768 233.682C542.367 233.737 544.454 234.486 545.835 235.939C547.713 237.962 548.882 241.848 548.589 254.353L548.483 287.959C548.592 292.766 548.637 296.48 548.62 299.059C549.233 299.277 549.756 299.538 550.217 299.847C552.082 301.09 553.482 303.395 554.625 307.104C555.285 308.898 555.816 310.553 556.161 311.886C556.177 311.953 556.192 312.019 556.206 312.087C556.362 312.868 556.84 315.246 555.288 317.138C554.559 318.029 552.842 318.806 551.689 318.806V318.806Z" fill="#603812"/>
<path d="M573.502 278.118L573.557 279.692C573.168 294.03 572.954 302.591 572.92 305.479C572.934 306.945 572.968 308.037 573.01 308.842C574.281 308.481 575.207 307.867 575.928 306.922C578.366 303.753 579.546 300.499 579.546 296.959V296.932C579.61 288.073 578.005 282.062 574.777 279.063C574.36 278.678 573.936 278.363 573.502 278.118V278.118ZM568.064 318.758C565.983 318.637 564.409 317.692 563.515 316.157C562.903 315.391 562.855 314.697 562.677 308.724C562.643 306.988 562.675 304.363 562.783 300.814C562.889 295.875 562.942 292.442 562.942 290.549C562.942 288.507 562.855 280.435 562.677 266.339C562.536 252.039 562.466 244.682 562.466 244.258L562.413 238.907C562.413 235.993 564.049 233.79 566.687 233.158C569.027 232.568 572.038 233.57 573.002 237.173C573.185 237.399 573.185 237.646 573.185 241.768C573.212 242.057 573.238 247.208 573.238 256.97C573.218 262.431 573.276 265.586 573.344 267.405C573.477 267.417 573.613 267.429 573.75 267.44C577.869 268.21 581.288 270.635 584.312 274.7C588.751 280.666 590.661 288.165 589.99 296.986C589.511 303.719 587.696 308.949 584.603 312.507C582.27 315.27 579.955 317.06 577.562 317.94C576.522 318.348 574.585 318.758 568.064 318.758V318.758Z" fill="#603812"/>
<path d="M608.509 278.643C608.503 278.93 608.495 279.235 608.49 279.554C608.419 283.001 608.244 288.252 607.957 295.311C607.716 301.432 607.588 304.805 607.588 305.432C607.588 305.74 607.604 306.832 607.637 308.712C608.973 308.352 609.944 307.753 610.623 306.881C613.002 303.755 614.185 300.485 614.213 296.926C614.274 288.172 612.604 282.216 609.241 279.222C608.999 279.007 608.758 278.815 608.509 278.643V278.643ZM602.732 318.757C600.725 318.641 599.217 317.792 598.26 316.362C597.517 315.39 597.47 314.696 597.292 308.723C597.292 308.11 597.345 305.521 597.452 300.842C597.558 295.874 597.611 292.441 597.611 290.548C597.436 255.681 597.231 246.297 597.091 244.565C596.783 240.354 597.398 237.559 599.025 235.746C600.101 234.548 601.591 233.855 603.228 233.794C607.362 233.604 610.078 233.614 611.75 233.821L612.702 233.795C613.773 233.752 614.6 233.761 615.201 233.801C620.764 234.266 621.334 237.913 621.378 239.021C621.381 243.94 615.715 243.984 610.718 244.022C609.448 244.022 608.522 244.066 607.857 244.123L607.907 256.955C607.862 262.395 607.912 265.538 607.983 267.349C608.23 267.391 608.485 267.435 608.75 267.482C612.501 268.21 615.911 270.626 618.963 274.678C618.966 274.683 618.972 274.69 618.977 274.696C623.42 280.662 625.329 288.161 624.659 296.984C624.139 303.723 622.333 308.937 619.291 312.485C616.89 315.276 614.591 317.053 612.254 317.929C611.127 318.355 609.182 318.757 602.732 318.757V318.757Z" fill="#603812"/>
<path d="M643.69 288.172C647.923 288.207 650.36 288.099 651.74 287.973C651.657 281.368 650.902 272.748 649.489 262.259C649.228 260.346 648.982 258.649 648.748 257.151C648.59 257.936 648.409 258.832 648.201 259.841C647.43 263.6 646.812 266.702 646.356 269.155C645.91 271.73 645.388 275.285 644.794 279.783C644.29 284.211 643.937 286.931 643.751 287.879C643.729 287.981 643.712 288.077 643.69 288.172V288.172ZM643.279 297.479V297.48V297.479ZM657.89 318.629C656.838 318.629 655.324 318.412 654.175 317.226C653.44 316.469 652.904 314.728 653.042 313.681C653.853 308.507 653.721 303.307 652.655 298.135C652.04 297.979 651.084 297.771 649.62 297.514C646.993 297.033 644.825 297.121 643.144 297.777C643.044 298.043 642.894 298.514 642.741 299.288C641.786 303.687 641.258 307.121 641.16 309.552C641.125 310.184 641.11 310.863 641.11 311.639L641.163 313.44C641.011 318.301 637.721 318.541 637.062 318.541C634.616 318.541 632.651 317.482 631.524 315.556C630.768 314.295 630.413 313.706 632.795 299.316C633.033 297.775 633.598 293.516 634.474 286.577C635.295 279.758 636.015 274.675 636.625 271.345C636.858 269.874 637.81 263.632 639.474 252.699C639.922 249.554 640.295 247.479 640.557 246.496C640.826 245.357 641.21 243.895 641.686 242.215C642.877 237.993 644.343 233.87 647.989 233.87C650.65 233.87 652.644 235.741 653.917 239.432C655.355 243.596 656.334 247.227 656.819 250.228L658.293 258.267C658.964 261.981 659.326 264.301 659.399 265.227C659.465 265.956 659.679 267.875 660.025 270.943L661.142 280.975C662.242 291.478 663.132 301.6 663.805 311.348L663.812 312.645C663.812 313.97 663.547 315.056 662.999 315.966C662.055 317.479 660.595 318.39 658.861 318.576C658.638 318.596 658.299 318.629 657.89 318.629V318.629Z" fill="#603812"/>
</svg>
