<svg width="800" height="600" viewBox="0 0 800 600" fill="none" xmlns="http://www.w3.org/2000/svg">
<rect width="800" height="600" fill="white"/>
<mask id="path-1-outside-1" maskUnits="userSpaceOnUse" x="493.691" y="111" width="108" height="108" fill="black">
<rect fill="white" x="493.691" y="111" width="108" height="108"/>
<path fill-rule="evenodd" clip-rule="evenodd" d="M536.091 136L547.691 147.6L559.291 136V153.4H576.691L565.091 165L576.691 176.6H559.291V194L547.691 182.4L536.091 194V176.6H518.691L530.291 165L518.691 153.4H536.091V136ZM547.691 159.141L541.832 165L547.691 170.859L553.55 165L547.691 159.141Z"/>
</mask>
<path fill-rule="evenodd" clip-rule="evenodd" d="M536.091 136L547.691 147.6L559.291 136V153.4H576.691L565.091 165L576.691 176.6H559.291V194L547.691 182.4L536.091 194V176.6H518.691L530.291 165L518.691 153.4H536.091V136ZM547.691 159.141L541.832 165L547.691 170.859L553.55 165L547.691 159.141Z" fill="#E53124"/>
<path d="M547.691 147.6L540.62 154.671L547.691 161.742L554.762 154.671L547.691 147.6ZM536.091 136L543.162 128.929L526.091 111.858V136H536.091ZM559.291 136H569.291V111.858L552.22 128.929L559.291 136ZM559.291 153.4H549.291V163.4H559.291V153.4ZM576.691 153.4L583.762 160.471L600.833 143.4H576.691V153.4ZM565.091 165L558.02 157.929L550.949 165L558.02 172.071L565.091 165ZM576.691 176.6V186.6H600.833L583.762 169.529L576.691 176.6ZM559.291 176.6V166.6H549.291V176.6H559.291ZM559.291 194L552.22 201.071L569.291 218.142V194H559.291ZM547.691 182.4L554.762 175.329L547.691 168.258L540.62 175.329L547.691 182.4ZM536.091 194H526.091V218.142L543.162 201.071L536.091 194ZM536.091 176.6H546.091V166.6H536.091V176.6ZM518.691 176.6L511.62 169.529L494.549 186.6H518.691V176.6ZM530.291 165L537.362 172.071L544.433 165L537.362 157.929L530.291 165ZM518.691 153.4V143.4H494.549L511.62 160.471L518.691 153.4ZM536.091 153.4V163.4H546.091V153.4H536.091ZM541.832 165L534.761 157.929L527.69 165L534.761 172.071L541.832 165ZM547.691 159.141L554.762 152.07L547.691 144.999L540.62 152.07L547.691 159.141ZM547.691 170.859L540.62 177.93L547.691 185.001L554.762 177.93L547.691 170.859ZM553.55 165L560.621 172.071L567.692 165L560.621 157.929L553.55 165ZM554.762 140.529L543.162 128.929L529.02 143.071L540.62 154.671L554.762 140.529ZM552.22 128.929L540.62 140.529L554.762 154.671L566.362 143.071L552.22 128.929ZM569.291 153.4V136H549.291V153.4H569.291ZM576.691 143.4H559.291V163.4H576.691V143.4ZM572.162 172.071L583.762 160.471L569.62 146.329L558.02 157.929L572.162 172.071ZM583.762 169.529L572.162 157.929L558.02 172.071L569.62 183.671L583.762 169.529ZM559.291 186.6H576.691V166.6H559.291V186.6ZM569.291 194V176.6H549.291V194H569.291ZM540.62 189.471L552.22 201.071L566.362 186.929L554.762 175.329L540.62 189.471ZM543.162 201.071L554.762 189.471L540.62 175.329L529.02 186.929L543.162 201.071ZM526.091 176.6V194H546.091V176.6H526.091ZM518.691 186.6H536.091V166.6H518.691V186.6ZM523.22 157.929L511.62 169.529L525.762 183.671L537.362 172.071L523.22 157.929ZM511.62 160.471L523.22 172.071L537.362 157.929L525.762 146.329L511.62 160.471ZM536.091 143.4H518.691V163.4H536.091V143.4ZM526.091 136V153.4H546.091V136H526.091ZM548.903 172.071L554.762 166.212L540.62 152.07L534.761 157.929L548.903 172.071ZM554.762 163.788L548.903 157.929L534.761 172.071L540.62 177.93L554.762 163.788ZM546.479 157.929L540.62 163.788L554.762 177.93L560.621 172.071L546.479 157.929ZM540.62 166.212L546.479 172.071L560.621 157.929L554.762 152.07L540.62 166.212Z" fill="white" mask="url(#path-1-outside-1)"/>
<mask id="path-3-outside-2" maskUnits="userSpaceOnUse" x="274.103" y="416" width="248" height="78" fill="black">
<rect fill="white" x="274.103" y="416" width="248" height="78"/>
<path fill-rule="evenodd" clip-rule="evenodd" d="M284.103 426V433.573L293.277 433.573L317.286 457.582L322.641 452.227L336.027 438.841L352.091 454.904L338.704 468.291L330.672 460.259L325.318 465.614L338.704 479L344.059 473.645L357.445 460.259L376.186 479L381.541 473.645L389.573 465.614L384.218 460.259L376.186 468.291L362.8 454.904L378.864 438.841L397.605 457.582L402.959 452.227L416.346 438.841L432.409 454.904L419.023 468.291L410.991 460.259L405.637 465.614L419.023 479L424.378 473.645L437.764 460.259L456.505 479L461.86 473.645L469.891 465.614L464.537 460.259L456.505 468.291L443.119 454.904L459.182 438.841L477.923 457.582L483.278 452.227L501.932 433.573L511.279 433.573V426L284.103 426ZM491.223 433.573L464.623 433.573L477.923 446.872L491.223 433.573ZM453.741 433.573L421.787 433.573L437.764 449.55L453.741 433.573ZM410.905 433.573L384.305 433.573L397.605 446.873L410.905 433.573ZM373.423 433.573L341.468 433.573L357.445 449.55L373.423 433.573ZM330.586 433.573L303.986 433.573L317.286 446.872L330.586 433.573Z"/>
</mask>
<path fill-rule="evenodd" clip-rule="evenodd" d="M284.103 426V433.573L293.277 433.573L317.286 457.582L322.641 452.227L336.027 438.841L352.091 454.904L338.704 468.291L330.672 460.259L325.318 465.614L338.704 479L344.059 473.645L357.445 460.259L376.186 479L381.541 473.645L389.573 465.614L384.218 460.259L376.186 468.291L362.8 454.904L378.864 438.841L397.605 457.582L402.959 452.227L416.346 438.841L432.409 454.904L419.023 468.291L410.991 460.259L405.637 465.614L419.023 479L424.378 473.645L437.764 460.259L456.505 479L461.86 473.645L469.891 465.614L464.537 460.259L456.505 468.291L443.119 454.904L459.182 438.841L477.923 457.582L483.278 452.227L501.932 433.573L511.279 433.573V426L284.103 426ZM491.223 433.573L464.623 433.573L477.923 446.872L491.223 433.573ZM453.741 433.573L421.787 433.573L437.764 449.55L453.741 433.573ZM410.905 433.573L384.305 433.573L397.605 446.873L410.905 433.573ZM373.423 433.573L341.468 433.573L357.445 449.55L373.423 433.573ZM330.586 433.573L303.986 433.573L317.286 446.872L330.586 433.573Z" fill="#E53124"/>
<path d="M284.103 433.573H274.103V443.573L284.103 443.573L284.103 433.573ZM284.103 426L284.103 416L274.103 416V426H284.103ZM293.277 433.573L300.348 426.501L297.419 423.573L293.277 423.573L293.277 433.573ZM317.286 457.582L310.215 464.653L317.286 471.724L324.357 464.653L317.286 457.582ZM322.641 452.227L329.712 459.298L329.712 459.298L322.641 452.227ZM336.027 438.841L343.098 431.77L336.027 424.698L328.956 431.77L336.027 438.841ZM352.091 454.904L359.162 461.975L366.233 454.904L359.162 447.833L352.091 454.904ZM338.704 468.291L331.633 475.362L338.704 482.433L345.775 475.362L338.704 468.291ZM330.672 460.259L337.743 453.188L330.672 446.117L323.601 453.188L330.672 460.259ZM325.318 465.614L318.247 458.543L311.176 465.614L318.247 472.685L325.318 465.614ZM338.704 479L331.633 486.071L338.704 493.142L345.775 486.071L338.704 479ZM344.059 473.645L351.13 480.717L351.13 480.716L344.059 473.645ZM357.445 460.259L364.516 453.188L357.445 446.117L350.374 453.188L357.445 460.259ZM376.186 479L369.115 486.071L376.186 493.142L383.257 486.071L376.186 479ZM381.541 473.645L388.612 480.717L388.612 480.716L381.541 473.645ZM389.573 465.614L396.644 472.685L403.715 465.614L396.644 458.542L389.573 465.614ZM384.218 460.259L391.289 453.188L384.218 446.117L377.147 453.188L384.218 460.259ZM376.186 468.291L369.115 475.362L376.186 482.433L383.257 475.362L376.186 468.291ZM362.8 454.904L355.729 447.833L348.658 454.904L355.729 461.975L362.8 454.904ZM378.864 438.841L385.935 431.77L378.864 424.699L371.792 431.77L378.864 438.841ZM397.605 457.582L390.534 464.653L397.605 471.724L404.676 464.653L397.605 457.582ZM402.959 452.227L410.03 459.298L410.03 459.298L402.959 452.227ZM416.346 438.841L423.417 431.77L416.346 424.698L409.275 431.77L416.346 438.841ZM432.409 454.904L439.48 461.975L446.551 454.904L439.48 447.833L432.409 454.904ZM419.023 468.291L411.952 475.362L419.023 482.433L426.094 475.362L419.023 468.291ZM410.991 460.259L418.062 453.188L410.991 446.117L403.92 453.188L410.991 460.259ZM405.637 465.614L398.565 458.543L391.494 465.614L398.565 472.685L405.637 465.614ZM419.023 479L411.952 486.071L419.023 493.142L426.094 486.071L419.023 479ZM424.378 473.645L431.449 480.717L431.449 480.716L424.378 473.645ZM437.764 460.259L444.835 453.188L437.764 446.117L430.693 453.188L437.764 460.259ZM456.505 479L449.434 486.071L456.505 493.142L463.576 486.071L456.505 479ZM461.86 473.645L468.931 480.716L468.931 480.716L461.86 473.645ZM469.891 465.614L476.963 472.685L484.034 465.613L476.963 458.542L469.891 465.614ZM464.537 460.259L471.608 453.188L464.537 446.117L457.466 453.188L464.537 460.259ZM456.505 468.291L449.434 475.362L456.505 482.433L463.576 475.362L456.505 468.291ZM443.119 454.904L436.047 447.833L428.976 454.904L436.047 461.975L443.119 454.904ZM459.182 438.841L466.253 431.77L459.182 424.698L452.111 431.77L459.182 438.841ZM477.923 457.582L470.852 464.653L477.923 471.724L484.994 464.653L477.923 457.582ZM483.278 452.227L476.207 445.156L476.207 445.156L483.278 452.227ZM501.932 433.573L501.932 423.573L497.79 423.573L494.861 426.501L501.932 433.573ZM511.279 433.573L511.279 443.573L521.279 443.573V433.573H511.279ZM511.279 426H521.279V416L511.279 416L511.279 426ZM491.223 433.573L498.294 440.644L515.365 423.573L491.223 423.573L491.223 433.573ZM464.623 433.573L464.623 423.573L440.481 423.573L457.552 440.644L464.623 433.573ZM477.923 446.872L470.852 453.944L477.923 461.015L484.994 453.944L477.923 446.872ZM453.741 433.573L460.812 440.644L477.883 423.573L453.741 423.573L453.741 433.573ZM421.787 433.573L421.787 423.573L397.645 423.573L414.716 440.644L421.787 433.573ZM437.764 449.55L430.693 456.621L437.764 463.692L444.835 456.621L437.764 449.55ZM410.905 433.573L417.976 440.644L435.047 423.573L410.905 423.573L410.905 433.573ZM384.305 433.573L384.305 423.573L360.162 423.573L377.234 440.644L384.305 433.573ZM397.605 446.873L390.534 453.944L397.605 461.015L404.676 453.944L397.605 446.873ZM373.423 433.573L380.494 440.644L397.565 423.573L373.423 423.573L373.423 433.573ZM341.468 433.573L341.468 423.573L317.326 423.573L334.397 440.644L341.468 433.573ZM357.445 449.55L350.374 456.621L357.445 463.692L364.516 456.621L357.445 449.55ZM330.586 433.573L337.657 440.644L354.728 423.573L330.586 423.573L330.586 433.573ZM303.986 433.573L303.986 423.573L279.844 423.573L296.915 440.644L303.986 433.573ZM317.286 446.872L310.215 453.944L317.286 461.015L324.357 453.944L317.286 446.872ZM294.103 433.573V426H274.103V433.573H294.103ZM293.277 423.573L284.103 423.573L284.103 443.573L293.277 443.573L293.277 423.573ZM286.206 440.644L310.215 464.653L324.357 450.511L300.348 426.501L286.206 440.644ZM324.357 464.653L329.712 459.298L315.569 445.156L310.215 450.511L324.357 464.653ZM329.712 459.298L343.098 445.912L328.956 431.77L315.569 445.156L329.712 459.298ZM328.956 445.912L345.02 461.975L359.162 447.833L343.098 431.77L328.956 445.912ZM345.02 447.833L331.633 461.22L345.775 475.362L359.162 461.975L345.02 447.833ZM345.775 461.22L337.743 453.188L323.601 467.33L331.633 475.362L345.775 461.22ZM323.601 453.188L318.247 458.543L332.389 472.685L337.743 467.33L323.601 453.188ZM318.247 472.685L331.633 486.071L345.775 471.929L332.389 458.543L318.247 472.685ZM345.775 486.071L351.13 480.717L336.988 466.574L331.633 471.929L345.775 486.071ZM351.13 480.716L364.516 467.33L350.374 453.188L336.988 466.574L351.13 480.716ZM350.374 467.33L369.115 486.071L383.257 471.929L364.516 453.188L350.374 467.33ZM383.257 486.071L388.612 480.717L374.47 466.574L369.115 471.929L383.257 486.071ZM388.612 480.716L396.644 472.685L382.502 458.542L374.47 466.574L388.612 480.716ZM396.644 458.542L391.289 453.188L377.147 467.33L382.502 472.685L396.644 458.542ZM377.147 453.188L369.115 461.22L383.257 475.362L391.289 467.33L377.147 453.188ZM383.257 461.22L369.871 447.833L355.729 461.975L369.115 475.362L383.257 461.22ZM369.871 461.975L385.935 445.912L371.792 431.77L355.729 447.833L369.871 461.975ZM371.792 445.912L390.534 464.653L404.676 450.511L385.935 431.77L371.792 445.912ZM404.676 464.653L410.03 459.298L395.888 445.156L390.534 450.511L404.676 464.653ZM410.03 459.298L423.417 445.912L409.275 431.77L395.888 445.156L410.03 459.298ZM409.275 445.912L425.338 461.975L439.48 447.833L423.417 431.77L409.275 445.912ZM425.338 447.833L411.952 461.22L426.094 475.362L439.48 461.975L425.338 447.833ZM426.094 461.22L418.062 453.188L403.92 467.33L411.952 475.362L426.094 461.22ZM403.92 453.188L398.565 458.543L412.708 472.685L418.062 467.33L403.92 453.188ZM398.565 472.685L411.952 486.071L426.094 471.929L412.708 458.542L398.565 472.685ZM426.094 486.071L431.449 480.717L417.306 466.574L411.952 471.929L426.094 486.071ZM431.449 480.716L444.835 467.33L430.693 453.188L417.306 466.574L431.449 480.716ZM430.693 467.33L449.434 486.071L463.576 471.929L444.835 453.188L430.693 467.33ZM463.576 486.071L468.931 480.716L454.789 466.574L449.434 471.929L463.576 486.071ZM468.931 480.716L476.963 472.685L462.82 458.542L454.789 466.574L468.931 480.716ZM476.963 458.542L471.608 453.188L457.466 467.33L462.82 472.685L476.963 458.542ZM457.466 453.188L449.434 461.22L463.576 475.362L471.608 467.33L457.466 453.188ZM463.576 461.22L450.19 447.833L436.047 461.975L449.434 475.362L463.576 461.22ZM450.19 461.975L466.253 445.912L452.111 431.77L436.047 447.833L450.19 461.975ZM452.111 445.912L470.852 464.653L484.994 450.511L466.253 431.77L452.111 445.912ZM484.994 464.653L490.349 459.298L476.207 445.156L470.852 450.511L484.994 464.653ZM490.349 459.298L509.004 440.644L494.861 426.501L476.207 445.156L490.349 459.298ZM511.279 423.573L501.932 423.573L501.932 443.573L511.279 443.573L511.279 423.573ZM501.279 426V433.573H521.279V426H501.279ZM284.103 436L511.279 436L511.279 416L284.103 416L284.103 436ZM491.223 423.573L464.623 423.573L464.623 443.573L491.223 443.573L491.223 423.573ZM484.994 439.801L471.694 426.501L457.552 440.644L470.852 453.944L484.994 439.801ZM484.152 426.501L470.852 439.801L484.994 453.944L498.294 440.644L484.152 426.501ZM453.741 423.573L421.787 423.573L421.787 443.573L453.741 443.573L453.741 423.573ZM444.835 442.479L428.858 426.501L414.716 440.644L430.693 456.621L444.835 442.479ZM446.67 426.501L430.693 442.479L444.835 456.621L460.812 440.644L446.67 426.501ZM410.905 423.573L384.305 423.573L384.305 443.573L410.905 443.573L410.905 423.573ZM404.676 439.801L391.376 426.501L377.234 440.644L390.534 453.944L404.676 439.801ZM403.834 426.501L390.534 439.801L404.676 453.944L417.976 440.644L403.834 426.501ZM373.423 423.573L341.468 423.573L341.468 443.573L373.423 443.573L373.423 423.573ZM364.516 442.479L348.539 426.501L334.397 440.644L350.374 456.621L364.516 442.479ZM366.351 426.501L350.374 442.479L364.516 456.621L380.494 440.644L366.351 426.501ZM330.586 423.573L303.986 423.573L303.986 443.573L330.586 443.573L330.586 423.573ZM324.357 439.801L311.057 426.501L296.915 440.644L310.215 453.944L324.357 439.801ZM323.515 426.501L310.215 439.801L324.357 453.944L337.657 440.644L323.515 426.501Z" fill="white" mask="url(#path-3-outside-2)"/>
<path d="M172.24 261.552L163.952 270.4V290H142V211.6H163.952V244.192L194.304 211.6H218.72L186.688 246.32L220.4 290H194.64L172.24 261.552Z" fill="#2B2A29"/>
<path d="M275.028 274.768H241.876L235.716 290H213.092L247.7 211.6H269.54L304.26 290H281.188L275.028 274.768ZM268.532 258.416L258.452 233.328L248.372 258.416H268.532Z" fill="#2B2A29"/>
<path d="M344.819 269.168H332.723V290H310.547V211.6H346.387C353.48 211.6 359.64 212.795 364.867 215.184C370.094 217.499 374.126 220.859 376.963 225.264C379.8 229.595 381.219 234.709 381.219 240.608C381.219 246.283 379.875 251.248 377.187 255.504C374.574 259.685 370.803 262.971 365.875 265.36L382.787 290H359.043L344.819 269.168ZM358.819 240.608C358.819 236.949 357.662 234.112 355.347 232.096C353.032 230.08 349.598 229.072 345.043 229.072H332.723V252.032H345.043C349.598 252.032 353.032 251.061 355.347 249.12C357.662 247.104 358.819 244.267 358.819 240.608Z" fill="#2B2A29"/>
<path d="M456.397 272.864V290H393.453V211.6H454.941V228.736H415.405V241.952H450.237V258.528H415.405V272.864H456.397Z" fill="#2B2A29"/>
<path d="M468.703 211.6H490.879V272.416H528.287V290H468.703V211.6Z" fill="#2B2A29"/>
<path d="M537.062 211.6H559.238V290H537.062V211.6Z" fill="#2B2A29"/>
<path d="M627.544 274.768H594.392L588.232 290H565.608L600.216 211.6H622.056L656.776 290H633.704L627.544 274.768ZM621.048 258.416L610.968 233.328L600.888 258.416H621.048Z" fill="#2B2A29"/>
<path d="M235.04 400.536C228.693 400.536 222.533 399.752 216.56 398.184C210.587 396.616 205.733 394.525 202 391.912L209.28 375.56C212.789 377.875 216.859 379.741 221.488 381.16C226.117 382.579 230.672 383.288 235.152 383.288C243.664 383.288 247.92 381.16 247.92 376.904C247.92 374.664 246.688 373.021 244.224 371.976C241.835 370.856 237.952 369.699 232.576 368.504C226.677 367.235 221.749 365.891 217.792 364.472C213.835 362.979 210.437 360.627 207.6 357.416C204.763 354.205 203.344 349.875 203.344 344.424C203.344 339.645 204.651 335.352 207.264 331.544C209.877 327.661 213.76 324.6 218.912 322.36C224.139 320.12 230.523 319 238.064 319C243.216 319 248.293 319.597 253.296 320.792C258.299 321.912 262.704 323.592 266.512 325.832L259.68 342.296C252.213 338.264 244.971 336.248 237.952 336.248C233.547 336.248 230.336 336.92 228.32 338.264C226.304 339.533 225.296 341.213 225.296 343.304C225.296 345.395 226.491 346.963 228.88 348.008C231.269 349.053 235.115 350.136 240.416 351.256C246.389 352.525 251.317 353.907 255.2 355.4C259.157 356.819 262.555 359.133 265.392 362.344C268.304 365.48 269.76 369.773 269.76 375.224C269.76 379.928 268.453 384.184 265.84 387.992C263.227 391.8 259.307 394.861 254.08 397.176C248.853 399.416 242.507 400.536 235.04 400.536Z" fill="#2B2A29"/>
<path d="M295.598 338.152H271.518V320.568H341.742V338.152H317.774V398.968H295.598V338.152Z" fill="#2B2A29"/>
<path d="M388.446 400.536C380.158 400.536 372.691 398.781 366.046 395.272C359.475 391.763 354.286 386.909 350.478 380.712C346.745 374.515 344.878 367.533 344.878 359.768C344.878 352.003 346.745 345.021 350.478 338.824C354.286 332.627 359.475 327.773 366.046 324.264C372.691 320.755 380.158 319 388.446 319C396.734 319 404.163 320.755 410.734 324.264C417.379 327.773 422.569 332.627 426.302 338.824C430.11 345.021 432.014 352.003 432.014 359.768C432.014 367.533 430.11 374.515 426.302 380.712C422.569 386.909 417.379 391.763 410.734 395.272C404.163 398.781 396.734 400.536 388.446 400.536ZM388.446 382.168C392.403 382.168 395.987 381.235 399.198 379.368C402.409 377.501 404.947 374.888 406.814 371.528C408.681 368.093 409.614 364.173 409.614 359.768C409.614 355.363 408.681 351.48 406.814 348.12C404.947 344.685 402.409 342.035 399.198 340.168C395.987 338.301 392.403 337.368 388.446 337.368C384.489 337.368 380.905 338.301 377.694 340.168C374.483 342.035 371.945 344.685 370.078 348.12C368.211 351.48 367.278 355.363 367.278 359.768C367.278 364.173 368.211 368.093 370.078 371.528C371.945 374.888 374.483 377.501 377.694 379.368C380.905 381.235 384.489 382.168 388.446 382.168Z" fill="#2B2A29"/>
<path d="M518.221 320.568V398.968H499.965L465.357 357.192V398.968H443.629V320.568H461.885L496.493 362.344V320.568H518.221Z" fill="#2B2A29"/>
<path d="M596.807 381.832V398.968H533.863V320.568H595.351V337.704H555.815V350.92H590.647V367.496H555.815V381.832H596.807Z" fill="#2B2A29"/>
</svg>
