<svg width="800" height="600" viewBox="0 0 800 600" fill="none" xmlns="http://www.w3.org/2000/svg">
<path d="M416.766 208.779C416.766 220.051 413.707 226.977 407.591 229.557C415.058 232.058 418.791 240.293 418.791 254.265V256.944C418.712 267.462 416.865 275.043 413.251 279.686C409.676 284.33 403.818 286.652 395.676 286.652H372.501V181.869H395.199C403.024 181.869 408.564 183.694 411.821 187.346C415.078 190.958 416.726 197.03 416.766 205.564V208.779ZM388.467 274.269H394.127C397.304 274.269 399.529 273.177 400.799 270.994C402.07 268.811 402.706 264.902 402.706 259.266V250.811C402.706 245.493 402.19 241.742 401.157 239.559C400.124 237.336 398.138 236.225 395.199 236.225H388.467V274.269ZM388.467 224.258H394.365C397.106 224.258 398.893 223.385 399.727 221.639C400.601 219.892 401.038 216.3 401.038 210.863V204.552C400.998 200.503 400.442 197.804 399.37 196.455C398.297 195.066 396.45 194.371 393.829 194.371H388.467V224.258Z" fill="#F2E9E4"/>
<path d="M454.927 238.19C449.923 240.412 446.547 242.516 444.799 244.501C443.052 246.485 442.178 249.561 442.178 253.729V263.314C442.178 267.482 442.615 270.478 443.488 272.304C444.362 274.09 445.772 274.983 447.718 274.983C449.704 274.983 451.313 274.328 452.544 273.018C453.815 271.669 454.609 270.161 454.927 268.494V238.19ZM442.476 287.545C436.637 287.545 432.467 285.461 429.965 281.294C427.463 277.087 426.172 271.054 426.093 263.195V257.479C426.093 249.859 428.158 244.084 432.288 240.154C434.949 237.575 439.457 235.074 445.812 232.653C446.964 232.216 448.552 231.621 450.578 230.867C452.643 230.113 454.093 229.577 454.927 229.259V221.46C454.927 216.618 454.569 213.343 453.854 211.637C453.179 209.89 451.591 209.017 449.088 209.017C446.626 209.017 444.978 209.93 444.144 211.756C443.31 213.582 442.893 216.658 442.893 220.984V224.973H427.284V222.294C427.284 213.84 428.853 207.39 431.99 202.944C435.168 198.499 440.768 196.276 448.791 196.276C456.853 196.276 462.572 198.499 465.948 202.944C469.364 207.39 471.072 214.058 471.072 222.949V286.652H455.165V277.781C454.371 280.52 452.842 282.842 450.578 284.747C448.354 286.612 445.653 287.545 442.476 287.545Z" fill="#F2E9E4"/>
<path d="M482.424 286.652V180.976H498.212V237.952L513.463 197.348H529.488L512.271 241.286L530.501 286.652H514.416L498.212 244.203V286.652H482.424Z" fill="#F2E9E4"/>
<path d="M555.496 287.724C545.448 287.724 538.974 283.894 536.075 276.233C534.248 271.351 533.335 264.921 533.335 256.944V223.663C533.335 205.405 540.94 196.276 556.152 196.276C564.254 196.276 569.854 198.678 572.952 203.48C576.089 208.283 577.658 215.11 577.658 223.961V243.072H549.241V260.635C549.241 266.827 549.777 270.776 550.85 272.483C551.922 274.15 553.53 274.983 555.675 274.983C557.82 274.983 559.21 274.487 559.845 273.495C560.918 271.748 561.533 269.962 561.692 268.136C561.851 266.311 561.93 263.81 561.93 260.635V252.776H577.539V257.539C577.539 265.636 576.904 271.451 575.633 274.983C574.362 278.516 572.892 281.076 571.224 282.663C567.729 286.037 562.487 287.724 555.496 287.724ZM549.181 233.844H561.93V222.413C561.93 217.531 561.533 214.038 560.739 211.934C559.984 209.791 558.416 208.719 556.033 208.719C555.993 208.719 555.973 208.719 555.973 208.719C551.842 208.719 549.618 211.875 549.301 218.186C549.221 219.376 549.181 220.924 549.181 222.829V233.844Z" fill="#F2E9E4"/>
<path d="M619.156 196.276C619.315 196.276 619.394 199.61 619.394 206.278L619.334 209.612C616.157 209.612 613.039 210.148 609.981 211.22C606.923 212.292 604.917 213.82 603.964 215.804V286.652H588.058V197.348H603.964V207.291C604.997 203.798 606.804 201.099 609.385 199.194C612.007 197.249 615.264 196.276 619.156 196.276Z" fill="#F2E9E4"/>
<path d="M416.17 405.232C416.17 415.353 414.363 422.854 410.748 427.736C407.134 432.578 401.455 435 393.71 435C385.965 435 380.167 432.42 376.314 427.26C372.501 422.06 370.595 414.599 370.595 404.874V359.21C370.595 343.612 374.686 333.868 382.867 329.978C385.886 328.549 389.54 327.835 393.829 327.835C408.564 327.835 415.931 337.122 415.931 355.698V370.105H400.502V356.71C400.502 351.312 400.045 347.462 399.131 345.16C398.218 342.818 396.431 341.647 393.77 341.647C391.109 341.647 389.262 342.877 388.229 345.338C387.197 347.799 386.68 351.57 386.68 356.65V405.589C386.68 411.225 387.177 415.253 388.17 417.675C389.162 420.096 390.97 421.306 393.591 421.306C396.212 421.306 398.019 420.076 399.012 417.615C400.005 415.154 400.502 411.086 400.502 405.41V390.407H416.17V405.232Z" fill="#F2E9E4"/>
<path d="M446.646 422.14C449.108 422.14 450.776 421.068 451.65 418.925C452.564 416.742 453.02 413.507 453.02 409.221V369.272C453.02 364.906 452.564 361.631 451.65 359.448C450.737 357.265 449.049 356.174 446.586 356.174C444.124 356.174 442.436 357.265 441.522 359.448C440.609 361.592 440.152 364.866 440.152 369.272V409.221C440.152 415.769 441.225 419.778 443.369 421.247C444.243 421.842 445.335 422.14 446.646 422.14ZM446.646 434.881C438.226 434.881 432.388 432.36 429.131 427.319C425.874 422.279 424.246 414.996 424.246 405.47V372.07C424.246 352.979 431.693 343.433 446.586 343.433C461.48 343.433 468.927 352.979 468.927 372.07V405.47C468.927 420.354 465.094 429.502 457.429 432.916C454.49 434.226 450.896 434.881 446.646 434.881Z" fill="#F2E9E4"/>
<path d="M482.126 433.809V359.389H475.216V348.017H482.186V343.374C482.186 338.373 483.477 334.503 486.058 331.764C488.68 328.986 492.155 327.597 496.484 327.597C500.813 327.597 504.308 328.093 506.969 329.085V338.968C505.778 338.809 504.387 338.73 502.799 338.73C499.542 338.73 497.914 340.436 497.914 343.85V348.017H506.969V359.389H497.914V433.809H482.126Z" fill="#F2E9E4"/>
<path d="M516.475 433.809V359.389H509.564V348.017H516.534V343.374C516.534 338.373 517.825 334.503 520.407 331.764C523.028 328.986 526.503 327.597 530.832 327.597C535.161 327.597 538.657 328.093 541.318 329.085V338.968C540.126 338.809 538.736 338.73 537.147 338.73C533.891 338.73 532.262 340.436 532.262 343.85V348.017H541.318V359.389H532.262V433.809H516.475Z" fill="#F2E9E4"/>
<path d="M569.232 434.881C559.184 434.881 552.71 431.05 549.811 423.39C547.984 418.508 547.07 412.078 547.07 404.1V370.82C547.07 352.562 554.676 343.433 569.887 343.433C577.989 343.433 583.59 345.834 586.687 350.637C589.825 355.44 591.394 362.266 591.394 371.117V390.228H562.977V407.792C562.977 413.983 563.513 417.933 564.585 419.639C565.657 421.306 567.266 422.14 569.411 422.14C571.555 422.14 572.945 421.644 573.581 420.651C574.653 418.905 575.269 417.119 575.428 415.293C575.587 413.467 575.666 410.967 575.666 407.792V399.933H591.275V404.696C591.275 412.793 590.639 418.607 589.368 422.14C588.097 425.672 586.628 428.232 584.96 429.82C581.465 433.194 576.222 434.881 569.232 434.881ZM562.917 381H575.666V369.569C575.666 364.688 575.269 361.195 574.475 359.091C573.72 356.948 572.151 355.876 569.768 355.876C569.728 355.876 569.709 355.876 569.709 355.876C565.578 355.876 563.354 359.032 563.036 365.342C562.957 366.533 562.917 368.081 562.917 369.986V381Z" fill="#F2E9E4"/>
<path d="M622.644 434.881C612.596 434.881 606.122 431.05 603.223 423.39C601.396 418.508 600.483 412.078 600.483 404.1V370.82C600.483 352.562 608.088 343.433 623.3 343.433C631.402 343.433 637.002 345.834 640.1 350.637C643.238 355.44 644.806 362.266 644.806 371.117V390.228H616.389V407.792C616.389 413.983 616.925 417.933 617.998 419.639C619.07 421.306 620.678 422.14 622.823 422.14C624.968 422.14 626.358 421.644 626.993 420.651C628.066 418.905 628.681 417.119 628.84 415.293C628.999 413.467 629.079 410.967 629.079 407.792V399.933H644.687V404.696C644.687 412.793 644.052 418.607 642.781 422.14C641.51 425.672 640.04 428.232 638.372 429.82C634.877 433.194 629.635 434.881 622.644 434.881ZM616.33 381H629.079V369.569C629.079 364.688 628.681 361.195 627.887 359.091C627.132 356.948 625.564 355.876 623.181 355.876C623.141 355.876 623.121 355.876 623.121 355.876C618.991 355.876 616.766 359.032 616.449 365.342C616.369 366.533 616.33 368.081 616.33 369.986V381Z" fill="#F2E9E4"/>
<path fill-rule="evenodd" clip-rule="evenodd" d="M228.442 349.203C236.013 374.437 262.088 388.737 290.687 388.737L294.051 434.999H242.742V405.353C242.742 403.144 240.951 401.353 238.742 401.353H218.143C215.934 401.353 214.143 403.144 214.143 405.353V434.999H163.675L166.198 388.737C193.956 388.737 219.19 374.437 228.442 349.203Z" fill="#F2E9E4"/>
<path d="M206.012 357.972C228.406 335.579 222.719 305.01 215.61 303.588C208.501 302.167 200.147 317.984 183.086 335.046C166.024 352.108 146.831 360.638 150.03 368.102C153.229 375.567 183.619 380.366 206.012 357.972Z" fill="#F2E9E4"/>
<path d="M147.572 255.882C169.965 278.276 200.534 272.589 201.956 265.48C203.377 258.371 187.56 250.017 170.498 232.956C153.436 215.894 144.787 196.752 137.442 199.9C129.977 203.099 125.178 233.489 147.572 255.882Z" fill="#F2E9E4"/>
<path d="M309.304 299.531C286.91 277.137 256.342 282.824 254.92 289.933C253.498 297.042 269.316 305.395 286.378 322.457C303.439 339.519 311.969 358.712 319.434 355.513C326.898 352.314 331.698 321.924 309.304 299.531Z" fill="#F2E9E4"/>
<path d="M250.864 197.439C228.471 219.833 234.158 250.402 241.267 251.823C248.376 253.245 256.729 237.427 273.791 220.366C290.852 203.304 310.046 194.774 306.847 187.309C303.648 179.845 273.258 175.046 250.864 197.439Z" fill="#F2E9E4"/>
<path d="M309.305 255.88C286.912 278.273 256.343 272.586 254.921 265.477C253.5 258.368 269.317 250.015 286.379 232.953C303.44 215.892 312.09 196.749 319.435 199.897C326.899 203.096 331.699 233.486 309.305 255.88Z" fill="#24AFDB"/>
<path d="M147.572 299.532C169.965 277.138 200.534 282.825 201.956 289.934C203.377 297.043 187.56 305.397 170.498 322.458C153.436 339.52 144.906 358.714 137.442 355.515C129.977 352.316 125.178 321.926 147.572 299.532Z" fill="#24AFDB"/>
<path d="M206.014 197.44C228.408 219.834 222.721 250.403 215.611 251.824C208.502 253.246 200.149 237.428 183.087 220.367C166.026 203.305 146.832 194.775 150.031 187.31C153.23 179.846 183.62 175.047 206.014 197.44Z" fill="#24AFDB"/>
<path d="M250.864 357.972C228.47 335.578 234.157 305.009 241.266 303.588C248.375 302.166 256.729 317.984 273.79 335.045C290.852 352.107 310.046 360.637 306.847 368.102C303.648 375.566 273.258 380.366 250.864 357.972Z" fill="#24AFDB"/>
<rect width="27.541" height="27.541" rx="13.7705" transform="matrix(-1 0 0 1 242.09 265.139)" fill="#FF5D12"/>
<circle cx="654.059" cy="291.992" r="31.1221" fill="#FF5D12"/>
<path d="M653.291 296.531C651.918 299.949 651.589 302.426 652.306 303.961C653.686 305.304 655.381 305.821 657.39 305.511C658.111 305.174 658.694 304.653 659.139 303.949C659.584 303.244 659.974 302.31 660.308 301.145C657.955 299.643 655.616 298.105 653.291 296.531ZM649.066 293.595C644.538 290.302 641.856 287.762 641.022 285.975C640.187 284.187 640.262 282.399 641.246 280.61C642.224 278.809 644.027 277.295 646.654 276.068C649.281 274.842 651.522 274.445 653.377 274.88C655.249 275.306 656.602 276.413 657.437 278.201C658.266 279.976 658.49 281.844 658.109 283.805C657.739 285.745 656.996 288.006 655.88 290.588C657.252 291.599 659.258 293.007 661.9 294.813C662.646 292.112 663.513 289.713 664.499 287.615L668.853 289.616C667.995 291.273 667.21 293.824 666.497 297.269C666.444 297.513 666.403 297.693 666.373 297.809C667.53 298.584 668.925 299.511 670.558 300.59C672.208 301.66 673.203 302.314 673.543 302.549L667.156 305.532C666.753 305.252 665.9 304.701 664.596 303.878C663.29 306.679 661.237 308.734 658.439 310.04C655.657 311.339 653.248 311.711 651.212 311.157C649.17 310.591 647.676 309.294 646.729 307.267C645.782 305.239 645.623 303.107 646.252 300.87C646.875 298.621 647.813 296.196 649.066 293.595ZM651.877 287.591C653.186 284.481 653.496 282.189 652.807 280.713C652.314 279.657 651.775 278.996 651.19 278.728C650.605 278.461 649.823 278.556 648.844 279.013C646.956 279.894 646.457 281.289 647.347 283.197C647.756 284.072 649.266 285.537 651.877 287.591Z" fill="#F2E9E4"/>
</svg>
