<svg width="800" height="600" viewBox="0 0 800 600" fill="none" xmlns="http://www.w3.org/2000/svg">
<rect width="800" height="600" fill="#E12A1F"/>
<path fill-rule="evenodd" clip-rule="evenodd" d="M324.737 334.4H379.441V318.781H350.902L362.747 310.473C373.111 303.162 378.752 297.308 378.752 286.24C378.752 272.998 368.388 264 353.276 264C339.849 264 332.548 269.24 325.12 278.826L338.062 289.614C343.499 283.377 347.15 280.718 351.796 280.718C356.442 280.718 359.479 283.377 359.479 287.722C359.479 291.889 357.131 295.238 350.596 300.197L324.737 319.957V334.4ZM389.095 334.4H425.277C442.02 334.4 451.844 327.21 451.844 315.422C451.844 305.894 446.427 301.169 437.899 298.425C444.12 295.783 448.733 291.057 448.733 283.105C448.733 278.176 447.023 274.543 444.223 271.799C440.128 267.76 433.908 265.6 425.07 265.6H389.095V334.4ZM410.011 305.6V318.4H424.701C430.682 318.4 434.145 316.117 434.145 311.859C434.145 308.088 431.102 305.6 424.492 305.6H410.011ZM410.011 292.8V280H422.1C427.899 280 430.927 282.291 430.927 286.252C430.927 290.725 427.614 292.8 421.712 292.8H410.011ZM506.643 334.4H487.24V265.6H520.336C531.032 265.6 538.422 268.369 543.124 272.968C547.206 277.007 549.324 282.317 549.324 289.279C549.324 299.797 543.615 306.783 534.934 310.417L551.598 334.4H527.932L513.851 313.567H506.643V334.4ZM506.547 297.6V281.6H518.877C525.205 281.6 529.073 284.258 529.073 289.502C529.073 294.548 525.381 297.6 518.978 297.6H506.547ZM624 303.914C624 326.224 611.266 336 591.617 336C571.993 336 559.642 326.019 559.642 304.399V265.6H579.087V304.016C579.087 313.997 584.115 318.719 591.821 318.719C599.528 318.719 604.555 314.175 604.555 304.501V265.6H624V303.914Z" fill="#FEFEFE"/>
<path fill-rule="evenodd" clip-rule="evenodd" d="M199.729 265.895L183.978 336H177L192.779 265.895H199.729Z" fill="#FEFEFE"/>
<path fill-rule="evenodd" clip-rule="evenodd" d="M220.564 265.895L206.189 336H194.047L208.395 265.895H220.564Z" fill="#FEFEFE"/>
<path fill-rule="evenodd" clip-rule="evenodd" d="M247.081 265.895L232.447 336H214.881L229.515 265.895H247.081Z" fill="#FEFEFE"/>
<path fill-rule="evenodd" clip-rule="evenodd" d="M275.492 265.895L261.976 336H241.398L254.938 265.895H275.492Z" fill="#FEFEFE"/>
<path fill-rule="evenodd" clip-rule="evenodd" d="M317.161 265.895L302.528 336H271.703L286.31 265.895H317.161Z" fill="#FEFEFE"/>
<path fill-rule="evenodd" clip-rule="evenodd" d="M461.11 336H476.263V320.842H461.11V336Z" fill="#FEFEFE"/>
</svg>
