<svg width="800" height="600" viewBox="0 0 800 600" fill="none" xmlns="http://www.w3.org/2000/svg">
<rect width="800" height="600" fill="white"/>
<g clip-path="url(#clip0)">
<path d="M130.038 287.436L138.059 286.318C138.153 286.318 138.248 286.318 138.437 286.318C138.531 286.318 138.625 286.411 138.72 286.411C138.908 286.504 139.097 286.598 139.191 286.784C139.38 286.97 139.475 287.064 139.569 287.25C139.663 287.436 139.663 287.623 139.663 287.809C139.663 287.902 139.569 288.089 139.569 288.089C139.569 288.182 139.475 288.275 139.475 288.275L141.173 288.648C141.267 288.555 141.267 288.462 141.362 288.275C141.362 288.182 141.456 287.996 141.456 287.809C141.551 287.53 141.551 287.157 141.456 286.877C141.362 286.598 141.267 286.318 141.079 286.038C140.89 285.759 140.701 285.479 140.418 285.293C140.135 285.013 139.852 284.827 139.38 284.547C138.908 284.268 138.625 284.081 138.153 283.895C137.682 283.708 137.304 283.429 136.832 283.242L131.265 280.446L130.887 282.683L134.851 284.174C135.134 284.268 135.417 284.361 135.794 284.454C136.077 284.547 136.36 284.64 136.644 284.734V284.827C136.36 284.827 136.077 284.827 135.794 284.827C135.511 284.827 135.134 284.827 134.851 284.827L130.51 285.013L130.038 287.436ZM131.737 278.116L135.511 279.421C136.077 279.608 136.644 279.701 137.115 279.701C137.587 279.701 138.059 279.514 138.437 279.235C138.814 278.955 139.097 278.489 139.286 277.93C139.38 277.65 139.475 277.371 139.475 277.091C139.475 276.812 139.475 276.532 139.475 276.252L143.721 277.65L144.382 275.6L133.907 272.058L133.246 274.109L137.965 275.693C137.965 275.786 137.965 275.973 137.965 276.159C137.965 276.346 137.87 276.439 137.87 276.625C137.776 276.905 137.587 277.091 137.493 277.184C137.21 277.371 137.021 277.464 136.832 277.464C136.549 277.464 136.36 277.464 136.077 277.278L132.586 276.066L131.737 278.116ZM140.89 266.746L139.852 269.076L137.493 268.051L138.625 265.628L136.927 264.882L134.945 269.356L145.042 273.736L147.118 269.076L145.42 268.33L144.287 270.94L141.551 269.728L142.589 267.398L140.89 266.746ZM138.814 261.806L148.156 267.585C148.345 267.398 148.534 267.119 148.722 266.839C148.911 266.56 149.1 266.28 149.383 265.907C149.855 265.255 150.138 264.602 150.232 263.95C150.421 263.391 150.421 262.738 150.232 262.272C150.138 261.9 149.949 261.434 149.666 261.154C149.383 260.781 149.005 260.502 148.534 260.222C148.062 259.942 147.59 259.756 147.118 259.663C146.646 259.57 146.174 259.663 145.797 259.756C145.42 259.849 145.042 260.036 144.665 260.315C144.287 260.595 144.004 260.968 143.721 261.34C143.627 261.434 143.532 261.62 143.532 261.713C143.438 261.806 143.438 261.993 143.344 262.086L141.362 260.874L143.249 257.892L141.645 256.96L138.814 261.806ZM144.948 263.018C145.042 262.832 145.042 262.738 145.136 262.552C145.231 262.366 145.42 262.179 145.608 262.086C145.797 261.993 145.986 261.9 146.174 261.9C146.363 261.9 146.646 261.9 146.835 261.9C147.024 261.993 147.307 262.086 147.496 262.179C147.684 262.272 147.873 262.459 148.062 262.645C148.251 262.832 148.345 263.018 148.345 263.204C148.439 263.391 148.439 263.577 148.439 263.857C148.439 264.043 148.345 264.323 148.156 264.509C148.062 264.602 148.062 264.696 148.062 264.696C148.062 264.789 147.967 264.789 147.873 264.882L144.948 263.018ZM144.382 253.605L152.686 260.781L154.101 259.104L150.61 256.121L152.12 254.444L155.611 257.426L157.027 255.748L148.722 248.572L147.307 250.25L150.61 253.139L149.1 254.816L145.797 251.927L144.382 253.605ZM151.931 245.59L158.725 254.164C158.914 254.071 159.197 253.884 159.48 253.698C159.763 253.512 160.046 253.325 160.329 253.139C160.99 252.673 161.462 252.114 161.839 251.648C162.217 251.088 162.405 250.622 162.5 250.063C162.5 249.69 162.5 249.224 162.405 248.758C162.311 248.292 162.028 247.92 161.65 247.454C161.367 247.081 160.99 246.801 160.612 246.522C160.235 246.335 159.858 246.149 159.386 246.149C159.008 246.149 158.536 246.149 158.159 246.335C157.687 246.428 157.31 246.708 156.932 246.988C156.838 247.081 156.743 247.174 156.649 247.267C156.555 247.36 156.46 247.454 156.366 247.547L153.818 244.285L151.931 245.59ZM157.215 248.852C157.215 248.758 157.31 248.758 157.404 248.665C157.498 248.572 157.498 248.572 157.593 248.479C157.876 248.292 158.065 248.199 158.348 248.199C158.631 248.199 158.914 248.199 159.103 248.386C159.386 248.479 159.574 248.758 159.858 249.038C160.046 249.318 160.235 249.597 160.235 249.877C160.329 250.156 160.329 250.436 160.235 250.716C160.141 250.995 159.952 251.182 159.763 251.368C159.763 251.368 159.669 251.461 159.574 251.461C159.48 251.461 159.48 251.554 159.386 251.554L157.215 248.852ZM157.593 241.209L164.387 249.784L166.086 248.479L159.291 239.904L157.593 241.209ZM163.16 237.668L168.162 247.36L169.955 246.428L169.483 242.048C169.483 241.675 169.388 241.396 169.388 240.93C169.388 240.557 169.294 240.184 169.2 239.718C169.105 239.345 169.105 238.972 169.011 238.6C169.2 239.066 169.483 239.718 169.86 240.464C170.238 241.209 170.615 242.048 171.181 243.073L172.314 245.217L174.012 244.378L169.011 234.685L167.218 235.617L167.69 240.091C167.69 240.277 167.69 240.557 167.784 240.836C167.784 241.116 167.879 241.396 167.879 241.768C167.879 242.048 167.973 242.421 167.973 242.7C167.973 242.98 168.067 243.26 168.067 243.539C167.879 243.166 167.784 242.794 167.501 242.328C167.312 241.862 167.029 241.302 166.746 240.743C166.463 240.184 166.18 239.625 165.897 238.972L164.859 236.829L163.16 237.668ZM163.16 235.151C163.349 235.524 163.632 235.804 163.915 235.99C164.198 236.176 164.481 236.176 164.859 236.176C165.142 236.176 165.519 236.083 165.897 235.897C166.274 235.71 166.557 235.524 166.746 235.244C166.935 234.965 167.124 234.685 167.124 234.406C167.124 234.033 167.124 233.66 166.935 233.287L165.708 233.94C165.803 234.126 165.897 234.312 165.803 234.592C165.803 234.778 165.614 234.965 165.425 235.058C165.236 235.151 165.142 235.151 165.048 235.151C164.953 235.151 164.765 235.058 164.67 234.965C164.576 234.872 164.481 234.685 164.387 234.592L163.16 235.151ZM175.805 232.076L178.825 242.607L184.298 241.023L185.053 243.26L186.657 242.794L185.619 238.786L184.676 238.972L182.128 230.212L180.052 230.864L182.6 239.532L180.429 240.184L177.881 231.516L175.805 232.076ZM191.564 233.474L189.017 233.846L188.639 231.33L191.281 230.957L190.998 229.093L186.091 229.746L187.601 240.557L192.697 239.811L192.414 237.947L189.488 238.32L189.205 235.524L191.753 235.151L191.564 233.474ZM194.395 229V239.904H196.566V235.338H198.831V239.904H201.001V229H198.831V233.38H196.566V229H194.395ZM204.493 240.557L206.663 240.93L208.078 232.076L210.154 232.355L210.438 230.398L204.304 229.466L204.021 231.423L206.002 231.703L204.493 240.557ZM210.154 241.489L212.231 242.234L213.552 238.413C213.646 238.413 213.646 238.413 213.74 238.506C213.835 238.506 213.835 238.6 213.929 238.6C214.212 238.693 214.495 238.786 214.873 238.786C215.25 238.786 215.533 238.786 215.911 238.786C216.288 238.786 216.571 238.6 216.854 238.506C217.232 238.32 217.609 238.04 217.892 237.668C218.176 237.295 218.459 236.829 218.647 236.27C218.742 235.99 218.836 235.71 218.836 235.338C218.836 235.058 218.836 234.778 218.836 234.499C218.742 234.219 218.647 233.94 218.553 233.66C218.364 233.38 218.176 233.101 217.892 232.914C217.704 232.728 217.421 232.542 217.043 232.355C216.666 232.169 216.288 232.076 215.911 231.889C215.533 231.796 215.156 231.61 214.684 231.516C214.307 231.423 213.929 231.33 213.646 231.33L210.154 241.489ZM215.25 233.567C215.345 233.567 215.439 233.567 215.533 233.567C215.628 233.567 215.722 233.567 215.816 233.66C216.1 233.753 216.383 233.94 216.477 234.126C216.666 234.312 216.666 234.592 216.76 234.872C216.76 235.151 216.76 235.431 216.571 235.71C216.477 235.99 216.288 236.27 216.1 236.549C215.911 236.736 215.628 236.922 215.345 237.015C215.061 237.108 214.778 237.015 214.401 236.922C214.307 236.922 214.307 236.922 214.212 236.829C214.118 236.829 214.118 236.829 214.023 236.736L215.25 233.567ZM225.63 235.897L220.252 245.403L222.139 246.428L226.574 238.506L228.556 239.625L224.121 247.547L226.008 248.572L231.387 239.066L225.63 235.897ZM227.895 249.877L229.594 251.182L232.142 248.013C232.236 248.013 232.236 248.106 232.33 248.106C232.425 248.106 232.425 248.199 232.519 248.199C232.802 248.386 232.991 248.572 233.368 248.665C233.652 248.852 234.029 248.945 234.312 248.945C234.69 249.038 234.973 249.038 235.35 248.945C235.728 248.852 236.199 248.758 236.577 248.479C236.954 248.199 237.332 247.92 237.709 247.454C237.898 247.174 238.087 246.988 238.181 246.708C238.275 246.428 238.37 246.149 238.464 245.869C238.464 245.59 238.464 245.31 238.464 245.03C238.37 244.751 238.275 244.378 238.087 244.098C237.898 243.819 237.709 243.539 237.426 243.26C237.143 242.98 236.86 242.7 236.483 242.421C236.105 242.141 235.822 241.955 235.444 241.675C235.067 241.489 234.784 241.302 234.501 241.116L227.895 249.877ZM235.35 244.005C235.444 244.005 235.539 244.098 235.539 244.098C235.633 244.098 235.728 244.192 235.822 244.285C236.105 244.471 236.294 244.751 236.294 244.937C236.388 245.217 236.388 245.403 236.294 245.683C236.199 245.962 236.105 246.242 235.822 246.428C235.633 246.708 235.35 246.894 235.161 247.081C234.878 247.267 234.595 247.267 234.312 247.267C234.029 247.267 233.746 247.081 233.463 246.894C233.368 246.894 233.368 246.801 233.274 246.801L233.18 246.708L235.35 244.005ZM244.315 249.411C243.937 249.038 243.56 248.852 243.182 248.665C242.805 248.479 242.333 248.479 241.861 248.479C241.39 248.479 240.918 248.572 240.446 248.758C239.974 248.945 239.502 249.224 239.03 249.504C238.559 249.784 238.087 250.156 237.709 250.622C237.237 250.995 236.86 251.461 236.577 251.927C236.199 252.393 235.916 252.859 235.728 253.232C235.539 253.698 235.35 254.164 235.35 254.537C235.256 255.003 235.35 255.376 235.444 255.842C235.539 256.214 235.822 256.68 236.199 257.053C236.577 257.426 236.954 257.706 237.426 257.892C237.898 258.078 238.37 258.078 238.936 257.985C239.502 257.892 240.068 257.612 240.729 257.24C241.39 256.867 242.05 256.308 242.805 255.562C243.182 255.189 243.56 254.816 243.843 254.444C244.126 254.071 244.409 253.605 244.692 253.232C244.881 252.766 245.07 252.393 245.164 251.927C245.259 251.461 245.259 251.088 245.07 250.622C244.881 250.25 244.692 249.784 244.315 249.411ZM242.899 250.622C243.088 250.809 243.182 250.995 243.088 251.275C243.088 251.554 242.994 251.834 242.805 252.114C242.616 252.393 242.428 252.766 242.144 253.046C241.861 253.418 241.578 253.698 241.201 254.071C240.823 254.444 240.446 254.816 240.068 255.096C239.691 255.376 239.313 255.655 239.03 255.748C238.747 255.935 238.464 256.028 238.181 256.028C237.898 256.028 237.709 255.935 237.521 255.842C237.237 255.562 237.237 255.096 237.521 254.444C237.804 253.884 238.37 253.139 239.313 252.207C239.88 251.648 240.446 251.275 240.918 250.902C241.39 250.622 241.767 250.436 242.144 250.343C242.428 250.343 242.711 250.436 242.899 250.622ZM248.656 254.723L239.597 260.968L240.823 262.738L248.373 257.519L250.071 259.942L251.581 258.917L248.656 254.723ZM243.277 266.466L244.315 268.33L247.901 266.373C247.901 266.466 247.995 266.466 247.995 266.56C247.995 266.653 248.09 266.653 248.09 266.746C248.278 267.026 248.467 267.305 248.656 267.492C248.844 267.771 249.128 267.958 249.411 268.144C249.694 268.33 249.977 268.517 250.354 268.61C250.732 268.703 251.204 268.703 251.675 268.703C252.147 268.61 252.619 268.424 253.185 268.144C253.468 267.958 253.751 267.864 253.94 267.585C254.129 267.398 254.318 267.119 254.506 266.932C254.695 266.653 254.789 266.466 254.789 266.094C254.884 265.814 254.884 265.441 254.884 265.162C254.884 264.789 254.789 264.509 254.601 264.136C254.506 263.764 254.318 263.391 254.035 263.018C253.846 262.645 253.657 262.272 253.374 261.993C253.185 261.713 252.902 261.34 252.713 261.154L243.277 266.466ZM252.43 263.95C252.525 263.95 252.525 264.043 252.619 264.136C252.713 264.23 252.713 264.323 252.808 264.416C252.997 264.696 252.997 264.975 252.997 265.255C252.997 265.534 252.902 265.721 252.713 265.907C252.525 266.094 252.336 266.28 252.053 266.466C251.77 266.653 251.487 266.746 251.204 266.746C250.92 266.746 250.637 266.746 250.354 266.56C250.071 266.466 249.882 266.187 249.694 265.907C249.694 265.814 249.599 265.814 249.599 265.721C249.599 265.628 249.599 265.628 249.505 265.534L252.43 263.95ZM254.884 275.32L253.94 272.99L256.299 272.058L257.337 274.575L259.036 273.922L257.149 269.449L246.863 273.55L248.75 278.21L250.449 277.557L249.316 274.854L252.053 273.736L252.997 276.066L254.884 275.32ZM252.43 284.268C252.336 284.174 252.242 283.988 252.242 283.802C252.147 283.615 252.147 283.429 252.053 283.242C251.958 282.776 251.958 282.404 252.147 282.031C252.336 281.658 252.619 281.285 253.091 280.912C253.563 280.54 254.223 280.353 255.073 280.074C255.733 279.887 256.299 279.794 256.771 279.887C257.243 279.887 257.715 279.98 257.998 280.074C258.375 280.26 258.658 280.446 258.847 280.633C259.036 280.912 259.225 281.099 259.225 281.472C259.319 281.658 259.319 281.938 259.319 282.031C259.319 282.217 259.319 282.31 259.319 282.497L261.112 282.404C261.112 282.31 261.206 282.124 261.206 281.844C261.206 281.565 261.112 281.285 261.018 280.912C260.923 280.446 260.735 280.074 260.546 279.701C260.263 279.328 259.98 278.955 259.602 278.676C259.225 278.396 258.753 278.116 258.281 277.93C257.809 277.744 257.149 277.65 256.488 277.65C255.827 277.65 255.073 277.744 254.318 277.93C253.563 278.116 252.902 278.396 252.242 278.676C251.675 278.955 251.109 279.421 250.732 279.887C250.354 280.353 250.071 280.819 249.977 281.472C249.882 282.031 249.882 282.683 250.071 283.336C250.166 283.708 250.26 283.988 250.354 284.268C250.449 284.547 250.543 284.734 250.732 284.92L252.43 284.268ZM253.563 291.164C253.468 291.071 253.468 290.885 253.374 290.698C253.28 290.512 253.28 290.326 253.28 290.139C253.185 289.673 253.28 289.3 253.468 288.928C253.657 288.555 254.035 288.182 254.506 287.902C254.978 287.623 255.733 287.436 256.582 287.343C257.243 287.25 257.809 287.25 258.375 287.25C258.847 287.343 259.319 287.436 259.602 287.623C259.885 287.809 260.168 287.996 260.357 288.275C260.546 288.555 260.64 288.834 260.64 289.114C260.64 289.394 260.64 289.58 260.64 289.673C260.64 289.86 260.546 289.953 260.546 290.139L262.339 290.232C262.433 290.139 262.433 289.953 262.433 289.673C262.433 289.394 262.433 289.114 262.433 288.741C262.339 288.275 262.244 287.902 262.056 287.436C261.867 287.064 261.584 286.691 261.206 286.318C260.829 285.945 260.451 285.666 259.98 285.479C259.508 285.293 258.942 285.106 258.281 285.013C257.62 284.92 256.866 284.92 256.016 285.013C255.261 285.106 254.506 285.293 253.94 285.572C253.28 285.852 252.808 286.132 252.336 286.598C251.864 286.97 251.581 287.53 251.392 288.089C251.204 288.648 251.109 289.3 251.204 289.953C251.298 290.326 251.298 290.698 251.392 290.978C251.487 291.258 251.581 291.444 251.675 291.63L253.563 291.164Z" fill="#17429A"/>
<path d="M136.266 308.314L135.889 305.797L138.437 305.425L138.908 308.034L140.796 307.755L140.041 303.001L129 304.679L129.755 309.712L131.642 309.432L131.17 306.543L134.096 306.077L134.473 308.593L136.266 308.314ZM130.415 312.042C130.415 312.228 130.51 312.321 130.51 312.508C130.51 312.694 130.604 312.881 130.604 313.067C130.604 313.253 130.699 313.533 130.793 313.719C130.982 314.465 131.265 315.117 131.548 315.583C131.831 316.049 132.208 316.422 132.68 316.702C133.246 317.075 133.907 317.261 134.756 317.354C135.606 317.541 136.549 317.447 137.682 317.168C138.72 316.888 139.569 316.515 140.23 316.143C140.89 315.677 141.362 315.211 141.645 314.651C141.834 314.185 142.022 313.719 142.022 313.253C142.022 312.694 141.928 312.135 141.739 311.483C141.645 311.11 141.456 310.644 141.362 310.364C141.268 309.991 141.079 309.712 140.984 309.432L130.415 312.042ZM139.946 311.762C139.946 311.855 140.041 311.855 140.041 311.949C140.041 312.042 140.041 312.042 140.135 312.135C140.23 312.601 140.23 312.974 139.946 313.253C139.758 313.626 139.38 313.906 138.908 314.185C138.437 314.558 137.87 314.745 137.115 314.931C136.361 315.117 135.794 315.211 135.228 315.304C134.662 315.304 134.284 315.304 133.907 315.211C133.53 315.117 133.246 314.931 133.058 314.745C132.869 314.558 132.775 314.372 132.68 314.092C132.68 313.999 132.68 313.999 132.586 313.906C132.586 313.813 132.586 313.813 132.586 313.719L139.946 311.762ZM143.438 316.609L137.115 319.218C136.266 319.591 135.606 319.964 135.039 320.43C134.568 320.896 134.19 321.362 134.096 321.921C134.001 322.48 134.096 323.133 134.379 323.878C134.662 324.531 135.039 324.997 135.511 325.369C135.983 325.649 136.644 325.835 137.304 325.835C137.965 325.835 138.814 325.649 139.663 325.276L145.891 322.667L145.042 320.709L138.437 323.505C138.059 323.692 137.682 323.785 137.493 323.785C137.21 323.878 137.021 323.878 136.832 323.878C136.644 323.878 136.549 323.785 136.361 323.692C136.266 323.599 136.172 323.505 136.077 323.319C135.983 323.133 135.983 322.946 136.077 322.76C136.172 322.573 136.266 322.387 136.549 322.107C136.832 321.921 137.21 321.735 137.682 321.455L144.287 318.659L143.438 316.609ZM141.645 332.639C141.551 332.546 141.456 332.453 141.268 332.266C141.173 332.08 140.984 331.987 140.89 331.8C140.607 331.427 140.513 331.055 140.513 330.589C140.513 330.123 140.701 329.75 141.079 329.284C141.456 328.818 141.928 328.352 142.683 327.886C143.249 327.513 143.815 327.233 144.287 327.14C144.759 326.954 145.231 326.954 145.514 326.954C145.891 326.954 146.175 327.047 146.458 327.233C146.741 327.42 146.929 327.606 147.118 327.886C147.213 328.072 147.307 328.259 147.401 328.445C147.496 328.631 147.496 328.725 147.496 328.911L149.194 328.259C149.194 328.165 149.194 327.979 149.1 327.699C149.006 327.42 148.911 327.14 148.628 326.861C148.439 326.488 148.062 326.115 147.779 325.835C147.401 325.556 147.024 325.276 146.552 325.09C146.08 324.903 145.608 324.81 145.042 324.81C144.476 324.81 143.91 324.903 143.249 325.09C142.589 325.276 141.928 325.556 141.268 326.022C140.607 326.395 140.041 326.861 139.569 327.42C139.097 327.886 138.72 328.445 138.531 329.004C138.342 329.563 138.248 330.123 138.248 330.682C138.342 331.241 138.531 331.893 138.908 332.453C139.097 332.732 139.286 333.012 139.475 333.291C139.663 333.478 139.852 333.664 140.041 333.757L141.645 332.639ZM145.797 337.392L144.099 339.256L145.42 340.934L152.969 332.639L151.365 330.589L141.079 335.249L142.4 336.926L144.759 335.808L145.797 337.392ZM146.08 334.969L148.156 333.944C148.345 333.851 148.439 333.757 148.628 333.664C148.817 333.571 149.006 333.478 149.194 333.385C149.383 333.291 149.572 333.198 149.76 333.105C149.949 333.012 150.138 332.919 150.327 332.825C150.232 332.919 150.044 333.105 149.855 333.291C149.666 333.478 149.572 333.571 149.383 333.757C149.194 333.944 149.1 334.037 148.911 334.223C148.722 334.41 148.628 334.503 148.534 334.596L146.929 336.274L146.08 334.969ZM147.873 343.45L149.383 344.941L155.8 338.604L157.215 340.002L158.631 338.604L154.196 334.223L152.78 335.621L154.196 337.019L147.873 343.45ZM159.48 339.256L152.497 347.738L154.196 349.135L161.179 340.654L159.48 339.256ZM165.52 343.637C165.142 343.357 164.67 343.171 164.198 343.171C163.727 343.077 163.349 343.171 162.877 343.264C162.405 343.357 162.028 343.543 161.556 343.823C161.084 344.103 160.707 344.475 160.329 344.848C159.952 345.221 159.575 345.687 159.197 346.153C158.82 346.619 158.536 347.178 158.348 347.644C158.065 348.11 157.876 348.669 157.782 349.135C157.687 349.601 157.593 350.067 157.687 350.533C157.687 351 157.876 351.372 158.065 351.745C158.253 352.118 158.631 352.491 159.008 352.77C159.48 353.05 159.952 353.236 160.424 353.33C160.896 353.423 161.462 353.33 161.934 353.143C162.5 352.957 162.972 352.584 163.538 352.118C164.104 351.652 164.67 350.906 165.236 350.067C165.52 349.695 165.803 349.229 165.991 348.763C166.18 348.297 166.369 347.831 166.558 347.365C166.652 346.899 166.746 346.433 166.746 345.967C166.746 345.501 166.652 345.128 166.369 344.662C166.274 344.289 165.991 343.916 165.52 343.637ZM164.387 345.128C164.576 345.221 164.67 345.501 164.765 345.687C164.765 345.967 164.765 346.246 164.67 346.619C164.576 346.992 164.387 347.272 164.198 347.738C164.01 348.11 163.727 348.483 163.443 348.949C163.16 349.415 162.783 349.788 162.5 350.161C162.217 350.534 161.934 350.813 161.651 351C161.367 351.186 161.084 351.372 160.896 351.466C160.613 351.559 160.424 351.466 160.235 351.372C159.858 351.093 159.763 350.72 159.952 350.067C160.141 349.415 160.518 348.576 161.273 347.551C161.745 346.899 162.122 346.339 162.5 345.967C162.877 345.594 163.255 345.314 163.632 345.128C163.915 344.941 164.198 344.941 164.387 345.128ZM165.897 356.778L166.935 354.541C167.407 353.516 167.784 352.677 168.162 351.932C168.539 351.186 168.728 350.534 169.011 349.974C168.917 350.254 168.917 350.534 168.917 350.813C168.917 351.093 168.822 351.372 168.822 351.745C168.822 352.025 168.728 352.398 168.728 352.677C168.728 352.957 168.728 353.236 168.634 353.516L168.445 357.99L170.238 358.828L174.862 348.949L173.069 348.11L172.031 350.254C171.748 350.906 171.465 351.466 171.276 352.025C170.993 352.584 170.804 353.143 170.615 353.609C170.427 354.075 170.238 354.541 170.143 354.914C170.143 354.634 170.238 354.355 170.238 354.075C170.238 353.796 170.332 353.516 170.332 353.143C170.332 352.864 170.332 352.584 170.427 352.211C170.427 351.932 170.427 351.652 170.521 351.466L170.804 346.899L169.011 346.06L164.293 355.939L165.897 356.778ZM182.222 360.506C182.034 360.506 181.939 360.506 181.75 360.506C181.562 360.506 181.373 360.413 181.184 360.413C180.712 360.32 180.429 360.04 180.146 359.76C179.863 359.388 179.769 359.015 179.674 358.362C179.674 357.803 179.769 357.058 179.958 356.219C180.146 355.566 180.429 355.007 180.618 354.634C180.901 354.168 181.184 353.889 181.467 353.702C181.75 353.516 182.034 353.33 182.411 353.33C182.694 353.236 183.072 353.33 183.355 353.423C183.543 353.516 183.732 353.609 183.921 353.609C184.11 353.702 184.204 353.796 184.298 353.889L185.148 352.304C185.053 352.211 184.865 352.118 184.676 351.932C184.487 351.838 184.11 351.652 183.732 351.559C183.355 351.466 182.883 351.372 182.411 351.372C181.939 351.372 181.467 351.466 181.09 351.652C180.618 351.838 180.241 352.025 179.769 352.398C179.391 352.77 178.919 353.143 178.636 353.702C178.259 354.262 177.976 354.914 177.787 355.753C177.598 356.498 177.41 357.244 177.41 357.896C177.41 358.549 177.504 359.201 177.693 359.76C177.881 360.32 178.165 360.786 178.636 361.252C179.108 361.624 179.674 361.997 180.335 362.184C180.712 362.277 180.996 362.37 181.373 362.37C181.656 362.37 181.939 362.463 182.128 362.37L182.222 360.506ZM189.866 356.964L187.318 356.592L187.695 354.075L190.432 354.448L190.715 352.584L185.808 351.932L184.298 362.743L189.394 363.488L189.677 361.624L186.752 361.252L187.129 358.362L189.677 358.735L189.866 356.964ZM193.641 363.768L193.735 361.345C193.735 360.226 193.829 359.294 193.829 358.456C193.829 357.617 193.829 356.964 193.829 356.405C193.924 356.685 193.924 356.964 194.018 357.244C194.112 357.524 194.207 357.803 194.301 358.083C194.395 358.362 194.49 358.642 194.584 358.922C194.679 359.201 194.773 359.481 194.867 359.667L196.472 363.861L198.453 363.954L198.831 352.957L196.943 352.864L196.849 355.287C196.849 355.939 196.849 356.592 196.849 357.244C196.849 357.896 196.849 358.456 196.849 359.015C196.849 359.574 196.849 360.04 196.849 360.413C196.755 360.133 196.66 359.947 196.566 359.667C196.472 359.388 196.377 359.108 196.283 358.828C196.188 358.549 196.094 358.269 196 357.99C195.905 357.71 195.811 357.524 195.717 357.244L194.112 352.957L192.131 352.864L191.753 363.768H193.641ZM202.7 363.488L204.87 363.209L203.643 354.355L205.625 354.075L205.342 352.118L199.208 352.957L199.491 354.914L201.473 354.634L202.7 363.488ZM212.042 355.1L209.494 355.753L208.833 353.33L211.476 352.677L211.004 350.906L206.191 352.118L208.833 362.743L213.929 361.345L213.457 359.574L210.626 360.226L209.871 357.337L212.419 356.685L212.042 355.1ZM216.477 360.599L218.553 359.854L217.138 355.753L217.421 355.66C217.609 355.566 217.893 355.566 218.081 355.566C218.27 355.566 218.459 355.753 218.647 355.939C218.836 356.126 219.025 356.405 219.214 356.871C219.402 357.244 219.591 357.617 219.78 357.896C219.969 358.176 220.157 358.456 220.252 358.735C220.44 358.922 220.535 359.108 220.629 359.201L222.8 358.456C222.705 358.362 222.611 358.269 222.516 358.083C222.422 357.896 222.233 357.71 222.139 357.43C221.95 357.151 221.856 356.964 221.667 356.685C221.478 356.405 221.384 356.126 221.195 355.846C220.912 355.287 220.629 354.914 220.252 354.634C219.969 354.355 219.591 354.262 219.119 354.168C219.402 353.889 219.685 353.516 219.78 353.236C219.969 352.864 219.969 352.491 220.063 352.118C220.063 351.745 219.969 351.372 219.874 351C219.78 350.72 219.685 350.44 219.497 350.161C219.402 349.881 219.214 349.695 219.025 349.508C218.836 349.322 218.553 349.229 218.27 349.042C217.987 348.949 217.609 348.856 217.326 348.856C216.949 348.856 216.666 348.856 216.288 348.949C215.911 349.042 215.533 349.136 215.156 349.229C214.778 349.322 214.401 349.508 214.024 349.695C213.646 349.881 213.269 350.068 212.986 350.254L216.477 360.599ZM215.533 351.093C215.628 351.093 215.628 351 215.722 351C215.816 351 215.911 350.906 216.005 350.906C216.288 350.813 216.571 350.813 216.855 350.906C217.138 351 217.326 351.093 217.421 351.279C217.609 351.466 217.704 351.745 217.798 352.025C217.893 352.304 217.987 352.584 217.893 352.864C217.893 353.143 217.798 353.423 217.609 353.609C217.421 353.796 217.232 353.982 216.949 354.075L216.571 354.168L215.533 351.093ZM228.084 355.66L229.971 354.541L227.895 351.093C227.99 351.093 227.99 351 228.084 351C228.178 351 228.178 350.906 228.273 350.906C228.556 350.72 228.745 350.534 229.028 350.347C229.311 350.161 229.5 349.881 229.688 349.601C229.877 349.322 229.971 349.042 230.066 348.669C230.16 348.297 230.16 347.831 230.066 347.365C229.971 346.899 229.783 346.433 229.5 345.967C229.311 345.687 229.122 345.501 228.933 345.221C228.745 345.035 228.461 344.848 228.273 344.662C227.99 344.475 227.707 344.382 227.423 344.382C227.14 344.289 226.763 344.289 226.48 344.382C226.102 344.475 225.819 344.569 225.442 344.662C225.064 344.848 224.781 345.035 224.404 345.221C224.026 345.407 223.743 345.687 223.366 345.873C223.083 346.153 222.8 346.339 222.516 346.526L228.084 355.66ZM225.159 346.712C225.159 346.619 225.253 346.619 225.347 346.526C225.442 346.433 225.536 346.433 225.631 346.339C225.914 346.153 226.197 346.06 226.48 346.153C226.763 346.153 226.952 346.246 227.235 346.433C227.423 346.619 227.612 346.805 227.801 347.085C227.99 347.365 228.084 347.644 228.178 347.924C228.178 348.203 228.178 348.483 228.084 348.763C227.99 349.042 227.707 349.229 227.423 349.415C227.329 349.415 227.329 349.508 227.235 349.508C227.14 349.508 227.14 349.601 227.046 349.601L225.159 346.712ZM235.539 351.186L237.238 349.788L234.501 346.433L234.784 346.246C234.973 346.06 235.161 345.967 235.35 345.967C235.539 345.967 235.728 345.967 236.011 346.153C236.294 346.246 236.577 346.526 236.86 346.805C237.143 347.085 237.426 347.365 237.709 347.551C237.992 347.831 238.276 348.017 238.464 348.11C238.653 348.297 238.842 348.39 238.936 348.39L240.729 346.992C240.635 346.899 240.446 346.899 240.257 346.712C240.068 346.619 239.88 346.433 239.691 346.246C239.502 346.06 239.219 345.873 239.03 345.687C238.747 345.501 238.559 345.314 238.276 345.128C237.804 344.755 237.426 344.475 237.049 344.289C236.671 344.103 236.294 344.103 235.916 344.289C236.105 343.916 236.199 343.543 236.199 343.171C236.199 342.798 236.199 342.425 236.011 342.052C235.916 341.679 235.728 341.4 235.445 341.027C235.256 340.747 235.067 340.561 234.784 340.375C234.595 340.188 234.312 340.095 234.123 340.002C233.84 339.909 233.557 339.815 233.274 339.815C232.991 339.815 232.614 339.815 232.33 339.909C232.047 340.002 231.67 340.188 231.387 340.375C231.104 340.561 230.726 340.747 230.443 341.027C230.16 341.307 229.783 341.586 229.5 341.866C229.216 342.145 228.933 342.425 228.745 342.705L235.539 351.186ZM231.387 342.611C231.387 342.518 231.481 342.518 231.576 342.425C231.67 342.332 231.67 342.332 231.764 342.239C232.047 342.052 232.236 341.959 232.519 341.959C232.802 341.959 232.991 341.959 233.18 342.145C233.369 342.239 233.652 342.425 233.84 342.705C234.029 342.984 234.218 343.171 234.218 343.45C234.312 343.73 234.312 344.009 234.218 344.196C234.123 344.475 233.935 344.662 233.746 344.848L233.463 345.128L231.387 342.611ZM236.294 335.808C235.916 336.181 235.728 336.553 235.633 337.019C235.539 337.392 235.445 337.858 235.539 338.324C235.633 338.79 235.728 339.256 235.916 339.722C236.105 340.188 236.388 340.654 236.766 341.12C237.143 341.586 237.521 341.959 237.898 342.425C238.37 342.798 238.842 343.171 239.314 343.543C239.785 343.823 240.257 344.103 240.729 344.289C241.201 344.475 241.673 344.569 242.145 344.662C242.616 344.662 242.994 344.662 243.466 344.475C243.843 344.289 244.221 344.103 244.598 343.73C244.976 343.357 245.259 342.891 245.353 342.425C245.542 341.959 245.542 341.4 245.353 340.934C245.259 340.375 244.976 339.815 244.504 339.163C244.126 338.511 243.466 337.858 242.711 337.206C242.333 336.833 241.956 336.553 241.484 336.274C241.107 335.994 240.635 335.715 240.163 335.528C239.691 335.342 239.219 335.249 238.842 335.155C238.37 335.062 237.992 335.155 237.521 335.249C237.049 335.155 236.671 335.342 236.294 335.808ZM237.615 337.113C237.804 336.926 237.992 336.833 238.276 336.833C238.559 336.833 238.842 336.926 239.125 337.113C239.408 337.299 239.785 337.485 240.163 337.765C240.54 338.045 240.823 338.324 241.201 338.697C241.578 339.07 241.956 339.443 242.333 339.815C242.616 340.188 242.899 340.468 243.088 340.841C243.277 341.12 243.371 341.4 243.371 341.679C243.371 341.959 243.371 342.145 243.183 342.332C242.899 342.611 242.428 342.705 241.767 342.425C241.107 342.145 240.352 341.586 239.408 340.747C238.842 340.188 238.37 339.722 237.992 339.256C237.615 338.79 237.426 338.417 237.332 338.045C237.332 337.579 237.426 337.299 237.615 337.113ZM247.335 330.309L245.542 332.732L246.957 333.757L247.523 332.919L249.694 334.503C249.694 334.503 249.694 334.596 249.599 334.689C249.599 334.783 249.505 334.783 249.411 334.876C249.222 335.062 249.033 335.249 248.844 335.342C248.561 335.435 248.278 335.528 247.995 335.528C247.618 335.528 247.24 335.435 246.863 335.249C246.391 335.062 245.919 334.783 245.447 334.41C244.881 333.944 244.409 333.571 244.126 333.198C243.843 332.825 243.654 332.453 243.56 332.08C243.466 331.707 243.466 331.334 243.56 331.055C243.654 330.682 243.843 330.402 244.032 330.123C244.221 329.936 244.315 329.75 244.504 329.563C244.692 329.377 244.787 329.284 244.976 329.191L243.749 327.793C243.56 327.886 243.371 328.072 243.088 328.259C242.805 328.445 242.616 328.725 242.333 329.097C242.05 329.47 241.861 329.843 241.673 330.309C241.484 330.775 241.39 331.241 241.39 331.707C241.39 332.173 241.484 332.732 241.673 333.198C241.861 333.664 242.145 334.223 242.522 334.689C242.899 335.155 243.466 335.715 244.032 336.181C244.504 336.553 245.07 336.926 245.542 337.113C246.014 337.392 246.58 337.579 247.052 337.672C247.523 337.765 247.995 337.765 248.467 337.672C249.033 337.579 249.505 337.392 249.883 337.113C250.354 336.833 250.732 336.46 251.109 335.901C251.204 335.715 251.392 335.528 251.487 335.342C251.581 335.155 251.675 334.969 251.77 334.783C251.864 334.596 251.959 334.41 252.053 334.223C252.147 334.037 252.147 333.944 252.242 333.757L247.335 330.309ZM253.752 331.707L254.79 329.843L250.921 327.699L251.109 327.42C251.204 327.233 251.392 327.047 251.581 326.954C251.77 326.861 251.959 326.861 252.242 326.861C252.525 326.861 252.902 326.954 253.28 327.14C253.657 327.327 254.035 327.42 254.412 327.513C254.79 327.606 255.073 327.699 255.356 327.793C255.639 327.886 255.828 327.886 255.922 327.886L257.054 325.929C256.96 325.929 256.771 325.929 256.582 325.835C256.394 325.742 256.111 325.742 255.828 325.649C255.544 325.556 255.261 325.463 254.978 325.369C254.695 325.276 254.412 325.183 254.035 325.09C253.468 324.903 252.997 324.81 252.525 324.81C252.147 324.81 251.77 324.997 251.392 325.183C251.392 324.81 251.392 324.344 251.298 324.065C251.204 323.692 251.015 323.412 250.732 323.133C250.449 322.853 250.166 322.573 249.883 322.387C249.599 322.201 249.316 322.107 249.033 322.014C248.75 321.921 248.467 321.921 248.278 321.921C247.995 321.921 247.712 322.014 247.429 322.107C247.146 322.201 246.863 322.387 246.58 322.573C246.297 322.76 246.108 323.039 245.825 323.319C245.636 323.599 245.447 323.971 245.164 324.251C244.976 324.624 244.787 324.997 244.598 325.369C244.409 325.742 244.315 326.115 244.221 326.395L253.752 331.707ZM246.58 325.276C246.58 325.183 246.58 325.09 246.674 325.09C246.674 324.997 246.768 324.903 246.768 324.81C246.957 324.531 247.146 324.344 247.335 324.251C247.523 324.158 247.806 324.065 248.09 324.158C248.373 324.158 248.656 324.251 248.844 324.437C249.128 324.624 249.316 324.81 249.505 324.997C249.694 325.183 249.788 325.463 249.788 325.742C249.788 326.022 249.788 326.301 249.599 326.581L249.411 326.954L246.58 325.276ZM253.28 317.075L252.336 319.498L249.977 318.566L250.921 316.049L249.222 315.397L247.429 319.964L257.715 323.878L259.508 319.125L257.809 318.473L256.771 321.175L253.94 320.15L254.884 317.727L253.28 317.075ZM259.98 317.168C260.074 317.075 260.168 316.888 260.357 316.702C260.451 316.515 260.64 316.236 260.735 316.049C260.829 315.77 260.923 315.49 261.018 315.211C261.112 314.651 261.206 314.185 261.206 313.719C261.206 313.253 261.018 312.787 260.829 312.415C260.64 312.042 260.357 311.669 259.98 311.389C259.602 311.11 259.225 310.923 258.753 310.737C258.375 310.644 257.998 310.644 257.621 310.644C257.243 310.644 256.866 310.83 256.394 311.017C256.016 311.203 255.544 311.483 255.167 311.949C254.79 312.228 254.506 312.508 254.318 312.694C254.129 312.881 253.846 312.974 253.657 312.974C253.468 312.974 253.28 312.974 253.091 312.974C252.902 312.881 252.713 312.787 252.619 312.694C252.525 312.508 252.336 312.415 252.336 312.135C252.242 311.949 252.336 311.669 252.336 311.389C252.43 311.11 252.525 310.83 252.619 310.644C252.713 310.457 252.902 310.271 252.997 310.178L251.298 309.339C251.204 309.432 251.109 309.525 251.015 309.712C250.921 309.898 250.826 310.085 250.732 310.271C250.637 310.457 250.543 310.737 250.449 310.923C250.26 311.483 250.26 312.042 250.26 312.508C250.354 312.974 250.449 313.347 250.637 313.719C250.826 314.092 251.109 314.372 251.487 314.651C251.864 314.931 252.242 315.117 252.619 315.211C252.902 315.304 253.28 315.304 253.657 315.304C254.035 315.304 254.412 315.117 254.884 314.931C255.261 314.745 255.733 314.372 256.111 313.999C256.394 313.719 256.677 313.533 256.866 313.347C257.054 313.16 257.337 313.067 257.526 313.067C257.715 312.974 257.998 312.974 258.281 313.067C258.47 313.16 258.753 313.253 258.847 313.347C259.036 313.533 259.13 313.719 259.13 313.906C259.13 314.185 259.13 314.465 259.036 314.745C258.942 314.931 258.942 315.117 258.847 315.397C258.753 315.583 258.659 315.77 258.564 315.956C258.47 316.143 258.375 316.329 258.187 316.422L259.98 317.168ZM261.961 309.898C262.056 309.805 262.15 309.619 262.244 309.432C262.339 309.246 262.433 308.966 262.528 308.687C262.622 308.407 262.716 308.127 262.716 307.848C262.811 307.289 262.811 306.823 262.716 306.357C262.622 305.891 262.433 305.425 262.244 305.145C261.961 304.772 261.678 304.493 261.301 304.213C260.923 303.933 260.451 303.84 259.98 303.747C259.602 303.654 259.225 303.654 258.847 303.747C258.47 303.84 258.092 303.933 257.715 304.213C257.337 304.493 256.96 304.772 256.582 305.238C256.299 305.611 256.016 305.891 255.828 306.077C255.639 306.263 255.45 306.357 255.261 306.45C255.073 306.543 254.884 306.543 254.695 306.45C254.506 306.45 254.318 306.357 254.129 306.17C253.94 306.077 253.846 305.891 253.752 305.611C253.657 305.425 253.657 305.145 253.752 304.865C253.846 304.586 253.846 304.306 254.035 304.027C254.129 303.84 254.223 303.654 254.412 303.467L252.619 302.815C252.525 302.908 252.43 303.095 252.336 303.188C252.242 303.374 252.147 303.561 252.053 303.747C251.959 303.933 251.959 304.213 251.864 304.399C251.77 304.959 251.77 305.518 251.864 305.984C251.959 306.45 252.147 306.823 252.336 307.195C252.619 307.568 252.902 307.848 253.28 308.034C253.657 308.221 254.035 308.407 254.506 308.407C254.884 308.5 255.167 308.407 255.544 308.407C255.922 308.314 256.299 308.127 256.677 307.941C257.054 307.661 257.432 307.382 257.809 306.916C258.092 306.636 258.281 306.357 258.47 306.263C258.659 306.077 258.847 305.984 259.13 305.891C259.319 305.797 259.602 305.797 259.791 305.797C260.074 305.797 260.263 305.891 260.357 306.077C260.546 306.263 260.64 306.45 260.735 306.636C260.829 306.916 260.829 307.195 260.735 307.475C260.735 307.661 260.64 307.941 260.546 308.127C260.451 308.314 260.357 308.593 260.263 308.78C260.168 308.966 260.074 309.153 259.98 309.246L261.961 309.898Z" fill="#17429A"/>
<path fill-rule="evenodd" clip-rule="evenodd" d="M134.095 293.587C135.227 293.587 136.171 294.519 136.171 295.638C136.171 296.756 135.227 297.688 134.095 297.688C132.963 297.688 132.019 296.756 132.019 295.638C131.925 294.519 132.868 293.587 134.095 293.587Z" fill="#01B0DA"/>
<path fill-rule="evenodd" clip-rule="evenodd" d="M258.186 293.587C259.319 293.587 260.262 294.519 260.262 295.638C260.262 296.756 259.319 297.688 258.186 297.688C257.054 297.688 256.11 296.756 256.11 295.638C256.016 294.519 256.96 293.587 258.186 293.587Z" fill="#01B0DA"/>
<path fill-rule="evenodd" clip-rule="evenodd" d="M164.104 317.074V272.245C164.104 271.499 164.104 270.101 164.01 268.61C164.765 268.889 165.52 269.076 166.18 269.169C167.596 269.449 168.917 269.449 169.766 269.449H170.521H204.493C206.097 269.449 207.324 270.753 207.324 272.245V298.714L209.871 295.918V272.151C209.871 269.169 207.418 266.839 204.493 266.839H170.521H169.766H169.766C169.011 266.839 167.784 266.839 166.652 266.653C165.52 266.466 164.387 266.093 163.821 265.627C163.632 265.441 163.349 265.255 162.877 265.255C162.689 265.255 162.311 265.348 162.122 265.534C161.892 265.762 161.787 265.989 161.704 266.167L161.704 266.167L161.704 266.167C161.686 266.207 161.668 266.245 161.651 266.28C161.556 266.466 161.556 266.653 161.556 266.746V266.839V272.245V317.074C161.556 320.056 164.01 322.386 166.935 322.386H185.903L188.167 319.87H166.935C165.331 319.87 164.104 318.565 164.104 317.074ZM169.859 279.328C169.859 280.074 170.425 280.633 171.18 280.633H200.339C201.094 280.633 201.66 280.074 201.66 279.328C201.66 278.583 201.094 278.023 200.339 278.023H171.18C170.425 278.023 169.859 278.583 169.859 279.328ZM171.18 287.53C170.425 287.53 169.859 286.97 169.859 286.225C169.859 285.479 170.425 284.92 171.18 284.92H200.339C201.094 284.92 201.66 285.479 201.66 286.225C201.66 286.97 201.094 287.53 200.339 287.53H171.18ZM169.859 293.029C169.859 293.774 170.425 294.334 171.18 294.334H200.339C201.094 294.334 201.66 293.774 201.66 293.029C201.66 292.283 201.094 291.724 200.339 291.724H171.18C170.425 291.724 169.859 292.283 169.859 293.029ZM171.18 301.137C170.425 301.137 169.859 300.578 169.859 299.832C169.859 299.087 170.425 298.528 171.18 298.528H200.339C201.094 298.528 201.66 299.087 201.66 299.832C201.66 300.578 201.094 301.137 200.339 301.137H171.18ZM169.859 306.729C169.859 307.474 170.425 308.033 171.18 308.033V307.94H199.112L201.094 305.797L201.094 305.797C200.811 305.61 200.528 305.424 200.151 305.424H171.18C170.425 305.424 169.859 305.983 169.859 306.729Z" fill="#17429A"/>
<path opacity="0.7" fill-rule="evenodd" clip-rule="evenodd" d="M178.92 260.128H177.315H177.221V257.798C177.221 256.773 177.221 254.536 177.221 252.393C177.221 252.393 177.221 252.393 177.221 252.3C177.221 252.206 177.221 252.02 177.315 251.834C177.41 251.647 177.787 251.274 178.165 251.274C178.542 251.274 178.636 251.461 178.825 251.554C179.486 252.113 180.712 252.486 181.845 252.672C183.072 252.859 184.298 252.859 185.053 252.859C185.336 252.859 185.619 252.859 185.808 252.859H219.78C222.517 252.859 224.687 255.002 224.687 257.705V281.564L222.988 283.428V257.705C222.988 255.934 221.573 254.536 219.78 254.536H185.808C185.619 254.536 185.431 254.536 185.053 254.536C184.204 254.536 182.883 254.536 181.562 254.257C180.712 254.07 179.769 253.884 178.92 253.511C178.92 256.166 178.92 259.29 178.92 260.128Z" fill="#17429A"/>
<path opacity="0.7" fill-rule="evenodd" clip-rule="evenodd" d="M171.464 264.861V266.932C171.149 266.932 170.08 266.932 169.765 266.932V264.975C169.765 263.95 169.765 261.713 169.765 259.569C169.765 259.569 169.765 259.569 169.765 259.476C169.765 259.383 169.765 259.196 169.86 259.01C169.954 258.824 170.332 258.451 170.709 258.451C171.087 258.451 171.275 258.637 171.37 258.73C172.03 259.29 173.257 259.662 174.389 259.849C175.616 260.035 176.843 260.035 177.598 260.035C177.881 260.035 178.164 260.035 178.353 260.035H212.324C215.061 260.035 217.231 262.179 217.231 264.882V288.648L215.533 290.512V264.975C215.533 263.204 214.117 261.806 212.324 261.806H178.353C178.164 261.806 177.975 261.806 177.598 261.806C176.748 261.806 175.427 261.806 174.106 261.526C173.257 261.34 172.313 261.154 171.464 260.781C171.464 262.656 171.464 264.022 171.464 264.861Z" fill="#17429A"/>
<path fill-rule="evenodd" clip-rule="evenodd" d="M237.708 271.78L238.369 272.432C238.369 272.432 236.481 275.694 237.331 279.609C238.369 284.455 241.954 286.319 241.954 286.319L221.1 324.624C221.1 324.624 206.001 327.979 194.111 332.639C184.297 336.461 177.408 341.773 177.408 341.773C178.163 344.196 176.748 345.501 175.143 345.501C174.766 345.501 174.389 345.408 174.105 345.315C172.501 344.662 173.539 342.332 173.539 342.332L195.998 317.541C195.998 317.541 197.886 318.287 200.339 318.287C202.604 318.287 205.435 317.634 207.794 315.211C213.079 309.805 208.549 303.747 208.549 303.747L237.708 271.78Z" fill="#E49744"/>
<path d="M322.715 240.273L312.989 268.198C311.891 271.211 310.721 273.525 309.481 275.139C308.241 276.717 306.576 277.596 304.486 277.775C302.289 277.955 299.986 277.686 297.577 276.968L298.161 273.04C299.295 273.112 300.181 273.166 300.818 273.202C301.456 273.202 302.094 273.202 302.732 273.202C303.369 273.202 303.865 273.112 304.22 272.933C304.574 272.754 304.911 272.592 305.23 272.449C305.548 272.269 305.832 271.946 306.08 271.48C306.328 271.014 306.558 270.565 306.771 270.135C306.983 269.705 307.249 269.059 307.568 268.198L308.206 266.638H306.239C305.176 266.638 304.344 266.44 303.741 266.046C303.175 265.615 302.714 264.916 302.36 263.947L294.069 240.273H299.49L306.611 261.311C306.859 261.849 307.231 262.118 307.727 262.118H309.747L317.294 240.273H322.715Z" fill="#17429A"/>
<path d="M346.984 251.142V277.399H341.882V266.691C338.481 267.875 335.221 268.467 332.104 268.467C327.639 268.467 325.407 266.53 325.407 262.656V251.142H330.456V260.881C330.456 262.1 330.704 262.961 331.2 263.463C331.732 263.965 332.6 264.216 333.804 264.216C336.497 264.216 339.19 263.678 341.882 262.602V251.142H346.984Z" fill="#17429A"/>
<path d="M371.065 266.799H359.426C359.674 269.525 360.365 271.355 361.499 272.287C362.668 273.22 364.564 273.686 367.186 273.686C369.489 273.686 372.518 273.471 376.274 273.04L376.752 276.484C374.413 277.524 370.994 278.044 366.495 278.044C361.96 278.044 358.735 277.004 356.822 274.924C354.909 272.807 353.952 269.238 353.952 264.216C353.952 259.123 354.891 255.554 356.769 253.509C358.647 251.465 361.729 250.442 366.016 250.442C369.949 250.442 372.819 251.178 374.626 252.648C376.433 254.119 377.354 256.325 377.39 259.266C377.39 264.288 375.282 266.799 371.065 266.799ZM359.32 262.764H369.683C371.42 262.764 372.252 261.598 372.181 259.266C372.181 257.652 371.738 256.522 370.853 255.877C370.002 255.195 368.479 254.854 366.282 254.854C363.696 254.854 361.906 255.41 360.914 256.522C359.958 257.598 359.426 259.679 359.32 262.764Z" fill="#17429A"/>
<path d="M405.29 237.691L406.512 241.78C405.201 242.605 403.943 243.215 402.739 243.609C401.534 243.968 400.17 244.273 398.646 244.524C397.123 244.739 395.9 244.972 394.979 245.223C391.011 246.371 388.673 249.097 387.964 253.402C387.716 254.765 387.539 256.056 387.433 257.276H387.539C388.035 256.235 388.584 255.375 389.186 254.693C389.789 254.011 390.781 253.384 392.163 252.81C393.58 252.236 395.316 251.949 397.371 251.949C401.162 251.949 403.837 252.917 405.396 254.854C406.955 256.791 407.734 260.02 407.734 264.539C407.734 269.059 406.866 272.449 405.13 274.708C403.394 276.932 400.241 278.044 395.67 278.044C393.473 278.044 391.613 277.757 390.09 277.183C388.566 276.61 387.379 275.892 386.529 275.031C385.679 274.135 385.023 272.915 384.563 271.373C384.137 269.794 383.872 268.324 383.765 266.961C383.659 265.562 383.606 263.768 383.606 261.58C383.606 258.495 383.712 255.966 383.925 253.994C384.173 251.985 384.616 250.084 385.254 248.29C385.927 246.461 386.919 244.99 388.23 243.878C389.541 242.766 391.224 241.887 393.279 241.242C394.306 240.919 395.599 240.632 397.158 240.381C398.717 240.13 400.134 239.825 401.41 239.466C402.721 239.072 404.014 238.48 405.29 237.691ZM396.042 256.361C393.208 256.361 391.312 257.007 390.356 258.298C389.399 259.553 388.921 261.652 388.921 264.593C388.921 268.037 389.417 270.422 390.409 271.749C391.401 273.04 393.155 273.686 395.67 273.686C398.186 273.686 399.922 273.04 400.878 271.749C401.871 270.422 402.367 268.055 402.367 264.647C402.367 261.419 401.924 259.231 401.038 258.083C400.152 256.935 398.487 256.361 396.042 256.361Z" fill="#17429A"/>
<path d="M437.716 251.142V277.399H432.614V265.454H419.806V277.399H414.757V251.142H419.806V261.472H432.614V251.142H437.716Z" fill="#17429A"/>
<path d="M450.788 261.042H456.475C460.479 261.042 463.224 261.652 464.712 262.871C466.201 264.055 466.945 266.243 466.945 269.436C466.945 272.592 466.218 274.762 464.766 275.946C463.313 277.13 460.833 277.722 457.325 277.722C452.507 277.722 448.716 277.614 445.952 277.399H445.846V251.142H450.788V261.042ZM476.511 251.142V277.399H471.356V251.142H476.511ZM450.788 273.579L456.475 273.632C458.494 273.632 459.876 273.345 460.62 272.771C461.364 272.162 461.736 270.978 461.736 269.22C461.736 267.57 461.364 266.44 460.62 265.831C459.912 265.185 458.53 264.862 456.475 264.862H450.788V273.579Z" fill="#17429A"/>
<path d="M500.291 239.52H504.17C504.348 241.672 503.692 243.466 502.204 244.9C500.716 246.335 498.696 247.053 496.145 247.053C493.524 247.053 491.451 246.335 489.927 244.9C488.439 243.466 487.784 241.672 487.961 239.52H491.841C491.841 242.641 493.275 244.201 496.145 244.201C498.909 244.201 500.291 242.641 500.291 239.52ZM507.784 277.399H503.161V260.773C503.161 260.307 503.178 259.661 503.214 258.836C503.285 257.975 503.32 257.401 503.32 257.114H503.214C502.859 258.083 502.239 259.159 501.354 260.343L488.864 277.399H484.719V251.142H489.29V267.821C489.29 268.897 489.236 270.081 489.13 271.373H489.29C489.963 270.009 490.565 268.969 491.097 268.252L503.639 251.142H507.784V277.399Z" fill="#17429A"/>
<path d="M553.626 285.147H550.225L549.747 277.399H527.744V251.142H532.793V273.202H544.857V251.142H549.959V273.202H553.626V285.147Z" fill="#17429A"/>
<path d="M575.397 266.799H563.758C564.006 269.525 564.697 271.355 565.83 272.287C567 273.22 568.895 273.686 571.517 273.686C573.82 273.686 576.849 273.471 580.605 273.04L581.083 276.484C578.745 277.524 575.326 278.044 570.826 278.044C566.291 278.044 563.067 277.004 561.154 274.924C559.24 272.807 558.284 269.238 558.284 264.216C558.284 259.123 559.223 255.554 561.1 253.509C562.978 251.465 566.061 250.442 570.348 250.442C574.281 250.442 577.15 251.178 578.957 252.648C580.764 254.119 581.686 256.325 581.721 259.266C581.721 264.288 579.613 266.799 575.397 266.799ZM563.651 262.764H574.015C575.751 262.764 576.584 261.598 576.513 259.266C576.513 257.652 576.07 256.522 575.184 255.877C574.334 255.195 572.81 254.854 570.614 254.854C568.027 254.854 566.238 255.41 565.246 256.522C564.289 257.598 563.758 259.679 563.651 262.764Z" fill="#17429A"/>
<path d="M611.375 251.142V277.399H606.273V265.454H593.465V277.399H588.416V251.142H593.465V261.472H606.273V251.142H611.375Z" fill="#17429A"/>
<path d="M640.337 255.392H631.143V277.399H625.988V255.392H616.794V251.142H640.337V255.392Z" fill="#17429A"/>
<path d="M650.017 251.142L650.389 255.177C651.736 253.742 653.383 252.595 655.332 251.734C657.316 250.873 659.247 250.442 661.125 250.442C664.207 250.442 666.457 251.626 667.874 253.994C669.291 256.325 670 259.804 670 264.432C670 269.382 669.203 272.897 667.609 274.977C666.014 277.022 663.499 278.044 660.062 278.044C656.59 278.044 653.472 277.166 650.708 275.408C650.85 277.201 650.903 278.977 650.868 280.735V288.106H645.766V251.142H650.017ZM650.868 258.782V272.126C654.375 273.058 656.997 273.525 658.733 273.525C660.965 273.525 662.507 272.915 663.357 271.695C664.243 270.44 664.685 268.001 664.685 264.378C664.685 260.898 664.278 258.459 663.463 257.06C662.684 255.661 661.32 254.962 659.371 254.962C658.095 254.962 656.82 255.267 655.544 255.877C654.269 256.451 652.71 257.419 650.868 258.782Z" fill="#17429A"/>
<path d="M340.183 298.991V352.258H328.593V307.483H310.14V352.258H298.549V298.991H340.183Z" fill="#17429A"/>
<path d="M351.883 352.258V298.991C356.61 298.528 363.295 298.296 371.937 298.296C379.257 298.296 384.265 299.506 386.959 301.924C389.704 304.343 391.076 308.924 391.076 315.666C391.076 322.408 389.78 327.014 387.188 329.484C384.646 331.903 380.071 333.113 373.462 333.113C370.107 333.113 366.803 332.907 363.549 332.495V352.258H351.883ZM363.549 324.08H371.632C374.682 324.029 376.741 323.437 377.809 322.305C378.876 321.173 379.41 318.96 379.41 315.666C379.41 312.372 378.876 310.159 377.809 309.027C376.741 307.895 374.682 307.328 371.632 307.328L363.549 307.406V324.08Z" fill="#17429A"/>
<path d="M402.683 303.932C405.987 299.969 411.859 297.987 420.297 297.987C428.736 297.987 434.608 299.969 437.912 303.932C441.216 307.843 442.868 315.074 442.868 325.624C442.868 336.175 441.216 343.432 437.912 347.394C434.608 351.306 428.736 353.261 420.297 353.261C411.859 353.261 405.987 351.306 402.683 347.394C399.43 343.432 397.803 336.175 397.803 325.624C397.803 315.074 399.43 307.843 402.683 303.932ZM428.38 311.266C426.957 308.744 424.263 307.483 420.297 307.483C416.332 307.483 413.613 308.744 412.138 311.266C410.715 313.787 410.003 318.574 410.003 325.624C410.003 332.675 410.715 337.461 412.138 339.983C413.613 342.505 416.332 343.766 420.297 343.766C424.263 343.766 426.957 342.505 428.38 339.983C429.854 337.461 430.592 332.675 430.592 325.624C430.592 318.574 429.854 313.787 428.38 311.266Z" fill="#17429A"/>
<path d="M452.369 352.258V310.108C452.369 306.762 453.411 304.035 455.495 301.924C457.579 299.814 460.223 298.759 463.425 298.759C474.406 298.759 482.184 299.042 486.759 299.609L486.225 308.255H468.153C466.679 308.255 465.611 308.589 464.951 309.258C464.341 309.876 464.036 310.957 464.036 312.501V352.258H452.369Z" fill="#17429A"/>
<path d="M493.942 352.258V298.991C498.67 298.528 505.355 298.296 513.997 298.296C521.317 298.296 526.324 299.506 529.018 301.924C531.763 304.343 533.136 308.924 533.136 315.666C533.136 322.408 531.84 327.014 529.247 329.484C526.705 331.903 522.13 333.113 515.522 333.113C512.167 333.113 508.862 332.907 505.609 332.495V352.258H493.942ZM505.609 324.08H513.692C516.742 324.029 518.801 323.437 519.868 322.305C520.936 321.173 521.469 318.96 521.469 315.666C521.469 312.372 520.936 310.159 519.868 309.027C518.801 307.895 516.742 307.328 513.692 307.328L505.609 307.406V324.08Z" fill="#17429A"/>
<path d="M576.692 343.071L577.15 351.717C572.422 352.232 564.289 352.489 552.749 352.489C549.241 352.489 546.446 351.537 544.361 349.633C542.277 347.677 541.235 345.053 541.235 341.759V309.49C541.235 306.196 542.277 303.597 544.361 301.693C546.496 299.737 549.292 298.759 552.749 298.759C564.289 298.759 572.422 299.017 577.15 299.531L576.692 308.255H556.409C555.138 308.255 554.223 308.564 553.664 309.181C553.105 309.799 552.825 310.802 552.825 312.192V320.298H573.795V328.79H552.825V339.057C552.825 340.498 553.105 341.527 553.664 342.145C554.223 342.762 555.138 343.071 556.409 343.071H576.692Z" fill="#17429A"/>
<path d="M622.087 342.299L623.078 351.023C618.503 352.464 612.886 353.184 606.226 353.184C598.092 353.184 592.374 351.126 589.069 347.008C585.765 342.891 584.113 335.763 584.113 325.624C584.113 315.486 585.765 308.358 589.069 304.24C592.374 300.123 598.092 298.065 606.226 298.065C612.123 298.065 617.384 298.656 622.01 299.84L621.019 308.641C616.901 308.383 611.97 308.255 606.226 308.255C602.413 308.255 599.795 309.49 598.372 311.96C597 314.379 596.313 318.934 596.313 325.624C596.313 332.315 597 336.895 598.372 339.366C599.795 341.785 602.413 342.994 606.226 342.994C613.292 342.994 618.579 342.762 622.087 342.299Z" fill="#17429A"/>
<path d="M666.784 342.299L667.775 351.023C663.2 352.464 657.583 353.184 650.923 353.184C642.79 353.184 637.071 351.126 633.766 347.008C630.462 342.891 628.81 335.763 628.81 325.624C628.81 315.486 630.462 308.358 633.766 304.24C637.071 300.123 642.79 298.065 650.923 298.065C656.82 298.065 662.082 298.656 666.708 299.84L665.716 308.641C661.599 308.383 656.668 308.255 650.923 308.255C647.111 308.255 644.493 309.49 643.069 311.96C641.697 314.379 641.01 318.934 641.01 325.624C641.01 332.315 641.697 336.895 643.069 339.366C644.493 341.785 647.111 342.994 650.923 342.994C657.989 342.994 663.276 342.762 666.784 342.299Z" fill="#17429A"/>
</g>
<defs>
<clipPath id="clip0">
<rect width="541" height="134.954" fill="white" transform="translate(129 229)"/>
</clipPath>
</defs>
</svg>
