<svg width="800" height="600" viewBox="0 0 800 600" fill="none" xmlns="http://www.w3.org/2000/svg">
<rect width="800" height="600" fill="white"/>
<path fill-rule="evenodd" clip-rule="evenodd" d="M290.73 303.845C290.73 291.62 300.144 282.333 312.696 282.333C322.954 282.333 333.816 289.857 333.575 304.198C333.575 304.433 333.454 307.019 333.454 307.019C333.454 307.489 332.972 307.96 332.489 307.96H299.058C300.627 313.837 305.575 317.599 312.334 317.834C318.972 317.834 320.782 317.246 324.403 314.895C324.644 314.66 325.006 314.778 325.247 315.013L328.989 320.302C329.23 320.538 329.109 320.89 328.868 321.125C323.558 324.534 320.178 325.357 312.334 325.357H312.213C299.541 325.24 290.73 316.188 290.73 303.845ZM312.817 289.974C305.937 289.974 300.748 293.971 299.299 300.084H325.368C323.799 293.148 318.127 289.974 312.817 289.974Z" fill="#354C7C"/>
<path d="M442.305 330.27H391.267C390.909 330.27 390.55 330.628 390.55 330.986C390.55 331.343 390.909 331.701 391.267 331.701H442.783C442.664 331.224 442.425 330.747 442.305 330.27Z" fill="url(#paint0_linear)"/>
<path d="M439.676 323.833H388.159C387.801 323.833 387.442 324.191 387.442 324.548C387.442 324.906 387.801 325.264 388.159 325.264H440.393C440.154 324.787 439.915 324.31 439.676 323.833Z" fill="url(#paint1_linear)"/>
<path d="M436.568 317.396H386.128C385.769 317.396 385.41 317.754 385.41 318.111C385.41 318.469 385.769 318.827 386.128 318.827H437.285C437.046 318.35 436.807 317.873 436.568 317.396Z" fill="url(#paint2_linear)"/>
<path d="M445.532 349.463H409.674C409.315 349.463 408.957 349.82 408.957 350.178C408.957 350.536 409.315 350.893 409.674 350.893H445.652L445.532 349.463Z" fill="url(#paint3_linear)"/>
<path d="M424.376 356.734C424.376 357.092 424.735 357.45 425.094 357.45H445.772C445.772 356.973 445.772 356.496 445.891 355.9H425.213C424.735 355.9 424.376 356.258 424.376 356.734Z" fill="url(#paint4_linear)"/>
<path d="M445.174 343.025H401.307C400.829 343.025 400.59 343.383 400.59 343.741C400.59 344.098 400.949 344.456 401.307 344.456H445.294L445.174 343.025Z" fill="url(#paint5_linear)"/>
<path d="M444.098 336.708H395.451C394.973 336.708 394.734 337.065 394.734 337.423C394.734 337.781 395.092 338.138 395.451 338.138H444.457C444.337 337.661 444.218 337.185 444.098 336.708Z" fill="url(#paint6_linear)"/>
<path d="M430.233 306.071C429.994 305.594 429.635 305.118 429.396 304.522H384.574C384.096 304.522 383.857 304.879 383.857 305.237C383.857 305.594 384.215 305.952 384.574 305.952H430.233V306.071Z" fill="url(#paint7_linear)"/>
<path d="M432.982 310.959H384.932C384.454 310.959 384.215 311.316 384.215 311.674C384.215 312.032 384.573 312.389 384.932 312.389H433.819C433.58 311.912 433.34 311.436 432.982 310.959Z" fill="url(#paint8_linear)"/>
<path d="M428.559 254.574H432.504C432.862 254.097 433.221 253.62 433.58 253.024H428.559C428.201 253.024 427.842 253.382 427.842 253.74C427.723 254.336 428.081 254.574 428.559 254.574Z" fill="url(#paint9_linear)"/>
<path d="M395.451 273.886H421.269C421.388 273.409 421.508 272.813 421.627 272.336H395.451C394.973 272.336 394.734 272.694 394.734 273.051C394.734 273.528 395.092 273.886 395.451 273.886Z" fill="url(#paint10_linear)"/>
<path d="M386.127 293.197H423.898C423.659 292.72 423.539 292.243 423.3 291.647H386.247C385.888 291.647 385.53 292.005 385.53 292.362C385.41 292.839 385.769 293.197 386.127 293.197Z" fill="url(#paint11_linear)"/>
<path d="M384.932 299.634H426.766C426.527 299.157 426.288 298.68 426.049 298.084H384.932C384.454 298.084 384.215 298.442 384.215 298.8C384.215 299.276 384.573 299.634 384.932 299.634Z" fill="url(#paint12_linear)"/>
<path d="M388.159 286.76H421.508C421.388 286.283 421.269 285.687 421.269 285.21H388.159C387.801 285.21 387.442 285.568 387.442 285.926C387.442 286.403 387.801 286.76 388.159 286.76Z" fill="url(#paint13_linear)"/>
<path d="M391.267 280.323H420.79C420.79 279.846 420.79 279.25 420.79 278.773H391.267C390.909 278.773 390.55 279.131 390.55 279.488C390.55 279.846 390.789 280.323 391.267 280.323Z" fill="url(#paint14_linear)"/>
<path d="M409.674 261.011H427.603C427.962 260.534 428.32 260.058 428.679 259.462H409.674C409.315 259.462 408.957 259.819 408.957 260.177C408.957 260.654 409.315 261.011 409.674 261.011Z" fill="url(#paint15_linear)"/>
<path d="M409.674 261.011H427.603C427.962 260.534 428.32 260.058 428.679 259.462H409.674C409.315 259.462 408.957 259.819 408.957 260.177C408.957 260.654 409.315 261.011 409.674 261.011Z" fill="url(#paint16_linear)"/>
<path d="M401.307 267.448H423.54C423.779 266.972 424.018 266.376 424.376 265.899H401.307C400.829 265.899 400.59 266.256 400.59 266.614C400.59 267.091 400.829 267.448 401.307 267.448Z" fill="url(#paint17_linear)"/>
<path d="M401.307 267.448H423.54C423.779 266.972 424.018 266.376 424.376 265.899H401.307C400.829 265.899 400.59 266.256 400.59 266.614C400.59 267.091 400.829 267.448 401.307 267.448Z" fill="url(#paint18_linear)"/>
<path d="M483.901 331.701C484.379 331.701 484.618 331.343 484.618 330.986C484.618 330.628 484.259 330.27 483.901 330.27H452.345C452.465 330.747 452.585 331.224 452.704 331.82H483.901V331.701Z" fill="url(#paint19_linear)"/>
<path d="M486.889 325.264C487.247 325.264 487.606 324.906 487.606 324.548C487.606 324.191 487.247 323.833 486.889 323.833H450.792C450.911 324.31 451.031 324.787 451.15 325.383H486.889V325.264Z" fill="url(#paint20_linear)"/>
<path d="M488.921 318.827C489.279 318.827 489.638 318.469 489.638 318.111C489.638 317.754 489.279 317.396 488.921 317.396H448.879C448.998 317.873 449.238 318.35 449.357 318.946H488.921V318.827Z" fill="url(#paint21_linear)"/>
<path d="M465.374 351.012C465.733 351.012 466.091 350.654 466.091 350.297C466.091 349.939 465.733 349.582 465.374 349.582H454.258C454.258 350.058 454.258 350.535 454.258 351.131H465.374V351.012Z" fill="url(#paint22_linear)"/>
<path d="M473.861 344.575C474.339 344.575 474.578 344.218 474.578 343.86C474.578 343.503 474.219 343.145 473.861 343.145H454.258C454.258 343.622 454.378 344.099 454.378 344.695H473.861V344.575Z" fill="url(#paint23_linear)"/>
<path d="M479.597 338.138C480.076 338.138 480.315 337.781 480.315 337.423C480.315 337.065 479.956 336.708 479.597 336.708H453.541C453.66 337.185 453.66 337.661 453.78 338.257H479.597V338.138Z" fill="url(#paint24_linear)"/>
<path d="M490.594 306.072C491.073 306.072 491.312 305.714 491.312 305.356C491.312 304.999 490.953 304.641 490.594 304.641H444.457C444.696 305.118 444.815 305.595 445.055 306.191H490.594V306.072Z" fill="url(#paint25_linear)"/>
<path d="M490.116 312.509C490.594 312.509 490.833 312.151 490.833 311.794C490.833 311.436 490.475 311.078 490.116 311.078H446.728C446.967 311.555 447.086 312.032 447.206 312.628H490.116V312.509Z" fill="url(#paint26_linear)"/>
<path d="M449.955 254.574C450.314 254.574 450.672 254.217 450.672 253.859C450.672 253.501 450.314 253.144 449.955 253.144H445.174C445.055 253.621 444.935 254.217 444.696 254.694H449.955V254.574Z" fill="url(#paint27_linear)"/>
<path d="M479.598 273.885C480.076 273.885 480.315 273.528 480.315 273.17C480.315 272.813 479.956 272.455 479.598 272.455H436.807C436.568 272.932 436.448 273.409 436.329 274.005H479.598V273.885Z" fill="url(#paint28_linear)"/>
<path d="M488.921 293.197C489.279 293.197 489.638 292.839 489.638 292.482C489.638 292.124 489.279 291.767 488.921 291.767H438.958C439.198 292.243 439.437 292.72 439.676 293.316H488.921V293.197Z" fill="url(#paint29_linear)"/>
<path d="M490.116 299.634C490.594 299.634 490.833 299.277 490.833 298.919C490.833 298.561 490.474 298.204 490.116 298.204H441.707C441.946 298.681 442.186 299.157 442.305 299.754H490.116V299.634Z" fill="url(#paint30_linear)"/>
<path d="M436.807 286.76H486.889C487.248 286.76 487.606 286.402 487.606 286.045C487.606 285.687 487.248 285.329 486.889 285.329H436.21C436.21 285.449 436.21 285.568 436.329 285.687C436.449 285.925 436.568 286.402 436.807 286.76Z" fill="url(#paint31_linear)"/>
<path d="M435.373 280.323H483.901C484.379 280.323 484.618 279.965 484.618 279.607C484.618 279.25 484.259 278.892 483.901 278.892H435.373C435.373 279.369 435.373 279.846 435.373 280.323Z" fill="url(#paint32_linear)"/>
<path d="M465.374 261.012C465.733 261.012 466.091 260.654 466.091 260.296C466.091 259.939 465.733 259.581 465.374 259.581H442.783C442.544 260.058 442.305 260.654 442.066 261.131H465.374V261.012Z" fill="url(#paint33_linear)"/>
<path d="M465.374 261.012C465.733 261.012 466.091 260.654 466.091 260.296C466.091 259.939 465.733 259.581 465.374 259.581H442.783C442.544 260.058 442.305 260.654 442.066 261.131H465.374V261.012Z" fill="url(#paint34_linear)"/>
<path d="M473.861 267.448C474.339 267.448 474.578 267.091 474.578 266.733C474.578 266.375 474.219 266.018 473.861 266.018H439.795C439.556 266.495 439.317 266.971 439.078 267.567H473.861V267.448Z" fill="url(#paint35_linear)"/>
<path d="M473.861 267.448C474.339 267.448 474.578 267.091 474.578 266.733C474.578 266.375 474.219 266.018 473.861 266.018H439.795C439.556 266.495 439.317 266.971 439.078 267.567H473.861V267.448Z" fill="url(#paint36_linear)"/>
<path fill-rule="evenodd" clip-rule="evenodd" d="M444.971 236C442.15 257.529 425.007 259.401 430.106 284.556C438.895 312.754 455.929 327.965 446.49 375C457.122 346.568 452.674 323.519 435.857 283.62C431.191 267.591 447.466 260.688 444.971 236V236Z" fill="url(#paint37_linear)"/>
<path d="M283.367 282.333H251.839C251.508 282.333 251.178 282.699 251.178 283.065V289.646C251.178 290.012 251.508 290.377 251.839 290.377H263.965V324.626C263.965 324.991 264.296 325.357 264.626 325.357H270.689C271.02 325.357 271.351 324.991 271.351 324.626V290.256H283.477C283.807 290.256 284.138 289.89 284.138 289.524V282.943C283.918 282.577 283.697 282.333 283.367 282.333Z" fill="#354C7C"/>
<path d="M365.768 282.333H334.24C333.91 282.333 333.579 282.699 333.579 283.065V289.646C333.579 290.012 333.91 290.377 334.24 290.377H346.366V324.626C346.366 324.991 346.697 325.357 347.028 325.357H353.091C353.421 325.357 353.752 324.991 353.752 324.626V290.256H365.878C366.209 290.256 366.539 289.89 366.539 289.524V282.943C366.429 282.577 366.209 282.333 365.768 282.333Z" fill="#354C7C"/>
<path d="M226.024 289.857C231.759 289.974 233.479 290.562 236.806 292.795C237.035 293.031 237.494 292.913 237.609 292.678L241.164 287.388C241.394 287.153 241.279 286.683 241.05 286.565C236.117 283.274 232.906 282.333 225.679 282.333C213.636 282.333 205.033 291.62 205.033 303.845C205.033 316.071 213.521 325.357 225.565 325.357C232.791 325.357 236.117 324.417 241.05 321.125C241.279 320.89 241.394 320.538 241.164 320.302L237.494 314.895C237.265 314.66 236.92 314.542 236.691 314.778C233.25 317.011 231.529 317.716 225.565 317.716C217.88 317.716 212.489 311.721 212.489 303.845C212.489 295.852 218.338 289.857 226.024 289.857Z" fill="#354C7C"/>
<path d="M172.115 265.786V265.786V265.786V265.786V265.786C161.015 265.786 156.667 266.929 149.343 271.732C149.114 271.961 149 272.304 149.229 272.533L152.891 277.907C152.891 278.25 153.234 278.25 153.577 278.136C159.527 274.134 162.503 273.447 172.115 273.447V273.447C181.727 274.248 188.821 280.766 190.309 290.143C190.309 290.143 190.423 290.6 190.538 291.63C185.388 291.401 182.07 290.715 178.637 290.029C174.289 289.114 169.712 288.199 161.816 288.199C161.473 288.199 161.244 288.428 161.244 288.771V295.632C161.244 295.975 161.473 296.204 161.816 296.204C169.025 296.204 172.916 297.004 177.035 297.919C180.582 298.605 184.244 299.406 189.851 299.634C187.677 307.982 180.926 313.7 172 314.386V314.386C162.388 314.386 159.527 313.7 153.463 309.697C153.234 309.469 152.776 309.583 152.662 309.812L149 315.186C149 315.529 149 315.873 149.343 316.101C156.667 320.904 161.015 322.048 172.115 322.048V322.048V322.048V322.048V322.048C173.831 321.933 175.662 321.705 177.378 321.247C189.508 318.274 198.09 307.182 198.433 294.717C198.776 278.936 187.448 266.701 172.115 265.786Z" fill="#354C7C"/>
<path d="M506.717 325.398C506.484 325.398 506.368 325.274 506.252 325.15L494.863 306.286C491.726 300.949 490.099 299.088 484.986 299.088H477.2V324.902C477.2 325.274 476.968 325.522 476.619 325.522H469.995C469.647 325.522 469.414 325.274 469.414 324.902V266.075C469.414 265.703 469.647 265.455 469.995 265.455H476.619C476.968 265.455 477.2 265.703 477.2 266.075V291.021H484.405C489.634 291.021 491.145 288.911 494.282 283.822L505.09 265.827C505.206 265.703 505.438 265.579 505.554 265.579H512.992C513.457 265.579 513.689 266.075 513.457 266.572L501.603 286.305C498.35 291.269 496.607 293.255 494.631 294.372L493.469 294.992L494.631 295.364C496.955 296.233 498.814 298.219 502.068 303.804L514.502 324.53C514.735 324.902 514.502 325.522 514.038 325.522H506.717V325.398Z" fill="#354C7C"/>
<path fill-rule="evenodd" clip-rule="evenodd" d="M609.676 303.183C609.676 316.09 618.276 325.398 630.129 325.398C641.633 325.398 649.884 316.835 649.884 305.045C649.884 293.379 641.633 284.567 630.826 284.567C628.386 284.567 625.597 285.063 622.924 286.304C624.318 285.312 625.945 284.319 628.037 283.326C629.432 282.705 630.826 282.085 632.104 281.464C632.189 281.426 632.274 281.389 632.358 281.351C638.655 278.54 644.554 275.907 645.701 268.681L645.817 267.937C645.817 267.937 646.049 267.316 645.584 266.944L645.352 266.82L640.239 263.717C639.89 263.469 639.425 263.717 639.309 264.213L638.961 266.199C638.379 269.922 635.591 271.412 629.896 273.894C629.422 274.111 628.928 274.328 628.42 274.551C627.185 275.094 625.868 275.672 624.551 276.376C612.001 282.954 609.676 290.524 609.676 303.183ZM630.129 317.207C622.808 317.207 617.579 311.871 617.579 304.052C618.16 296.978 624.551 292.634 630.477 292.51C637.334 292.51 642.214 297.598 642.214 304.921C642.214 312.119 637.217 317.207 630.129 317.207Z" fill="#354C7C"/>
<path d="M555.64 282.457C555.64 282.085 555.291 281.713 554.943 281.713C554.943 281.713 543.555 281.837 541.811 281.961C532.98 282.706 531.12 292.262 529.494 300.825L529.145 302.811C528.331 306.782 526.24 317.083 523.567 317.207H520.197L520.313 325.399H523.683C532.515 325.274 534.955 313.236 536.698 304.549L537.047 302.563C538.674 294.372 539.72 290.524 542.509 290.276C543.438 290.152 546.344 290.152 548.203 290.152V324.778C548.203 325.15 548.551 325.523 548.9 325.523H555.059C555.408 325.523 555.756 325.15 555.756 324.778V282.457H555.64Z" fill="#354C7C"/>
<path d="M604.912 281.713L598.056 281.837C597.823 281.837 597.591 282.085 597.475 282.333L586.667 313.112C582.484 312.367 580.857 309.14 578.417 302.439C576.093 296.233 571.909 284.691 571.096 282.209C570.979 281.961 570.747 281.713 570.398 281.713H563.658C563.194 281.713 562.845 282.209 562.961 282.706C563.194 283.45 563.658 284.443 564.007 285.56C565.75 290.4 568.655 298.467 571.212 305.417C573.304 311.126 576.209 318.573 583.878 320.682L582.716 324.033L582.251 325.274C581.089 328.253 578.533 333.217 574.001 333.341C573.768 333.341 573.536 333.341 573.42 333.341L572.025 333.217C571.677 333.217 571.328 333.465 571.328 333.962L571.444 340.54C571.444 340.912 571.677 341.16 572.025 341.284L573.187 341.408C573.536 341.408 573.885 341.408 574.233 341.408C580.741 341.284 586.551 336.072 589.456 327.757L605.377 282.706C605.725 282.209 605.377 281.713 604.912 281.713Z" fill="#354C7C"/>
<path d="M405.188 324.385V297.282L385.897 324.871C385.787 324.993 385.566 325.114 385.346 325.114H380.385C380.054 325.114 379.724 324.749 379.724 324.385V283.063C379.724 282.698 380.054 282.333 380.385 282.333H386.448C386.779 282.333 387.109 282.698 387.109 283.063V310.287L406.511 282.698C406.621 282.576 406.842 282.455 407.062 282.455H412.023C412.354 282.455 412.684 282.819 412.684 283.184V324.628C412.684 324.993 412.354 325.357 412.023 325.357H405.96C405.519 325.114 405.188 324.749 405.188 324.385Z" fill="#354C7C"/>
<defs>
<linearGradient id="paint0_linear" x1="-1320.63" y1="226.436" x2="-1320.06" y2="437.544" gradientUnits="userSpaceOnUse">
<stop offset="0.00510204" stop-color="#82C4CD"/>
<stop offset="1" stop-color="#578796"/>
</linearGradient>
<linearGradient id="paint1_linear" x1="-1341.27" y1="227.223" x2="-1340.71" y2="438.31" gradientUnits="userSpaceOnUse">
<stop offset="0.00510204" stop-color="#82C4CD"/>
<stop offset="1" stop-color="#578796"/>
</linearGradient>
<linearGradient id="paint2_linear" x1="-1304.95" y1="227.971" x2="-1304.36" y2="439.084" gradientUnits="userSpaceOnUse">
<stop offset="0.00510204" stop-color="#82C4CD"/>
<stop offset="1" stop-color="#578796"/>
</linearGradient>
<linearGradient id="paint3_linear" x1="-831.571" y1="223.348" x2="-830.407" y2="434.849" gradientUnits="userSpaceOnUse">
<stop offset="0.00510204" stop-color="#82C4CD"/>
<stop offset="1" stop-color="#578796"/>
</linearGradient>
<linearGradient id="paint4_linear" x1="-296.239" y1="232.848" x2="-292.825" y2="429.773" gradientUnits="userSpaceOnUse">
<stop offset="0.00510204" stop-color="#82C4CD"/>
<stop offset="1" stop-color="#578796"/>
</linearGradient>
<linearGradient id="paint5_linear" x1="-1084.88" y1="224.738" x2="-1084.1" y2="435.986" gradientUnits="userSpaceOnUse">
<stop offset="0.00510204" stop-color="#82C4CD"/>
<stop offset="1" stop-color="#578796"/>
</linearGradient>
<linearGradient id="paint6_linear" x1="-1242.77" y1="225.55" x2="-1242.14" y2="436.698" gradientUnits="userSpaceOnUse">
<stop offset="0.00510204" stop-color="#82C4CD"/>
<stop offset="1" stop-color="#578796"/>
</linearGradient>
<linearGradient id="paint7_linear" x1="-1011.75" y1="235.12" x2="-1011.02" y2="430.163" gradientUnits="userSpaceOnUse">
<stop offset="0.00510204" stop-color="#82C4CD"/>
<stop offset="1" stop-color="#578796"/>
</linearGradient>
<linearGradient id="paint8_linear" x1="-1230.41" y1="228.568" x2="-1229.77" y2="439.718" gradientUnits="userSpaceOnUse">
<stop offset="0.00510204" stop-color="#82C4CD"/>
<stop offset="1" stop-color="#578796"/>
</linearGradient>
<linearGradient id="paint9_linear" x1="233.479" y1="232.534" x2="281.025" y2="429.134" gradientUnits="userSpaceOnUse">
<stop offset="0.00510204" stop-color="#82C4CD"/>
<stop offset="1" stop-color="#578796"/>
</linearGradient>
<linearGradient id="paint10_linear" x1="-424.107" y1="225.174" x2="-421.932" y2="421.245" gradientUnits="userSpaceOnUse">
<stop offset="0.00510204" stop-color="#82C4CD"/>
<stop offset="1" stop-color="#578796"/>
</linearGradient>
<linearGradient id="paint11_linear" x1="-771.914" y1="233.569" x2="-770.85" y2="428.853" gradientUnits="userSpaceOnUse">
<stop offset="0.00510204" stop-color="#82C4CD"/>
<stop offset="1" stop-color="#578796"/>
</linearGradient>
<linearGradient id="paint12_linear" x1="-896.843" y1="234.579" x2="-895.978" y2="429.72" gradientUnits="userSpaceOnUse">
<stop offset="0.00510204" stop-color="#82C4CD"/>
<stop offset="1" stop-color="#578796"/>
</linearGradient>
<linearGradient id="paint13_linear" x1="-641.774" y1="231.88" x2="-640.422" y2="427.359" gradientUnits="userSpaceOnUse">
<stop offset="0.00510204" stop-color="#82C4CD"/>
<stop offset="1" stop-color="#578796"/>
</linearGradient>
<linearGradient id="paint14_linear" x1="-526.131" y1="229.109" x2="-524.413" y2="424.858" gradientUnits="userSpaceOnUse">
<stop offset="0.00510204" stop-color="#82C4CD"/>
<stop offset="1" stop-color="#578796"/>
</linearGradient>
<linearGradient id="paint15_linear" x1="-204.401" y1="213.236" x2="-200.328" y2="410.605" gradientUnits="userSpaceOnUse">
<stop offset="0.00510204" stop-color="#82C4CD"/>
<stop offset="1" stop-color="#578796"/>
</linearGradient>
<linearGradient id="paint16_linear" x1="-204.401" y1="213.236" x2="-200.328" y2="410.605" gradientUnits="userSpaceOnUse">
<stop offset="0.00510204" stop-color="#82C4CD"/>
<stop offset="1" stop-color="#578796"/>
</linearGradient>
<linearGradient id="paint17_linear" x1="-328.613" y1="219.786" x2="-325.826" y2="416.281" gradientUnits="userSpaceOnUse">
<stop offset="0.00510204" stop-color="#82C4CD"/>
<stop offset="1" stop-color="#578796"/>
</linearGradient>
<linearGradient id="paint18_linear" x1="-328.613" y1="219.786" x2="-325.826" y2="416.281" gradientUnits="userSpaceOnUse">
<stop offset="0.00510204" stop-color="#82C4CD"/>
<stop offset="1" stop-color="#578796"/>
</linearGradient>
<linearGradient id="paint19_linear" x1="-591.063" y1="187.494" x2="-589.556" y2="383.094" gradientUnits="userSpaceOnUse">
<stop offset="0.00510204" stop-color="#82C4CD"/>
<stop offset="1" stop-color="#578796"/>
</linearGradient>
<linearGradient id="paint20_linear" x1="-721.324" y1="183.399" x2="-720.168" y2="378.739" gradientUnits="userSpaceOnUse">
<stop offset="0.00510204" stop-color="#82C4CD"/>
<stop offset="1" stop-color="#578796"/>
</linearGradient>
<linearGradient id="paint21_linear" x1="-834.334" y1="180.237" x2="-833.391" y2="375.434" gradientUnits="userSpaceOnUse">
<stop offset="0.00510204" stop-color="#82C4CD"/>
<stop offset="1" stop-color="#578796"/>
</linearGradient>
<linearGradient id="paint22_linear" x1="-1.66255" y1="215.541" x2="9.91539" y2="417.56" gradientUnits="userSpaceOnUse">
<stop offset="0.00510204" stop-color="#82C4CD"/>
<stop offset="1" stop-color="#578796"/>
</linearGradient>
<linearGradient id="paint23_linear" x1="-246.901" y1="200.742" x2="-243.068" y2="397.95" gradientUnits="userSpaceOnUse">
<stop offset="0.00510204" stop-color="#82C4CD"/>
<stop offset="1" stop-color="#578796"/>
</linearGradient>
<linearGradient id="paint24_linear" x1="-432.882" y1="192.969" x2="-430.687" y2="389.053" gradientUnits="userSpaceOnUse">
<stop offset="0.00510204" stop-color="#82C4CD"/>
<stop offset="1" stop-color="#578796"/>
</linearGradient>
<linearGradient id="paint25_linear" x1="-1008.04" y1="175.91" x2="-1007.32" y2="370.941" gradientUnits="userSpaceOnUse">
<stop offset="0.00510204" stop-color="#82C4CD"/>
<stop offset="1" stop-color="#578796"/>
</linearGradient>
<linearGradient id="paint26_linear" x1="-929.887" y1="177.694" x2="-929.082" y2="372.792" gradientUnits="userSpaceOnUse">
<stop offset="0.00510204" stop-color="#82C4CD"/>
<stop offset="1" stop-color="#578796"/>
</linearGradient>
<linearGradient id="paint27_linear" x1="232.508" y1="215.114" x2="276.542" y2="411.096" gradientUnits="userSpaceOnUse">
<stop offset="0.00510204" stop-color="#82C4CD"/>
<stop offset="1" stop-color="#578796"/>
</linearGradient>
<linearGradient id="paint28_linear" x1="-911.964" y1="173.65" x2="-911.154" y2="368.752" gradientUnits="userSpaceOnUse">
<stop offset="0.00510204" stop-color="#82C4CD"/>
<stop offset="1" stop-color="#578796"/>
</linearGradient>
<linearGradient id="paint29_linear" x1="-1115.59" y1="174.025" x2="-1114.98" y2="368.982" gradientUnits="userSpaceOnUse">
<stop offset="0.00510204" stop-color="#82C4CD"/>
<stop offset="1" stop-color="#578796"/>
</linearGradient>
<linearGradient id="paint30_linear" x1="-1072.28" y1="174.696" x2="-1071.63" y2="369.681" gradientUnits="userSpaceOnUse">
<stop offset="0.00510204" stop-color="#82C4CD"/>
<stop offset="1" stop-color="#578796"/>
</linearGradient>
<linearGradient id="paint31_linear" x1="-1260.23" y1="164.262" x2="-1259.64" y2="375.371" gradientUnits="userSpaceOnUse">
<stop offset="0.00510204" stop-color="#82C4CD"/>
<stop offset="1" stop-color="#578796"/>
</linearGradient>
<linearGradient id="paint32_linear" x1="-1189.55" y1="164.739" x2="-1188.9" y2="375.894" gradientUnits="userSpaceOnUse">
<stop offset="0.00510204" stop-color="#82C4CD"/>
<stop offset="1" stop-color="#578796"/>
</linearGradient>
<linearGradient id="paint33_linear" x1="-320.733" y1="177.324" x2="-318.002" y2="373.781" gradientUnits="userSpaceOnUse">
<stop offset="0.00510204" stop-color="#82C4CD"/>
<stop offset="1" stop-color="#578796"/>
</linearGradient>
<linearGradient id="paint34_linear" x1="-320.733" y1="177.324" x2="-318.002" y2="373.781" gradientUnits="userSpaceOnUse">
<stop offset="0.00510204" stop-color="#82C4CD"/>
<stop offset="1" stop-color="#578796"/>
</linearGradient>
<linearGradient id="paint35_linear" x1="-660.101" y1="174.041" x2="-658.857" y2="369.453" gradientUnits="userSpaceOnUse">
<stop offset="0.00510204" stop-color="#82C4CD"/>
<stop offset="1" stop-color="#578796"/>
</linearGradient>
<linearGradient id="paint36_linear" x1="-660.101" y1="174.041" x2="-658.857" y2="369.453" gradientUnits="userSpaceOnUse">
<stop offset="0.00510204" stop-color="#82C4CD"/>
<stop offset="1" stop-color="#578796"/>
</linearGradient>
<linearGradient id="paint37_linear" x1="433.83" y1="253.705" x2="432.7" y2="337.595" gradientUnits="userSpaceOnUse">
<stop stop-color="#EFC098"/>
<stop offset="1" stop-color="#B88860"/>
</linearGradient>
</defs>
</svg>
