<svg width="24" height="24" viewBox="0 0 24 24" fill="none" xmlns="http://www.w3.org/2000/svg">
<path fill-rule="evenodd" clip-rule="evenodd" d="M22 2H18C17.4477 2 17 2.44772 17 3V21C17 21.5523 17.4477 22 18 22H22C22.5523 22 23 21.5523 23 21V3C23 2.44772 22.5523 2 22 2ZM19 4H21V20H19V4ZM10 7H14C14.5523 7 15 7.44772 15 8V21C15 21.5523 14.5523 22 14 22H10C9.44771 22 9 21.5523 9 21V8C9 7.44772 9.44771 7 10 7ZM11 20V9H13V20H11ZM2 12H6C6.55228 12 7 12.4477 7 13V21C7 21.5523 6.55228 22 6 22H2C1.44772 22 1 21.5523 1 21V13C1 12.4477 1.44772 12 2 12ZM5 20H3V14H5V20Z" fill="white"/>
</svg>
