<svg width="24" height="24" viewBox="0 0 24 24" fill="none" xmlns="http://www.w3.org/2000/svg">
<path fill-rule="evenodd" clip-rule="evenodd" d="M1.3022 22.6978C1.04273 22.4383 0.940609 22.0606 1.03399 21.7057L2.85779 14.7753C2.90428 14.5986 2.99683 14.4375 3.126 14.3083L15.5278 1.90653C16.7365 0.697823 18.6962 0.697824 19.9049 1.90653L22.0935 4.09508C23.3022 5.30379 23.3022 7.26349 22.0935 8.47219L9.69166 20.874C9.5625 21.0032 9.40135 21.0957 9.2247 21.1422L2.29428 22.966C1.93942 23.0594 1.56167 22.9573 1.3022 22.6978ZM3.47955 20.5205L6.96251 19.6039L4.39611 17.0375L3.47955 20.5205ZM5.31455 15.0379L8.96214 18.6854L16.9868 10.6607L13.3393 7.01316L5.31455 15.0379ZM14.7983 5.55412L18.4459 9.20171L20.6344 7.01316C21.0373 6.61026 21.0373 5.95702 20.6344 5.55412L18.4459 3.36557C18.043 2.96266 17.3897 2.96266 16.9868 3.36557L14.7983 5.55412Z" fill="white"/>
</svg>
