<svg width="18" height="16" viewBox="0 0 18 16" fill="none" xmlns="http://www.w3.org/2000/svg">
<path fill-rule="evenodd" clip-rule="evenodd" d="M9.03027 2.66647C7.35035 2.66647 5.67843 3.16311 4.2705 4.07971C2.86391 4.99965 1.7373 6.32889 1.06 7.86612L1 7.99944L1.06 8.13277C1.7373 9.67066 2.86524 11.0006 4.27184 11.9192C5.6791 12.8351 7.35035 13.3324 9.03027 13.3324C10.7102 13.3324 12.3821 12.8358 13.79 11.9192C15.1966 11.0006 16.3232 9.67066 17.0012 8.13277L17.0612 7.99944L17.0012 7.86612C16.3232 6.32756 15.1966 4.99765 13.79 4.07971C12.3814 3.16377 10.7102 2.66647 9.03027 2.66647ZM9.03026 3.99972C6.82504 3.99972 5.03046 5.79426 5.03046 7.99944C5.03046 10.2046 6.82504 11.9992 9.03026 11.9992C11.2355 11.9992 13.0301 10.2046 13.0301 7.99944C13.0301 5.79426 11.2355 3.99972 9.03026 3.99972ZM8.69694 5.33296C8.67753 5.33261 8.65813 5.33394 8.63895 5.33696C7.46567 5.50894 6.54105 6.43555 6.36706 7.61214C6.34005 7.79658 6.46739 7.96804 6.65148 7.9951C6.83556 8.02216 7.00669 7.89458 7.03369 7.71013C7.16369 6.82552 7.85365 6.13357 8.73628 6.00358C8.90794 5.97743 9.03148 5.82427 9.02128 5.65026C9.01107 5.47624 8.87048 5.3387 8.69694 5.33296ZM12.3634 7.99944C12.3634 6.1549 10.8748 4.66634 9.03026 4.66634C7.18568 4.66634 5.69709 6.1549 5.69709 7.99944C5.69709 9.84399 7.18568 11.3326 9.03026 11.3326C10.8748 11.3326 12.3634 9.84399 12.3634 7.99944ZM13.4247 4.63967C12.1281 3.79306 10.5782 3.33309 9.03027 3.33309C7.48234 3.33309 5.93242 3.79306 4.63582 4.63967C3.38388 5.45562 2.38393 6.6442 1.75329 7.99944C2.38393 9.35535 3.38388 10.5439 4.63582 11.3592C5.93242 12.2058 7.48234 12.6658 9.03027 12.6658C10.5782 12.6658 12.1281 12.2058 13.4247 11.3592C14.6767 10.5433 15.6766 9.35469 16.3072 7.99944C15.6766 6.64354 14.6767 5.45495 13.4247 4.63967Z" fill="#EBE6F3"/>
<path d="M4.2705 4.07971L4.1341 3.8702L4.13367 3.87048L4.2705 4.07971ZM1.06 7.86612L1.28798 7.96872L1.28878 7.96692L1.06 7.86612ZM1 7.99944L0.77202 7.89685L0.725853 7.99944L0.77202 8.10204L1 7.99944ZM1.06 8.13277L1.2888 8.032L1.28798 8.03018L1.06 8.13277ZM4.27184 11.9192L4.13514 12.1285L4.13546 12.1287L4.27184 11.9192ZM13.79 11.9192L13.9264 12.1287L13.9267 12.1285L13.79 11.9192ZM17.0012 8.13277L16.7732 8.03017L16.7724 8.03192L17.0012 8.13277ZM17.0612 7.99944L17.2892 8.10204L17.3353 7.99944L17.2892 7.89685L17.0612 7.99944ZM17.0012 7.86612L16.7724 7.96693L16.7732 7.96871L17.0012 7.86612ZM13.79 4.07971L13.9267 3.87035L13.9263 3.87012L13.79 4.07971ZM8.63895 5.33696L8.67521 5.58433L8.67774 5.58393L8.63895 5.33696ZM8.69694 5.33296L8.70521 5.08307L8.70147 5.083L8.69694 5.33296ZM6.36706 7.61214L6.11975 7.57556L6.1197 7.57592L6.36706 7.61214ZM6.65148 7.9951L6.61512 8.24244L6.61512 8.24244L6.65148 7.9951ZM7.03369 7.71013L6.78635 7.67378L6.78633 7.67391L7.03369 7.71013ZM8.73628 6.00358L8.7727 6.25091L8.77392 6.25073L8.73628 6.00358ZM9.02128 5.65026L8.77171 5.66489L8.77171 5.6649L9.02128 5.65026ZM13.4247 4.63967L13.288 4.849L13.2883 4.84917L13.4247 4.63967ZM4.63582 4.63967L4.77232 4.84912L4.7725 4.849L4.63582 4.63967ZM1.75329 7.99944L1.52663 7.89397L1.47756 7.99942L1.52661 8.10487L1.75329 7.99944ZM4.63582 11.3592L4.7725 11.1499L4.77224 11.1497L4.63582 11.3592ZM13.4247 11.3592L13.2882 11.1498L13.288 11.1499L13.4247 11.3592ZM16.3072 7.99944L16.5339 8.10492L16.583 7.99947L16.5339 7.89401L16.3072 7.99944ZM4.4069 4.28922C5.77428 3.39902 7.39881 2.91647 9.03027 2.91647V2.41647C7.30189 2.41647 5.58259 2.92719 4.13411 3.8702L4.4069 4.28922ZM1.28878 7.96692C1.94658 6.47394 3.04126 5.18238 4.40734 4.28894L4.13367 3.87048C2.68655 4.81692 1.52802 6.18384 0.831219 7.76532L1.28878 7.96692ZM1.22798 8.10204L1.28798 7.96871L0.832017 7.76353L0.77202 7.89685L1.22798 8.10204ZM1.28798 8.03018L1.22798 7.89685L0.77202 8.10204L0.832017 8.23536L1.28798 8.03018ZM4.40854 11.7099C3.04254 10.8178 1.94657 9.52559 1.28879 8.03201L0.831203 8.23353C1.52802 9.81574 2.68794 11.1834 4.13514 12.1285L4.40854 11.7099ZM9.03027 13.0824C7.39889 13.0824 5.77499 12.5992 4.40821 11.7097L4.13546 12.1287C5.58321 13.071 7.30181 13.5824 9.03027 13.5824V13.0824ZM13.6536 11.7097C12.2863 12.5999 10.6617 13.0824 9.03027 13.0824V13.5824C10.7586 13.5824 12.4779 13.0717 13.9264 12.1287L13.6536 11.7097ZM16.7724 8.03192C16.1139 9.52567 15.0192 10.8178 13.6533 11.7099L13.9267 12.1285C15.374 11.1833 16.5325 9.81566 17.23 8.23361L16.7724 8.03192ZM16.8332 7.89685L16.7732 8.03018L17.2292 8.23536L17.2892 8.10204L16.8332 7.89685ZM16.7732 7.96871L16.8332 8.10204L17.2892 7.89685L17.2292 7.76353L16.7732 7.96871ZM13.6534 4.28907C15.0192 5.18041 16.1139 6.47253 16.7724 7.96693L17.23 7.76531C16.5326 6.18259 15.374 4.81489 13.9267 3.87035L13.6534 4.28907ZM9.03027 2.91647C10.6616 2.91647 12.2856 3.39964 13.6537 4.2893L13.9263 3.87012C12.4773 2.92791 10.7587 2.41647 9.03027 2.41647V2.91647ZM5.28046 7.99944C5.28046 5.93234 6.9631 4.24972 9.03026 4.24972V3.74972C6.68697 3.74972 4.78046 5.65619 4.78046 7.99944H5.28046ZM9.03026 11.7492C6.9631 11.7492 5.28046 10.0666 5.28046 7.99944H4.78046C4.78046 10.3427 6.68697 12.2492 9.03026 12.2492V11.7492ZM12.7801 7.99944C12.7801 10.0666 11.0974 11.7492 9.03026 11.7492V12.2492C11.3736 12.2492 13.2801 10.3427 13.2801 7.99944H12.7801ZM9.03026 4.24972C11.0974 4.24972 12.7801 5.93234 12.7801 7.99944H13.2801C13.2801 5.65619 11.3736 3.74972 9.03026 3.74972V4.24972ZM8.67774 5.58393C8.6826 5.58317 8.68751 5.58283 8.69242 5.58292L8.70147 5.083C8.66756 5.08238 8.63366 5.08472 8.60015 5.08998L8.67774 5.58393ZM6.61437 7.64871C6.77231 6.58065 7.61168 5.74021 8.67521 5.58431L8.60269 5.0896C7.31966 5.27768 6.30979 6.29044 6.11975 7.57556L6.61437 7.64871ZM6.68784 7.74776C6.64074 7.74084 6.60735 7.69668 6.61442 7.64835L6.1197 7.57592C6.07276 7.89649 6.29405 8.19525 6.61512 8.24244L6.68784 7.74776ZM6.78633 7.67391C6.77927 7.72213 6.73483 7.75467 6.68784 7.74776L6.61512 8.24244C6.9363 8.28966 7.2341 8.06703 7.28106 7.74635L6.78633 7.67391ZM8.69985 5.75625C7.70762 5.90238 6.93232 6.68045 6.78635 7.67378L7.28104 7.74648C7.39506 6.97059 7.99969 6.36476 8.7727 6.25091L8.69985 5.75625ZM8.77171 5.6649C8.7744 5.7108 8.74187 5.74984 8.69863 5.75643L8.77392 6.25073C9.07401 6.20502 9.28857 5.93774 9.27085 5.63562L8.77171 5.6649ZM8.68868 5.58282C8.73227 5.58426 8.76902 5.61906 8.77171 5.66489L9.27085 5.63562C9.25313 5.33343 9.00869 5.09314 8.70521 5.08309L8.68868 5.58282ZM9.03026 4.91634C10.7368 4.91634 12.1134 6.29298 12.1134 7.99944H12.6134C12.6134 6.01683 11.0129 4.41634 9.03026 4.41634V4.91634ZM5.94709 7.99944C5.94709 6.29298 7.32375 4.91634 9.03026 4.91634V4.41634C7.04762 4.41634 5.44709 6.01683 5.44709 7.99944H5.94709ZM9.03026 11.0826C7.32375 11.0826 5.94709 9.70591 5.94709 7.99944H5.44709C5.44709 9.98206 7.04762 11.5826 9.03026 11.5826V11.0826ZM12.1134 7.99944C12.1134 9.70591 10.7368 11.0826 9.03026 11.0826V11.5826C11.0129 11.5826 12.6134 9.98206 12.6134 7.99944H12.1134ZM9.03027 3.58309C10.5298 3.58309 12.0322 4.029 13.288 4.849L13.5614 4.43034C12.224 3.55713 10.6266 3.08309 9.03027 3.08309V3.58309ZM4.7725 4.849C6.02835 4.029 7.53076 3.58309 9.03027 3.58309V3.08309C7.43392 3.08309 5.83649 3.55713 4.49914 4.43034L4.7725 4.849ZM1.97996 8.10492C2.59201 6.78961 3.5618 5.63807 4.77232 4.84912L4.49931 4.43023C3.20596 5.27317 2.17585 6.4988 1.52663 7.89397L1.97996 8.10492ZM4.77224 11.1497C3.5618 10.3615 2.59203 9.20998 1.97998 7.89401L1.52661 8.10487C2.17583 9.50073 3.20596 10.7264 4.49939 11.5687L4.77224 11.1497ZM9.03027 12.4158C7.53076 12.4158 6.02835 11.9699 4.7725 11.1499L4.49914 11.5685C5.83649 12.4418 7.43392 12.9158 9.03027 12.9158V12.4158ZM13.288 11.1499C12.0322 11.9699 10.5298 12.4158 9.03027 12.4158V12.9158C10.6266 12.9158 12.224 12.4418 13.5614 11.5685L13.288 11.1499ZM16.0806 7.89397C15.4685 9.20928 14.4987 10.3608 13.2882 11.1498L13.5612 11.5687C14.8546 10.7257 15.8847 9.50009 16.5339 8.10492L16.0806 7.89397ZM13.2883 4.84917C14.4987 5.63742 15.4685 6.78891 16.0806 8.10487L16.5339 7.89401C15.8847 6.49816 14.8546 5.27248 13.5611 4.43018L13.2883 4.84917Z" fill="#EBE6F3"/>
</svg>
