<svg width="16" height="16" viewBox="0 0 16 16" fill="none" xmlns="http://www.w3.org/2000/svg">
<path fill-rule="evenodd" clip-rule="evenodd" d="M13.0991 5.33337C13.6859 5.32672 14.2459 5.57809 14.631 6.02088C15.016 6.46367 15.1872 7.05322 15.099 7.63436L14.1791 13.6333C14.0296 14.6194 13.1764 15.3446 12.1867 15.3333H4.66666H2.66666C1.56209 15.3333 0.666656 14.4379 0.666656 13.3333V8.66666C0.666656 7.56209 1.56209 6.66666 2.66666 6.66666H4.23341L6.72412 1.06256C6.83112 0.821812 7.06986 0.666656 7.33332 0.666656C8.80608 0.666656 9.99999 1.86056 9.99999 3.33332V5.33333L13.0991 5.33337ZM5.33332 7.4748V14L12.1942 14C12.5266 14.0038 12.811 13.7621 12.861 13.4323L13.7809 7.43328C13.8102 7.23989 13.7532 7.04338 13.6248 6.89578C13.4965 6.74818 13.3098 6.66439 13.1067 6.66665H9.33332C8.96513 6.66665 8.66666 6.36818 8.66666 5.99999V3.33332C8.66666 2.73828 8.27686 2.23427 7.73869 2.06272L5.33332 7.4748ZM3.99999 7.99999H2.66666C2.29847 7.99999 1.99999 8.29847 1.99999 8.66666V13.3333C1.99999 13.7015 2.29847 14 2.66666 14H3.99999V7.99999Z" fill="#EBE6F3"/>
</svg>
