<svg width="24" height="24" viewBox="0 0 24 24" fill="none" xmlns="http://www.w3.org/2000/svg">
<path fill-rule="evenodd" clip-rule="evenodd" d="M6.97014 9.35553C7.33127 6.85539 9.47392 5 12 5C14.5261 5 16.6687 6.85539 17.0299 9.35553L17.8452 15H6.15483L6.97014 9.35553ZM12 3C8.4798 3 5.49394 5.58556 4.99069 9.06961L4.01028 15.857C3.9688 16.1442 4.0541 16.4353 4.24404 16.6546C4.43399 16.874 4.70984 17 5.00001 17H19C19.2902 17 19.566 16.874 19.756 16.6546C19.9459 16.4353 20.0312 16.1442 19.9897 15.857L19.0093 9.06961C18.5061 5.58556 15.5202 3 12 3ZM10 19C9.44772 19 9.00001 19.4477 9.00001 20C9.00001 20.5523 9.44772 21 10 21H14C14.5523 21 15 20.5523 15 20C15 19.4477 14.5523 19 14 19H10Z" fill="black"/>
</svg>
