<svg width="24" height="24" viewBox="0 0 24 24" fill="none" xmlns="http://www.w3.org/2000/svg">
<path fill-rule="evenodd" clip-rule="evenodd" d="M13.3351 0.313408L21.3351 4.31341C22.3546 4.82 22.9995 5.85999 23.0001 6.99894V16.5295C22.9995 17.6679 22.3546 18.7079 21.3373 19.2134L13.3376 23.2132C12.4925 23.6361 11.4976 23.6361 10.6529 23.2134L2.6501 19.212C1.63159 18.6988 0.99216 17.6524 1.00007 16.5189L1.00007 6.99841C1.00068 5.85999 1.64559 4.82 2.66286 4.31451L6.469 2.41144C6.52311 2.37761 6.58021 2.3491 6.63943 2.32623L10.6651 0.313408C11.506 -0.104469 12.4941 -0.104469 13.3351 0.313408ZM7.00507 4.37947L4.24114 5.76144L12.0001 9.64091L14.764 8.25894L7.00507 4.37947ZM17.0001 7.1409L9.24114 3.26144L11.5573 2.10337C11.8351 1.96533 12.164 1.96518 12.4442 2.10401L19.759 5.76144L17.0001 7.1409ZM17.4383 9.15788C17.4448 9.15471 17.4512 9.15147 17.4577 9.14816L21.0001 7.37697L21.0001 16.5289C20.9999 16.9079 20.7849 17.2545 20.4451 17.4234L13.0001 21.1459V11.377L17.4383 9.15788ZM3.00007 7.37697L11.0001 11.377V21.1509L3.54729 17.4245C3.21054 17.2548 2.9974 16.9061 3.00005 16.5259L3.00007 7.37697Z" fill="black"/>
</svg>
