<svg width="24" height="24" viewBox="0 0 24 24" fill="none" xmlns="http://www.w3.org/2000/svg">
<path fill-rule="evenodd" clip-rule="evenodd" d="M2 1C1.44772 1 1 1.44772 1 2V10C1 10.5523 1.44772 11 2 11H10C10.5523 11 11 10.5523 11 10V2C11 1.44772 10.5523 1 10 1H2ZM3 9V3H9V9H3ZM2 13C1.44772 13 1 13.4477 1 14V22C1 22.5523 1.44772 23 2 23H10C10.5523 23 11 22.5523 11 22V14C11 13.4477 10.5523 13 10 13H2ZM3 21V15H9V21H3ZM13 2C13 1.44772 13.4477 1 14 1H22C22.5523 1 23 1.44772 23 2V10C23 10.5523 22.5523 11 22 11H14C13.4477 11 13 10.5523 13 10V2ZM15 3V9H21V3H15ZM14 13C13.4477 13 13 13.4477 13 14V22C13 22.5523 13.4477 23 14 23H22C22.5523 23 23 22.5523 23 22V14C23 13.4477 22.5523 13 22 13H14ZM15 21V15H21V21H15Z" fill="white"/>
</svg>
