<svg width="36" height="36" viewBox="0 0 36 36" fill="none" xmlns="http://www.w3.org/2000/svg">
<path d="M3 5.25C3 4.00736 4.00736 3 5.25 3H14.25C15.4926 3 16.5 4.00736 16.5 5.25V14.25C16.5 15.4926 15.4926 16.5 14.25 16.5H5.25C4.00736 16.5 3 15.4926 3 14.25V5.25Z" fill="white"/>
<path opacity="0.75" d="M19.5 5.25C19.5 4.00736 20.5074 3 21.75 3H30.75C31.9926 3 33 4.00736 33 5.25V14.25C33 15.4926 31.9926 16.5 30.75 16.5H21.75C20.5074 16.5 19.5 15.4926 19.5 14.25V5.25Z" fill="white"/>
<path opacity="0.5" d="M3 21.75C3 20.5074 4.00736 19.5 5.25 19.5H14.25C15.4926 19.5 16.5 20.5074 16.5 21.75V30.75C16.5 31.9926 15.4926 33 14.25 33H5.25C4.00736 33 3 31.9926 3 30.75V21.75Z" fill="white"/>
<path opacity="0.25" d="M19.5 21.75C19.5 20.5074 20.5074 19.5 21.75 19.5H30.75C31.9926 19.5 33 20.5074 33 21.75V30.75C33 31.9926 31.9926 33 30.75 33H21.75C20.5074 33 19.5 31.9926 19.5 30.75V21.75Z" fill="white"/>
</svg>
